<svg xmlns="http://www.w3.org/2000/svg" xmlns:xlink="http://www.w3.org/1999/xlink" width="80" zoomAndPan="magnify" viewBox="0 0 60 60" height="80" preserveAspectRatio="xMidYMid meet" version="1.0"><defs><clipPath id="97c1439c64"><path d="M 13 41 L 32 41 L 32 50.386719 L 13 50.386719 Z M 13 41 " clip-rule="nonzero"/></clipPath><clipPath id="d44f242386"><path d="M 16 9.886719 L 36 9.886719 L 36 17 L 16 17 Z M 16 9.886719 " clip-rule="nonzero"/></clipPath><clipPath id="c7a03d701b"><path d="M 38 14 L 50.433594 14 L 50.433594 31 L 38 31 Z M 38 14 " clip-rule="nonzero"/></clipPath><clipPath id="8b3fd3967f"><path d="M 18.371094 19.464844 L 40 19.464844 L 40 41.214844 L 18.371094 41.214844 Z M 18.371094 19.464844 " clip-rule="nonzero"/></clipPath></defs><path fill="#c3cfa2" d="M 48.015625 34.714844 C 47.8125 34.667969 47.617188 34.792969 47.570312 34.988281 C 46.828125 38.101562 45.359375 40.921875 43.316406 43.15625 C 42.292969 44.363281 41.035156 45.339844 39.847656 46.199219 L 38.355469 47.105469 L 36.777344 47.871094 C 36.722656 47.894531 36.664062 47.910156 36.609375 47.933594 C 36.617188 47.925781 36.625 47.917969 36.632812 47.917969 C 36.800781 47.792969 36.964844 47.652344 37.121094 47.519531 C 37.183594 47.464844 37.246094 47.410156 37.316406 47.355469 L 37.355469 47.316406 C 37.777344 46.933594 38.214844 46.527344 38.417969 45.941406 C 38.488281 45.746094 38.378906 45.535156 38.191406 45.472656 C 37.996094 45.410156 37.785156 45.511719 37.722656 45.707031 C 37.582031 46.113281 37.246094 46.417969 36.839844 46.792969 C 36.769531 46.847656 36.707031 46.910156 36.640625 46.972656 C 36.5 47.097656 36.359375 47.222656 36.210938 47.324219 C 36.015625 47.464844 35.757812 47.652344 35.523438 47.871094 C 35.289062 48.089844 35.203125 48.425781 35.3125 48.730469 C 35.421875 49.035156 35.6875 49.238281 36.015625 49.261719 C 36.164062 49.269531 36.328125 49.277344 36.507812 49.277344 C 36.640625 49.277344 36.785156 49.277344 36.949219 49.269531 C 37.175781 49.269531 37.386719 49.238281 37.597656 49.207031 C 37.699219 49.191406 37.808594 49.175781 37.925781 49.160156 C 38.425781 49.089844 39.011719 49.050781 39.667969 49.042969 C 39.871094 49.042969 40.035156 48.871094 40.035156 48.667969 C 40.035156 48.464844 39.871094 48.300781 39.660156 48.300781 C 38.972656 48.300781 38.355469 48.347656 37.832031 48.425781 C 37.714844 48.441406 37.605469 48.457031 37.488281 48.472656 C 37.402344 48.488281 37.308594 48.496094 37.222656 48.511719 L 38.730469 47.785156 L 40.277344 46.847656 C 41.519531 45.949219 42.824219 44.933594 43.882812 43.679688 C 46.007812 41.359375 47.539062 38.421875 48.304688 35.191406 C 48.335938 34.964844 48.21875 34.761719 48.015625 34.714844 Z M 48.015625 34.714844 " fill-opacity="1" fill-rule="nonzero"/><g clip-path="url(#97c1439c64)"><path fill="#c3cfa2" d="M 31.046875 49.292969 C 27.847656 49.535156 24.699219 49.011719 21.96875 47.785156 C 19.335938 46.589844 17.0625 44.894531 15.347656 42.859375 L 16.113281 43.351562 C 16.65625 43.71875 17.234375 43.929688 17.789062 43.96875 C 17.992188 43.976562 18.171875 43.828125 18.1875 43.625 C 18.203125 43.421875 18.046875 43.242188 17.84375 43.226562 C 17.421875 43.195312 16.960938 43.03125 16.527344 42.726562 L 15.089844 41.804688 C 14.816406 41.640625 14.480469 41.664062 14.214844 41.851562 C 13.949219 42.046875 13.832031 42.375 13.902344 42.671875 C 14.003906 43.164062 14.214844 43.625 14.417969 44.070312 C 14.472656 44.195312 14.535156 44.324219 14.597656 44.464844 C 14.660156 44.597656 14.722656 44.746094 14.777344 44.878906 C 14.839844 45.027344 14.902344 45.175781 14.964844 45.308594 C 15.089844 45.589844 15.183594 45.832031 15.246094 46.058594 C 15.292969 46.222656 15.441406 46.332031 15.605469 46.332031 C 15.636719 46.332031 15.667969 46.324219 15.699219 46.316406 C 15.894531 46.261719 16.011719 46.058594 15.964844 45.863281 C 15.894531 45.597656 15.785156 45.308594 15.636719 44.996094 C 15.574219 44.871094 15.519531 44.730469 15.464844 44.597656 C 15.402344 44.449219 15.339844 44.292969 15.277344 44.164062 C 15.222656 44.03125 15.160156 43.898438 15.097656 43.765625 C 15.074219 43.71875 15.058594 43.671875 15.035156 43.625 C 16.789062 45.613281 19.054688 47.277344 21.671875 48.464844 C 24.066406 49.542969 26.761719 50.097656 29.535156 50.097656 C 30.054688 50.097656 30.585938 50.074219 31.109375 50.035156 C 31.3125 50.019531 31.46875 49.839844 31.453125 49.636719 C 31.429688 49.433594 31.257812 49.285156 31.046875 49.292969 Z M 31.046875 49.292969 " fill-opacity="1" fill-rule="nonzero"/></g><path fill="#c3cfa2" d="M 14.027344 23.574219 C 13.941406 23.175781 13.957031 22.683594 14.082031 22.152344 C 14.121094 22.019531 14.160156 21.886719 14.199219 21.746094 C 14.316406 21.332031 14.449219 20.902344 14.519531 20.496094 C 14.597656 20.199219 14.480469 19.878906 14.230469 19.683594 C 13.964844 19.488281 13.613281 19.464844 13.308594 19.644531 C 12.917969 19.910156 12.527344 20.246094 12.152344 20.574219 L 11.847656 20.839844 C 11.746094 20.933594 11.644531 21.027344 11.542969 21.121094 C 11.207031 21.441406 10.878906 21.738281 10.535156 21.949219 C 10.363281 22.058594 10.308594 22.285156 10.410156 22.457031 C 10.519531 22.628906 10.746094 22.683594 10.917969 22.582031 C 11.324219 22.332031 11.691406 21.988281 12.042969 21.660156 C 12.144531 21.566406 12.238281 21.472656 12.332031 21.394531 L 12.636719 21.136719 C 12.691406 21.089844 12.738281 21.050781 12.792969 21.003906 C 11.417969 23.371094 10.535156 26.039062 10.230469 28.8125 C 9.933594 32.027344 10.425781 35.308594 11.652344 38.273438 C 11.714844 38.414062 11.847656 38.5 11.996094 38.5 C 12.042969 38.5 12.089844 38.492188 12.136719 38.46875 C 12.324219 38.390625 12.417969 38.171875 12.339844 37.984375 C 11.160156 35.121094 10.691406 31.972656 10.972656 28.875 C 11.277344 26.078125 12.191406 23.394531 13.628906 21.042969 C 13.582031 21.207031 13.542969 21.363281 13.496094 21.519531 C 13.457031 21.660156 13.417969 21.792969 13.371094 21.949219 C 13.214844 22.605469 13.199219 23.199219 13.308594 23.714844 C 13.347656 23.886719 13.503906 24.003906 13.667969 24.003906 C 13.691406 24.003906 13.722656 24.003906 13.746094 23.996094 C 13.941406 23.972656 14.066406 23.777344 14.027344 23.574219 Z M 14.027344 23.574219 " fill-opacity="1" fill-rule="nonzero"/><g clip-path="url(#d44f242386)"><path fill="#c3cfa2" d="M 35.039062 11.96875 C 34.570312 11.609375 34.007812 11.242188 33.445312 10.929688 C 32.851562 10.628906 32.375 10.355469 31.992188 10.027344 C 31.835938 9.894531 31.601562 9.910156 31.46875 10.066406 C 31.335938 10.222656 31.351562 10.457031 31.507812 10.589844 C 31.945312 10.960938 32.460938 11.257812 33.09375 11.578125 C 33.273438 11.679688 33.453125 11.78125 33.625 11.890625 C 30.875 11.296875 28.050781 11.28125 25.363281 11.859375 L 24.207031 12.15625 C 24.144531 12.171875 24.082031 12.1875 24.019531 12.203125 C 23.878906 12.234375 23.746094 12.273438 23.613281 12.320312 L 21.914062 12.945312 L 20.289062 13.726562 C 20.171875 13.789062 20.054688 13.859375 19.945312 13.929688 L 18.742188 14.664062 C 18.523438 14.8125 18.320312 14.96875 18.109375 15.125 C 18 15.210938 17.882812 15.296875 17.773438 15.375 L 17.664062 15.453125 C 17.375 15.664062 17.078125 15.882812 16.8125 16.148438 C 16.664062 16.289062 16.664062 16.53125 16.8125 16.671875 C 16.882812 16.742188 16.984375 16.78125 17.078125 16.78125 C 17.171875 16.78125 17.265625 16.742188 17.335938 16.671875 C 17.570312 16.445312 17.828125 16.25 18.109375 16.039062 L 18.21875 15.960938 C 18.335938 15.875 18.445312 15.789062 18.5625 15.703125 C 18.757812 15.554688 18.960938 15.40625 19.148438 15.273438 L 20.34375 14.546875 C 20.445312 14.484375 20.554688 14.421875 20.640625 14.367188 L 22.210938 13.609375 L 23.878906 13 C 23.988281 12.960938 24.097656 12.9375 24.207031 12.90625 C 24.277344 12.890625 24.347656 12.867188 24.410156 12.851562 L 25.542969 12.5625 C 28.207031 11.992188 31.03125 12.03125 33.773438 12.664062 C 33.726562 12.664062 33.6875 12.664062 33.648438 12.664062 C 33.390625 12.664062 33.125 12.671875 32.859375 12.703125 C 32.289062 12.773438 31.6875 12.882812 31.179688 13.179688 C 31 13.28125 30.945312 13.507812 31.046875 13.6875 C 31.117188 13.804688 31.242188 13.867188 31.367188 13.867188 C 31.429688 13.867188 31.492188 13.851562 31.554688 13.8125 C 31.945312 13.585938 32.453125 13.492188 32.9375 13.4375 C 33.179688 13.414062 33.414062 13.414062 33.65625 13.40625 C 33.976562 13.398438 34.3125 13.398438 34.640625 13.34375 C 34.960938 13.296875 35.226562 13.070312 35.3125 12.75 C 35.398438 12.484375 35.296875 12.171875 35.039062 11.96875 Z M 35.039062 11.96875 " fill-opacity="1" fill-rule="nonzero"/></g><g clip-path="url(#c7a03d701b)"><path fill="#c3cfa2" d="M 49.789062 26.28125 C 49.601562 26.203125 49.382812 26.289062 49.304688 26.476562 C 49.085938 27 48.953125 27.585938 48.828125 28.3125 C 48.804688 28.484375 48.757812 28.679688 48.710938 28.890625 C 48.140625 22.910156 44.617188 17.265625 39.457031 14.226562 C 39.277344 14.125 39.050781 14.179688 38.949219 14.359375 C 38.847656 14.539062 38.902344 14.765625 39.082031 14.867188 C 44.125 17.839844 47.546875 23.425781 47.992188 29.296875 C 47.984375 29.28125 47.984375 29.273438 47.976562 29.257812 C 47.882812 28.96875 47.789062 28.679688 47.65625 28.421875 C 47.429688 27.921875 47.148438 27.359375 46.695312 26.960938 C 46.539062 26.828125 46.304688 26.84375 46.171875 26.992188 C 46.039062 27.148438 46.054688 27.382812 46.203125 27.515625 C 46.546875 27.8125 46.78125 28.296875 46.984375 28.734375 C 47.09375 28.960938 47.179688 29.203125 47.265625 29.484375 C 47.375 29.820312 47.476562 30.078125 47.585938 30.3125 C 47.71875 30.59375 48 30.773438 48.320312 30.773438 C 48.328125 30.773438 48.34375 30.773438 48.351562 30.773438 C 48.671875 30.757812 48.945312 30.570312 49.0625 30.265625 C 49.15625 30.015625 49.25 29.734375 49.34375 29.382812 C 49.453125 29.007812 49.523438 28.703125 49.5625 28.429688 C 49.679688 27.765625 49.796875 27.226562 49.992188 26.765625 C 50.058594 26.578125 49.976562 26.359375 49.789062 26.28125 Z M 49.789062 26.28125 " fill-opacity="1" fill-rule="nonzero"/></g><g clip-path="url(#8b3fd3967f)"><path fill="#c3cfa2" d="M 39.726562 26.671875 L 37.167969 22.808594 C 36.074219 21.375 35.320312 21.085938 35.296875 21.078125 L 33.597656 20.378906 C 33.5625 20.324219 33.511719 20.28125 33.445312 20.265625 C 33.40625 20.257812 33.367188 20.257812 33.332031 20.269531 L 31.847656 19.660156 C 31.84375 19.660156 31.839844 19.660156 31.839844 19.660156 C 31.835938 19.65625 31.832031 19.65625 31.828125 19.652344 C 31.796875 19.644531 31.761719 19.640625 31.730469 19.644531 C 31.722656 19.644531 31.71875 19.648438 31.710938 19.648438 C 31.679688 19.65625 31.652344 19.664062 31.628906 19.679688 C 31.621094 19.683594 31.617188 19.683594 31.613281 19.6875 C 30.652344 20.371094 29.441406 20.40625 29.210938 20.40625 L 28.945312 20.40625 C 28.714844 20.40625 27.503906 20.371094 26.542969 19.6875 C 26.539062 19.683594 26.53125 19.683594 26.527344 19.679688 C 26.5 19.664062 26.472656 19.652344 26.445312 19.648438 C 26.4375 19.648438 26.429688 19.644531 26.425781 19.644531 C 26.390625 19.640625 26.359375 19.644531 26.324219 19.652344 C 26.324219 19.652344 26.320312 19.65625 26.316406 19.65625 C 26.3125 19.660156 26.3125 19.65625 26.308594 19.660156 L 24.824219 20.269531 C 24.789062 20.257812 24.75 20.253906 24.710938 20.265625 C 24.644531 20.28125 24.589844 20.324219 24.558594 20.378906 L 22.867188 21.074219 C 22.847656 21.082031 22.5 21.222656 21.945312 21.738281 C 21.929688 21.75 21.914062 21.761719 21.90625 21.773438 C 21.636719 22.03125 21.328125 22.359375 20.976562 22.820312 L 18.425781 26.671875 C 18.359375 26.773438 18.378906 26.910156 18.472656 26.988281 L 21.78125 29.777344 C 21.878906 29.859375 22.023438 29.851562 22.113281 29.757812 L 22.851562 28.972656 C 22.902344 30.332031 23.015625 34.128906 23.015625 40.667969 C 23.015625 40.792969 23.109375 40.894531 23.230469 40.910156 C 23.253906 40.914062 25.875 41.222656 28.488281 41.222656 C 28.667969 41.222656 28.84375 41.222656 29.015625 41.21875 L 29.136719 41.21875 C 29.3125 41.222656 29.488281 41.222656 29.664062 41.222656 C 32.277344 41.222656 34.898438 40.910156 34.925781 40.910156 C 35.046875 40.894531 35.136719 40.792969 35.136719 40.667969 C 35.136719 34.128906 35.253906 30.332031 35.304688 28.972656 L 36.042969 29.757812 C 36.128906 29.851562 36.277344 29.859375 36.375 29.777344 L 39.683594 26.988281 C 39.777344 26.910156 39.796875 26.773438 39.726562 26.671875 Z M 26.265625 20.199219 C 26.523438 20.785156 27.324219 22.230469 28.945312 22.230469 C 28.96875 22.230469 28.992188 22.230469 29.015625 22.230469 L 29.136719 22.230469 C 30.804688 22.269531 31.625 20.792969 31.886719 20.199219 L 33.078125 20.6875 C 32.828125 21.390625 31.875 23.414062 29.164062 23.414062 C 29.164062 23.414062 29.160156 23.414062 29.160156 23.414062 L 28.992188 23.414062 C 28.992188 23.414062 28.988281 23.414062 28.988281 23.414062 C 26.246094 23.414062 25.316406 21.398438 25.074219 20.6875 Z M 29.128906 20.890625 L 29.210938 20.890625 C 29.496094 20.890625 30.347656 20.847656 31.210938 20.464844 C 30.867188 21.035156 30.210938 21.769531 29.140625 21.746094 L 29.007812 21.746094 C 27.929688 21.761719 27.28125 21.03125 26.9375 20.460938 C 27.804688 20.847656 28.660156 20.890625 28.945312 20.890625 Z M 21.917969 29.257812 L 18.949219 26.757812 L 21.371094 23.101562 C 21.613281 22.785156 21.832031 22.53125 22.03125 22.328125 C 22.320312 22.996094 22.957031 24.882812 22.828125 28.289062 Z M 29.664062 40.738281 C 29.492188 40.738281 29.316406 40.738281 29.140625 40.734375 L 29.011719 40.734375 C 26.6875 40.773438 24.226562 40.53125 23.5 40.453125 C 23.496094 32.3125 23.316406 28.488281 23.3125 28.382812 C 23.46875 24.527344 22.683594 22.546875 22.402344 21.972656 C 22.796875 21.628906 23.035156 21.527344 23.042969 21.523438 L 24.628906 20.871094 C 24.933594 21.707031 26.019531 23.898438 28.988281 23.898438 C 28.988281 23.898438 28.992188 23.898438 28.992188 23.898438 L 29.160156 23.898438 C 29.160156 23.898438 29.164062 23.898438 29.164062 23.898438 C 32.132812 23.898438 33.21875 21.707031 33.523438 20.871094 L 35.117188 21.527344 C 35.121094 21.527344 35.359375 21.628906 35.75 21.972656 C 35.472656 22.542969 34.683594 24.527344 34.84375 28.390625 C 34.835938 28.554688 34.65625 32.378906 34.652344 40.453125 C 33.980469 40.527344 31.820312 40.738281 29.664062 40.738281 Z M 36.238281 29.257812 L 35.324219 28.289062 C 35.195312 24.882812 35.832031 22.996094 36.121094 22.324219 C 36.316406 22.527344 36.535156 22.777344 36.773438 23.085938 L 39.203125 26.757812 Z M 36.238281 29.257812 " fill-opacity="1" fill-rule="nonzero"/></g></svg>