<svg xmlns="http://www.w3.org/2000/svg" xmlns:xlink="http://www.w3.org/1999/xlink" width="80" zoomAndPan="magnify" viewBox="0 0 60 60" height="80" preserveAspectRatio="xMidYMid meet" version="1.0"><defs><clipPath id="cb060407c3"><path d="M 21.4375 17 L 38.6875 17 L 38.6875 50.859375 L 21.4375 50.859375 Z M 21.4375 17 " clip-rule="nonzero"/></clipPath><clipPath id="30b13e9aad"><path d="M 25 8.859375 L 35 8.859375 L 35 19 L 25 19 Z M 25 8.859375 " clip-rule="nonzero"/></clipPath><clipPath id="74595733e8"><path d="M 21.4375 42 L 38.6875 42 L 38.6875 47 L 21.4375 47 Z M 21.4375 42 " clip-rule="nonzero"/></clipPath><clipPath id="a4eed897cb"><path d="M 21.4375 21 L 38.6875 21 L 38.6875 29 L 21.4375 29 Z M 21.4375 21 " clip-rule="nonzero"/></clipPath></defs><g clip-path="url(#cb060407c3)"><path fill="#c3cfa2" d="M 25.554688 18.6875 C 23.839844 18.6875 22.449219 20.082031 22.449219 21.792969 L 22.449219 47.082031 C 22.449219 48.796875 23.839844 50.1875 25.554688 50.1875 L 34.46875 50.1875 C 36.183594 50.1875 37.574219 48.796875 37.574219 47.082031 L 37.574219 21.792969 C 37.574219 20.082031 36.183594 18.6875 34.46875 18.6875 Z M 34.46875 51.113281 L 25.554688 51.113281 C 23.332031 51.113281 21.527344 49.304688 21.527344 47.082031 L 21.527344 21.792969 C 21.527344 19.570312 23.332031 17.765625 25.554688 17.765625 L 34.46875 17.765625 C 36.691406 17.765625 38.5 19.570312 38.5 21.792969 L 38.5 47.082031 C 38.5 49.304688 36.691406 51.113281 34.46875 51.113281 Z M 34.46875 51.113281 " fill-opacity="1" fill-rule="evenodd"/></g><g clip-path="url(#30b13e9aad)"><path fill="#c3cfa2" d="M 34.46875 18.6875 C 34.214844 18.6875 34.007812 18.480469 34.007812 18.226562 L 34.007812 11.09375 C 34.007812 10.363281 33.417969 9.769531 32.6875 9.769531 L 27.335938 9.769531 C 26.609375 9.769531 26.015625 10.363281 26.015625 11.09375 L 26.015625 18.226562 C 26.015625 18.480469 25.808594 18.6875 25.554688 18.6875 C 25.300781 18.6875 25.09375 18.480469 25.09375 18.226562 L 25.09375 11.09375 C 25.09375 9.855469 26.097656 8.847656 27.335938 8.847656 L 32.6875 8.847656 C 33.925781 8.847656 34.933594 9.855469 34.933594 11.09375 L 34.933594 18.226562 C 34.933594 18.480469 34.726562 18.6875 34.46875 18.6875 Z M 34.46875 18.6875 " fill-opacity="1" fill-rule="evenodd"/></g><path fill="#c3cfa2" d="M 28.660156 29.195312 C 28.652344 29.195312 28.644531 29.195312 28.636719 29.195312 C 28.0625 29.199219 27.53125 29.429688 27.128906 29.835938 C 26.304688 30.679688 26.320312 32.035156 27.164062 32.863281 C 28.003906 33.6875 29.363281 33.671875 30.1875 32.828125 C 31.011719 31.984375 30.996094 30.628906 30.15625 29.804688 C 29.75 29.410156 29.222656 29.195312 28.660156 29.195312 Z M 28.660156 34.394531 C 27.886719 34.394531 27.113281 34.101562 26.515625 33.519531 C 25.3125 32.339844 25.289062 30.398438 26.46875 29.191406 C 27.042969 28.609375 27.808594 28.28125 28.625 28.273438 C 29.445312 28.261719 30.214844 28.574219 30.800781 29.144531 C 32.007812 30.324219 32.027344 32.269531 30.847656 33.472656 C 30.246094 34.085938 29.453125 34.394531 28.660156 34.394531 Z M 28.660156 34.394531 " fill-opacity="1" fill-rule="evenodd"/><path fill="#c3cfa2" d="M 32.210938 36.046875 C 31.878906 36.046875 31.542969 36.175781 31.289062 36.433594 C 30.792969 36.941406 30.800781 37.761719 31.308594 38.261719 C 31.554688 38.5 31.882812 38.632812 32.226562 38.628906 C 32.570312 38.625 32.894531 38.488281 33.136719 38.242188 C 33.378906 37.992188 33.507812 37.667969 33.503906 37.324219 C 33.5 36.976562 33.363281 36.65625 33.117188 36.414062 C 32.863281 36.167969 32.539062 36.046875 32.210938 36.046875 Z M 32.210938 39.550781 C 31.628906 39.550781 31.082031 39.328125 30.664062 38.921875 C 29.789062 38.066406 29.777344 36.660156 30.628906 35.789062 C 31.484375 34.914062 32.886719 34.898438 33.761719 35.753906 C 34.632812 36.609375 34.648438 38.011719 33.796875 38.886719 C 33.382812 39.308594 32.828125 39.546875 32.238281 39.550781 C 32.226562 39.550781 32.21875 39.550781 32.210938 39.550781 Z M 32.210938 39.550781 " fill-opacity="1" fill-rule="evenodd"/><g clip-path="url(#74595733e8)"><path fill="#c3cfa2" d="M 38.035156 46.492188 C 37.84375 46.492188 37.660156 46.367188 37.597656 46.171875 C 37.148438 44.789062 36.386719 43.753906 35.558594 43.40625 C 35.046875 43.1875 34.511719 43.226562 33.921875 43.519531 C 32.828125 44.058594 30.699219 44.824219 28.753906 43.847656 C 26.410156 42.675781 22.265625 45.105469 22.222656 45.128906 C 22.003906 45.257812 21.71875 45.1875 21.589844 44.96875 C 21.460938 44.75 21.53125 44.464844 21.753906 44.335938 C 21.941406 44.226562 26.378906 41.628906 29.164062 43.023438 C 30.757812 43.820312 32.570312 43.15625 33.511719 42.691406 C 34.34375 42.277344 35.152344 42.234375 35.917969 42.554688 C 37.460938 43.203125 38.21875 45.101562 38.476562 45.886719 C 38.554688 46.128906 38.421875 46.390625 38.179688 46.46875 C 38.132812 46.484375 38.085938 46.492188 38.035156 46.492188 Z M 38.035156 46.492188 " fill-opacity="1" fill-rule="evenodd"/></g><g clip-path="url(#a4eed897cb)"><path fill="#c3cfa2" d="M 24.3125 28.585938 C 23.691406 28.585938 23.0625 28.363281 22.515625 28.171875 C 22.285156 28.089844 22.066406 28.015625 21.859375 27.957031 C 21.617188 27.886719 21.472656 27.632812 21.542969 27.386719 C 21.613281 27.140625 21.867188 27 22.113281 27.070312 C 22.347656 27.136719 22.585938 27.21875 22.820312 27.300781 C 23.8125 27.648438 24.503906 27.84375 25.03125 27.429688 C 25.394531 27.144531 25.703125 26.625 26.03125 26.074219 C 26.167969 25.839844 26.3125 25.597656 26.464844 25.363281 C 27.296875 24.109375 27.972656 23.300781 28.777344 23.140625 C 29.582031 22.984375 30.296875 23.46875 31.378906 24.207031 C 31.675781 24.40625 32.007812 24.632812 32.378906 24.871094 C 33.097656 25.332031 33.777344 25.453125 34.460938 25.234375 C 36.367188 24.632812 37.597656 21.648438 37.609375 21.621094 C 37.707031 21.382812 37.976562 21.269531 38.210938 21.367188 C 38.445312 21.460938 38.558594 21.730469 38.464844 21.96875 C 38.40625 22.105469 37.054688 25.382812 34.742188 26.117188 C 33.792969 26.414062 32.832031 26.257812 31.878906 25.648438 C 31.5 25.402344 31.160156 25.171875 30.863281 24.96875 C 29.96875 24.363281 29.382812 23.964844 28.957031 24.046875 C 28.542969 24.128906 28.027344 24.675781 27.234375 25.875 C 27.09375 26.085938 26.957031 26.320312 26.824219 26.542969 C 26.46875 27.144531 26.097656 27.761719 25.601562 28.152344 C 25.199219 28.472656 24.757812 28.585938 24.3125 28.585938 Z M 24.3125 28.585938 " fill-opacity="1" fill-rule="evenodd"/></g></svg>