<svg xmlns="http://www.w3.org/2000/svg" xmlns:xlink="http://www.w3.org/1999/xlink" width="80" zoomAndPan="magnify" viewBox="0 0 60 60" height="80" preserveAspectRatio="xMidYMid meet" version="1.0"><defs><clipPath id="e04f123dad"><path d="M 14.003906 20 L 17 20 L 17 40 L 14.003906 40 Z M 14.003906 20 " clip-rule="nonzero"/></clipPath></defs><g clip-path="url(#e04f123dad)"><path fill="#c3cfa2" d="M 15.492188 20 C 15.902344 20 16.273438 20.167969 16.542969 20.4375 C 16.816406 20.707031 16.980469 21.082031 16.980469 21.492188 L 16.980469 38.421875 C 16.980469 38.832031 16.816406 39.203125 16.542969 39.472656 C 16.273438 39.742188 15.902344 39.910156 15.492188 39.910156 C 15.082031 39.910156 14.710938 39.742188 14.441406 39.472656 C 14.171875 39.203125 14.003906 38.832031 14.003906 38.421875 L 14.003906 21.492188 C 14.003906 21.082031 14.171875 20.707031 14.441406 20.4375 C 14.710938 20.167969 15.082031 20 15.492188 20 Z M 16.015625 20.96875 C 15.878906 20.832031 15.695312 20.75 15.492188 20.75 C 15.289062 20.75 15.105469 20.832031 14.96875 20.96875 C 14.835938 21.101562 14.753906 21.289062 14.753906 21.492188 L 14.753906 38.421875 C 14.753906 38.625 14.835938 38.808594 14.96875 38.941406 C 15.105469 39.078125 15.289062 39.160156 15.492188 39.160156 C 15.695312 39.160156 15.878906 39.078125 16.015625 38.941406 C 16.148438 38.808594 16.230469 38.625 16.230469 38.421875 L 16.230469 21.492188 C 16.230469 21.289062 16.148438 21.101562 16.015625 20.96875 Z M 16.015625 20.96875 " fill-opacity="1" fill-rule="nonzero"/></g><path fill="#c3cfa2" d="M 43.390625 34.199219 C 43.597656 34.199219 43.765625 34.03125 43.765625 33.824219 C 43.765625 33.617188 43.597656 33.449219 43.390625 33.449219 L 16.980469 33.449219 L 16.980469 31.96875 L 45.246094 31.96875 L 45.246094 33.804688 C 45.246094 33.808594 45.246094 33.816406 45.246094 33.824219 C 45.246094 34.03125 45.414062 34.199219 45.621094 34.199219 C 45.414062 34.195312 45.246094 34.03125 45.246094 33.824219 L 45.246094 33.804688 C 45.253906 33.605469 45.417969 33.449219 45.621094 33.449219 L 45.621094 33.824219 L 45.246094 33.824219 L 45.621094 33.824219 L 45.621094 34.199219 C 45.828125 34.199219 45.996094 34.03125 45.996094 33.824219 L 45.996094 31.59375 C 45.996094 31.386719 45.828125 31.21875 45.621094 31.21875 L 16.605469 31.21875 C 16.398438 31.21875 16.230469 31.386719 16.230469 31.59375 L 16.230469 33.824219 C 16.230469 34.03125 16.398438 34.199219 16.605469 34.199219 Z M 43.390625 34.199219 " fill-opacity="1" fill-rule="nonzero"/><path fill="#c3cfa2" d="M 43.390625 31.21875 L 45.621094 31.21875 C 45.828125 31.21875 45.996094 31.386719 45.996094 31.59375 L 45.996094 38.5 C 45.996094 38.910156 45.828125 39.28125 45.558594 39.550781 C 45.289062 39.820312 44.914062 39.988281 44.503906 39.988281 C 44.09375 39.988281 43.722656 39.820312 43.453125 39.550781 C 43.183594 39.28125 43.015625 38.910156 43.015625 38.5 L 43.015625 31.59375 C 43.015625 31.386719 43.183594 31.21875 43.390625 31.21875 Z M 45.246094 31.96875 L 43.765625 31.96875 L 43.765625 38.5 C 43.765625 38.703125 43.847656 38.886719 43.984375 39.019531 C 44.117188 39.15625 44.300781 39.238281 44.503906 39.238281 C 44.707031 39.238281 44.894531 39.15625 45.027344 39.019531 C 45.160156 38.886719 45.246094 38.703125 45.246094 38.5 Z M 45.246094 31.96875 " fill-opacity="1" fill-rule="nonzero"/><path fill="#c3cfa2" d="M 22.703125 28.988281 C 22.496094 28.988281 22.328125 29.15625 22.328125 29.363281 C 22.328125 29.570312 22.496094 29.738281 22.703125 29.738281 L 39.886719 29.738281 C 40.132812 29.738281 40.578125 29.886719 41.015625 30.085938 C 41.46875 30.292969 41.894531 30.542969 42.066406 30.730469 L 42.515625 31.21875 L 16.980469 31.21875 L 16.980469 29.363281 C 16.980469 29.15625 16.8125 28.988281 16.605469 28.988281 C 16.398438 28.988281 16.230469 29.15625 16.230469 29.363281 L 16.230469 31.59375 C 16.230469 31.800781 16.398438 31.96875 16.605469 31.96875 L 43.367188 31.96875 C 43.457031 31.96875 43.546875 31.933594 43.621094 31.871094 C 43.773438 31.730469 43.78125 31.492188 43.640625 31.339844 L 43.367188 31.59375 L 43.640625 31.339844 L 42.617188 30.226562 C 42.378906 29.960938 41.859375 29.648438 41.324219 29.40625 C 40.800781 29.167969 40.238281 28.988281 39.886719 28.988281 Z M 22.703125 28.988281 " fill-opacity="1" fill-rule="nonzero"/><path fill="#c3cfa2" d="M 16.605469 27.273438 L 18.992188 27.273438 C 19.605469 27.273438 20.554688 27.574219 21.417969 27.992188 C 22.25 28.394531 23.019531 28.917969 23.363281 29.40625 L 24.753906 31.378906 L 24.757812 31.375 C 24.875 31.546875 24.835938 31.78125 24.667969 31.898438 C 24.601562 31.945312 24.523438 31.96875 24.449219 31.96875 L 16.605469 31.96875 C 16.398438 31.96875 16.230469 31.800781 16.230469 31.59375 L 16.230469 27.648438 C 16.230469 27.441406 16.398438 27.273438 16.605469 27.273438 Z M 18.992188 28.023438 L 16.980469 28.023438 L 16.980469 31.21875 L 23.726562 31.21875 L 22.75 29.835938 C 22.484375 29.457031 21.824219 29.019531 21.09375 28.667969 C 20.320312 28.292969 19.496094 28.023438 18.992188 28.023438 Z M 18.992188 28.023438 " fill-opacity="1" fill-rule="nonzero"/></svg>