<svg xmlns="http://www.w3.org/2000/svg" xmlns:xlink="http://www.w3.org/1999/xlink" width="80" zoomAndPan="magnify" viewBox="0 0 60 60" height="80" preserveAspectRatio="xMidYMid meet" version="1.0"><defs><clipPath id="9e19e1c901"><path d="M 8.449219 15.84375 L 51.199219 15.84375 L 51.199219 44.152344 L 8.449219 44.152344 Z M 8.449219 15.84375 " clip-rule="nonzero"/></clipPath></defs><g clip-path="url(#9e19e1c901)"><path fill="#0c4949" d="M 45.894531 16.808594 C 47.585938 16.832031 49.207031 17.453125 50.484375 18.558594 C 50.628906 18.6875 50.636719 18.910156 50.507812 19.054688 C 50.488281 19.074219 50.46875 19.09375 50.445312 19.109375 C 48.644531 20.5625 46.65625 21.773438 44.535156 22.703125 L 38.734375 25.316406 C 38.582031 25.382812 38.453125 25.511719 38.382812 25.667969 L 31.410156 40.925781 C 30.75 41.953125 29.769531 42.734375 28.617188 43.148438 L 30.898438 30.0625 C 30.964844 29.675781 30.710938 29.308594 30.324219 29.242188 C 30.1875 29.21875 30.039062 29.238281 29.910156 29.292969 L 23.914062 32 C 20.785156 33.414062 17.371094 34.085938 13.9375 33.972656 C 13.425781 33.957031 12.964844 33.65625 12.746094 33.195312 L 9.453125 26.308594 C 9.339844 26.074219 9.4375 25.785156 9.675781 25.671875 C 9.824219 25.601562 10 25.609375 10.140625 25.699219 L 15.585938 29.117188 C 15.941406 29.339844 16.378906 29.371094 16.761719 29.199219 L 25.398438 25.304688 C 25.753906 25.144531 25.910156 24.726562 25.75 24.371094 C 25.699219 24.242188 25.601562 24.136719 25.488281 24.0625 L 17.898438 19.242188 C 19.132812 18.597656 20.546875 18.394531 21.910156 18.675781 L 32.074219 22.085938 C 32.242188 22.144531 32.429688 22.136719 32.59375 22.0625 L 42.835938 17.441406 C 43.792969 17.011719 44.832031 16.792969 45.882812 16.808594 Z M 45.894531 15.851562 C 44.707031 15.832031 43.523438 16.078125 42.441406 16.566406 L 32.285156 21.148438 L 22.160156 17.75 C 20.5 17.390625 18.769531 17.652344 17.285156 18.480469 C 16.875 18.714844 16.722656 19.238281 16.957031 19.652344 C 17.027344 19.777344 17.125 19.882812 17.246094 19.960938 L 24.582031 24.621094 L 16.367188 28.328125 C 16.28125 28.363281 16.179688 28.359375 16.097656 28.308594 L 10.652344 24.886719 C 9.976562 24.464844 9.089844 24.667969 8.667969 25.339844 C 8.40625 25.753906 8.375 26.28125 8.589844 26.722656 L 11.882812 33.605469 C 12.253906 34.390625 13.035156 34.902344 13.902344 34.929688 C 17.480469 35.050781 21.039062 34.347656 24.304688 32.875 L 29.871094 30.363281 L 27.640625 43.148438 C 27.5625 43.613281 27.875 44.0625 28.339844 44.140625 C 28.484375 44.164062 28.625 44.15625 28.757812 44.109375 C 30.207031 43.636719 31.441406 42.671875 32.253906 41.386719 L 39.210938 26.148438 L 44.921875 23.578125 C 47.113281 22.613281 49.171875 21.367188 51.035156 19.863281 C 51.609375 19.421875 51.71875 18.601562 51.277344 18.027344 C 51.222656 17.957031 51.164062 17.890625 51.097656 17.835938 C 49.652344 16.578125 47.808594 15.878906 45.890625 15.851562 L 45.894531 15.851562 " fill-opacity="1" fill-rule="nonzero"/></g></svg>