<svg xmlns="http://www.w3.org/2000/svg" xmlns:xlink="http://www.w3.org/1999/xlink" width="40" zoomAndPan="magnify" viewBox="0 0 30 30.000001" height="40" preserveAspectRatio="xMidYMid meet" version="1.0"><defs><clipPath id="70c85e0acc"><path d="M 0.484375 0 L 23 0 L 23 20 L 0.484375 20 Z M 0.484375 0 " clip-rule="nonzero"/></clipPath><clipPath id="1a192a9cf2"><path d="M 14 8 L 29.515625 8 L 29.515625 26.855469 L 14 26.855469 Z M 14 8 " clip-rule="nonzero"/></clipPath></defs><g clip-path="url(#70c85e0acc)"><path fill="#226666" d="M 1.023438 1.789062 C 0.484375 8.640625 3.242188 16.828125 10.292969 19.15625 C 13.871094 20.339844 17.835938 19.867188 21.414062 18.933594 C 23.140625 18.484375 22.402344 15.820312 20.679688 16.265625 C 17.769531 17.023438 14.617188 17.460938 11.71875 16.695312 C 10.609375 16.398438 9.816406 16.0625 8.835938 15.410156 C 8.167969 14.960938 7.363281 14.226562 6.730469 13.433594 C 6.65625 13.339844 6.644531 13.332031 6.480469 13.078125 C 6.339844 12.882812 6.207031 12.6875 6.085938 12.480469 C 5.824219 12.0625 5.59375 11.625 5.378906 11.175781 C 5.15625 10.699219 5.144531 10.683594 4.929688 10.105469 C 4.761719 9.636719 4.613281 9.171875 4.484375 8.6875 C 4.257812 7.867188 4.101562 7.035156 3.972656 6.199219 C 3.960938 6.132812 3.914062 5.769531 3.960938 6.140625 C 3.953125 6.039062 3.933594 5.9375 3.925781 5.835938 C 3.90625 5.667969 3.886719 5.5 3.867188 5.332031 C 3.832031 4.957031 3.804688 4.59375 3.785156 4.222656 C 3.746094 3.417969 3.71875 2.597656 3.785156 1.789062 C 3.925781 0.015625 1.164062 0.0273438 1.023438 1.789062 Z M 1.023438 1.789062 " fill-opacity="1" fill-rule="nonzero"/></g><g clip-path="url(#1a192a9cf2)"><path fill="#226666" d="M 15.539062 11.324219 C 19.402344 13.628906 23.261719 15.929688 27.121094 18.234375 C 27.027344 17.507812 26.933594 16.789062 26.839844 16.0625 C 23.355469 18.792969 19.875 21.523438 16.390625 24.246094 C 15.792969 24.714844 15.914062 25.710938 16.390625 26.207031 C 16.96875 26.792969 17.757812 26.664062 18.347656 26.207031 C 21.832031 23.472656 25.3125 20.742188 28.796875 18.019531 C 29.515625 17.449219 29.207031 16.257812 28.519531 15.847656 C 24.660156 13.542969 20.800781 11.242188 16.9375 8.9375 C 15.402344 8.023438 14.011719 10.410156 15.539062 11.324219 Z M 15.539062 11.324219 " fill-opacity="1" fill-rule="nonzero"/></g></svg>