<svg xmlns="http://www.w3.org/2000/svg" xmlns:xlink="http://www.w3.org/1999/xlink" width="80" zoomAndPan="magnify" viewBox="0 0 60 60" height="80" preserveAspectRatio="xMidYMid meet" version="1.0"><defs><clipPath id="bf2471f21d"><path d="M 23 1 L 42 1 L 42 44 L 23 44 Z M 23 1 " clip-rule="nonzero"/></clipPath><clipPath id="7a48138a34"><path d="M 0.00390625 36.800781 L 24.945312 0.25 L 59.019531 23.5 L 34.074219 60.050781 Z M 0.00390625 36.800781 " clip-rule="nonzero"/></clipPath><clipPath id="b0eb6667e6"><path d="M 25.117188 0 L 0.175781 36.550781 L 34.246094 59.800781 L 59.191406 23.25 Z M 25.117188 0 " clip-rule="nonzero"/></clipPath><clipPath id="982a98db49"><path d="M 20 26 L 45 26 L 45 52 L 20 52 Z M 20 26 " clip-rule="nonzero"/></clipPath><clipPath id="c760bf7028"><path d="M 0.00390625 36.800781 L 24.945312 0.25 L 59.019531 23.5 L 34.074219 60.050781 Z M 0.00390625 36.800781 " clip-rule="nonzero"/></clipPath><clipPath id="2a36ee375d"><path d="M 25.117188 0 L 0.175781 36.550781 L 34.246094 59.800781 L 59.191406 23.25 Z M 25.117188 0 " clip-rule="nonzero"/></clipPath></defs><g clip-path="url(#bf2471f21d)"><g clip-path="url(#7a48138a34)"><g clip-path="url(#b0eb6667e6)"><path fill="#c3cfa2" d="M 26.917969 2.230469 C 36.070312 7.472656 44.058594 18.050781 40.917969 29.003906 C 39.320312 34.566406 35.292969 39.175781 31.011719 42.910156 C 28.953125 44.707031 26.210938 41.46875 28.269531 39.667969 C 31.742188 36.632812 35.023438 33.019531 36.5625 28.683594 C 37.144531 27.019531 37.40625 25.722656 37.425781 23.917969 C 37.4375 22.679688 37.199219 21.027344 36.742188 19.535156 C 36.6875 19.363281 36.683594 19.339844 36.511719 18.910156 C 36.382812 18.566406 36.25 18.230469 36.09375 17.898438 C 35.785156 17.203125 35.433594 16.53125 35.050781 15.871094 C 34.640625 15.175781 34.625 15.148438 34.078125 14.375 C 33.632812 13.761719 33.171875 13.167969 32.671875 12.582031 C 31.824219 11.589844 30.910156 10.671875 29.957031 9.78125 C 29.882812 9.710938 29.460938 9.339844 29.894531 9.71875 C 29.773438 9.621094 29.660156 9.507812 29.539062 9.40625 C 29.339844 9.238281 29.144531 9.070312 28.949219 8.898438 C 28.507812 8.53125 28.070312 8.179688 27.613281 7.835938 C 26.628906 7.09375 25.613281 6.347656 24.53125 5.730469 C 22.164062 4.375 24.5625 0.882812 26.917969 2.230469 Z M 26.917969 2.230469 " fill-opacity="1" fill-rule="nonzero"/></g></g></g><g clip-path="url(#982a98db49)"><g clip-path="url(#c760bf7028)"><g clip-path="url(#2a36ee375d)"><path fill="#c3cfa2" d="M 26.449219 28.882812 C 26.03125 35.765625 25.609375 42.652344 25.191406 49.535156 C 24.351562 48.789062 23.519531 48.050781 22.679688 47.304688 C 29.15625 45.246094 35.628906 43.199219 42.097656 41.136719 C 43.203125 40.78125 44.363281 41.800781 44.578125 42.828125 C 44.824219 44.070312 43.972656 44.960938 42.882812 45.3125 C 36.40625 47.367188 29.933594 49.414062 23.46875 51.480469 C 22.125 51.898438 20.878906 50.472656 20.957031 49.246094 C 21.375 42.359375 21.796875 35.476562 22.214844 28.589844 C 22.386719 25.851562 26.613281 26.152344 26.449219 28.882812 Z M 26.449219 28.882812 " fill-opacity="1" fill-rule="nonzero"/></g></g></g></svg>