<svg xmlns="http://www.w3.org/2000/svg" xmlns:xlink="http://www.w3.org/1999/xlink" width="80" zoomAndPan="magnify" viewBox="0 0 60 60" height="80" preserveAspectRatio="xMidYMid meet" version="1.0"><defs><filter x="0%" y="0%" width="100%" height="100%" id="e3317694ff"><feColorMatrix values="0 0 0 0 1 0 0 0 0 1 0 0 0 0 1 0 0 0 1 0" color-interpolation-filters="sRGB"/></filter><mask id="6f3da836b1"><g filter="url(#e3317694ff)"><rect x="-6" width="72" fill="#000000" y="-6" height="72" fill-opacity="0.59"/></g></mask><clipPath id="c4e51a6243"><path d="M 1.125 1.125 L 34.875 1.125 L 34.875 33 L 1.125 33 Z M 1.125 1.125 " clip-rule="nonzero"/></clipPath><clipPath id="21b6873b27"><path d="M 1.125 1.125 L 34.875 1.125 L 34.875 29 L 1.125 29 Z M 1.125 1.125 " clip-rule="nonzero"/></clipPath><clipPath id="46a1faf819"><path d="M 7 1.125 L 34.875 1.125 L 34.875 29 L 7 29 Z M 7 1.125 " clip-rule="nonzero"/></clipPath><clipPath id="fe0eea5663"><path d="M 1.125 1.125 L 34.875 1.125 L 34.875 29 L 1.125 29 Z M 1.125 1.125 " clip-rule="nonzero"/></clipPath><clipPath id="2e012e768c"><path d="M 7 1.125 L 34.875 1.125 L 34.875 29 L 7 29 Z M 7 1.125 " clip-rule="nonzero"/></clipPath><clipPath id="629c6b6312"><path d="M 1.125 1.125 L 34.875 1.125 L 34.875 34.875 L 1.125 34.875 Z M 1.125 1.125 " clip-rule="nonzero"/></clipPath><clipPath id="ea0fa9c8ad"><rect x="0" width="36" y="0" height="36"/></clipPath></defs><g mask="url(#6f3da836b1)"><g transform="matrix(1, 0, 0, 1, 12, 12)"><g clip-path="url(#ea0fa9c8ad)"><g clip-path="url(#c4e51a6243)"><path stroke-linecap="round" transform="matrix(0.27, 0, 0, 0.27, 0.719999, 0.720001)" fill="none" stroke-linejoin="miter" d="M 87.582182 27.078699 C 84.717598 27.078699 82.012158 27.758676 79.480329 29.089695 C 76.934033 30.420713 74.8507 32.272565 73.230329 34.630783 C 72.535885 33.618052 71.725699 32.677658 70.828709 31.838538 C 69.931718 30.98495 68.962389 30.247102 67.906255 29.596061 C 66.85012 28.959487 65.736116 28.438653 64.564241 28.033561 C 63.406833 27.628468 62.206023 27.353584 60.976278 27.208908 C 59.761 27.049764 58.531254 27.035297 57.301509 27.151037 C 56.071764 27.252311 54.870953 27.49826 53.684611 27.859949 C 52.512736 28.221639 51.384263 28.713537 50.299194 29.321176 C 49.228592 29.928815 48.230328 30.637727 47.304402 31.447913 C 46.378476 32.272565 45.553823 33.184024 44.815976 34.16782 C 44.092596 35.166084 43.47049 36.222218 42.964124 37.350691 C 42.457758 38.479163 42.067133 39.651038 41.806717 40.851848 C 41.5463 42.052658 41.416092 43.282404 41.416092 44.512149 C 41.416092 45.756362 41.5463 46.97164 41.806717 48.17245 C 42.067133 49.387728 42.457758 50.545136 42.964124 51.673608 C 43.47049 52.80208 44.092596 53.858214 44.815976 54.856478 C 45.553823 55.854742 46.378476 56.751733 47.304402 57.576386 C 48.230328 58.386571 49.228592 59.109951 50.299194 59.71759 C 51.384263 60.310761 52.512736 60.802659 53.684611 61.164349 C 54.870953 61.540506 56.071764 61.771988 57.301509 61.887729 C 58.531254 61.989002 59.761 61.974534 60.976278 61.829858 C 62.206023 61.670715 63.406833 61.39583 64.564241 60.990738 C 65.736116 60.585645 66.85012 60.064812 67.906255 59.428238 C 68.962389 58.791664 69.931718 58.039349 70.828709 57.200228 C 71.725699 56.34664 72.535885 55.420714 73.230329 54.393515 C 73.649889 55.015622 74.112852 55.594326 74.619218 56.158562 C 75.111116 56.70833 75.646417 57.229164 76.210653 57.721062 C 76.774889 58.21296 77.368061 58.661455 78.004635 59.066548 C 78.626741 59.486108 79.263315 59.847798 79.943292 60.180553 C 80.608802 60.49884 81.303246 60.788192 82.012158 61.019673 C 82.72107 61.265622 83.44445 61.453701 84.16783 61.598377 C 84.905677 61.743053 85.643524 61.844326 86.381371 61.902196 C 87.133686 61.945599 87.886001 61.960067 88.623848 61.902196 C 89.376163 61.858793 90.11401 61.771988 90.83739 61.627312 C 91.575237 61.497104 92.298617 61.309025 93.007529 61.077543 C 93.716441 60.846062 94.410886 60.55671 95.090862 60.238423 C 95.756372 59.920136 96.407413 59.558446 97.043987 59.153354 C 97.666094 58.748261 98.259265 58.299766 98.837969 57.822335 C 99.402205 57.330437 99.937506 56.824071 100.443872 56.274302 C 100.950238 55.724534 101.413201 55.131363 101.847228 54.523724 C 102.281256 53.916085 102.671881 53.279511 103.019103 52.614001 C 103.366326 51.948492 103.670145 51.268515 103.930562 50.574071 C 104.190979 49.865159 104.393525 49.156247 104.567136 48.432867 C 104.740747 47.69502 104.856488 46.97164 104.928826 46.219325 C 105.001164 45.481478 105.030099 44.729163 105.001164 43.991316 C 104.986696 43.239001 104.914358 42.501154 104.798617 41.763306 C 104.682877 41.025459 104.509266 40.30208 104.306719 39.5787 C 104.089705 38.85532 103.829289 38.160876 103.525469 37.480899 C 103.236117 36.800922 102.888895 36.135413 102.49827 35.498839 C 102.107645 34.847797 101.688085 34.240158 101.225122 33.661454 C 100.762159 33.068283 100.255793 32.518514 99.720492 31.997681 C 99.185191 31.476848 98.620955 30.999417 98.013316 30.550922 C 97.420145 30.102426 96.798038 29.697334 96.146997 29.321176 C 95.495955 28.959487 94.815978 28.641199 94.136001 28.351848 C 93.441557 28.076963 92.732645 27.845482 92.009265 27.657403 C 91.285885 27.454857 90.548038 27.324648 89.810191 27.223375 C 89.072344 27.122102 88.320029 27.078699 87.582182 27.078699 Z M 60.918407 46.566547 C 60.108222 46.566547 59.312504 46.407404 58.56019 46.103584 C 57.807875 45.785297 57.142365 45.336802 56.563662 44.758098 C 55.984958 44.179395 55.536463 43.513885 55.232643 42.76157 C 54.914356 42.009256 54.755213 41.228006 54.755213 40.403353 C 54.755213 39.593168 54.914356 38.79745 55.232643 38.045135 C 55.55093 37.29282 55.984958 36.627311 56.563662 36.048607 C 57.142365 35.469903 57.807875 35.035876 58.574657 34.717589 C 59.326972 34.399302 60.108222 34.254626 60.932875 34.254626 C 61.74306 34.254626 62.52431 34.413769 63.291093 34.717589 C 64.043407 35.035876 64.708917 35.484371 65.28762 36.063075 C 65.851857 36.641778 66.300352 37.307288 66.618639 38.059603 C 66.922458 38.811917 67.081602 39.607635 67.081602 40.41782 C 67.081602 41.242473 66.922458 42.023723 66.604171 42.776038 C 66.300352 43.528353 65.851857 44.193862 65.273153 44.772566 C 64.694449 45.35127 64.02894 45.799765 63.276625 46.103584 C 62.52431 46.421871 61.74306 46.566547 60.918407 46.566547 Z M 89.63658 46.566547 C 88.826395 46.566547 88.030677 46.421871 87.278362 46.103584 C 86.526047 45.785297 85.860538 45.35127 85.281834 44.772566 C 84.70313 44.193862 84.254635 43.528353 83.936348 42.776038 C 83.632529 42.023723 83.473385 41.228006 83.473385 40.41782 C 83.473385 39.593168 83.632529 38.811917 83.936348 38.059603 C 84.254635 37.29282 84.70313 36.627311 85.267367 36.048607 C 85.84607 35.469903 86.526047 35.035876 87.278362 34.717589 C 88.030677 34.399302 88.811927 34.254626 89.63658 34.254626 C 90.446765 34.254626 91.242483 34.413769 91.994797 34.717589 C 92.747112 35.035876 93.412622 35.484371 93.991325 36.063075 C 94.570029 36.641778 95.018524 37.307288 95.322344 38.059603 C 95.640631 38.811917 95.785307 39.607635 95.785307 40.41782 C 95.785307 41.242473 95.640631 42.023723 95.322344 42.776038 C 95.004057 43.528353 94.570029 44.193862 93.991325 44.772566 C 93.412622 45.35127 92.747112 45.785297 91.994797 46.103584 C 91.242483 46.407404 90.461233 46.566547 89.63658 46.566547 Z M 89.63658 46.566547 " stroke="#000000" stroke-width="4" stroke-opacity="1" stroke-miterlimit="10"/></g><g clip-path="url(#21b6873b27)"><path stroke-linecap="round" transform="matrix(0.27, 0, 0, 0.27, 0.719999, 0.720001)" fill="none" stroke-linejoin="miter" d="M 67.067134 40.41782 C 67.067134 41.242473 66.907991 42.023723 66.604171 42.776038 C 66.285884 43.528353 65.851857 44.193862 65.273153 44.772566 C 64.694449 45.35127 64.02894 45.785297 63.276625 46.103584 C 62.52431 46.407404 61.728592 46.566547 60.918407 46.566547 C 60.108222 46.566547 59.326972 46.407404 58.56019 46.103584 C 57.807875 45.785297 57.142365 45.35127 56.578129 44.772566 C 55.999426 44.193862 55.55093 43.528353 55.232643 42.776038 C 54.928824 42.023723 54.76968 41.242473 54.76968 40.41782 C 54.76968 39.607635 54.928824 38.826385 55.232643 38.059603 C 55.55093 37.307288 55.999426 36.641778 56.578129 36.077542 C 57.142365 35.498839 57.807875 35.050343 58.56019 34.732056 C 59.326972 34.428237 60.108222 34.269093 60.918407 34.269093 C 61.728592 34.269093 62.52431 34.428237 63.276625 34.732056 C 64.02894 35.050343 64.694449 35.498839 65.273153 36.077542 C 65.851857 36.641778 66.285884 37.307288 66.604171 38.059603 C 66.907991 38.826385 67.067134 39.607635 67.067134 40.41782 Z M 67.067134 40.41782 " stroke="#000000" stroke-width="4" stroke-opacity="1" stroke-miterlimit="10"/></g><g clip-path="url(#46a1faf819)"><path stroke-linecap="round" transform="matrix(0.27, 0, 0, 0.27, 0.719999, 0.720001)" fill="none" stroke-linejoin="miter" d="M 95.785307 40.41782 C 95.785307 41.242473 95.640631 42.023723 95.322344 42.776038 C 95.004057 43.528353 94.570029 44.193862 93.991325 44.772566 C 93.412622 45.35127 92.747112 45.785297 91.994797 46.103584 C 91.242483 46.407404 90.461233 46.566547 89.63658 46.566547 C 88.826395 46.566547 88.045145 46.407404 87.29283 46.103584 C 86.526047 45.785297 85.875006 45.35127 85.296302 44.772566 C 84.717598 44.193862 84.269103 43.528353 83.965283 42.776038 C 83.646996 42.023723 83.487853 41.242473 83.487853 40.41782 C 83.487853 39.607635 83.646996 38.826385 83.965283 38.059603 C 84.269103 37.307288 84.717598 36.641778 85.296302 36.077542 C 85.875006 35.498839 86.526047 35.050343 87.29283 34.732056 C 88.045145 34.428237 88.826395 34.269093 89.63658 34.269093 C 90.461233 34.269093 91.242483 34.428237 91.994797 34.732056 C 92.747112 35.050343 93.412622 35.498839 93.991325 36.077542 C 94.570029 36.641778 95.004057 37.307288 95.322344 38.059603 C 95.640631 38.826385 95.785307 39.607635 95.785307 40.41782 Z M 95.785307 40.41782 " stroke="#000000" stroke-width="4" stroke-opacity="1" stroke-miterlimit="10"/></g><g clip-path="url(#fe0eea5663)"><path stroke-linecap="round" transform="matrix(0.27, 0, 0, 0.27, 0.719999, 0.720001)" fill="none" stroke-linejoin="miter" d="M 67.067134 40.41782 C 67.067134 41.242473 66.907991 42.023723 66.604171 42.776038 C 66.285884 43.528353 65.851857 44.193862 65.273153 44.772566 C 64.694449 45.35127 64.02894 45.785297 63.276625 46.103584 C 62.52431 46.407404 61.728592 46.566547 60.918407 46.566547 C 60.108222 46.566547 59.326972 46.407404 58.56019 46.103584 C 57.807875 45.785297 57.142365 45.35127 56.578129 44.772566 C 55.999426 44.193862 55.55093 43.528353 55.232643 42.776038 C 54.928824 42.023723 54.76968 41.242473 54.76968 40.41782 C 54.76968 39.607635 54.928824 38.826385 55.232643 38.059603 C 55.55093 37.307288 55.999426 36.641778 56.578129 36.077542 C 57.142365 35.498839 57.807875 35.050343 58.56019 34.732056 C 59.326972 34.428237 60.108222 34.269093 60.918407 34.269093 C 61.728592 34.269093 62.52431 34.428237 63.276625 34.732056 C 64.02894 35.050343 64.694449 35.498839 65.273153 36.077542 C 65.851857 36.641778 66.285884 37.307288 66.604171 38.059603 C 66.907991 38.826385 67.067134 39.607635 67.067134 40.41782 Z M 67.067134 40.41782 " stroke="#000000" stroke-width="4" stroke-opacity="1" stroke-miterlimit="10"/></g><g clip-path="url(#2e012e768c)"><path stroke-linecap="round" transform="matrix(0.27, 0, 0, 0.27, 0.719999, 0.720001)" fill="none" stroke-linejoin="miter" d="M 95.785307 40.41782 C 95.785307 41.242473 95.640631 42.023723 95.322344 42.776038 C 95.004057 43.528353 94.570029 44.193862 93.991325 44.772566 C 93.412622 45.35127 92.747112 45.785297 91.994797 46.103584 C 91.242483 46.407404 90.461233 46.566547 89.63658 46.566547 C 88.826395 46.566547 88.045145 46.407404 87.29283 46.103584 C 86.526047 45.785297 85.875006 45.35127 85.296302 44.772566 C 84.717598 44.193862 84.269103 43.528353 83.965283 42.776038 C 83.646996 42.023723 83.487853 41.242473 83.487853 40.41782 C 83.487853 39.607635 83.646996 38.826385 83.965283 38.059603 C 84.269103 37.307288 84.717598 36.641778 85.296302 36.077542 C 85.875006 35.498839 86.526047 35.050343 87.29283 34.732056 C 88.045145 34.428237 88.826395 34.269093 89.63658 34.269093 C 90.461233 34.269093 91.242483 34.428237 91.994797 34.732056 C 92.747112 35.050343 93.412622 35.498839 93.991325 36.077542 C 94.570029 36.641778 95.004057 37.307288 95.322344 38.059603 C 95.640631 38.826385 95.785307 39.607635 95.785307 40.41782 Z M 95.785307 40.41782 " stroke="#000000" stroke-width="4" stroke-opacity="1" stroke-miterlimit="10"/></g><path stroke-linecap="round" transform="matrix(0.27, 0, 0, 0.27, 0.719999, 0.720001)" fill="none" stroke-linejoin="miter" d="M 36.309031 93.745369 L 60.918407 93.745369 " stroke="#000000" stroke-width="4" stroke-opacity="1" stroke-miterlimit="10"/><g clip-path="url(#629c6b6312)"><path stroke-linecap="round" transform="matrix(0.27, 0, 0, 0.27, 0.719999, 0.720001)" fill="none" stroke-linejoin="miter" d="M 124.503479 63.999997 C 124.503479 65.982057 124.402206 67.964118 124.214128 69.93171 C 124.011581 71.899303 123.722229 73.852428 123.331604 75.805553 C 122.955447 77.744211 122.463549 79.668401 121.899313 81.563655 C 121.320609 83.45891 120.6551 85.32523 119.888317 87.148146 C 119.136002 88.985531 118.296882 90.765045 117.356488 92.515623 C 116.416095 94.266202 115.403363 95.958911 114.303826 97.608216 C 113.204289 99.257522 112.017946 100.848957 110.773733 102.382522 C 109.515053 103.916087 108.184034 105.377314 106.780678 106.78067 C 105.377321 108.184027 103.916094 109.515045 102.382529 110.773726 C 100.848964 112.017939 99.257529 113.204282 97.608224 114.303819 C 95.958918 115.403356 94.26621 116.416087 92.515631 117.356481 C 90.765052 118.296874 88.985538 119.135995 87.148154 119.88831 C 85.325237 120.655092 83.458917 121.320601 81.563663 121.899305 C 79.668408 122.463541 77.744218 122.955439 75.805561 123.331597 C 73.852436 123.722222 71.899311 124.011574 69.931718 124.21412 C 67.964125 124.402199 65.982065 124.503472 64.000005 124.503472 C 62.017944 124.503472 60.035884 124.402199 58.068291 124.21412 C 56.100699 124.011574 54.147574 123.722222 52.194449 123.331597 C 50.255791 122.955439 48.331601 122.463541 46.436346 121.899305 C 44.541092 121.320601 42.674772 120.655092 40.851856 119.88831 C 39.014471 119.135995 37.234957 118.296874 35.484378 117.356481 C 33.7338 116.416087 32.041091 115.403356 30.391786 114.303819 C 28.74248 113.204282 27.151045 112.017939 25.61748 110.773726 C 24.083915 109.515045 22.622688 108.184027 21.219332 106.78067 C 19.815975 105.377314 18.484956 103.916087 17.226276 102.382522 C 15.982063 100.848957 14.79572 99.257522 13.696183 97.608216 C 12.596646 95.958911 11.583914 94.266202 10.643521 92.515623 C 9.703127 90.765045 8.864007 88.985531 8.111692 87.148146 C 7.34491 85.32523 6.6794 83.45891 6.100697 81.563655 C 5.536461 79.668401 5.044562 77.744211 4.668405 75.805553 C 4.27778 73.852428 3.988428 71.899303 3.785882 69.93171 C 3.597803 67.964118 3.49653 65.982057 3.49653 63.999997 C 3.49653 62.017937 3.597803 60.035877 3.785882 58.068284 C 3.988428 56.100691 4.27778 54.147566 4.668405 52.194441 C 5.044562 50.255784 5.536461 48.331594 6.100697 46.436339 C 6.6794 44.541084 7.34491 42.674765 8.111692 40.851848 C 8.864007 39.014464 9.703127 37.23495 10.643521 35.484371 C 11.583914 33.733792 12.596646 32.041084 13.696183 30.391778 C 14.79572 28.742473 15.982063 27.151037 17.226276 25.617472 C 18.484956 24.083908 19.815975 22.622681 21.219332 21.219324 C 22.622688 19.815968 24.083915 18.484949 25.61748 17.226268 C 27.151045 15.982055 28.74248 14.795713 30.391786 13.696176 C 32.041091 12.596639 33.7338 11.583907 35.484378 10.643514 C 37.234957 9.70312 39.014471 8.864 40.851856 8.111685 C 42.674772 7.344902 44.541092 6.679393 46.436346 6.100689 C 48.331601 5.536453 50.255791 5.044555 52.194449 4.668398 C 54.147574 4.277773 56.100699 3.988421 58.068291 3.785874 C 60.035884 3.597796 62.017944 3.496522 64.000005 3.496522 C 65.982065 3.496522 67.964125 3.597796 69.931718 3.785874 C 71.899311 3.988421 73.852436 4.277773 75.805561 4.668398 C 77.744218 5.044555 79.668408 5.536453 81.563663 6.100689 C 83.458917 6.679393 85.325237 7.344902 87.148154 8.111685 C 88.985538 8.864 90.765052 9.70312 92.515631 10.643514 C 94.26621 11.583907 95.958918 12.596639 97.608224 13.696176 C 99.257529 14.795713 100.848964 15.982055 102.382529 17.226268 C 103.916094 18.484949 105.377321 19.815968 106.780678 21.219324 C 108.184034 22.622681 109.515053 24.083908 110.773733 25.617472 C 112.017946 27.151037 113.204289 28.742473 114.303826 30.391778 C 115.403363 32.041084 116.416095 33.733792 117.356488 35.484371 C 118.296882 37.23495 119.136002 39.014464 119.888317 40.851848 C 120.6551 42.674765 121.320609 44.541084 121.899313 46.436339 C 122.463549 48.331594 122.955447 50.255784 123.331604 52.194441 C 123.722229 54.147566 124.011581 56.100691 124.214128 58.068284 C 124.402206 60.035877 124.503479 62.017937 124.503479 63.999997 Z M 124.503479 63.999997 " stroke="#000000" stroke-width="4" stroke-opacity="1" stroke-miterlimit="10"/></g></g></g></g></svg>