<svg xmlns="http://www.w3.org/2000/svg" xmlns:xlink="http://www.w3.org/1999/xlink" width="80" zoomAndPan="magnify" viewBox="0 0 60 60" height="80" preserveAspectRatio="xMidYMid meet" version="1.0"><defs><clipPath id="b740868cd5"><path d="M 9.289062 26 L 25 26 L 25 42 L 9.289062 42 Z M 9.289062 26 " clip-rule="nonzero"/></clipPath><clipPath id="9901879351"><path d="M 34 26 L 50.539062 26 L 50.539062 42 L 34 42 Z M 34 26 " clip-rule="nonzero"/></clipPath><clipPath id="15cae8bcad"><path d="M 36 18.066406 L 46 18.066406 L 46 24 L 36 24 Z M 36 18.066406 " clip-rule="nonzero"/></clipPath><clipPath id="1527fb0a76"><path d="M 19 18.066406 L 26 18.066406 L 26 21 L 19 21 Z M 19 18.066406 " clip-rule="nonzero"/></clipPath></defs><path fill="#0c4949" d="M 25.050781 34.039062 C 25.050781 34.714844 24.96875 35.378906 24.804688 36.015625 L 23.882812 35.96875 C 24.058594 35.355469 24.152344 34.707031 24.152344 34.039062 C 24.152344 33.371094 24.058594 32.722656 23.882812 32.113281 L 24.804688 32.0625 C 24.96875 32.699219 25.050781 33.363281 25.050781 34.039062 Z M 25.050781 34.039062 " fill-opacity="1" fill-rule="evenodd"/><path fill="#0c4949" d="M 24.519531 31.175781 L 23.558594 31.226562 C 22.988281 29.9375 22.035156 28.847656 20.847656 28.109375 L 21.273438 27.308594 C 21.800781 27.632812 22.296875 28.019531 22.746094 28.46875 C 23.527344 29.253906 24.128906 30.171875 24.519531 31.175781 Z M 24.519531 31.175781 " fill-opacity="1" fill-rule="evenodd"/><g clip-path="url(#b740868cd5)"><path fill="#0c4949" d="M 24.519531 36.902344 C 24.128906 37.90625 23.527344 38.824219 22.746094 39.609375 C 21.257812 41.097656 19.277344 41.917969 17.175781 41.917969 C 15.070312 41.917969 13.09375 41.097656 11.605469 39.609375 C 10.117188 38.121094 9.296875 36.144531 9.296875 34.039062 C 9.296875 31.933594 10.117188 29.957031 11.605469 28.46875 C 13.09375 26.980469 15.070312 26.164062 17.175781 26.164062 C 18.335938 26.164062 19.457031 26.410156 20.480469 26.886719 L 20.054688 27.683594 C 19.175781 27.285156 18.199219 27.0625 17.175781 27.0625 C 13.328125 27.0625 10.199219 30.191406 10.199219 34.039062 C 10.199219 37.886719 13.328125 41.015625 17.175781 41.015625 C 20.023438 41.015625 22.476562 39.300781 23.558594 36.851562 Z M 24.519531 36.902344 " fill-opacity="1" fill-rule="evenodd"/></g><g clip-path="url(#9901879351)"><path fill="#0c4949" d="M 50.707031 34.039062 C 50.707031 36.144531 49.890625 38.121094 48.402344 39.609375 C 46.914062 41.097656 44.933594 41.917969 42.832031 41.917969 C 40.726562 41.917969 38.75 41.097656 37.261719 39.609375 C 35.773438 38.121094 34.953125 36.144531 34.953125 34.039062 C 34.953125 31.933594 35.773438 29.957031 37.261719 28.46875 C 37.992188 27.738281 38.839844 27.171875 39.761719 26.78125 L 40.066406 27.632812 C 37.589844 28.707031 35.855469 31.175781 35.855469 34.039062 C 35.855469 37.886719 38.984375 41.015625 42.832031 41.015625 C 46.679688 41.015625 49.808594 37.886719 49.808594 34.039062 C 49.808594 30.191406 46.679688 27.0625 42.832031 27.0625 C 42.167969 27.0625 41.523438 27.15625 40.914062 27.332031 L 40.757812 26.890625 L 40.609375 26.480469 C 41.320312 26.269531 42.066406 26.164062 42.832031 26.164062 C 44.933594 26.164062 46.914062 26.980469 48.402344 28.46875 C 49.890625 29.957031 50.707031 31.933594 50.707031 34.039062 Z M 50.707031 34.039062 " fill-opacity="1" fill-rule="evenodd"/></g><path fill="#0c4949" d="M 20.847656 28.109375 L 19.058594 31.464844 L 18.007812 31.519531 L 20.054688 27.683594 C 20.328125 27.808594 20.59375 27.953125 20.847656 28.109375 Z M 20.847656 28.109375 " fill-opacity="1" fill-rule="evenodd"/><path fill="#0c4949" d="M 40.609375 26.480469 C 40.320312 26.5625 40.039062 26.664062 39.761719 26.78125 L 38.589844 23.496094 L 32.25 31.832031 C 32.039062 31.617188 31.796875 31.433594 31.53125 31.285156 L 37.761719 23.09375 L 22.859375 24.339844 L 21.273438 27.308594 L 20.847656 28.109375 C 20.59375 27.953125 20.328125 27.808594 20.054688 27.683594 L 20.480469 26.886719 L 22.125 23.800781 L 22.125 23.914062 C 22.125 24.160156 22.328125 24.363281 22.578125 24.363281 C 22.824219 24.363281 23.027344 24.160156 23.027344 23.914062 L 23.027344 23.421875 L 38.113281 22.160156 L 38.695312 22.113281 C 38.871094 22.097656 39.042969 22.191406 39.128906 22.34375 C 39.136719 22.355469 39.140625 22.371094 39.144531 22.382812 L 39.148438 22.382812 L 39.167969 22.441406 L 39.167969 22.445312 Z M 40.609375 26.480469 " fill-opacity="1" fill-rule="evenodd"/><g clip-path="url(#15cae8bcad)"><path fill="#0c4949" d="M 45.980469 20.535156 C 45.980469 21.199219 45.722656 21.820312 45.257812 22.285156 C 44.789062 22.753906 44.167969 23.011719 43.507812 23.011719 L 42.15625 23.011719 C 41.90625 23.011719 41.707031 22.808594 41.707031 22.5625 C 41.707031 22.3125 41.90625 22.113281 42.15625 22.113281 L 43.507812 22.113281 C 43.925781 22.113281 44.324219 21.949219 44.621094 21.648438 C 44.917969 21.351562 45.082031 20.957031 45.082031 20.535156 C 45.082031 19.667969 44.375 18.960938 43.507812 18.960938 L 37.925781 18.960938 L 39.144531 22.382812 C 39.140625 22.371094 39.136719 22.355469 39.128906 22.34375 C 39.042969 22.1875 38.871094 22.097656 38.695312 22.113281 L 38.109375 22.160156 L 36.863281 18.667969 C 36.859375 18.660156 36.859375 18.652344 36.855469 18.644531 C 36.851562 18.636719 36.851562 18.628906 36.847656 18.621094 C 36.847656 18.617188 36.847656 18.609375 36.84375 18.601562 C 36.84375 18.59375 36.839844 18.585938 36.839844 18.578125 C 36.839844 18.570312 36.839844 18.5625 36.835938 18.554688 C 36.835938 18.550781 36.835938 18.542969 36.835938 18.535156 C 36.835938 18.527344 36.835938 18.519531 36.835938 18.511719 C 36.835938 18.507812 36.835938 18.5 36.835938 18.496094 C 36.835938 18.492188 36.835938 18.488281 36.835938 18.480469 C 36.839844 18.453125 36.84375 18.425781 36.847656 18.398438 C 36.851562 18.390625 36.851562 18.382812 36.855469 18.375 C 36.855469 18.371094 36.859375 18.367188 36.859375 18.359375 C 36.863281 18.355469 36.863281 18.355469 36.863281 18.351562 C 36.863281 18.347656 36.867188 18.347656 36.867188 18.34375 C 36.871094 18.335938 36.875 18.328125 36.878906 18.320312 C 36.882812 18.3125 36.886719 18.304688 36.890625 18.296875 C 36.894531 18.289062 36.898438 18.285156 36.902344 18.277344 C 36.90625 18.265625 36.917969 18.253906 36.925781 18.242188 C 36.929688 18.234375 36.933594 18.230469 36.9375 18.226562 C 36.9375 18.222656 36.9375 18.222656 36.9375 18.222656 C 36.941406 18.21875 36.945312 18.214844 36.953125 18.207031 C 36.964844 18.191406 36.980469 18.175781 37 18.164062 C 37.011719 18.152344 37.023438 18.144531 37.035156 18.136719 C 37.046875 18.128906 37.058594 18.121094 37.070312 18.113281 C 37.078125 18.113281 37.082031 18.109375 37.089844 18.105469 C 37.09375 18.101562 37.101562 18.101562 37.105469 18.097656 C 37.109375 18.097656 37.113281 18.09375 37.117188 18.09375 C 37.121094 18.089844 37.128906 18.089844 37.132812 18.085938 C 37.136719 18.085938 37.140625 18.085938 37.144531 18.082031 C 37.148438 18.082031 37.152344 18.082031 37.15625 18.078125 C 37.160156 18.078125 37.160156 18.078125 37.160156 18.078125 C 37.164062 18.078125 37.167969 18.074219 37.171875 18.074219 C 37.183594 18.070312 37.195312 18.070312 37.207031 18.066406 C 37.210938 18.066406 37.21875 18.066406 37.222656 18.066406 C 37.234375 18.0625 37.242188 18.0625 37.253906 18.0625 C 37.257812 18.0625 37.261719 18.0625 37.265625 18.0625 C 37.273438 18.0625 37.277344 18.0625 37.285156 18.0625 L 43.507812 18.0625 C 44.871094 18.0625 45.980469 19.171875 45.980469 20.535156 Z M 45.980469 20.535156 " fill-opacity="1" fill-rule="evenodd"/></g><path fill="#0c4949" d="M 40.914062 27.332031 C 40.621094 27.414062 40.339844 27.515625 40.066406 27.632812 L 39.761719 26.78125 C 40.039062 26.664062 40.320312 26.5625 40.609375 26.480469 L 40.757812 26.890625 Z M 40.914062 27.332031 " fill-opacity="1" fill-rule="evenodd"/><g clip-path="url(#1527fb0a76)"><path fill="#0c4949" d="M 25.503906 19.859375 C 25.503906 20.355469 25.097656 20.761719 24.601562 20.761719 L 20.550781 20.761719 C 20.054688 20.761719 19.652344 20.359375 19.652344 19.859375 C 19.652344 19.363281 20.054688 18.960938 20.550781 18.960938 L 24.601562 18.960938 C 25.097656 18.960938 25.503906 19.363281 25.503906 19.859375 Z M 25.503906 19.859375 " fill-opacity="1" fill-rule="evenodd"/></g><path fill="#0c4949" d="M 23.027344 21.660156 L 23.027344 23.421875 L 22.539062 23.464844 C 22.386719 23.476562 22.25 23.566406 22.179688 23.699219 L 22.125 23.800781 L 22.125 21.660156 Z M 23.027344 21.660156 " fill-opacity="1" fill-rule="evenodd"/><path fill="#0c4949" d="M 23.027344 23.421875 L 23.027344 23.910156 C 23.027344 24.160156 22.824219 24.363281 22.578125 24.363281 C 22.328125 24.363281 22.125 24.160156 22.125 23.910156 L 22.125 23.800781 L 22.179688 23.699219 C 22.25 23.566406 22.386719 23.476562 22.539062 23.464844 Z M 23.027344 23.421875 " fill-opacity="1" fill-rule="evenodd"/><path fill="#0c4949" d="M 32.253906 34.039062 C 32.253906 34.90625 31.761719 35.660156 31.042969 36.035156 L 30.4375 33.914062 C 30.367188 33.675781 30.117188 33.539062 29.878906 33.605469 C 29.640625 33.675781 29.503906 33.925781 29.570312 34.164062 L 30.175781 36.285156 C 30.121094 36.289062 30.070312 36.289062 30.015625 36.289062 L 30.011719 36.289062 L 29.753906 36.277344 C 28.628906 36.152344 27.753906 35.195312 27.753906 34.039062 C 27.753906 32.882812 28.628906 31.925781 29.753906 31.800781 L 30.011719 31.789062 L 30.015625 31.789062 C 31.25 31.792969 32.253906 32.800781 32.253906 34.039062 Z M 32.253906 34.039062 " fill-opacity="1" fill-rule="evenodd"/><path fill="#0c4949" d="M 18.75 34.039062 C 18.75 34.90625 18.046875 35.613281 17.179688 35.613281 L 17.167969 35.613281 C 16.300781 35.609375 15.601562 34.90625 15.601562 34.039062 C 15.601562 33.171875 16.304688 32.464844 17.175781 32.464844 C 18.042969 32.464844 18.75 33.171875 18.75 34.039062 Z M 18.75 34.039062 " fill-opacity="1" fill-rule="evenodd"/><path fill="#0c4949" d="M 33.828125 38.765625 C 33.828125 39.015625 33.628906 39.214844 33.378906 39.214844 L 31.355469 39.214844 C 31.152344 39.214844 30.976562 39.082031 30.921875 38.890625 L 30.425781 37.160156 C 30.730469 37.121094 31.023438 37.035156 31.292969 36.914062 L 31.691406 38.316406 L 33.378906 38.316406 C 33.628906 38.316406 33.828125 38.515625 33.828125 38.765625 Z M 33.828125 38.765625 " fill-opacity="1" fill-rule="evenodd"/><path fill="#0c4949" d="M 44.40625 34.039062 C 44.40625 34.90625 43.699219 35.613281 42.832031 35.613281 C 41.960938 35.613281 41.253906 34.90625 41.253906 34.039062 C 41.253906 33.171875 41.960938 32.464844 42.832031 32.464844 C 43.699219 32.464844 44.40625 33.171875 44.40625 34.039062 Z M 44.40625 34.039062 " fill-opacity="1" fill-rule="evenodd"/></svg>