<svg xmlns="http://www.w3.org/2000/svg" xmlns:xlink="http://www.w3.org/1999/xlink" width="80" zoomAndPan="magnify" viewBox="0 0 60 60" height="80" preserveAspectRatio="xMidYMid meet" version="1.0"><defs><clipPath id="05c60edc19"><path d="M 12.035156 13.40625 L 40 13.40625 L 40 38 L 12.035156 38 Z M 12.035156 13.40625 " clip-rule="nonzero"/></clipPath><clipPath id="bbe1f2c8be"><path d="M 29 24 L 48 24 L 48 46.40625 L 29 46.40625 Z M 29 24 " clip-rule="nonzero"/></clipPath></defs><g clip-path="url(#05c60edc19)"><path fill="#226666" d="M 12.703125 15.625 C 12.035156 24.101562 15.449219 34.226562 24.167969 37.113281 C 28.597656 38.578125 33.5 37.988281 37.929688 36.835938 C 40.0625 36.28125 39.152344 32.984375 37.019531 33.535156 C 33.421875 34.46875 29.523438 35.011719 25.933594 34.066406 C 24.5625 33.699219 23.582031 33.28125 22.371094 32.476562 C 21.539062 31.921875 20.546875 31.011719 19.761719 30.03125 C 19.671875 29.914062 19.660156 29.902344 19.453125 29.589844 C 19.277344 29.347656 19.117188 29.105469 18.96875 28.851562 C 18.644531 28.335938 18.355469 27.792969 18.089844 27.238281 C 17.8125 26.648438 17.800781 26.628906 17.539062 25.910156 C 17.328125 25.335938 17.144531 24.757812 16.984375 24.160156 C 16.707031 23.144531 16.511719 22.117188 16.347656 21.078125 C 16.335938 21 16.28125 20.546875 16.335938 21.011719 C 16.328125 20.882812 16.304688 20.757812 16.292969 20.628906 C 16.269531 20.421875 16.246094 20.214844 16.222656 20.007812 C 16.175781 19.546875 16.140625 19.09375 16.117188 18.632812 C 16.074219 17.640625 16.039062 16.625 16.117188 15.625 C 16.292969 13.433594 12.878906 13.445312 12.703125 15.625 Z M 12.703125 15.625 " fill-opacity="1" fill-rule="nonzero"/></g><g clip-path="url(#bbe1f2c8be)"><path fill="#226666" d="M 30.664062 27.421875 C 35.4375 30.273438 40.214844 33.121094 44.988281 35.96875 C 44.875 35.070312 44.757812 34.183594 44.644531 33.28125 C 40.328125 36.660156 36.027344 40.042969 31.714844 43.410156 C 30.976562 43.988281 31.125 45.21875 31.714844 45.832031 C 32.429688 46.558594 33.410156 46.398438 34.136719 45.832031 C 38.449219 42.453125 42.75 39.074219 47.066406 35.703125 C 47.953125 35 47.574219 33.523438 46.71875 33.015625 C 41.945312 30.167969 37.167969 27.320312 32.394531 24.46875 C 30.492188 23.339844 28.773438 26.292969 30.664062 27.421875 Z M 30.664062 27.421875 " fill-opacity="1" fill-rule="nonzero"/></g></svg>