<svg xmlns="http://www.w3.org/2000/svg" xmlns:xlink="http://www.w3.org/1999/xlink" width="80" zoomAndPan="magnify" viewBox="0 0 60 60" height="80" preserveAspectRatio="xMidYMid meet" version="1.0"><defs><clipPath id="73198e1856"><path d="M 16.335938 14.34375 L 43.335938 14.34375 L 43.335938 45.84375 L 16.335938 45.84375 Z M 16.335938 14.34375 " clip-rule="nonzero"/></clipPath></defs><g clip-path="url(#73198e1856)"><path fill="#c3cfa2" d="M 32.261719 29.765625 L 32.261719 29.785156 C 32.285156 29.929688 32.257812 30.0625 32.175781 30.179688 C 32.09375 30.300781 31.980469 30.375 31.839844 30.402344 L 30.953125 30.585938 C 31.003906 30.878906 31 31.167969 30.9375 31.460938 C 30.878906 31.75 30.765625 32.019531 30.597656 32.265625 C 30.429688 32.511719 30.222656 32.71875 29.976562 32.882812 C 29.730469 33.046875 29.460938 33.160156 29.171875 33.222656 C 29.023438 33.25 28.890625 33.222656 28.765625 33.140625 C 28.644531 33.058594 28.566406 32.941406 28.535156 32.796875 C 28.507812 32.652344 28.53125 32.515625 28.613281 32.394531 C 28.695312 32.269531 28.808594 32.191406 28.953125 32.160156 C 29.109375 32.128906 29.25 32.070312 29.378906 31.980469 C 29.511719 31.890625 29.621094 31.78125 29.707031 31.652344 C 29.792969 31.519531 29.851562 31.378906 29.882812 31.222656 C 29.910156 31.070312 29.910156 30.914062 29.878906 30.761719 L 29.683594 29.785156 C 29.617188 29.464844 29.449219 29.210938 29.171875 29.035156 C 28.9375 28.875 28.679688 28.808594 28.398438 28.839844 C 28.359375 28.84375 28.320312 28.847656 28.285156 28.855469 C 28.003906 28.914062 27.777344 29.054688 27.597656 29.273438 C 27.578125 29.304688 27.554688 29.332031 27.53125 29.367188 C 27.351562 29.640625 27.289062 29.9375 27.355469 30.257812 L 27.554688 31.234375 C 27.613281 31.527344 27.613281 31.824219 27.554688 32.117188 C 27.5 32.414062 27.386719 32.6875 27.21875 32.9375 C 27.054688 33.191406 26.847656 33.398438 26.597656 33.570312 C 26.347656 33.738281 26.078125 33.851562 25.78125 33.914062 C 25.632812 33.945312 25.480469 33.960938 25.328125 33.960938 C 25.070312 33.957031 24.820312 33.914062 24.578125 33.828125 C 24.332031 33.742188 24.109375 33.617188 23.910156 33.457031 C 23.707031 33.296875 23.539062 33.105469 23.402344 32.886719 C 23.265625 32.667969 23.167969 32.433594 23.109375 32.179688 L 22.226562 32.367188 C 22.082031 32.394531 21.945312 32.371094 21.820312 32.289062 C 21.695312 32.207031 21.617188 32.089844 21.589844 31.945312 C 21.558594 31.800781 21.585938 31.664062 21.667969 31.539062 C 21.75 31.414062 21.863281 31.339844 22.011719 31.308594 L 22.898438 31.125 C 22.789062 30.523438 22.902344 29.96875 23.238281 29.460938 C 23.585938 28.9375 24.066406 28.613281 24.679688 28.484375 C 24.824219 28.457031 24.960938 28.484375 25.085938 28.566406 C 25.207031 28.648438 25.285156 28.765625 25.316406 28.910156 C 25.347656 29.058594 25.320312 29.191406 25.238281 29.316406 C 25.15625 29.441406 25.042969 29.519531 24.894531 29.550781 C 24.742188 29.582031 24.597656 29.640625 24.46875 29.730469 C 24.339844 29.820312 24.230469 29.929688 24.144531 30.058594 C 24.054688 30.191406 23.996094 30.332031 23.96875 30.488281 C 23.9375 30.640625 23.9375 30.796875 23.96875 30.949219 L 24.167969 31.925781 C 24.234375 32.246094 24.402344 32.496094 24.679688 32.675781 C 24.949219 32.859375 25.25 32.917969 25.570312 32.851562 C 25.890625 32.785156 26.140625 32.613281 26.320312 32.34375 C 26.5 32.070312 26.558594 31.773438 26.492188 31.449219 L 26.292969 30.476562 C 26.167969 29.859375 26.28125 29.289062 26.628906 28.769531 C 26.859375 28.417969 27.164062 28.152344 27.539062 27.976562 C 27.707031 27.890625 27.882812 27.832031 28.066406 27.792969 C 28.171875 27.769531 28.285156 27.757812 28.394531 27.757812 C 28.894531 27.726562 29.355469 27.851562 29.773438 28.128906 C 30.28125 28.464844 30.605469 28.929688 30.734375 29.527344 L 31.625 29.34375 C 31.742188 29.320312 31.859375 29.335938 31.96875 29.386719 C 32.128906 29.464844 32.226562 29.589844 32.261719 29.765625 Z M 43.652344 41.210938 L 37.273438 41.210938 L 37.515625 42.382812 L 37.464844 42.394531 L 21.695312 45.609375 L 21.6875 45.558594 L 16.335938 19.324219 L 16.382812 19.316406 L 27.511719 17.042969 L 27.511719 14.386719 L 43.652344 14.386719 Z M 20.726562 19.378906 L 17.4375 20.050781 L 18.105469 23.335938 C 19.019531 23.152344 19.738281 22.675781 20.261719 21.90625 C 20.765625 21.128906 20.921875 20.285156 20.726562 19.378906 Z M 32.09375 20.476562 L 31.425781 17.195312 L 28.074219 17.878906 C 28.207031 18.539062 28.507812 19.109375 28.976562 19.589844 C 29.136719 19.753906 29.3125 19.898438 29.503906 20.023438 C 30.304688 20.539062 31.167969 20.6875 32.09375 20.476562 Z M 42.71875 15.316406 L 39.304688 15.316406 C 39.296875 16.246094 39.617188 17.042969 40.273438 17.703125 C 40.953125 18.363281 41.769531 18.683594 42.71875 18.664062 Z M 32.300781 21.488281 C 31.09375 21.753906 29.96875 21.554688 28.929688 20.886719 C 28.726562 20.75 28.535156 20.597656 28.359375 20.429688 C 28.019531 20.109375 27.738281 19.742188 27.519531 19.328125 C 27.304688 18.9375 27.152344 18.523438 27.066406 18.089844 L 21.738281 19.175781 C 21.984375 20.359375 21.78125 21.460938 21.121094 22.476562 C 20.441406 23.484375 19.507812 24.109375 18.3125 24.34375 L 21.535156 40.140625 C 21.832031 40.078125 22.132812 40.046875 22.433594 40.046875 C 23.3125 40.042969 24.117188 40.28125 24.851562 40.757812 C 25.878906 41.453125 26.5 42.414062 26.722656 43.632812 L 32.058594 42.546875 C 31.789062 41.351562 31.980469 40.234375 32.636719 39.199219 L 32.65625 39.164062 C 33.351562 38.140625 34.304688 37.519531 35.523438 37.296875 Z M 33.066406 42.339844 L 36.414062 41.660156 L 35.726562 38.304688 C 34.792969 38.472656 34.054688 38.949219 33.519531 39.730469 C 33.390625 39.925781 33.285156 40.128906 33.207031 40.347656 C 33.101562 40.609375 33.03125 40.882812 33.003906 41.167969 C 32.960938 41.5625 32.980469 41.953125 33.066406 42.339844 Z M 35.035156 30.230469 L 37.085938 40.28125 L 38.277344 40.28125 C 38.269531 39.984375 38.289062 39.691406 38.339844 39.402344 C 38.390625 39.113281 38.46875 38.828125 38.578125 38.554688 C 38.6875 38.28125 38.820312 38.019531 38.984375 37.773438 C 39.144531 37.527344 39.328125 37.300781 39.535156 37.09375 C 39.746094 36.882812 39.972656 36.699219 40.21875 36.535156 C 40.464844 36.375 40.722656 36.238281 41 36.128906 C 41.273438 36.019531 41.554688 35.941406 41.84375 35.886719 C 42.132812 35.835938 42.425781 35.816406 42.722656 35.824219 L 42.722656 19.691406 C 41.484375 19.71875 40.425781 19.300781 39.542969 18.433594 C 38.695312 17.570312 38.273438 16.53125 38.273438 15.316406 L 32.832031 15.316406 C 32.835938 16.003906 32.691406 16.652344 32.390625 17.265625 L 33.976562 25.042969 C 34.101562 25.070312 34.199219 25.136719 34.277344 25.234375 C 34.355469 25.332031 34.398438 25.445312 34.398438 25.570312 C 34.398438 25.753906 34.324219 25.898438 34.175781 26.003906 L 34.789062 29.019531 C 34.957031 28.808594 35.042969 28.566406 35.042969 28.296875 L 35.042969 27.300781 C 35.046875 27 35.105469 26.714844 35.21875 26.441406 C 35.332031 26.164062 35.496094 25.921875 35.707031 25.710938 C 35.917969 25.5 36.160156 25.339844 36.433594 25.222656 C 36.710938 25.109375 36.996094 25.046875 37.292969 25.046875 C 37.589844 25.042969 37.878906 25.097656 38.15625 25.207031 C 38.433594 25.316406 38.679688 25.476562 38.890625 25.683594 C 39.105469 25.890625 39.273438 26.132812 39.394531 26.402344 C 39.511719 26.675781 39.578125 26.960938 39.585938 27.257812 L 40.492188 27.257812 C 40.644531 27.253906 40.773438 27.304688 40.882812 27.414062 C 40.992188 27.519531 41.046875 27.648438 41.046875 27.800781 C 41.046875 27.949219 40.992188 28.082031 40.882812 28.1875 C 40.773438 28.292969 40.644531 28.34375 40.492188 28.339844 L 39.585938 28.339844 C 39.570312 28.949219 39.347656 29.46875 38.914062 29.902344 C 38.472656 30.347656 37.941406 30.570312 37.3125 30.566406 C 37.160156 30.570312 37.03125 30.519531 36.921875 30.414062 C 36.8125 30.308594 36.757812 30.179688 36.757812 30.027344 C 36.757812 29.875 36.8125 29.742188 36.921875 29.636719 C 37.03125 29.53125 37.160156 29.480469 37.3125 29.484375 C 37.46875 29.484375 37.621094 29.453125 37.765625 29.390625 C 37.910156 29.332031 38.039062 29.246094 38.148438 29.132812 C 38.261719 29.023438 38.347656 28.894531 38.40625 28.75 C 38.464844 28.605469 38.496094 28.453125 38.496094 28.296875 L 38.496094 27.300781 C 38.496094 27.140625 38.46875 26.992188 38.40625 26.847656 C 38.347656 26.703125 38.261719 26.574219 38.148438 26.464844 C 38.039062 26.351562 37.910156 26.265625 37.765625 26.207031 C 37.621094 26.144531 37.46875 26.117188 37.3125 26.113281 C 36.984375 26.117188 36.707031 26.230469 36.472656 26.464844 C 36.242188 26.691406 36.125 26.972656 36.125 27.296875 L 36.125 28.296875 C 36.125 28.921875 35.902344 29.457031 35.460938 29.902344 C 35.332031 30.03125 35.191406 30.140625 35.035156 30.230469 Z M 21.738281 41.152344 L 22.425781 44.511719 L 25.710938 43.84375 C 25.546875 42.898438 25.070312 42.15625 24.277344 41.613281 C 23.496094 41.109375 22.648438 40.957031 21.738281 41.152344 Z M 40.273438 37.816406 C 39.601562 38.5 39.277344 39.320312 39.304688 40.28125 L 42.71875 40.28125 L 42.71875 36.859375 C 41.769531 36.832031 40.953125 37.152344 40.273438 37.816406 Z M 31.691406 16.191406 C 31.765625 15.902344 31.804688 15.613281 31.804688 15.316406 L 28.445312 15.316406 L 28.445312 16.851562 Z M 31.691406 16.191406 " fill-opacity="1" fill-rule="nonzero"/></g></svg>