<svg xmlns="http://www.w3.org/2000/svg" xmlns:xlink="http://www.w3.org/1999/xlink" width="80" zoomAndPan="magnify" viewBox="0 0 60 60" height="80" preserveAspectRatio="xMidYMid meet" version="1.0"><defs><clipPath id="f760a40853"><path d="M 9.570312 20.5 L 50.070312 20.5 L 50.070312 39.25 L 9.570312 39.25 Z M 9.570312 20.5 " clip-rule="nonzero"/></clipPath></defs><g clip-path="url(#f760a40853)"><path fill="#c3cfa2" d="M 39.425781 20.5 C 39.652344 20.5 39.800781 20.605469 39.875 20.820312 C 42.171875 27.761719 45.757812 33.566406 50.175781 38.667969 C 50.261719 38.765625 50.300781 38.878906 50.292969 39.011719 C 50.285156 39.140625 50.230469 39.25 50.132812 39.335938 C 50.03125 39.421875 49.917969 39.460938 49.785156 39.449219 C 49.65625 39.441406 49.546875 39.382812 49.464844 39.285156 C 48.609375 38.300781 47.785156 37.285156 46.996094 36.246094 L 46.996094 38.976562 C 46.996094 39.105469 46.949219 39.21875 46.859375 39.308594 C 46.765625 39.402344 46.65625 39.445312 46.523438 39.445312 L 13.710938 39.445312 C 13.582031 39.445312 13.472656 39.402344 13.378906 39.308594 C 13.289062 39.21875 13.242188 39.105469 13.242188 38.976562 L 13.242188 36.148438 C 12.394531 37.230469 11.503906 38.277344 10.570312 39.292969 C 10.484375 39.390625 10.375 39.445312 10.242188 39.453125 C 10.113281 39.457031 10 39.417969 9.902344 39.328125 C 9.804688 39.238281 9.753906 39.128906 9.75 39 C 9.742188 38.867188 9.785156 38.753906 9.875 38.65625 C 14.539062 33.5625 18.160156 27.765625 20.171875 20.839844 C 20.234375 20.613281 20.386719 20.5 20.621094 20.5 Z M 38.832031 21.441406 L 20.976562 21.441406 C 19.53125 26.273438 17.308594 30.566406 14.519531 34.449219 L 31.96875 34.449219 C 35.292969 31.167969 37.707031 27.171875 38.832031 21.441406 Z M 39.859375 23.566406 L 39.859375 38.503906 L 46.054688 38.503906 L 46.054688 34.964844 C 43.589844 31.519531 41.484375 27.75 39.859375 23.566406 Z M 38.917969 24.921875 C 37.582031 29.101562 35.4375 32.324219 32.71875 35.03125 L 32.71875 38.503906 L 38.917969 38.503906 Z M 31.773438 35.394531 L 14.183594 35.394531 L 14.183594 38.503906 L 31.773438 38.503906 Z M 31.773438 35.394531 " fill-opacity="1" fill-rule="evenodd"/></g></svg>