<svg xmlns="http://www.w3.org/2000/svg" xmlns:xlink="http://www.w3.org/1999/xlink" width="80" zoomAndPan="magnify" viewBox="0 0 60 60" height="80" preserveAspectRatio="xMidYMid meet" version="1.0"><defs><clipPath id="f19d15cfd1"><path d="M 6 19.144531 L 51.75 19.144531 L 51.75 40.894531 L 6 40.894531 Z M 6 19.144531 " clip-rule="nonzero"/></clipPath></defs><g clip-path="url(#f19d15cfd1)"><path fill="#0c4949" d="M 43.023438 31.597656 C 45.105469 31.539062 46.84375 33.175781 46.902344 35.261719 C 46.90625 35.296875 46.90625 35.335938 46.90625 35.371094 C 46.890625 37.453125 45.191406 39.128906 43.113281 39.113281 C 41.046875 39.101562 39.375 37.433594 39.363281 35.371094 C 39.363281 33.332031 40.988281 31.660156 43.023438 31.597656 Z M 12.6875 31.582031 C 14.769531 31.53125 16.496094 33.175781 16.550781 35.261719 C 16.550781 35.296875 16.550781 35.335938 16.550781 35.371094 C 16.566406 37.453125 14.886719 39.152344 12.804688 39.167969 C 10.71875 39.179688 9.019531 37.5 9.007812 35.414062 C 9.007812 35.398438 9.007812 35.386719 9.007812 35.371094 C 9 33.320312 10.632812 31.636719 12.6875 31.582031 Z M 14.613281 20.289062 L 32.789062 20.289062 L 40.246094 26.972656 C 40.523438 27.222656 40.886719 27.363281 41.257812 27.363281 L 44.742188 27.363281 C 47.964844 27.363281 50.574219 29.972656 50.574219 33.195312 L 50.574219 34.664062 C 50.574219 35.257812 50.089844 35.742188 49.492188 35.742188 L 47.90625 35.742188 C 48.109375 33.109375 46.136719 30.804688 43.507812 30.597656 C 40.871094 30.394531 38.566406 32.363281 38.363281 35 C 38.34375 35.246094 38.34375 35.492188 38.363281 35.738281 L 17.550781 35.738281 C 17.753906 33.105469 15.78125 30.800781 13.148438 30.597656 C 10.511719 30.398438 8.214844 32.371094 8.007812 35.007812 C 7.992188 35.25 7.992188 35.496094 8.007812 35.738281 C 7.5 35.726562 7.082031 35.351562 7.011719 34.847656 L 7.011719 32.246094 C 7.113281 30.390625 7.636719 28.578125 8.539062 26.953125 L 11.410156 22.109375 C 12.078125 20.980469 13.296875 20.289062 14.613281 20.285156 Z M 14.613281 19.273438 C 12.941406 19.273438 11.390625 20.152344 10.539062 21.589844 L 7.660156 26.445312 C 6.671875 28.21875 6.105469 30.195312 6 32.21875 L 6 34.902344 C 6.105469 36.015625 7.085938 36.835938 8.199219 36.742188 C 8.953125 39.277344 11.621094 40.714844 14.15625 39.957031 C 15.691406 39.496094 16.898438 38.292969 17.359375 36.75 L 38.554688 36.75 C 39.316406 39.28125 41.980469 40.71875 44.515625 39.953125 C 46.050781 39.492188 47.25 38.289062 47.71875 36.753906 L 49.492188 36.753906 C 50.648438 36.753906 51.585938 35.820312 51.585938 34.664062 L 51.585938 33.199219 C 51.585938 29.414062 48.523438 26.351562 44.742188 26.351562 L 41.257812 26.351562 C 41.136719 26.351562 41.015625 26.300781 40.921875 26.21875 L 33.175781 19.273438 L 14.613281 19.273438 " fill-opacity="1" fill-rule="nonzero"/></g></svg>