<svg xmlns="http://www.w3.org/2000/svg" xmlns:xlink="http://www.w3.org/1999/xlink" width="80" zoomAndPan="magnify" viewBox="0 0 60 60" height="80" preserveAspectRatio="xMidYMid meet" version="1.0"><defs><clipPath id="8eef282311"><path d="M 7.203125 19.144531 L 52.953125 19.144531 L 52.953125 40.894531 L 7.203125 40.894531 Z M 7.203125 19.144531 " clip-rule="nonzero"/></clipPath></defs><g clip-path="url(#8eef282311)"><path fill="#c3cfa2" d="M 44.226562 31.597656 C 46.308594 31.539062 48.046875 33.175781 48.105469 35.261719 C 48.109375 35.296875 48.109375 35.335938 48.109375 35.371094 C 48.09375 37.453125 46.394531 39.128906 44.316406 39.113281 C 42.25 39.101562 40.578125 37.433594 40.566406 35.371094 C 40.566406 33.332031 42.191406 31.660156 44.226562 31.597656 Z M 13.890625 31.582031 C 15.972656 31.53125 17.703125 33.175781 17.753906 35.261719 C 17.753906 35.296875 17.753906 35.335938 17.753906 35.371094 C 17.769531 37.453125 16.089844 39.152344 14.007812 39.167969 C 11.921875 39.179688 10.222656 37.5 10.210938 35.414062 C 10.210938 35.398438 10.210938 35.386719 10.210938 35.371094 C 10.203125 33.320312 11.835938 31.636719 13.890625 31.582031 Z M 15.816406 20.289062 L 33.992188 20.289062 L 41.449219 26.972656 C 41.730469 27.222656 42.089844 27.363281 42.460938 27.363281 L 45.945312 27.363281 C 49.167969 27.363281 51.777344 29.972656 51.777344 33.195312 L 51.777344 34.664062 C 51.777344 35.257812 51.292969 35.742188 50.695312 35.742188 L 49.109375 35.742188 C 49.3125 33.109375 47.34375 30.804688 44.710938 30.597656 C 42.074219 30.394531 39.769531 32.363281 39.566406 35 C 39.546875 35.246094 39.546875 35.492188 39.566406 35.738281 L 18.753906 35.738281 C 18.957031 33.105469 16.984375 30.800781 14.351562 30.597656 C 11.714844 30.398438 9.417969 32.371094 9.210938 35.007812 C 9.195312 35.25 9.195312 35.496094 9.210938 35.738281 C 8.703125 35.726562 8.285156 35.351562 8.214844 34.847656 L 8.214844 32.246094 C 8.316406 30.390625 8.839844 28.578125 9.742188 26.953125 L 12.613281 22.109375 C 13.28125 20.980469 14.5 20.289062 15.816406 20.285156 Z M 15.816406 19.273438 C 14.144531 19.273438 12.59375 20.152344 11.746094 21.589844 L 8.863281 26.445312 C 7.875 28.21875 7.308594 30.195312 7.203125 32.21875 L 7.203125 34.902344 C 7.308594 36.015625 8.289062 36.835938 9.402344 36.742188 C 10.15625 39.277344 12.824219 40.714844 15.359375 39.957031 C 16.894531 39.496094 18.101562 38.292969 18.5625 36.75 L 39.757812 36.75 C 40.519531 39.28125 43.1875 40.71875 45.71875 39.953125 C 47.253906 39.492188 48.453125 38.289062 48.921875 36.753906 L 50.695312 36.753906 C 51.851562 36.753906 52.789062 35.820312 52.789062 34.664062 L 52.789062 33.199219 C 52.789062 29.414062 49.726562 26.351562 45.945312 26.351562 L 42.460938 26.351562 C 42.339844 26.351562 42.21875 26.300781 42.125 26.21875 L 34.378906 19.273438 L 15.816406 19.273438 " fill-opacity="1" fill-rule="nonzero"/></g></svg>