<svg xmlns="http://www.w3.org/2000/svg" xmlns:xlink="http://www.w3.org/1999/xlink" width="80" zoomAndPan="magnify" viewBox="0 0 60 60" height="80" preserveAspectRatio="xMidYMid meet" version="1.0"><defs><clipPath id="9fa46f8961"><path d="M 13 14.367188 L 42.804688 14.367188 L 42.804688 45 L 13 45 Z M 13 14.367188 " clip-rule="nonzero"/></clipPath></defs><g clip-path="url(#9fa46f8961)"><path fill="#0c4b4b" d="M 42.664062 23.3125 C 42.472656 23.027344 42.019531 22.253906 41.960938 21.214844 C 41.871094 19.621094 39.910156 18.625 39.074219 18.199219 C 39.046875 18.1875 38.976562 18.15625 38.878906 18.117188 C 38.722656 18.054688 38.253906 17.863281 38.125 17.769531 C 37.605469 16.496094 37.488281 14.644531 37.488281 14.625 C 37.484375 14.539062 37.4375 14.464844 37.367188 14.414062 C 37.296875 14.367188 37.210938 14.355469 37.128906 14.382812 C 34.550781 15.253906 34.453125 17.378906 34.488281 18.054688 C 31.902344 19.339844 31.890625 21.082031 31.878906 23.472656 L 31.878906 23.675781 C 31.863281 26.019531 27.726562 28.148438 27.664062 28.179688 C 24.96875 29.835938 20.808594 33.847656 22.945312 42.214844 C 20.46875 42.015625 18.640625 41.207031 17.503906 39.800781 C 15.460938 37.28125 15.792969 33.4375 16.433594 30.660156 C 16.515625 30.296875 16.824219 29.757812 17.078125 29.640625 C 17.375 29.503906 17.714844 29.511719 18.003906 29.660156 C 18.636719 29.984375 19.414062 29.738281 19.738281 29.109375 C 19.898438 28.808594 19.925781 28.460938 19.824219 28.136719 C 19.71875 27.808594 19.492188 27.542969 19.183594 27.386719 C 18.179688 26.875 17.019531 26.851562 15.992188 27.320312 C 14.972656 27.792969 14.242188 28.6875 13.992188 29.777344 C 13.195312 33.25 12.808594 38.082031 15.496094 41.402344 C 17.273438 43.597656 20.105469 44.746094 23.917969 44.8125 C 23.941406 44.820312 23.96875 44.824219 23.996094 44.824219 L 34.273438 44.824219 C 34.34375 44.824219 34.414062 44.796875 34.464844 44.742188 C 34.515625 44.691406 34.542969 44.621094 34.542969 44.550781 C 34.539062 43.582031 34.265625 42.867188 33.738281 42.433594 C 33.507812 42.242188 33.257812 42.132812 33.023438 42.066406 C 34.585938 40.984375 35.066406 39.40625 35.207031 38.316406 L 37.578125 43.636719 C 37.878906 44.3125 38.554688 44.746094 39.296875 44.746094 C 39.300781 44.746094 39.300781 44.746094 39.304688 44.746094 L 40.601562 44.742188 C 40.929688 44.742188 41.234375 44.59375 41.441406 44.339844 C 41.640625 44.097656 41.71875 43.78125 41.65625 43.480469 C 41.277344 41.664062 39.914062 41.503906 39.402344 41.507812 C 39.246094 41.207031 38.890625 40.4375 38.664062 39.300781 C 38.324219 37.59375 38.628906 37.011719 39.636719 35.441406 C 41.851562 32.003906 39.746094 27.753906 38.867188 26.257812 C 41.691406 26.640625 42.585938 24.3125 42.742188 23.8125 C 42.792969 23.644531 42.765625 23.460938 42.664062 23.3125 Z M 38.367188 25.605469 C 38.257812 25.578125 38.140625 25.621094 38.078125 25.714844 C 38.011719 25.804688 38.011719 25.929688 38.074219 26.023438 C 38.113281 26.074219 41.664062 31.292969 39.179688 35.148438 C 38.148438 36.75 37.746094 37.476562 38.132812 39.410156 C 38.445312 40.984375 38.992188 41.890625 39.015625 41.929688 C 39.070312 42.023438 39.179688 42.074219 39.285156 42.058594 C 39.347656 42.046875 40.765625 41.867188 41.121094 43.589844 C 41.152344 43.734375 41.117188 43.878906 41.019531 44 C 40.917969 44.125 40.765625 44.199219 40.601562 44.199219 L 39.304688 44.203125 C 39.300781 44.203125 39.300781 44.203125 39.296875 44.203125 C 38.769531 44.203125 38.289062 43.894531 38.074219 43.414062 L 35.222656 37.019531 C 34.703125 33.71875 31.890625 33.679688 31.859375 33.679688 C 31.710938 33.679688 31.589844 33.800781 31.589844 33.949219 C 31.589844 34.097656 31.710938 34.222656 31.859375 34.222656 C 31.957031 34.222656 34.265625 34.269531 34.695312 37.144531 C 34.714844 37.300781 35.082031 40.558594 32 42.035156 C 31.875 42.09375 31.816406 42.234375 31.859375 42.363281 C 31.902344 42.492188 32.03125 42.574219 32.167969 42.546875 C 32.171875 42.546875 32.878906 42.425781 33.398438 42.855469 C 33.746094 43.144531 33.945312 43.625 33.988281 44.28125 L 24.066406 44.28125 C 24.042969 44.273438 24.019531 44.269531 23.992188 44.269531 C 20.316406 44.21875 17.601562 43.136719 15.917969 41.0625 C 13.367188 37.910156 13.75 33.253906 14.523438 29.898438 C 14.734375 28.972656 15.355469 28.214844 16.222656 27.816406 C 17.09375 27.414062 18.082031 27.433594 18.9375 27.871094 C 19.113281 27.960938 19.246094 28.113281 19.304688 28.300781 C 19.363281 28.488281 19.347656 28.6875 19.257812 28.859375 C 19.066406 29.222656 18.617188 29.363281 18.253906 29.175781 C 17.8125 28.949219 17.300781 28.941406 16.851562 29.148438 C 16.371094 29.367188 16 30.109375 15.902344 30.539062 C 15.238281 33.433594 14.902344 37.453125 17.078125 40.140625 C 18.375 41.742188 20.464844 42.628906 23.289062 42.785156 C 23.378906 42.792969 23.460938 42.75 23.515625 42.683594 C 23.570312 42.613281 23.589844 42.523438 23.566406 42.441406 C 22.597656 38.886719 21.875 32.371094 27.929688 28.652344 C 28.113281 28.5625 32.402344 26.355469 32.421875 23.675781 L 32.421875 23.476562 C 32.433594 21.066406 32.441406 19.609375 34.890625 18.460938 C 35.003906 18.410156 35.0625 18.292969 35.042969 18.171875 C 35.027344 18.078125 34.714844 15.980469 36.976562 15.023438 C 37.039062 15.660156 37.214844 16.996094 37.636719 18.019531 C 37.710938 18.195312 37.925781 18.316406 38.675781 18.621094 C 38.75 18.652344 38.804688 18.671875 38.828125 18.683594 C 39.578125 19.066406 41.34375 19.964844 41.417969 21.246094 C 41.484375 22.417969 41.996094 23.296875 42.214844 23.617188 L 42.222656 23.648438 C 42.023438 24.289062 41.152344 26.320312 38.367188 25.605469 Z M 38.367188 25.605469 " fill-opacity="1" fill-rule="nonzero"/></g></svg>