<svg xmlns="http://www.w3.org/2000/svg" xmlns:xlink="http://www.w3.org/1999/xlink" width="80" zoomAndPan="magnify" viewBox="0 0 60 60" height="80" preserveAspectRatio="xMidYMid meet" version="1.0"><defs><clipPath id="6bdc73ed05"><path d="M 6 5.503906 L 53.800781 5.503906 L 53.800781 54.253906 L 6 54.253906 Z M 6 5.503906 " clip-rule="nonzero"/></clipPath></defs><g clip-path="url(#6bdc73ed05)"><path fill="#0c4b4b" d="M 53.832031 19.886719 C 53.523438 19.429688 52.796875 18.183594 52.699219 16.511719 C 52.554688 13.949219 49.402344 12.347656 48.054688 11.660156 C 48.015625 11.640625 47.898438 11.59375 47.746094 11.53125 C 47.488281 11.425781 46.738281 11.121094 46.53125 10.972656 C 45.699219 8.921875 45.507812 5.941406 45.507812 5.914062 C 45.5 5.777344 45.425781 5.652344 45.3125 5.574219 C 45.203125 5.5 45.058594 5.480469 44.929688 5.523438 C 40.785156 6.925781 40.621094 10.34375 40.679688 11.425781 C 36.519531 13.496094 36.503906 16.296875 36.484375 20.144531 L 36.480469 20.46875 C 36.457031 24.242188 29.804688 27.660156 29.707031 27.714844 C 25.367188 30.375 18.679688 36.828125 22.113281 50.289062 C 18.132812 49.972656 15.191406 48.664062 13.359375 46.40625 C 10.078125 42.351562 10.613281 36.175781 11.636719 31.707031 C 11.773438 31.117188 12.265625 30.253906 12.675781 30.066406 C 13.15625 29.84375 13.699219 29.855469 14.167969 30.097656 C 15.183594 30.617188 16.433594 30.21875 16.957031 29.210938 C 17.210938 28.726562 17.257812 28.167969 17.09375 27.644531 C 16.925781 27.121094 16.558594 26.691406 16.066406 26.4375 C 14.453125 25.613281 12.582031 25.574219 10.933594 26.335938 C 9.289062 27.089844 8.117188 28.53125 7.714844 30.285156 C 6.429688 35.867188 5.808594 43.644531 10.132812 48.984375 C 12.992188 52.515625 17.550781 54.359375 23.675781 54.46875 C 23.714844 54.480469 23.757812 54.488281 23.800781 54.488281 L 40.332031 54.488281 C 40.449219 54.488281 40.5625 54.441406 40.644531 54.355469 C 40.726562 54.273438 40.769531 54.164062 40.769531 54.046875 C 40.761719 52.484375 40.324219 51.339844 39.472656 50.640625 C 39.105469 50.335938 38.703125 50.15625 38.328125 50.050781 C 40.835938 48.308594 41.613281 45.773438 41.835938 44.015625 L 45.652344 52.574219 C 46.136719 53.660156 47.222656 54.363281 48.417969 54.363281 C 48.421875 54.363281 48.425781 54.363281 48.429688 54.363281 L 50.515625 54.355469 C 51.042969 54.351562 51.535156 54.117188 51.867188 53.710938 C 52.183594 53.316406 52.308594 52.8125 52.207031 52.324219 C 51.601562 49.40625 49.40625 49.148438 48.585938 49.152344 C 48.335938 48.667969 47.761719 47.429688 47.398438 45.605469 C 46.851562 42.851562 47.339844 41.921875 48.964844 39.394531 C 52.527344 33.863281 49.140625 27.027344 47.722656 24.621094 C 52.269531 25.238281 53.703125 21.496094 53.957031 20.691406 C 54.039062 20.421875 53.996094 20.128906 53.832031 19.886719 Z M 46.917969 23.574219 C 46.742188 23.527344 46.554688 23.597656 46.453125 23.746094 C 46.347656 23.898438 46.347656 24.097656 46.453125 24.246094 C 46.507812 24.332031 52.222656 32.71875 48.230469 38.921875 C 46.570312 41.5 45.921875 42.667969 46.539062 45.777344 C 47.042969 48.3125 47.921875 49.769531 47.960938 49.832031 C 48.050781 49.980469 48.230469 50.0625 48.398438 50.035156 C 48.496094 50.019531 50.777344 49.726562 51.351562 52.5 C 51.398438 52.734375 51.339844 52.96875 51.1875 53.15625 C 51.019531 53.363281 50.777344 53.480469 50.515625 53.480469 L 48.425781 53.488281 C 48.421875 53.488281 48.421875 53.488281 48.417969 53.488281 C 47.566406 53.488281 46.796875 52.988281 46.453125 52.21875 L 41.863281 41.9375 C 41.03125 36.625 36.5 36.558594 36.453125 36.558594 C 36.214844 36.558594 36.019531 36.753906 36.019531 36.996094 C 36.015625 37.234375 36.210938 37.429688 36.453125 37.433594 C 36.609375 37.433594 40.320312 37.511719 41.011719 42.132812 C 41.042969 42.386719 41.640625 47.625 36.679688 50 C 36.480469 50.09375 36.382812 50.320312 36.453125 50.53125 C 36.519531 50.738281 36.730469 50.867188 36.945312 50.824219 C 36.957031 50.824219 38.089844 50.628906 38.925781 51.320312 C 39.484375 51.785156 39.804688 52.554688 39.878906 53.613281 L 23.914062 53.613281 C 23.878906 53.601562 23.839844 53.59375 23.800781 53.59375 C 17.890625 53.511719 13.519531 51.773438 10.8125 48.433594 C 6.710938 43.367188 7.324219 35.875 8.566406 30.480469 C 8.90625 28.992188 9.902344 27.773438 11.300781 27.128906 C 12.699219 26.480469 14.292969 26.515625 15.667969 27.21875 C 15.953125 27.363281 16.160156 27.609375 16.257812 27.910156 C 16.355469 28.210938 16.328125 28.53125 16.179688 28.808594 C 15.878906 29.390625 15.15625 29.617188 14.566406 29.316406 C 13.859375 28.953125 13.035156 28.9375 12.308594 29.273438 C 11.539062 29.625 10.945312 30.816406 10.785156 31.511719 C 9.714844 36.167969 9.175781 42.628906 12.679688 46.953125 C 14.765625 49.527344 18.125 50.957031 22.667969 51.203125 C 22.808594 51.21875 22.945312 51.152344 23.03125 51.042969 C 23.121094 50.933594 23.152344 50.789062 23.113281 50.652344 C 21.554688 44.9375 20.394531 34.453125 30.132812 28.476562 C 30.425781 28.328125 37.328125 24.78125 37.355469 20.472656 L 37.359375 20.148438 C 37.378906 16.273438 37.390625 13.933594 41.332031 12.085938 C 41.507812 12 41.609375 11.808594 41.574219 11.617188 C 41.550781 11.464844 41.042969 8.09375 44.683594 6.554688 C 44.785156 7.578125 45.0625 9.726562 45.75 11.371094 C 45.863281 11.652344 46.207031 11.851562 47.417969 12.339844 C 47.535156 12.386719 47.625 12.421875 47.660156 12.441406 C 48.871094 13.058594 51.710938 14.503906 51.828125 16.558594 C 51.933594 18.449219 52.757812 19.859375 53.109375 20.375 L 53.121094 20.429688 C 52.800781 21.457031 51.402344 24.722656 46.917969 23.574219 Z M 46.917969 23.574219 " fill-opacity="1" fill-rule="nonzero"/></g></svg>