<svg xmlns="http://www.w3.org/2000/svg" xmlns:xlink="http://www.w3.org/1999/xlink" width="80" zoomAndPan="magnify" viewBox="0 0 60 60" height="80" preserveAspectRatio="xMidYMid meet" version="1.0"><defs><clipPath id="939856e7b4"><path d="M 13 14.285156 L 42.804688 14.285156 L 42.804688 45 L 13 45 Z M 13 14.285156 " clip-rule="nonzero"/></clipPath></defs><g clip-path="url(#939856e7b4)"><path fill="#eeffd6" d="M 42.746094 23.253906 C 42.554688 22.96875 42.101562 22.191406 42.039062 21.148438 C 41.949219 19.550781 39.984375 18.550781 39.144531 18.125 C 39.121094 18.109375 39.046875 18.082031 38.953125 18.042969 C 38.792969 17.976562 38.324219 17.789062 38.195312 17.695312 C 37.675781 16.414062 37.558594 14.558594 37.554688 14.539062 C 37.550781 14.457031 37.507812 14.378906 37.4375 14.332031 C 37.367188 14.285156 37.277344 14.273438 37.195312 14.300781 C 34.613281 15.171875 34.511719 17.300781 34.546875 17.976562 C 31.953125 19.269531 31.945312 21.015625 31.929688 23.414062 L 31.929688 23.613281 C 31.914062 25.96875 27.765625 28.101562 27.707031 28.132812 C 25 29.792969 20.832031 33.816406 22.972656 42.207031 C 20.492188 42.007812 18.65625 41.195312 17.515625 39.785156 C 15.46875 37.257812 15.800781 33.40625 16.441406 30.621094 C 16.527344 30.253906 16.832031 29.714844 17.089844 29.597656 C 17.386719 29.460938 17.726562 29.46875 18.019531 29.617188 C 18.652344 29.941406 19.433594 29.695312 19.757812 29.066406 C 19.914062 28.761719 19.945312 28.414062 19.839844 28.089844 C 19.738281 27.761719 19.511719 27.496094 19.203125 27.335938 C 18.195312 26.824219 17.03125 26.800781 16.003906 27.273438 C 14.976562 27.742188 14.246094 28.640625 13.996094 29.734375 C 13.195312 33.214844 12.808594 38.0625 15.503906 41.390625 C 17.285156 43.59375 20.125 44.742188 23.945312 44.8125 C 23.972656 44.820312 23.996094 44.824219 24.023438 44.824219 L 34.332031 44.824219 C 34.402344 44.824219 34.472656 44.792969 34.523438 44.742188 C 34.574219 44.691406 34.605469 44.621094 34.601562 44.546875 C 34.597656 43.574219 34.324219 42.859375 33.796875 42.425781 C 33.566406 42.234375 33.316406 42.121094 33.082031 42.058594 C 34.644531 40.96875 35.128906 39.390625 35.265625 38.296875 L 37.648438 43.632812 C 37.949219 44.308594 38.625 44.746094 39.371094 44.746094 C 39.371094 44.746094 39.375 44.746094 39.378906 44.746094 L 40.679688 44.742188 C 41.007812 44.738281 41.3125 44.59375 41.519531 44.339844 C 41.71875 44.09375 41.796875 43.777344 41.734375 43.472656 C 41.355469 41.65625 39.988281 41.492188 39.476562 41.496094 C 39.320312 41.195312 38.960938 40.421875 38.734375 39.285156 C 38.394531 37.570312 38.699219 36.992188 39.710938 35.414062 C 41.929688 31.964844 39.820312 27.703125 38.9375 26.207031 C 41.769531 26.589844 42.664062 24.257812 42.824219 23.753906 C 42.875 23.585938 42.847656 23.402344 42.746094 23.253906 Z M 38.4375 25.550781 C 38.328125 25.523438 38.210938 25.566406 38.144531 25.660156 C 38.082031 25.753906 38.082031 25.875 38.144531 25.96875 C 38.179688 26.023438 41.742188 31.253906 39.253906 35.121094 C 38.21875 36.726562 37.816406 37.457031 38.199219 39.390625 C 38.515625 40.972656 39.0625 41.882812 39.085938 41.921875 C 39.144531 42.011719 39.253906 42.066406 39.359375 42.046875 C 39.417969 42.039062 40.839844 41.855469 41.199219 43.585938 C 41.230469 43.730469 41.191406 43.875 41.097656 43.996094 C 40.992188 44.121094 40.839844 44.195312 40.675781 44.195312 L 39.375 44.199219 C 39.375 44.199219 39.371094 44.199219 39.371094 44.199219 C 38.839844 44.199219 38.359375 43.890625 38.144531 43.410156 L 35.285156 37 C 34.765625 33.6875 31.941406 33.644531 31.914062 33.644531 C 31.761719 33.644531 31.640625 33.765625 31.640625 33.917969 C 31.640625 34.066406 31.761719 34.191406 31.910156 34.191406 C 32.011719 34.191406 34.324219 34.238281 34.753906 37.121094 C 34.773438 37.277344 35.144531 40.542969 32.050781 42.027344 C 31.929688 42.085938 31.867188 42.226562 31.910156 42.355469 C 31.953125 42.484375 32.085938 42.566406 32.21875 42.539062 C 32.226562 42.539062 32.933594 42.417969 33.453125 42.847656 C 33.800781 43.140625 34.003906 43.617188 34.046875 44.277344 L 24.09375 44.277344 C 24.074219 44.269531 24.050781 44.265625 24.023438 44.265625 C 20.339844 44.214844 17.613281 43.132812 15.925781 41.050781 C 13.367188 37.890625 13.753906 33.21875 14.527344 29.855469 C 14.738281 28.929688 15.359375 28.167969 16.230469 27.765625 C 17.105469 27.363281 18.097656 27.382812 18.953125 27.824219 C 19.132812 27.914062 19.261719 28.066406 19.320312 28.253906 C 19.382812 28.441406 19.363281 28.640625 19.273438 28.816406 C 19.085938 29.175781 18.632812 29.320312 18.269531 29.132812 C 17.824219 28.90625 17.3125 28.894531 16.859375 29.101562 C 16.378906 29.324219 16.007812 30.066406 15.910156 30.5 C 15.242188 33.402344 14.90625 37.429688 17.089844 40.128906 C 18.390625 41.730469 20.484375 42.625 23.316406 42.777344 C 23.40625 42.785156 23.488281 42.742188 23.546875 42.675781 C 23.601562 42.609375 23.617188 42.515625 23.597656 42.433594 C 22.621094 38.871094 21.898438 32.335938 27.972656 28.605469 C 28.15625 28.515625 32.457031 26.304688 32.476562 23.617188 L 32.476562 23.417969 C 32.488281 21 32.496094 19.539062 34.953125 18.386719 C 35.0625 18.335938 35.125 18.21875 35.105469 18.097656 C 35.089844 18.003906 34.773438 15.902344 37.042969 14.941406 C 37.105469 15.578125 37.28125 16.917969 37.707031 17.945312 C 37.777344 18.117188 37.992188 18.242188 38.746094 18.546875 C 38.820312 18.578125 38.875 18.601562 38.898438 18.609375 C 39.652344 18.996094 41.421875 19.894531 41.496094 21.179688 C 41.5625 22.355469 42.078125 23.234375 42.296875 23.558594 L 42.304688 23.589844 C 42.101562 24.230469 41.230469 26.265625 38.4375 25.550781 Z M 38.4375 25.550781 " fill-opacity="1" fill-rule="nonzero"/></g></svg>