<svg height="80" preserveAspectRatio="xMidYMid meet" viewBox="0 0 60 60" width="80" xmlns="http://www.w3.org/2000/svg" xmlns:xlink="http://www.w3.org/1999/xlink" zoomAndPan="magnify"><clipPath id="a"><path d="m6 5.503906h47.800781v48.75h-47.800781zm0 0"/></clipPath><g clip-path="url(#a)"><path d="m53.832031 19.886719c-.308593-.457031-1.035156-1.703125-1.132812-3.375-.144531-2.5625-3.296875-4.164063-4.644531-4.851563-.039063-.019531-.15625-.066406-.308594-.128906-.257813-.105469-1.007813-.410156-1.214844-.558594-.832031-2.050781-1.023438-5.03125-1.023438-5.058594-.007812-.136718-.082031-.261718-.195312-.339843-.109375-.074219-.253906-.09375-.382812-.050781-4.144532 1.402343-4.308594 4.820312-4.25 5.902343-4.160157 2.070313-4.175782 4.871094-4.195313 8.71875l-.003906.324219c-.023438 3.773438-6.675781 7.191406-6.773438 7.246094-4.339843 2.660156-11.027343 9.113281-7.59375 22.574218-3.980469-.316406-6.921875-1.625-8.753906-3.882812-3.28125-4.054688-2.746094-10.230469-1.722656-14.699219.136719-.589843.628906-1.453125 1.039062-1.640625.480469-.222656 1.023438-.210937 1.492188.03125 1.015625.519532 2.265625.121094 2.789062-.886718.253907-.484376.300781-1.042969.136719-1.566407-.167969-.523437-.535156-.953125-1.027344-1.207031-1.613281-.824219-3.484375-.863281-5.132812-.101562-1.644532.753906-2.816406 2.195312-3.21875 3.949218-1.285156 5.582032-1.90625 13.359375 2.417968 18.699219 2.859376 3.53125 7.417969 5.375 13.542969 5.484375.039063.011719.082031.019531.125.019531h16.53125c.117188 0 .230469-.046875.3125-.132812.082031-.082031.125-.191407.125-.308594-.007812-1.5625-.445312-2.707031-1.296875-3.40625-.367187-.304687-.769531-.484375-1.144531-.589844 2.507813-1.742187 3.285156-4.277343 3.507813-6.035156l3.816406 8.558594c.484375 1.085937 1.570312 1.789062 2.765625 1.789062h.011719l2.085937-.007812c.527344-.003907 1.019531-.238281 1.351563-.644531.316406-.394532.441406-.898438.339843-1.386719-.605469-2.917969-2.800781-3.175781-3.621093-3.171875-.25-.484375-.824219-1.722656-1.1875-3.546875-.546876-2.753907-.058594-3.683594 1.566406-6.210938 3.5625-5.53125.175781-12.367187-1.242188-14.773437 4.546875.617187 5.980469-3.125 6.234375-3.929688.082031-.269531.039063-.5625-.125-.804687zm-6.914062 3.6875c-.175781-.046875-.363281.023437-.464844.171875-.105469.152344-.105469.351562 0 .5.054687.085937 5.769531 8.472656 1.777344 14.675781-1.660157 2.578125-2.308594 3.746094-1.691407 6.855469.503907 2.535156 1.382813 3.992187 1.421876 4.054687.089843.148438.269531.230469.4375.203125.097656-.015625 2.378906-.308594 2.953124 2.464844.046876.234375-.011718.46875-.164062.65625-.167969.207031-.410156.324219-.671875.324219l-2.089844.007812c-.003906 0-.003906 0-.007812 0-.851563 0-1.621094-.5-1.964844-1.269531l-4.589844-10.28125c-.832031-5.3125-5.363281-5.378906-5.410156-5.378906-.238281 0-.433594.195312-.433594.4375-.003906.238281.191407.433594.433594.4375.15625 0 3.867187.078125 4.558594 4.699218.03125.253907.628906 5.492188-4.332031 7.867188-.199219.09375-.296876.320312-.226563.53125.066406.207031.277344.335938.492187.292969.011719 0 1.144532-.195313 1.980469.496093.558594.464844.878907 1.234376.953125 2.292969h-15.964844c-.035156-.011719-.074218-.019531-.113281-.019531-5.910156-.082031-10.28125-1.820312-12.988281-5.160156-4.101562-5.066406-3.488281-12.558594-2.246094-17.953125.339844-1.488281 1.335938-2.707031 2.734375-3.351563 1.398438-.648437 2.992188-.613281 4.367188.089844.285156.144531.492187.390625.589843.691406.097657.300782.070313.621094-.078124.898438-.300782.582031-1.023438.808594-1.613282.507812-.707031-.363281-1.53125-.378906-2.257812-.042968-.769532.351562-1.363282 1.542968-1.523438 2.238281-1.070312 4.65625-1.609375 11.117187 1.894532 15.441406 2.085937 2.574219 5.445312 4.003906 9.988281 4.25.140625.015625.277343-.050781.363281-.160156.089844-.109375.121094-.253907.082031-.390625-1.558593-5.714844-2.71875-16.199219 7.019531-22.175782.292969-.148437 7.195313-3.695312 7.222657-8.003906l.003906-.324218c.019531-3.875.03125-6.214844 3.972656-8.0625.175781-.085938.277344-.277344.242188-.46875-.023438-.152344-.53125-3.523438 3.109375-5.0625.101562 1.023437.378906 3.171874 1.066406 4.816406.113281.28125.457031.480468 1.667969.96875.117187.046875.207031.082031.242187.101562 1.210938.617188 4.050782 2.0625 4.167969 4.117188.105469 1.890625.929687 3.300781 1.28125 3.816406l.011719.054688c-.320313 1.027343-1.71875 4.292968-6.203125 3.144531zm0 0" fill="#eeffd6"/></g></svg>