<svg xmlns="http://www.w3.org/2000/svg" xmlns:xlink="http://www.w3.org/1999/xlink" width="80" zoomAndPan="magnify" viewBox="0 0 60 60" height="80" preserveAspectRatio="xMidYMid meet" version="1.0"><defs><clipPath id="0d1eeed317"><path d="M 12.859375 17.59375 L 47.359375 17.59375 L 47.359375 42.34375 L 12.859375 42.34375 Z M 12.859375 17.59375 " clip-rule="nonzero"/></clipPath></defs><g clip-path="url(#0d1eeed317)"><path fill="#c3cfa2" d="M 33.921875 27.886719 L 29.09375 34.710938 L 26.105469 30.320312 L 32.859375 18.621094 L 39.128906 29.480469 Z M 21.488281 36.074219 L 19.089844 32.554688 L 24.554688 23.089844 L 27.035156 27.386719 L 24.386719 31.976562 Z M 47.066406 41.910156 L 33.144531 17.796875 C 33.023438 17.59375 32.691406 17.59375 32.574219 17.796875 L 27.414062 26.730469 L 24.839844 22.265625 C 24.722656 22.0625 24.386719 22.0625 24.269531 22.265625 L 12.925781 41.910156 C 12.867188 42.011719 12.867188 42.136719 12.925781 42.238281 C 12.984375 42.339844 13.09375 42.402344 13.210938 42.402344 L 46.78125 42.402344 C 46.898438 42.402344 47.007812 42.339844 47.066406 42.238281 C 47.125 42.136719 47.125 42.011719 47.066406 41.910156 " fill-opacity="1" fill-rule="nonzero"/></g></svg>