<svg xmlns="http://www.w3.org/2000/svg" xmlns:xlink="http://www.w3.org/1999/xlink" width="80" zoomAndPan="magnify" viewBox="0 0 60 60" height="80" preserveAspectRatio="xMidYMid meet" version="1.0"><defs><clipPath id="e52a3b8039"><path d="M 13.78125 13.417969 L 46.03125 13.417969 L 46.03125 46.417969 L 13.78125 46.417969 Z M 13.78125 13.417969 " clip-rule="nonzero"/></clipPath></defs><g clip-path="url(#e52a3b8039)"><path fill="#c3cfa2" d="M 46.054688 24.316406 L 42.183594 18.480469 C 40.53125 16.3125 39.390625 15.875 39.355469 15.863281 L 36.789062 14.808594 C 36.738281 14.726562 36.660156 14.660156 36.558594 14.636719 C 36.5 14.625 36.441406 14.628906 36.386719 14.644531 L 34.144531 13.722656 C 34.140625 13.722656 34.136719 13.722656 34.132812 13.722656 C 34.125 13.71875 34.121094 13.714844 34.117188 13.710938 C 34.066406 13.699219 34.015625 13.691406 33.96875 13.699219 C 33.957031 13.699219 33.949219 13.703125 33.9375 13.707031 C 33.894531 13.714844 33.851562 13.730469 33.8125 13.753906 C 33.804688 13.757812 33.796875 13.757812 33.792969 13.761719 C 32.339844 14.800781 30.511719 14.851562 30.160156 14.851562 L 29.757812 14.851562 C 29.40625 14.851562 27.578125 14.800781 26.125 13.761719 C 26.121094 13.757812 26.113281 13.757812 26.105469 13.753906 C 26.066406 13.730469 26.023438 13.714844 25.980469 13.707031 C 25.96875 13.703125 25.960938 13.699219 25.949219 13.699219 C 25.902344 13.691406 25.851562 13.695312 25.800781 13.710938 C 25.796875 13.714844 25.792969 13.71875 25.789062 13.71875 C 25.78125 13.722656 25.777344 13.71875 25.773438 13.722656 L 23.535156 14.640625 C 23.476562 14.628906 23.421875 14.621094 23.359375 14.636719 C 23.257812 14.660156 23.179688 14.726562 23.128906 14.808594 L 20.574219 15.859375 C 20.542969 15.871094 20.015625 16.082031 19.179688 16.863281 C 19.160156 16.882812 19.136719 16.898438 19.121094 16.917969 C 18.714844 17.304688 18.246094 17.804688 17.71875 18.5 L 13.863281 24.316406 C 13.761719 24.472656 13.789062 24.679688 13.933594 24.800781 L 18.929688 29.011719 C 19.078125 29.136719 19.300781 29.121094 19.433594 28.980469 L 20.550781 27.796875 C 20.625 29.847656 20.800781 35.589844 20.800781 45.472656 C 20.800781 45.65625 20.9375 45.8125 21.121094 45.835938 C 21.160156 45.839844 25.121094 46.3125 29.070312 46.3125 C 29.339844 46.3125 29.605469 46.308594 29.863281 46.304688 L 30.046875 46.304688 C 30.3125 46.308594 30.578125 46.3125 30.84375 46.3125 C 30.847656 46.3125 30.84375 46.3125 30.847656 46.3125 C 34.796875 46.3125 38.757812 45.839844 38.796875 45.835938 C 38.980469 45.8125 39.117188 45.65625 39.117188 45.472656 C 39.117188 35.589844 39.289062 29.847656 39.367188 27.796875 L 40.484375 28.980469 C 40.617188 29.125 40.835938 29.136719 40.984375 29.011719 L 45.984375 24.800781 C 46.125 24.679688 46.15625 24.472656 46.054688 24.316406 Z M 25.710938 14.539062 C 26.101562 15.421875 27.308594 17.609375 29.761719 17.605469 C 29.792969 17.605469 29.828125 17.605469 29.863281 17.605469 L 30.046875 17.605469 C 32.570312 17.667969 33.8125 15.433594 34.207031 14.539062 L 36.003906 15.277344 C 35.625 16.339844 34.1875 19.394531 30.089844 19.394531 C 30.089844 19.394531 30.085938 19.394531 30.085938 19.394531 L 29.828125 19.394531 C 29.828125 19.394531 29.828125 19.394531 29.824219 19.394531 C 25.683594 19.394531 24.277344 16.347656 23.910156 15.277344 Z M 30.039062 15.582031 L 30.160156 15.585938 C 30.589844 15.585938 31.878906 15.519531 33.183594 14.9375 C 32.660156 15.800781 31.671875 16.910156 30.054688 16.875 L 29.855469 16.875 C 28.222656 16.898438 27.242188 15.792969 26.726562 14.933594 C 28.039062 15.519531 29.328125 15.585938 29.761719 15.585938 Z M 19.136719 28.226562 L 14.652344 24.449219 L 18.316406 18.921875 C 18.679688 18.445312 19.011719 18.0625 19.3125 17.753906 C 19.746094 18.765625 20.710938 21.617188 20.515625 26.761719 Z M 30.84375 45.578125 C 30.582031 45.578125 30.320312 45.578125 30.054688 45.570312 L 29.855469 45.570312 C 26.34375 45.628906 22.628906 45.261719 21.53125 45.144531 C 21.527344 32.84375 21.253906 27.066406 21.246094 26.902344 C 21.484375 21.078125 20.296875 18.085938 19.871094 17.214844 C 20.46875 16.699219 20.828125 16.546875 20.839844 16.542969 L 23.238281 15.554688 C 23.699219 16.816406 25.339844 20.128906 29.824219 20.128906 C 29.824219 20.128906 29.828125 20.128906 29.828125 20.128906 L 30.085938 20.128906 C 30.085938 20.128906 30.085938 20.128906 30.089844 20.128906 C 34.574219 20.128906 36.21875 16.816406 36.679688 15.554688 L 39.085938 16.542969 C 39.09375 16.546875 39.449219 16.699219 40.042969 17.214844 C 39.621094 18.082031 38.433594 21.078125 38.671875 26.914062 C 38.660156 27.167969 38.390625 32.945312 38.386719 45.144531 C 37.367188 45.253906 34.101562 45.578125 30.84375 45.578125 Z M 40.78125 28.226562 L 39.398438 26.761719 C 39.207031 21.617188 40.167969 18.761719 40.605469 17.75 C 40.898438 18.058594 41.230469 18.433594 41.585938 18.902344 L 45.261719 24.449219 Z M 40.78125 28.226562 " fill-opacity="1" fill-rule="nonzero"/></g></svg>