<svg xmlns="http://www.w3.org/2000/svg" xmlns:xlink="http://www.w3.org/1999/xlink" width="80" zoomAndPan="magnify" viewBox="0 0 60 60" height="80" preserveAspectRatio="xMidYMid meet" version="1.0"><defs><clipPath id="56e0ca0e83"><path d="M 34 15.167969 L 48.726562 15.167969 L 48.726562 45 L 34 45 Z M 34 15.167969 " clip-rule="nonzero"/></clipPath><clipPath id="6aef76e15f"><path d="M 11.226562 19 L 38 19 L 38 45 L 11.226562 45 Z M 11.226562 19 " clip-rule="nonzero"/></clipPath></defs><g clip-path="url(#56e0ca0e83)"><path fill="#c3cfa2" d="M 39.878906 44.820312 L 37.246094 44.820312 C 36.335938 44.820312 35.597656 44.082031 35.597656 43.171875 L 34.949219 39.316406 L 34.28125 34.65625 C 34.277344 34.597656 34.28125 34.539062 34.304688 34.488281 L 35.621094 31.195312 C 35.6875 31.023438 35.882812 30.941406 36.046875 31.007812 C 36.21875 31.078125 36.300781 31.269531 36.234375 31.4375 L 34.949219 34.648438 L 35.601562 39.214844 L 36.25 43.117188 C 36.257812 43.71875 36.699219 44.160156 37.246094 44.160156 L 39.878906 44.160156 C 40.027344 44.15625 40.210938 44.097656 40.210938 43.832031 C 40.210938 43.234375 39.484375 42.71875 39.046875 42.464844 C 38.542969 42.171875 38.234375 41.625 38.234375 41.042969 L 38.234375 35.925781 C 38.234375 35.304688 38.957031 34.5 39.960938 33.382812 C 41.242188 31.957031 42.84375 30.179688 42.84375 28.679688 L 42.84375 24.070312 C 42.84375 22.890625 44.949219 21.105469 45.808594 21.105469 C 47.417969 21.105469 48.113281 19.316406 48.113281 18.746094 C 48.105469 18.726562 48.035156 18.648438 48 18.605469 C 47.921875 18.511719 47.832031 18.46875 47.734375 18.46875 L 45.808594 18.46875 C 45.132812 18.46875 44.6875 17.964844 44.222656 17.429688 C 43.566406 16.683594 42.824219 15.835938 41.195312 15.835938 C 40.300781 15.835938 36.914062 18.039062 36.914062 18.800781 C 36.914062 19.75 39.105469 22.421875 39.878906 22.421875 C 40.359375 22.421875 40.867188 22.074219 40.867188 21.433594 L 40.867188 18.140625 C 40.867188 17.957031 41.015625 17.8125 41.195312 17.8125 C 41.378906 17.8125 41.527344 17.957031 41.527344 18.140625 L 41.527344 21.433594 C 41.527344 22.464844 40.691406 23.082031 39.878906 23.082031 C 38.671875 23.082031 36.257812 20.007812 36.257812 18.800781 C 36.257812 17.492188 40.171875 15.175781 41.195312 15.175781 C 43.125 15.175781 44.046875 16.230469 44.71875 16.996094 C 45.160156 17.503906 45.449219 17.8125 45.808594 17.8125 L 47.734375 17.8125 C 48.023438 17.8125 48.300781 17.9375 48.488281 18.160156 C 48.609375 18.304688 48.773438 18.492188 48.773438 18.746094 C 48.773438 19.605469 47.890625 21.765625 45.808594 21.765625 C 45.261719 21.765625 43.503906 23.289062 43.503906 24.070312 L 43.503906 28.679688 C 43.503906 30.429688 41.808594 32.3125 40.449219 33.824219 C 39.71875 34.636719 38.890625 35.554688 38.890625 35.925781 L 38.890625 41.042969 C 38.890625 41.390625 39.078125 41.722656 39.378906 41.894531 C 40.058594 42.292969 40.867188 42.953125 40.867188 43.832031 C 40.867188 44.558594 40.277344 44.820312 39.878906 44.820312 " fill-opacity="1" fill-rule="nonzero"/></g><g clip-path="url(#6aef76e15f)"><path fill="#c3cfa2" d="M 16.164062 44.820312 C 13.394531 44.820312 11.226562 42.9375 11.226562 40.539062 C 11.226562 39.136719 11.871094 38.230469 12.871094 38.230469 C 13.835938 38.230469 14.117188 39.074219 14.363281 39.816406 C 14.65625 40.695312 14.929688 41.527344 16.164062 41.527344 C 18.390625 41.527344 20.304688 40.175781 20.457031 39.824219 C 20.449219 33.855469 24.628906 31.183594 27.683594 29.234375 C 28.519531 28.699219 29.242188 28.238281 29.785156 27.773438 C 33.121094 24.910156 35.261719 22.957031 36.804688 19.957031 C 36.886719 19.796875 37.085938 19.730469 37.25 19.8125 C 37.410156 19.894531 37.472656 20.09375 37.390625 20.257812 C 35.792969 23.363281 33.613281 25.359375 30.210938 28.273438 C 29.636719 28.769531 28.859375 29.261719 28.039062 29.789062 C 25.113281 31.65625 21.105469 34.21875 21.105469 39.878906 C 21.105469 40.605469 18.625 42.183594 16.164062 42.183594 C 14.457031 42.183594 14.042969 40.9375 13.738281 40.027344 C 13.472656 39.21875 13.316406 38.890625 12.871094 38.890625 C 12.144531 38.890625 11.882812 39.777344 11.882812 40.539062 C 11.882812 42.570312 13.765625 44.160156 16.164062 44.160156 C 18.691406 44.160156 21.261719 42.890625 21.289062 42.875 C 21.449219 42.796875 21.648438 42.859375 21.730469 43.027344 C 21.8125 43.1875 21.746094 43.386719 21.582031 43.46875 C 21.472656 43.523438 18.847656 44.820312 16.164062 44.820312 " fill-opacity="1" fill-rule="nonzero"/></g><path fill="#c3cfa2" d="M 32.058594 44.820312 L 22.589844 44.820312 C 22.085938 44.820312 21.625 44.5625 21.359375 44.132812 C 21.257812 43.96875 21.105469 43.726562 21.105469 43.441406 C 21.105469 43.136719 21.207031 42.894531 21.292969 42.71875 L 21.796875 41.707031 C 21.878906 41.542969 22.078125 41.480469 22.242188 41.558594 C 22.402344 41.640625 22.46875 41.839844 22.390625 42 L 21.882812 43.011719 C 21.800781 43.179688 21.765625 43.308594 21.765625 43.441406 C 21.765625 43.539062 21.859375 43.6875 21.917969 43.785156 C 22.0625 44.019531 22.316406 44.160156 22.589844 44.160156 L 32.058594 44.160156 C 32.382812 44.160156 32.964844 44.050781 32.964844 43.832031 C 32.964844 42.488281 29.304688 42.183594 28.023438 42.183594 C 27.851562 42.183594 27.707031 42.054688 27.695312 41.882812 C 27.679688 41.714844 27.796875 41.558594 27.964844 41.53125 C 28.089844 41.507812 30.988281 40.96875 30.988281 38.5625 C 30.988281 37.023438 28.242188 36.257812 26.707031 36.257812 C 26.523438 36.257812 26.375 36.109375 26.375 35.925781 C 26.375 35.742188 26.523438 35.597656 26.707031 35.597656 C 28.425781 35.597656 31.644531 36.46875 31.644531 38.5625 C 31.644531 40.175781 30.597656 41.105469 29.632812 41.617188 C 31.300781 41.789062 33.621094 42.308594 33.621094 43.832031 C 33.621094 44.609375 32.640625 44.820312 32.058594 44.820312 " fill-opacity="1" fill-rule="nonzero"/><path fill="#c3cfa2" d="M 31.246094 39.550781 C 31.132812 39.550781 31.027344 39.492188 30.964844 39.394531 C 30.867188 39.238281 30.917969 39.035156 31.074219 38.941406 L 34.773438 36.675781 C 34.929688 36.578125 35.132812 36.628906 35.226562 36.785156 C 35.324219 36.9375 35.273438 37.140625 35.117188 37.238281 L 31.417969 39.5 C 31.363281 39.535156 31.304688 39.550781 31.246094 39.550781 " fill-opacity="1" fill-rule="nonzero"/></svg>