<svg xmlns="http://www.w3.org/2000/svg" xmlns:xlink="http://www.w3.org/1999/xlink" width="80" zoomAndPan="magnify" viewBox="0 0 60 60" height="80" preserveAspectRatio="xMidYMid meet" version="1.0"><defs><clipPath id="a2155c6d26"><path d="M 16.230469 20 L 41 20 L 41 46.464844 L 16.230469 46.464844 Z M 16.230469 20 " clip-rule="nonzero"/></clipPath><clipPath id="3352a1d482"><path d="M 23 13.464844 L 43.980469 13.464844 L 43.980469 40 L 23 40 Z M 23 13.464844 " clip-rule="nonzero"/></clipPath></defs><g clip-path="url(#a2155c6d26)"><path fill="#6c91bb" d="M 40.210938 43.78125 C 38.023438 36.425781 36.246094 28.777344 36.195312 21.066406 C 36.1875 20.398438 35.550781 19.929688 34.910156 20.089844 C 29.425781 21.453125 23.890625 22.710938 18.28125 23.433594 C 17.585938 23.523438 17.265625 24.164062 17.328125 24.703125 C 17.339844 24.8125 17.316406 24.921875 17.265625 25.015625 C 16.230469 27.058594 16.488281 29.988281 16.683594 32.019531 C 17.035156 35.660156 17.925781 39.359375 19.511719 42.664062 C 20.972656 45.699219 23.230469 46.507812 26.511719 46.371094 C 30.589844 46.199219 34.890625 44.453125 38.964844 45.027344 C 39.6875 45.128906 40.457031 44.597656 40.210938 43.78125 Z M 29.167969 44.078125 C 27.472656 44.320312 25.644531 44.542969 23.941406 44.234375 C 22.691406 44.011719 22.121094 43.203125 21.53125 42.152344 C 19.960938 39.351562 19.214844 35.917969 18.796875 32.765625 C 18.542969 30.84375 17.964844 27.191406 19.394531 25.464844 C 19.488281 25.347656 19.625 25.273438 19.769531 25.253906 C 24.386719 24.585938 28.953125 23.617188 33.488281 22.523438 C 33.851562 22.4375 34.203125 22.699219 34.21875 23.074219 C 34.496094 29.546875 35.878906 35.976562 37.644531 42.203125 C 37.75 42.574219 37.472656 42.945312 37.085938 42.957031 C 34.4375 43.035156 31.746094 43.710938 29.167969 44.078125 Z M 29.167969 44.078125 " fill-opacity="1" fill-rule="nonzero"/></g><g clip-path="url(#3352a1d482)"><path fill="#a0af75" d="M 43.207031 17.453125 C 40.3125 22.917969 39.109375 29.863281 35.984375 35.132812 C 34.484375 37.660156 31.894531 40.148438 29.464844 39.089844 C 28.375 38.613281 27.523438 37.59375 26.722656 36.464844 C 25.839844 35.21875 25.089844 34.210938 24.046875 33.378906 C 22.171875 31.890625 23.847656 27.78125 25.722656 29.269531 C 26.839844 30.15625 27.824219 31.335938 28.730469 32.617188 C 29.050781 33.070312 29.367188 33.535156 29.707031 33.953125 C 29.726562 33.972656 29.746094 33.996094 29.765625 34.015625 C 29.828125 34.070312 30.023438 34.273438 30.117188 34.359375 C 30.136719 34.375 30.15625 34.390625 30.175781 34.40625 C 30.183594 34.410156 30.1875 34.414062 30.195312 34.417969 C 30.21875 34.4375 30.246094 34.453125 30.277344 34.464844 C 30.300781 34.480469 30.324219 34.492188 30.351562 34.5 C 30.390625 34.515625 30.480469 34.527344 30.542969 34.535156 C 30.566406 34.539062 30.585938 34.539062 30.609375 34.539062 C 30.644531 34.542969 30.683594 34.542969 30.714844 34.539062 C 30.71875 34.539062 30.71875 34.539062 30.71875 34.539062 C 30.773438 34.535156 30.828125 34.523438 30.878906 34.503906 C 30.886719 34.5 30.890625 34.496094 30.898438 34.496094 C 31.011719 34.457031 31.125 34.410156 31.238281 34.359375 C 31.636719 34.164062 32.011719 33.90625 32.371094 33.546875 C 32.398438 33.515625 32.542969 33.351562 32.578125 33.3125 C 32.59375 33.300781 32.601562 33.285156 32.613281 33.273438 C 32.640625 33.242188 32.667969 33.207031 32.691406 33.175781 C 32.839844 32.984375 32.980469 32.792969 33.117188 32.589844 C 33.296875 32.324219 33.472656 32.050781 33.636719 31.765625 C 33.703125 31.65625 33.765625 31.539062 33.832031 31.425781 C 33.84375 31.398438 33.859375 31.371094 33.875 31.335938 C 36.46875 26.28125 37.695312 20.039062 40.339844 15.050781 C 40.882812 14.019531 41.757812 13.480469 42.613281 14.195312 C 43.320312 14.792969 43.757812 16.417969 43.207031 17.453125 Z M 43.207031 17.453125 " fill-opacity="1" fill-rule="nonzero"/></g></svg>