<svg xmlns="http://www.w3.org/2000/svg" xmlns:xlink="http://www.w3.org/1999/xlink" width="40" zoomAndPan="magnify" viewBox="0 0 30 30.000001" height="40" preserveAspectRatio="xMidYMid meet" version="1.0"><defs><clipPath id="6823d6e2c3"><path d="M 8.058594 7.574219 L 21.847656 7.574219 L 21.847656 21.363281 L 8.058594 21.363281 Z M 8.058594 7.574219 " clip-rule="nonzero"/></clipPath></defs><g clip-path="url(#6823d6e2c3)"><path fill="#0c4b4b" d="M 10.03125 21.316406 L 11.886719 20.773438 C 12.191406 20.679688 12.457031 20.523438 12.679688 20.296875 L 21.226562 11.75 C 21.886719 11.089844 21.953125 10.078125 21.371094 9.496094 L 20.058594 8.1875 C 19.476562 7.605469 18.46875 7.667969 17.804688 8.332031 L 9.261719 16.875 C 9.035156 17.101562 8.875 17.363281 8.785156 17.671875 L 8.242188 19.523438 C 8.15625 19.777344 8.144531 20.039062 8.203125 20.300781 C 8.261719 20.5625 8.386719 20.789062 8.574219 20.984375 C 8.847656 21.257812 9.179688 21.390625 9.566406 21.382812 C 9.726562 21.382812 9.878906 21.359375 10.03125 21.316406 Z M 18.605469 9.132812 C 18.730469 9 18.882812 8.929688 19.0625 8.921875 C 19.136719 8.917969 19.203125 8.9375 19.257812 8.988281 L 20.566406 10.296875 C 20.6875 10.417969 20.652344 10.722656 20.425781 10.949219 L 19.113281 12.261719 L 17.296875 10.445312 Z M 9.328125 19.84375 L 9.871094 17.988281 C 9.910156 17.871094 9.972656 17.765625 10.0625 17.675781 L 16.492188 11.246094 L 18.3125 13.0625 L 11.878906 19.496094 C 11.789062 19.585938 11.6875 19.648438 11.566406 19.683594 L 9.714844 20.230469 C 9.589844 20.28125 9.476562 20.265625 9.375 20.183594 C 9.292969 20.078125 9.277344 19.964844 9.328125 19.84375 Z M 9.328125 19.84375 " fill-opacity="1" fill-rule="nonzero"/></g></svg>