<svg xmlns="http://www.w3.org/2000/svg" xmlns:xlink="http://www.w3.org/1999/xlink" width="80" zoomAndPan="magnify" viewBox="0 0 60 60" height="80" preserveAspectRatio="xMidYMid meet" version="1.0"><defs><clipPath id="b37385648c"><path d="M 14.824219 14.765625 L 44.824219 14.765625 L 44.824219 45.515625 L 14.824219 45.515625 Z M 14.824219 14.765625 " clip-rule="nonzero"/></clipPath></defs><g clip-path="url(#b37385648c)"><path fill="#c3cfa2" d="M 45.15625 38.175781 C 45.15625 38.441406 44.941406 38.65625 44.679688 38.65625 C 44.414062 38.65625 44.199219 38.441406 44.199219 38.175781 L 44.199219 22.390625 C 44.199219 19.167969 42.859375 17.117188 41.140625 16.230469 C 40.484375 15.890625 39.769531 15.722656 39.058594 15.722656 C 38.34375 15.71875 37.628906 15.890625 36.972656 16.230469 C 35.25 17.113281 33.898438 19.164062 33.894531 22.390625 L 33.867188 37.601562 C 33.859375 41.238281 32.285156 43.578125 30.273438 44.609375 C 29.476562 45.019531 28.613281 45.222656 27.75 45.222656 C 26.882812 45.222656 26.019531 45.019531 25.226562 44.609375 C 23.257812 43.59375 21.714844 41.328125 21.652344 37.824219 L 20.140625 37.824219 C 19.875 37.824219 19.660156 37.609375 19.660156 37.347656 L 19.660156 34.613281 L 18.53125 34.613281 C 17.515625 34.613281 16.59375 34.195312 15.925781 33.527344 C 15.257812 32.859375 14.839844 31.9375 14.839844 30.921875 L 14.839844 22.339844 C 14.839844 22.074219 15.054688 21.859375 15.320312 21.859375 L 17.273438 21.859375 L 17.273438 17.089844 C 17.273438 16.824219 17.488281 16.609375 17.753906 16.609375 C 18.019531 16.609375 18.234375 16.824219 18.234375 17.089844 L 18.234375 21.859375 L 21.910156 21.859375 L 21.910156 15.859375 C 21.910156 15.59375 22.125 15.378906 22.386719 15.378906 C 22.652344 15.378906 22.867188 15.59375 22.867188 15.859375 L 22.867188 21.859375 L 26.542969 21.859375 L 26.542969 17.089844 C 26.542969 16.824219 26.757812 16.609375 27.023438 16.609375 C 27.289062 16.609375 27.5 16.824219 27.5 17.089844 L 27.5 21.859375 L 29.457031 21.859375 C 29.722656 21.859375 29.9375 22.074219 29.9375 22.339844 L 29.9375 30.921875 C 29.9375 31.9375 29.519531 32.859375 28.851562 33.527344 C 28.183594 34.195312 27.257812 34.613281 26.242188 34.613281 L 25.117188 34.613281 L 25.117188 37.347656 C 25.117188 37.609375 24.902344 37.824219 24.636719 37.824219 L 22.609375 37.824219 C 22.671875 40.917969 23.988281 42.894531 25.664062 43.757812 C 26.324219 44.097656 27.035156 44.269531 27.75 44.269531 C 28.460938 44.269531 29.175781 44.101562 29.835938 43.761719 C 31.558594 42.875 32.90625 40.824219 32.914062 37.601562 L 32.941406 22.390625 C 32.945312 18.753906 34.523438 16.414062 36.535156 15.378906 C 37.328125 14.972656 38.191406 14.765625 39.058594 14.765625 C 39.921875 14.769531 40.785156 14.972656 41.578125 15.382812 C 43.589844 16.421875 45.15625 18.757812 45.15625 22.390625 Z M 24.636719 33.65625 L 26.242188 33.65625 C 26.996094 33.65625 27.679688 33.347656 28.175781 32.851562 C 28.671875 32.355469 28.976562 31.671875 28.976562 30.921875 L 28.976562 22.816406 L 15.796875 22.816406 L 15.796875 30.921875 C 15.796875 31.671875 16.105469 32.355469 16.601562 32.851562 C 17.097656 33.347656 17.78125 33.65625 18.53125 33.65625 L 20.140625 33.65625 C 20.402344 33.65625 20.617188 33.867188 20.617188 34.132812 L 20.617188 36.867188 L 24.160156 36.867188 L 24.160156 34.132812 C 24.160156 33.867188 24.375 33.65625 24.636719 33.65625 " fill-opacity="1" fill-rule="nonzero"/></g><path fill="#c3cfa2" d="M 22.386719 26.324219 C 22.785156 26.324219 23.144531 26.488281 23.402344 26.746094 C 23.664062 27.007812 23.824219 27.367188 23.824219 27.761719 C 23.824219 28.15625 23.664062 28.515625 23.402344 28.777344 C 23.144531 29.035156 22.785156 29.199219 22.386719 29.199219 C 21.992188 29.199219 21.632812 29.035156 21.371094 28.777344 C 21.113281 28.515625 20.953125 28.15625 20.953125 27.761719 C 20.953125 27.367188 21.113281 27.007812 21.371094 26.746094 C 21.632812 26.488281 21.992188 26.324219 22.386719 26.324219 Z M 22.726562 27.421875 C 22.640625 27.335938 22.519531 27.28125 22.386719 27.28125 C 22.257812 27.28125 22.136719 27.335938 22.050781 27.421875 C 21.964844 27.511719 21.910156 27.628906 21.910156 27.761719 C 21.910156 27.894531 21.964844 28.015625 22.050781 28.101562 C 22.136719 28.1875 22.257812 28.242188 22.386719 28.242188 C 22.519531 28.242188 22.640625 28.1875 22.726562 28.101562 C 22.8125 28.011719 22.867188 27.894531 22.867188 27.761719 C 22.867188 27.628906 22.8125 27.511719 22.726562 27.421875 " fill-opacity="1" fill-rule="nonzero"/></svg>