<svg xmlns="http://www.w3.org/2000/svg" xmlns:xlink="http://www.w3.org/1999/xlink" width="80" zoomAndPan="magnify" viewBox="0 0 60 60" height="80" preserveAspectRatio="xMidYMid meet" version="1.0"><defs><clipPath id="78d19cd63f"><path d="M 13.140625 16.679688 L 19 16.679688 L 19 43.679688 L 13.140625 43.679688 Z M 13.140625 16.679688 " clip-rule="nonzero"/></clipPath><clipPath id="acd1feb60e"><path d="M 41 16.679688 L 46.890625 16.679688 L 46.890625 43.679688 L 41 43.679688 Z M 41 16.679688 " clip-rule="nonzero"/></clipPath></defs><path fill="#c3cfa2" d="M 30.085938 42.792969 C 29.605469 42.789062 29.128906 42.761719 28.652344 42.703125 C 28.175781 42.640625 27.707031 42.554688 27.242188 42.4375 C 26.777344 42.320312 26.320312 42.175781 25.871094 42.003906 C 25.425781 41.828125 24.988281 41.628906 24.566406 41.402344 C 24.144531 41.175781 23.734375 40.925781 23.34375 40.648438 C 22.953125 40.371094 22.578125 40.074219 22.222656 39.75 C 21.867188 39.429688 21.53125 39.085938 21.21875 38.722656 C 20.90625 38.359375 20.617188 37.976562 20.347656 37.578125 C 20.082031 37.179688 19.839844 36.765625 19.625 36.339844 C 19.410156 35.910156 19.222656 35.46875 19.058594 35.019531 C 18.898438 34.566406 18.761719 34.105469 18.65625 33.636719 C 18.550781 33.171875 18.476562 32.699219 18.429688 32.21875 C 18.382812 31.742188 18.363281 31.265625 18.375 30.785156 C 18.386719 30.304688 18.425781 29.828125 18.496094 29.351562 C 18.566406 28.878906 18.664062 28.410156 18.792969 27.945312 C 18.917969 27.484375 19.074219 27.03125 19.257812 26.585938 C 19.441406 26.144531 19.648438 25.714844 19.886719 25.296875 C 20.121094 24.878906 20.382812 24.476562 20.667969 24.089844 C 20.953125 23.703125 21.257812 23.335938 21.589844 22.988281 C 21.917969 22.640625 22.269531 22.3125 22.640625 22.007812 C 23.011719 21.703125 23.398438 21.421875 23.800781 21.164062 C 24.207031 20.90625 24.625 20.675781 25.058594 20.46875 C 25.492188 20.261719 25.9375 20.082031 26.390625 19.933594 C 26.847656 19.78125 27.308594 19.65625 27.78125 19.5625 C 28.25 19.46875 28.726562 19.402344 29.203125 19.363281 C 29.679688 19.328125 30.160156 19.320312 30.640625 19.34375 C 31.117188 19.363281 31.59375 19.414062 32.066406 19.496094 C 32.539062 19.578125 33.007812 19.683594 33.46875 19.824219 C 33.925781 19.960938 34.375 20.125 34.816406 20.320312 C 35.253906 20.511719 35.679688 20.730469 36.09375 20.976562 C 36.503906 21.21875 36.902344 21.488281 37.28125 21.785156 C 37.660156 22.078125 38.019531 22.394531 38.359375 22.730469 C 38.703125 23.066406 39.019531 23.425781 39.316406 23.800781 C 39.613281 24.179688 39.886719 24.574219 40.136719 24.984375 C 40.382812 25.394531 40.605469 25.816406 40.804688 26.253906 C 41 26.691406 41.167969 27.140625 41.308594 27.601562 C 41.453125 28.058594 41.566406 28.523438 41.648438 28.996094 C 41.734375 29.46875 41.789062 29.945312 41.816406 30.421875 C 41.839844 30.902344 41.839844 31.378906 41.804688 31.859375 C 41.773438 32.339844 41.710938 32.8125 41.621094 33.285156 C 41.527344 33.753906 41.410156 34.21875 41.261719 34.675781 C 41.113281 35.132812 40.9375 35.578125 40.734375 36.011719 C 40.535156 36.449219 40.304688 36.867188 40.050781 37.273438 C 39.796875 37.683594 39.519531 38.070312 39.21875 38.445312 C 38.914062 38.816406 38.589844 39.171875 38.246094 39.503906 C 37.902344 39.835938 37.535156 40.148438 37.152344 40.4375 C 36.769531 40.722656 36.371094 40.988281 35.953125 41.226562 C 35.539062 41.464844 35.109375 41.679688 34.667969 41.867188 C 33.203125 42.484375 31.675781 42.792969 30.085938 42.792969 Z M 30.085938 19.914062 C 29.664062 19.914062 29.238281 19.9375 28.816406 19.988281 C 28.394531 20.035156 27.976562 20.109375 27.5625 20.207031 C 27.152344 20.300781 26.746094 20.421875 26.34375 20.5625 C 25.945312 20.707031 25.554688 20.871094 25.171875 21.0625 C 24.792969 21.25 24.421875 21.457031 24.066406 21.6875 C 23.710938 21.917969 23.367188 22.167969 23.039062 22.4375 C 22.710938 22.707031 22.398438 22.992188 22.105469 23.296875 C 21.808594 23.605469 21.53125 23.925781 21.273438 24.261719 C 21.015625 24.597656 20.777344 24.949219 20.558594 25.3125 C 20.339844 25.675781 20.144531 26.054688 19.96875 26.441406 C 19.792969 26.828125 19.640625 27.222656 19.511719 27.625 C 19.378906 28.03125 19.273438 28.441406 19.191406 28.855469 C 19.109375 29.273438 19.050781 29.695312 19.015625 30.117188 C 18.980469 30.539062 18.96875 30.964844 18.984375 31.386719 C 18.996094 31.8125 19.035156 32.234375 19.097656 32.65625 C 19.160156 33.074219 19.246094 33.488281 19.355469 33.898438 C 19.464844 34.308594 19.597656 34.710938 19.753906 35.109375 C 19.910156 35.503906 20.089844 35.886719 20.289062 36.261719 C 20.488281 36.636719 20.710938 37 20.953125 37.347656 C 21.195312 37.695312 21.453125 38.03125 21.734375 38.351562 C 22.015625 38.667969 22.3125 38.972656 22.625 39.257812 C 22.941406 39.542969 23.269531 39.808594 23.617188 40.054688 C 23.960938 40.300781 24.320312 40.53125 24.691406 40.734375 C 25.0625 40.941406 25.441406 41.125 25.835938 41.289062 C 26.226562 41.453125 26.628906 41.589844 27.035156 41.707031 C 27.445312 41.824219 27.859375 41.917969 28.277344 41.984375 C 28.695312 42.054688 29.117188 42.101562 29.542969 42.121094 C 29.964844 42.140625 30.390625 42.136719 30.8125 42.109375 C 31.238281 42.082031 31.660156 42.03125 32.074219 41.957031 C 32.492188 41.878906 32.90625 41.78125 33.3125 41.65625 C 33.71875 41.53125 34.117188 41.386719 34.507812 41.21875 C 34.894531 41.050781 35.273438 40.859375 35.640625 40.644531 C 36.011719 40.433594 36.363281 40.203125 36.707031 39.949219 C 37.046875 39.695312 37.371094 39.421875 37.683594 39.132812 C 37.992188 38.84375 38.285156 38.535156 38.558594 38.210938 C 38.832031 37.886719 39.089844 37.550781 39.324219 37.195312 C 39.5625 36.84375 39.777344 36.480469 39.96875 36.101562 C 40.164062 35.722656 40.335938 35.335938 40.484375 34.9375 C 40.632812 34.539062 40.761719 34.136719 40.863281 33.722656 C 40.96875 33.3125 41.046875 32.894531 41.101562 32.476562 C 41.15625 32.054688 41.1875 31.632812 41.195312 31.207031 C 41.203125 30.78125 41.183594 30.359375 41.144531 29.9375 C 41.101562 29.511719 41.035156 29.09375 40.945312 28.679688 C 40.855469 28.265625 40.742188 27.855469 40.605469 27.453125 C 40.472656 27.050781 40.3125 26.660156 40.128906 26.273438 C 39.949219 25.890625 39.746094 25.519531 39.523438 25.15625 C 39.296875 24.796875 39.054688 24.449219 38.789062 24.117188 C 38.523438 23.785156 38.242188 23.46875 37.941406 23.167969 C 36.902344 22.125 35.703125 21.320312 34.339844 20.753906 C 32.980469 20.191406 31.5625 19.910156 30.085938 19.914062 Z M 30.085938 19.914062 " fill-opacity="1" fill-rule="nonzero"/><g clip-path="url(#78d19cd63f)"><path fill="#c3cfa2" d="M 15.902344 43.09375 C 15.71875 43.09375 15.539062 43.058594 15.371094 42.984375 C 15.199219 42.914062 15.050781 42.8125 14.917969 42.679688 C 14.789062 42.546875 14.691406 42.390625 14.625 42.21875 C 14.558594 42.046875 14.527344 41.867188 14.535156 41.683594 L 15.0625 24.230469 C 14.78125 24.140625 14.523438 24.011719 14.289062 23.839844 C 14.050781 23.667969 13.847656 23.464844 13.671875 23.226562 C 13.5 22.992188 13.367188 22.734375 13.277344 22.457031 C 13.1875 22.175781 13.140625 21.890625 13.140625 21.597656 C 13.140625 20.222656 14.242188 16.824219 15.902344 16.824219 C 17.566406 16.824219 18.667969 20.222656 18.667969 21.597656 C 18.667969 21.890625 18.621094 22.175781 18.527344 22.457031 C 18.4375 22.734375 18.304688 22.992188 18.132812 23.226562 C 17.960938 23.464844 17.753906 23.667969 17.519531 23.839844 C 17.28125 24.011719 17.023438 24.140625 16.746094 24.230469 L 17.273438 41.683594 C 17.277344 41.867188 17.246094 42.046875 17.179688 42.21875 C 17.113281 42.390625 17.015625 42.546875 16.886719 42.679688 C 16.757812 42.8125 16.609375 42.914062 16.4375 42.984375 C 16.265625 43.058594 16.089844 43.09375 15.902344 43.09375 Z M 15.902344 17.480469 C 15.457031 17.480469 14.925781 18.050781 14.476562 19.007812 C 14.078125 19.871094 13.796875 20.933594 13.796875 21.597656 C 13.796875 21.839844 13.835938 22.074219 13.917969 22.300781 C 14 22.527344 14.117188 22.738281 14.265625 22.925781 C 14.417969 23.113281 14.597656 23.269531 14.804688 23.394531 C 15.007812 23.519531 15.230469 23.609375 15.464844 23.660156 C 15.644531 23.699219 15.730469 23.808594 15.726562 23.992188 L 15.191406 41.703125 C 15.183594 41.902344 15.25 42.078125 15.390625 42.21875 C 15.53125 42.363281 15.703125 42.4375 15.902344 42.4375 C 16.105469 42.4375 16.273438 42.363281 16.414062 42.21875 C 16.554688 42.078125 16.621094 41.902344 16.617188 41.703125 L 16.082031 23.992188 C 16.074219 23.808594 16.164062 23.699219 16.339844 23.660156 C 16.578125 23.609375 16.796875 23.519531 17.003906 23.394531 C 17.207031 23.269531 17.386719 23.113281 17.539062 22.925781 C 17.691406 22.738281 17.808594 22.527344 17.886719 22.300781 C 17.96875 22.074219 18.011719 21.839844 18.011719 21.597656 C 18.011719 20.933594 17.730469 19.871094 17.328125 19.007812 C 16.878906 18.050781 16.347656 17.480469 15.902344 17.480469 Z M 15.902344 17.480469 " fill-opacity="1" fill-rule="nonzero"/></g><g clip-path="url(#acd1feb60e)"><path fill="#c3cfa2" d="M 44.089844 43.09375 C 43.90625 43.09375 43.726562 43.058594 43.554688 42.984375 C 43.386719 42.914062 43.234375 42.8125 43.105469 42.679688 C 42.976562 42.546875 42.878906 42.390625 42.8125 42.21875 C 42.746094 42.046875 42.714844 41.867188 42.71875 41.683594 L 43.246094 24.230469 C 42.96875 24.140625 42.710938 24.011719 42.472656 23.839844 C 42.238281 23.667969 42.03125 23.464844 41.859375 23.226562 C 41.6875 22.992188 41.554688 22.734375 41.464844 22.457031 C 41.371094 22.175781 41.328125 21.890625 41.324219 21.597656 C 41.324219 21.140625 41.441406 19.246094 41.625 16.980469 C 41.628906 16.898438 41.664062 16.824219 41.726562 16.765625 C 41.789062 16.710938 41.863281 16.679688 41.949219 16.679688 L 42.519531 16.679688 C 42.707031 16.679688 42.8125 16.773438 42.84375 16.957031 L 43.238281 19.410156 L 43.46875 16.976562 C 43.476562 16.894531 43.511719 16.824219 43.574219 16.765625 C 43.636719 16.707031 43.710938 16.679688 43.796875 16.679688 L 44.546875 16.679688 C 44.632812 16.679688 44.707031 16.707031 44.769531 16.765625 C 44.832031 16.824219 44.867188 16.894531 44.875 16.976562 L 45.0625 18.945312 L 45.300781 16.96875 C 45.324219 16.777344 45.433594 16.679688 45.625 16.679688 L 46.230469 16.679688 C 46.316406 16.679688 46.390625 16.710938 46.453125 16.765625 C 46.515625 16.824219 46.550781 16.898438 46.554688 16.980469 C 46.738281 19.246094 46.855469 21.140625 46.855469 21.597656 C 46.851562 21.890625 46.808594 22.175781 46.714844 22.457031 C 46.625 22.734375 46.492188 22.992188 46.320312 23.226562 C 46.148438 23.464844 45.941406 23.667969 45.707031 23.839844 C 45.46875 24.011719 45.210938 24.140625 44.933594 24.230469 L 45.460938 41.683594 C 45.464844 41.867188 45.433594 42.046875 45.367188 42.21875 C 45.300781 42.390625 45.203125 42.546875 45.074219 42.679688 C 44.945312 42.8125 44.792969 42.914062 44.625 42.984375 C 44.453125 43.058594 44.273438 43.09375 44.089844 43.09375 Z M 42.25 17.394531 C 42.074219 19.589844 41.980469 21.230469 41.980469 21.597656 C 41.984375 21.839844 42.023438 22.074219 42.105469 22.300781 C 42.1875 22.527344 42.300781 22.738281 42.453125 22.925781 C 42.605469 23.113281 42.785156 23.269531 42.988281 23.394531 C 43.195312 23.519531 43.417969 23.609375 43.652344 23.660156 C 43.832031 23.699219 43.917969 23.808594 43.914062 23.992188 L 43.378906 41.703125 C 43.371094 41.902344 43.4375 42.078125 43.578125 42.21875 C 43.71875 42.363281 43.890625 42.4375 44.089844 42.4375 C 44.292969 42.4375 44.460938 42.363281 44.601562 42.21875 C 44.742188 42.078125 44.808594 41.902344 44.804688 41.703125 L 44.269531 23.992188 C 44.261719 23.808594 44.347656 23.699219 44.527344 23.660156 C 44.765625 23.609375 44.984375 23.519531 45.191406 23.394531 C 45.394531 23.269531 45.574219 23.113281 45.726562 22.925781 C 45.878906 22.738281 45.996094 22.527344 46.074219 22.300781 C 46.15625 22.074219 46.195312 21.839844 46.199219 21.597656 C 46.199219 21.226562 46.105469 19.558594 45.925781 17.335938 L 45.917969 17.335938 L 45.347656 22.042969 C 45.324219 22.238281 45.214844 22.332031 45.023438 22.332031 L 45.015625 22.332031 C 44.820312 22.332031 44.714844 22.230469 44.695312 22.035156 L 44.25 17.335938 L 44.09375 17.335938 L 43.648438 22.035156 C 43.628906 22.226562 43.523438 22.328125 43.332031 22.332031 C 43.140625 22.339844 43.027344 22.246094 42.996094 22.054688 Z M 42.25 17.394531 " fill-opacity="1" fill-rule="nonzero"/></g><path fill="#c3cfa2" d="M 29.984375 35.664062 C 29.847656 35.664062 29.746094 35.597656 29.6875 35.472656 C 29.628906 35.347656 29.644531 35.230469 29.734375 35.125 C 32.171875 32.1875 33.351562 28.820312 33.363281 28.789062 C 33.390625 28.703125 33.445312 28.640625 33.527344 28.601562 C 33.609375 28.558594 33.695312 28.554688 33.777344 28.585938 C 33.863281 28.613281 33.925781 28.667969 33.96875 28.75 C 34.007812 28.832031 34.011719 28.914062 33.984375 29 C 33.933594 29.144531 32.757812 32.511719 30.238281 35.542969 C 30.171875 35.625 30.089844 35.664062 29.984375 35.664062 Z M 29.984375 35.664062 " fill-opacity="1" fill-rule="nonzero"/><path fill="#c3cfa2" d="M 28.488281 36.210938 C 28.382812 36.210938 28.300781 36.171875 28.234375 36.09375 C 26.371094 33.847656 25.496094 31.351562 25.460938 31.246094 C 25.429688 31.160156 25.433594 31.078125 25.472656 30.996094 C 25.515625 30.910156 25.578125 30.855469 25.664062 30.828125 C 25.75 30.796875 25.832031 30.800781 25.914062 30.84375 C 25.996094 30.882812 26.054688 30.945312 26.082031 31.03125 C 26.09375 31.0625 26.957031 33.527344 28.738281 35.675781 C 28.828125 35.78125 28.84375 35.898438 28.785156 36.023438 C 28.726562 36.148438 28.625 36.210938 28.488281 36.210938 Z M 28.488281 36.210938 " fill-opacity="1" fill-rule="nonzero"/><path fill="#c3cfa2" d="M 32.160156 36.480469 C 31.800781 36.480469 31.449219 36.4375 31.105469 36.347656 C 30.757812 36.261719 30.429688 36.132812 30.113281 35.960938 C 29.800781 35.789062 29.511719 35.582031 29.25 35.339844 C 28.988281 35.097656 28.761719 34.828125 28.566406 34.527344 C 28.371094 34.226562 28.21875 33.90625 28.101562 33.570312 C 27.988281 33.230469 27.917969 32.882812 27.890625 32.527344 C 27.863281 32.171875 27.878906 31.816406 27.9375 31.464844 C 28 31.113281 28.101562 30.773438 28.25 30.449219 C 28.644531 29.5625 29.898438 28.429688 31.972656 27.089844 C 33.492188 26.105469 34.917969 25.359375 34.933594 25.351562 C 35.019531 25.308594 35.105469 25.300781 35.195312 25.332031 C 35.28125 25.363281 35.347656 25.421875 35.386719 25.507812 C 37.234375 29.644531 36.996094 31.871094 36.074219 33.941406 C 35.902344 34.320312 35.683594 34.664062 35.414062 34.980469 C 35.148438 35.292969 34.839844 35.5625 34.492188 35.789062 C 34.144531 36.015625 33.773438 36.1875 33.375 36.304688 C 32.976562 36.421875 32.574219 36.480469 32.160156 36.480469 Z M 34.925781 26.097656 C 33.199219 27.03125 29.496094 29.261719 28.847656 30.714844 C 28.652344 31.15625 28.546875 31.617188 28.535156 32.097656 C 28.519531 32.578125 28.597656 33.042969 28.769531 33.492188 C 28.941406 33.941406 29.195312 34.34375 29.527344 34.691406 C 29.855469 35.039062 30.242188 35.3125 30.679688 35.511719 C 31.121094 35.707031 31.582031 35.8125 32.0625 35.824219 C 32.542969 35.835938 33.007812 35.757812 33.457031 35.585938 C 33.90625 35.414062 34.304688 35.160156 34.65625 34.828125 C 35.003906 34.5 35.277344 34.113281 35.472656 33.671875 C 35.964844 32.574219 36.160156 31.597656 36.109375 30.503906 C 36.054688 29.261719 35.667969 27.816406 34.925781 26.097656 Z M 34.925781 26.097656 " fill-opacity="1" fill-rule="nonzero"/><path fill="#c3cfa2" d="M 26.886719 36.816406 C 26.246094 36.816406 25.65625 36.640625 25.121094 36.292969 C 24.585938 35.941406 24.183594 35.476562 23.925781 34.894531 C 23.523438 34 23.367188 33.199219 23.40625 32.296875 C 23.453125 31.253906 23.789062 30.046875 24.429688 28.609375 C 24.46875 28.523438 24.535156 28.464844 24.621094 28.433594 C 24.710938 28.402344 24.796875 28.410156 24.882812 28.453125 C 24.972656 28.5 27.113281 29.621094 28.574219 30.816406 C 28.6875 30.90625 28.722656 31.023438 28.683594 31.164062 C 28.488281 31.8125 28.476562 32.460938 28.648438 33.113281 C 28.820312 33.769531 29.148438 34.332031 29.632812 34.800781 C 29.757812 34.917969 29.773438 35.050781 29.6875 35.199219 C 29.398438 35.699219 29.003906 36.09375 28.503906 36.382812 C 28.003906 36.667969 27.464844 36.8125 26.886719 36.816406 Z M 24.890625 29.203125 C 24.371094 30.417969 24.101562 31.445312 24.0625 32.328125 C 24.027344 33.121094 24.167969 33.828125 24.523438 34.625 C 24.710938 35.046875 24.996094 35.394531 25.371094 35.667969 C 25.746094 35.9375 26.164062 36.097656 26.625 36.144531 C 27.085938 36.191406 27.527344 36.117188 27.949219 35.925781 C 28.371094 35.738281 28.71875 35.453125 28.988281 35.078125 C 28.511719 34.550781 28.1875 33.945312 28.011719 33.257812 C 27.835938 32.570312 27.828125 31.882812 27.996094 31.191406 C 26.921875 30.347656 25.507812 29.542969 24.890625 29.203125 Z M 24.890625 29.203125 " fill-opacity="1" fill-rule="nonzero"/></svg>