<svg xmlns="http://www.w3.org/2000/svg" xmlns:xlink="http://www.w3.org/1999/xlink" width="80" zoomAndPan="magnify" viewBox="0 0 60 60" height="80" preserveAspectRatio="xMidYMid meet" version="1.0"><defs><filter x="0%" y="0%" width="100%" height="100%" id="728aee640e"><feColorMatrix values="0 0 0 0 1 0 0 0 0 1 0 0 0 0 1 0 0 0 1 0" color-interpolation-filters="sRGB"/></filter><mask id="4204e5cc8e"><g filter="url(#728aee640e)"><rect x="-6" width="72" fill="#000000" y="-6" height="72" fill-opacity="0.59"/></g></mask><clipPath id="a758b16f7a"><path d="M 1.125 1.125 L 34.875 1.125 L 34.875 34.875 L 1.125 34.875 Z M 1.125 1.125 " clip-rule="nonzero"/></clipPath><clipPath id="f5fc6a064a"><path d="M 1.125 1.125 L 31 1.125 L 31 32 L 1.125 32 Z M 1.125 1.125 " clip-rule="nonzero"/></clipPath><clipPath id="a403b0af53"><path d="M 5 1.125 L 34.875 1.125 L 34.875 29 L 5 29 Z M 5 1.125 " clip-rule="nonzero"/></clipPath><clipPath id="960a8d71f2"><path d="M 2 4 L 34.875 4 L 34.875 34.875 L 2 34.875 Z M 2 4 " clip-rule="nonzero"/></clipPath><clipPath id="eb3b27fd9b"><rect x="0" width="36" y="0" height="36"/></clipPath></defs><g mask="url(#4204e5cc8e)"><g transform="matrix(1, 0, 0, 1, 12, 12)"><g clip-path="url(#eb3b27fd9b)"><g clip-path="url(#a758b16f7a)"><path stroke-linecap="round" transform="matrix(0.27, 0, 0, 0.27, 0.719999, 0.720001)" fill="none" stroke-linejoin="miter" d="M 124.503479 63.999997 C 124.503479 65.982057 124.402206 67.964118 124.214128 69.93171 C 124.011581 71.899303 123.722229 73.852428 123.331604 75.805553 C 122.955447 77.744211 122.463549 79.668401 121.899313 81.563655 C 121.320609 83.45891 120.6551 85.32523 119.888317 87.148146 C 119.136002 88.985531 118.296882 90.765045 117.356488 92.515623 C 116.416095 94.266202 115.403363 95.958911 114.303826 97.608216 C 113.204289 99.257522 112.017946 100.848957 110.773733 102.382522 C 109.515053 103.916087 108.184034 105.377314 106.780678 106.78067 C 105.377321 108.184027 103.916094 109.515045 102.382529 110.773726 C 100.848964 112.017939 99.257529 113.204282 97.608224 114.303819 C 95.958918 115.403356 94.26621 116.416087 92.515631 117.356481 C 90.765052 118.296874 88.985538 119.135995 87.148154 119.88831 C 85.325237 120.655092 83.458917 121.320601 81.563663 121.899305 C 79.668408 122.463541 77.744218 122.955439 75.805561 123.331597 C 73.852436 123.722222 71.899311 124.011574 69.931718 124.21412 C 67.964125 124.402199 65.982065 124.503472 64.000005 124.503472 C 62.017944 124.503472 60.035884 124.402199 58.068291 124.21412 C 56.100699 124.011574 54.147574 123.722222 52.194449 123.331597 C 50.255791 122.955439 48.331601 122.463541 46.436346 121.899305 C 44.541092 121.320601 42.674772 120.655092 40.851856 119.88831 C 39.014471 119.135995 37.234957 118.296874 35.484378 117.356481 C 33.7338 116.416087 32.041091 115.403356 30.391786 114.303819 C 28.74248 113.204282 27.151045 112.017939 25.61748 110.773726 C 24.083915 109.515045 22.622688 108.184027 21.219332 106.78067 C 19.815975 105.377314 18.484956 103.916087 17.226276 102.382522 C 15.982063 100.848957 14.79572 99.257522 13.696183 97.608216 C 12.596646 95.958911 11.583914 94.266202 10.643521 92.515623 C 9.703127 90.765045 8.864007 88.985531 8.111692 87.148146 C 7.34491 85.32523 6.6794 83.45891 6.100697 81.563655 C 5.536461 79.668401 5.044562 77.744211 4.668405 75.805553 C 4.27778 73.852428 3.988428 71.899303 3.785882 69.93171 C 3.597803 67.964118 3.49653 65.982057 3.49653 63.999997 C 3.49653 62.017937 3.597803 60.035877 3.785882 58.068284 C 3.988428 56.100691 4.27778 54.147566 4.668405 52.194441 C 5.044562 50.255784 5.536461 48.331594 6.100697 46.436339 C 6.6794 44.541084 7.34491 42.674765 8.111692 40.851848 C 8.864007 39.014464 9.703127 37.23495 10.643521 35.484371 C 11.583914 33.733792 12.596646 32.041084 13.696183 30.391778 C 14.79572 28.742473 15.982063 27.151037 17.226276 25.617472 C 18.484956 24.083908 19.815975 22.622681 21.219332 21.219324 C 22.622688 19.815968 24.083915 18.484949 25.61748 17.226268 C 27.151045 15.982055 28.74248 14.795713 30.391786 13.696176 C 32.041091 12.596639 33.7338 11.583907 35.484378 10.643514 C 37.234957 9.70312 39.014471 8.864 40.851856 8.111685 C 42.674772 7.344902 44.541092 6.679393 46.436346 6.100689 C 48.331601 5.536453 50.255791 5.044555 52.194449 4.668398 C 54.147574 4.277773 56.100699 3.988421 58.068291 3.785874 C 60.035884 3.597796 62.017944 3.496522 64.000005 3.496522 C 65.982065 3.496522 67.964125 3.597796 69.931718 3.785874 C 71.899311 3.988421 73.852436 4.277773 75.805561 4.668398 C 77.744218 5.044555 79.668408 5.536453 81.563663 6.100689 C 83.458917 6.679393 85.325237 7.344902 87.148154 8.111685 C 88.985538 8.864 90.765052 9.70312 92.515631 10.643514 C 94.26621 11.583907 95.958918 12.596639 97.608224 13.696176 C 99.257529 14.795713 100.848964 15.982055 102.382529 17.226268 C 103.916094 18.484949 105.377321 19.815968 106.780678 21.219324 C 108.184034 22.622681 109.515053 24.083908 110.773733 25.617472 C 112.017946 27.151037 113.204289 28.742473 114.303826 30.391778 C 115.403363 32.041084 116.416095 33.733792 117.356488 35.484371 C 118.296882 37.23495 119.136002 39.014464 119.888317 40.851848 C 120.6551 42.674765 121.320609 44.541084 121.899313 46.436339 C 122.463549 48.331594 122.955447 50.255784 123.331604 52.194441 C 123.722229 54.147566 124.011581 56.100691 124.214128 58.068284 C 124.402206 60.035877 124.503479 62.017937 124.503479 63.999997 Z M 124.503479 63.999997 " stroke="#000000" stroke-width="4" stroke-opacity="1" stroke-miterlimit="10"/></g><g clip-path="url(#f5fc6a064a)"><path stroke-linecap="round" transform="matrix(0.27, 0, 0, 0.27, 0.719999, 0.720001)" fill="none" stroke-linejoin="miter" d="M 52.078708 46.957172 C 52.078708 48.317126 51.818291 49.61921 51.297458 50.87789 C 50.776624 52.122103 50.038777 53.236108 49.083916 54.190969 C 48.129055 55.14583 47.01505 55.898145 45.770837 56.404511 C 44.512157 56.925344 43.210073 57.185761 41.850119 57.185761 C 40.490166 57.185761 39.188082 56.925344 37.929402 56.404511 C 36.685189 55.898145 35.571184 55.14583 34.616323 54.190969 C 33.661462 53.236108 32.923614 52.122103 32.402781 50.87789 C 31.881948 49.61921 31.621531 48.317126 31.621531 46.957172 C 31.621531 45.597219 31.881948 44.295135 32.402781 43.050922 C 32.923614 41.792242 33.661462 40.692705 34.616323 39.723376 C 35.571184 38.768515 36.685189 38.030667 37.929402 37.509834 C 39.188082 36.989001 40.490166 36.728584 41.850119 36.728584 C 43.210073 36.728584 44.512157 36.989001 45.770837 37.509834 C 47.01505 38.030667 48.129055 38.768515 49.083916 39.723376 C 50.038777 40.692705 50.776624 41.792242 51.297458 43.050922 C 51.818291 44.295135 52.078708 45.597219 52.078708 46.957172 Z M 52.078708 46.957172 " stroke="#000000" stroke-width="4" stroke-opacity="1" stroke-miterlimit="10"/></g><g clip-path="url(#a403b0af53)"><path stroke-linecap="round" transform="matrix(0.27, 0, 0, 0.27, 0.719999, 0.720001)" fill="none" stroke-linejoin="miter" d="M 75.935769 47.81076 C 75.964704 46.595483 76.239588 45.423608 76.731487 44.309603 C 77.223385 43.195598 77.903362 42.226269 78.785885 41.372681 C 79.65394 40.533561 80.652204 39.882519 81.780677 39.419556 C 82.909149 38.971061 84.081024 38.73958 85.310769 38.73958 C 86.526047 38.73958 87.697922 38.971061 88.826395 39.419556 C 89.954867 39.882519 90.953131 40.533561 91.835654 41.372681 C 92.70371 42.226269 93.383686 43.195598 93.875585 44.309603 C 94.367483 45.423608 94.642367 46.595483 94.68577 47.81076 " stroke="#000000" stroke-width="4" stroke-opacity="1" stroke-miterlimit="10"/></g><g clip-path="url(#960a8d71f2)"><path stroke-linecap="round" transform="matrix(0.27, 0, 0, 0.27, 0.719999, 0.720001)" fill="none" stroke-linejoin="miter" d="M 91.271418 69.107058 L 106.607067 69.107058 C 105.970492 73.635414 104.625006 77.932289 102.585076 82.026618 C 100.545145 86.10648 97.912043 89.766781 94.68577 92.993054 C 82.402783 105.073494 66.907991 105.001156 64.000005 104.899883 " stroke="#000000" stroke-width="4" stroke-opacity="1" stroke-miterlimit="10"/></g></g></g></g></svg>