<svg xmlns="http://www.w3.org/2000/svg" xmlns:xlink="http://www.w3.org/1999/xlink" width="80" zoomAndPan="magnify" viewBox="0 0 60 60" height="80" preserveAspectRatio="xMidYMid meet" version="1.0"><defs><filter x="0%" y="0%" width="100%" height="100%" id="cc4f8ca723"><feColorMatrix values="0 0 0 0 1 0 0 0 0 1 0 0 0 0 1 0 0 0 1 0" color-interpolation-filters="sRGB"/></filter><mask id="6f5560e358"><g filter="url(#cc4f8ca723)"><rect x="-6" width="72" fill="#000000" y="-6" height="72" fill-opacity="0.59"/></g></mask><clipPath id="2917a797ad"><path d="M 1.125 1.125 L 34.875 1.125 L 34.875 34.875 L 1.125 34.875 Z M 1.125 1.125 " clip-rule="nonzero"/></clipPath><clipPath id="6831deeb2b"><path d="M 1.125 1.125 L 31 1.125 L 31 29 L 1.125 29 Z M 1.125 1.125 " clip-rule="nonzero"/></clipPath><clipPath id="b2173a32e6"><path d="M 5 1.125 L 34.875 1.125 L 34.875 29 L 5 29 Z M 5 1.125 " clip-rule="nonzero"/></clipPath><clipPath id="837c6c5b3c"><path d="M 1.125 3 L 34.875 3 L 34.875 34.875 L 1.125 34.875 Z M 1.125 3 " clip-rule="nonzero"/></clipPath><clipPath id="b8143e0076"><rect x="0" width="36" y="0" height="36"/></clipPath></defs><g mask="url(#6f5560e358)"><g transform="matrix(1, 0, 0, 1, 12, 12)"><g clip-path="url(#b8143e0076)"><g clip-path="url(#2917a797ad)"><path stroke-linecap="round" transform="matrix(0.267857, 0, 0, 0.267857, 0.857143, 0.857145)" fill="none" stroke-linejoin="miter" d="M 125.002086 63.999994 C 125.002086 65.997911 124.900002 67.995827 124.710419 69.979161 C 124.506252 71.962494 124.214586 73.945827 123.820836 75.899994 C 123.441669 77.854161 122.960419 79.793744 122.377086 81.704161 C 121.793752 83.614578 121.122919 85.495828 120.350002 87.347911 C 119.591669 89.185411 118.745835 90.993744 117.797919 92.758328 C 116.850002 94.522911 115.829169 96.229161 114.720835 97.891661 C 113.612502 99.554161 112.416669 101.158328 111.147919 102.704161 C 109.879169 104.235411 108.552085 105.722911 107.137502 107.137495 C 105.722919 108.552078 104.235419 109.879161 102.704169 111.147911 C 101.158335 112.416661 99.554169 113.612495 97.891669 114.720828 C 96.229168 115.829161 94.522918 116.849995 92.758335 117.797911 C 90.993752 118.745828 89.185418 119.591661 87.347918 120.349995 C 85.495835 121.122911 83.614585 121.793745 81.704168 122.377078 C 79.793752 122.960411 77.854168 123.441661 75.900002 123.820828 C 73.945835 124.214578 71.962502 124.506245 69.979168 124.710411 C 67.995835 124.899995 65.997918 125.002078 64.000001 125.002078 C 62.002085 125.002078 60.004168 124.899995 58.020835 124.710411 C 56.037501 124.506245 54.054168 124.214578 52.100001 123.820828 C 50.145835 123.441661 48.206251 122.960411 46.295834 122.377078 C 44.385418 121.793745 42.504168 121.122911 40.652084 120.349995 C 38.814584 119.591661 37.006251 118.745828 35.241668 117.797911 C 33.477084 116.849995 31.770834 115.829161 30.108334 114.720828 C 28.445834 113.612495 26.841668 112.416661 25.295834 111.147911 C 23.764584 109.879161 22.277084 108.552078 20.862501 107.137495 C 19.447917 105.722911 18.120834 104.235411 16.852084 102.704161 C 15.583334 101.158328 14.387501 99.554161 13.279167 97.891661 C 12.170834 96.229161 11.150001 94.522911 10.202084 92.758328 C 9.254167 90.993744 8.408334 89.185411 7.650001 87.347911 C 6.877084 85.495828 6.206251 83.614578 5.622917 81.704161 C 5.039584 79.793744 4.558334 77.854161 4.179167 75.899994 C 3.785417 73.945827 3.493751 71.962494 3.289584 69.979161 C 3.100001 67.995827 2.997917 65.997911 2.997917 63.999994 C 2.997917 62.002077 3.100001 60.004161 3.289584 58.020827 C 3.493751 56.037494 3.785417 54.05416 4.179167 52.099994 C 4.558334 50.145827 5.039584 48.206244 5.622917 46.295827 C 6.206251 44.38541 6.877084 42.50416 7.650001 40.652077 C 8.408334 38.814577 9.254167 37.006244 10.202084 35.24166 C 11.150001 33.477077 12.170834 31.770827 13.279167 30.108327 C 14.387501 28.445827 15.583334 26.84166 16.852084 25.295827 C 18.120834 23.764577 19.447917 22.277077 20.862501 20.862493 C 22.277084 19.44791 23.764584 18.120827 25.295834 16.852077 C 26.841668 15.583327 28.445834 14.387493 30.108334 13.27916 C 31.770834 12.170827 33.477084 11.149993 35.241668 10.202077 C 37.006251 9.25416 38.814584 8.408327 40.652084 7.649993 C 42.504168 6.877076 44.385418 6.206243 46.295834 5.62291 C 48.206251 5.039576 50.145835 4.558326 52.100001 4.17916 C 54.054168 3.78541 56.037501 3.493743 58.020835 3.289576 C 60.004168 3.099993 62.002085 2.99791 64.000001 2.99791 C 65.997918 2.99791 67.995835 3.099993 69.979168 3.289576 C 71.962502 3.493743 73.945835 3.78541 75.900002 4.17916 C 77.854168 4.558326 79.793752 5.039576 81.704168 5.62291 C 83.614585 6.206243 85.495835 6.877076 87.347918 7.649993 C 89.185418 8.408327 90.993752 9.25416 92.758335 10.202077 C 94.522918 11.149993 96.229168 12.170827 97.891669 13.27916 C 99.554169 14.387493 101.158335 15.583327 102.704169 16.852077 C 104.235419 18.120827 105.722919 19.44791 107.137502 20.862493 C 108.552085 22.277077 109.879169 23.764577 111.147919 25.295827 C 112.416669 26.84166 113.612502 28.445827 114.720835 30.108327 C 115.829169 31.770827 116.850002 33.477077 117.797919 35.24166 C 118.745835 37.006244 119.591669 38.814577 120.350002 40.652077 C 121.122919 42.50416 121.793752 44.38541 122.377086 46.295827 C 122.960419 48.206244 123.441669 50.145827 123.820836 52.099994 C 124.214586 54.05416 124.506252 56.037494 124.710419 58.020827 C 124.900002 60.004161 125.002086 62.002077 125.002086 63.999994 Z M 125.002086 63.999994 " stroke="#000000" stroke-width="4" stroke-opacity="1" stroke-miterlimit="10"/></g><g clip-path="url(#6831deeb2b)"><path stroke-linecap="round" transform="matrix(0.267857, 0, 0, 0.267857, 0.857143, 0.857145)" fill="none" stroke-linejoin="miter" d="M 31.216668 48.002077 C 31.172918 46.558327 31.406251 45.158327 31.931251 43.81666 C 32.441668 42.46041 33.214584 41.27916 34.220834 40.243744 C 35.227084 39.193744 36.393751 38.406244 37.720834 37.837494 C 39.047918 37.268744 40.433334 36.99166 41.891668 36.99166 C 43.335418 36.99166 44.720834 37.268744 46.047918 37.837494 C 47.375001 38.406244 48.541668 39.193744 49.547918 40.243744 C 50.554168 41.27916 51.327085 42.46041 51.837501 43.81666 C 52.362501 45.158327 52.610418 46.558327 52.566668 48.002077 " stroke="#000000" stroke-width="4" stroke-opacity="1" stroke-miterlimit="10"/></g><g clip-path="url(#b2173a32e6)"><path stroke-linecap="round" transform="matrix(0.267857, 0, 0, 0.267857, 0.857143, 0.857145)" fill="none" stroke-linejoin="miter" d="M 75.433335 48.002077 C 75.389585 46.558327 75.637502 45.158327 76.162502 43.81666 C 76.672918 42.46041 77.445835 41.27916 78.452085 40.243744 C 79.458335 39.193744 80.625002 38.406244 81.952085 37.837494 C 83.279168 37.268744 84.664585 36.99166 86.108335 36.99166 C 87.566668 36.99166 88.952085 37.268744 90.279168 37.837494 C 91.606252 38.406244 92.772918 39.193744 93.779168 40.243744 C 94.785418 41.27916 95.558335 42.46041 96.068752 43.81666 C 96.593752 45.158327 96.827085 46.558327 96.783335 48.002077 " stroke="#000000" stroke-width="4" stroke-opacity="1" stroke-miterlimit="10"/></g><g clip-path="url(#837c6c5b3c)"><path stroke-linecap="round" transform="matrix(0.267857, 0, 0, 0.267857, 0.857143, 0.857145)" fill="none" stroke-linejoin="miter" d="M 101.362502 67.047911 C 101.362502 69.497911 101.114585 71.933327 100.647919 74.339577 C 100.166669 76.745827 99.452085 79.079161 98.518752 81.354161 C 97.570835 83.614578 96.433335 85.772911 95.062502 87.799994 C 93.706252 89.841661 92.145835 91.737494 90.410418 93.472911 C 88.689585 95.208328 86.793752 96.754161 84.752085 98.110411 C 82.710418 99.481244 80.566668 100.633328 78.291668 101.566661 C 76.031252 102.499994 73.697918 103.214578 71.291668 103.695828 C 68.885418 104.177078 66.450001 104.410411 64.000001 104.410411 C 61.550001 104.410411 59.114585 104.177078 56.708335 103.695828 C 54.302085 103.214578 51.968751 102.499994 49.708335 101.566661 C 47.433335 100.633328 45.289584 99.481244 43.247918 98.110411 C 41.206251 96.754161 39.310418 95.208328 37.589584 93.472911 C 35.854168 91.737494 34.293751 89.841661 32.937501 87.799994 C 31.566668 85.772911 30.429168 83.614578 29.481251 81.354161 C 28.547918 79.079161 27.833334 76.745827 27.352084 74.339577 C 26.885418 71.933327 26.637501 69.497911 26.637501 67.047911 Z M 101.362502 67.047911 " stroke="#000000" stroke-width="4" stroke-opacity="1" stroke-miterlimit="10"/></g></g></g></g></svg>