<svg xmlns="http://www.w3.org/2000/svg" xmlns:xlink="http://www.w3.org/1999/xlink" width="40" zoomAndPan="magnify" viewBox="0 0 30 30.000001" height="40" preserveAspectRatio="xMidYMid meet" version="1.0"><defs><clipPath id="1766a667e4"><path d="M 9.964844 9.441406 L 20.125 9.441406 L 20.125 19.605469 L 9.964844 19.605469 Z M 9.964844 9.441406 " clip-rule="nonzero"/></clipPath></defs><g clip-path="url(#1766a667e4)"><path fill="#0c4b4b" d="M 10.265625 19.570312 C 10.191406 19.570312 10.121094 19.539062 10.066406 19.488281 C 9.992188 19.417969 9.960938 19.308594 9.988281 19.207031 L 10.625 16.832031 C 10.234375 16.105469 10.027344 15.289062 10.027344 14.457031 C 10.027344 11.699219 12.273438 9.453125 15.03125 9.453125 C 17.789062 9.453125 20.035156 11.699219 20.035156 14.457031 C 20.035156 17.214844 17.789062 19.460938 15.03125 19.460938 C 14.183594 19.460938 13.347656 19.246094 12.613281 18.839844 L 10.351562 19.554688 C 10.324219 19.5625 10.292969 19.570312 10.265625 19.570312 Z M 12.644531 18.242188 C 12.695312 18.242188 12.746094 18.253906 12.789062 18.28125 C 13.464844 18.679688 14.242188 18.890625 15.03125 18.890625 C 17.472656 18.890625 19.460938 16.902344 19.460938 14.457031 C 19.460938 12.015625 17.472656 10.027344 15.03125 10.027344 C 12.585938 10.027344 10.597656 12.015625 10.597656 14.457031 C 10.597656 15.230469 10.800781 15.988281 11.179688 16.652344 C 11.21875 16.71875 11.226562 16.796875 11.207031 16.871094 L 10.675781 18.851562 L 12.558594 18.253906 C 12.585938 18.246094 12.613281 18.242188 12.644531 18.242188 Z M 12.644531 18.242188 " fill-opacity="1" fill-rule="nonzero"/></g><path fill="#0c4b4b" d="M 15.03125 17.175781 C 14.871094 17.175781 14.746094 17.046875 14.746094 16.886719 L 14.746094 14.050781 C 14.746094 13.890625 14.871094 13.761719 15.03125 13.761719 C 15.1875 13.761719 15.316406 13.890625 15.316406 14.050781 L 15.316406 16.886719 C 15.316406 17.046875 15.1875 17.175781 15.03125 17.175781 Z M 15.03125 17.175781 " fill-opacity="1" fill-rule="nonzero"/><path fill="#0c4b4b" d="M 15.03125 13.011719 C 14.710938 13.011719 14.449219 12.75 14.449219 12.429688 C 14.449219 12.109375 14.710938 11.847656 15.03125 11.847656 C 15.351562 11.847656 15.613281 12.109375 15.613281 12.429688 C 15.613281 12.75 15.351562 13.011719 15.03125 13.011719 Z M 15.03125 12.226562 C 14.917969 12.226562 14.828125 12.316406 14.828125 12.429688 C 14.828125 12.542969 14.917969 12.632812 15.03125 12.632812 C 15.144531 12.632812 15.234375 12.542969 15.234375 12.429688 C 15.234375 12.316406 15.144531 12.226562 15.03125 12.226562 Z M 15.03125 12.226562 " fill-opacity="1" fill-rule="nonzero"/></svg>