<svg xmlns="http://www.w3.org/2000/svg" xmlns:xlink="http://www.w3.org/1999/xlink" width="80" zoomAndPan="magnify" viewBox="0 0 60 60" height="80" preserveAspectRatio="xMidYMid meet" version="1.0"><defs><clipPath id="6ef464bc35"><path d="M 13.167969 13.167969 L 46.917969 13.167969 L 46.917969 46.917969 L 13.167969 46.917969 Z M 13.167969 13.167969 " clip-rule="nonzero"/></clipPath></defs><g clip-path="url(#6ef464bc35)"><path fill="#c3cfa2" d="M 29.929688 46.757812 C 20.652344 46.757812 13.101562 39.210938 13.101562 29.929688 C 13.101562 23.832031 15.664062 19.335938 21.171875 15.792969 C 21.328125 15.695312 21.53125 15.742188 21.628906 15.890625 C 21.730469 16.046875 21.683594 16.253906 21.53125 16.351562 C 16.234375 19.757812 13.761719 24.074219 13.761719 29.929688 C 13.761719 38.84375 21.015625 46.097656 29.929688 46.097656 C 38.84375 46.097656 46.097656 38.84375 46.097656 29.929688 C 46.097656 21.015625 38.84375 13.761719 29.929688 13.761719 C 29.75 13.761719 29.601562 13.613281 29.601562 13.433594 C 29.601562 13.253906 29.75 13.101562 29.929688 13.101562 C 39.210938 13.101562 46.757812 20.652344 46.757812 29.929688 C 46.757812 39.210938 39.210938 46.757812 29.929688 46.757812 " fill-opacity="1" fill-rule="nonzero"/></g><path fill="#c3cfa2" d="M 21.351562 21.683594 C 21.171875 21.683594 21.023438 21.53125 21.023438 21.351562 L 21.023438 16.402344 L 16.074219 16.402344 C 15.890625 16.402344 15.742188 16.253906 15.742188 16.074219 C 15.742188 15.890625 15.890625 15.742188 16.074219 15.742188 L 21.351562 15.742188 C 21.53125 15.742188 21.683594 15.890625 21.683594 16.074219 L 21.683594 21.351562 C 21.683594 21.53125 21.53125 21.683594 21.351562 21.683594 " fill-opacity="1" fill-rule="nonzero"/><path fill="#c3cfa2" d="M 29.929688 42.800781 C 29.75 42.800781 29.601562 42.648438 29.601562 42.46875 L 29.601562 39.832031 C 29.601562 39.648438 29.75 39.5 29.929688 39.5 C 30.113281 39.5 30.261719 39.648438 30.261719 39.832031 L 30.261719 42.46875 C 30.261719 42.648438 30.113281 42.800781 29.929688 42.800781 " fill-opacity="1" fill-rule="nonzero"/><path fill="#c3cfa2" d="M 36.199219 41.125 C 36.085938 41.125 35.972656 41.0625 35.910156 40.960938 L 35.582031 40.375 C 35.496094 40.21875 35.550781 40.015625 35.707031 39.929688 C 35.867188 39.835938 36.066406 39.890625 36.160156 40.050781 L 36.488281 40.628906 C 36.578125 40.789062 36.519531 40.988281 36.367188 41.082031 C 36.3125 41.109375 36.257812 41.125 36.199219 41.125 " fill-opacity="1" fill-rule="nonzero"/><path fill="#c3cfa2" d="M 40.792969 36.53125 C 40.738281 36.53125 40.679688 36.515625 40.628906 36.488281 L 40.050781 36.160156 C 39.890625 36.066406 39.835938 35.867188 39.929688 35.707031 C 40.015625 35.550781 40.21875 35.496094 40.375 35.582031 L 40.953125 35.910156 C 41.113281 36.003906 41.171875 36.207031 41.082031 36.367188 C 41.019531 36.46875 40.90625 36.53125 40.792969 36.53125 " fill-opacity="1" fill-rule="nonzero"/><path fill="#c3cfa2" d="M 42.46875 30.261719 L 39.832031 30.261719 C 39.644531 30.261719 39.5 30.117188 39.5 29.929688 C 39.5 29.75 39.644531 29.601562 39.832031 29.601562 L 42.46875 29.601562 C 42.648438 29.601562 42.800781 29.75 42.800781 29.929688 C 42.800781 30.117188 42.648438 30.261719 42.46875 30.261719 " fill-opacity="1" fill-rule="nonzero"/><path fill="#c3cfa2" d="M 40.210938 24.320312 C 40.097656 24.320312 39.984375 24.261719 39.929688 24.15625 C 39.835938 23.996094 39.890625 23.796875 40.050781 23.703125 L 40.628906 23.375 C 40.789062 23.285156 40.988281 23.335938 41.082031 23.496094 C 41.171875 23.65625 41.113281 23.859375 40.953125 23.949219 L 40.375 24.28125 C 40.324219 24.304688 40.269531 24.320312 40.210938 24.320312 " fill-opacity="1" fill-rule="nonzero"/><path fill="#c3cfa2" d="M 35.871094 19.980469 C 35.8125 19.980469 35.757812 19.964844 35.707031 19.933594 C 35.550781 19.847656 35.496094 19.644531 35.582031 19.484375 L 35.910156 18.910156 C 36.003906 18.75 36.207031 18.691406 36.367188 18.78125 C 36.519531 18.871094 36.578125 19.074219 36.488281 19.234375 L 36.160156 19.8125 C 36.097656 19.917969 35.984375 19.980469 35.871094 19.980469 " fill-opacity="1" fill-rule="nonzero"/><path fill="#c3cfa2" d="M 29.929688 20.367188 C 29.75 20.367188 29.601562 20.21875 29.601562 20.039062 L 29.601562 17.398438 C 29.601562 17.210938 29.75 17.066406 29.929688 17.066406 C 30.113281 17.066406 30.261719 17.210938 30.261719 17.398438 L 30.261719 20.039062 C 30.261719 20.21875 30.113281 20.367188 29.929688 20.367188 " fill-opacity="1" fill-rule="nonzero"/><path fill="#c3cfa2" d="M 20.03125 30.261719 L 17.394531 30.261719 C 17.210938 30.261719 17.0625 30.117188 17.0625 29.929688 C 17.0625 29.75 17.210938 29.601562 17.394531 29.601562 L 20.03125 29.601562 C 20.21875 29.601562 20.363281 29.75 20.363281 29.929688 C 20.363281 30.117188 20.21875 30.261719 20.03125 30.261719 " fill-opacity="1" fill-rule="nonzero"/><path fill="#c3cfa2" d="M 19.066406 36.53125 C 18.953125 36.53125 18.839844 36.46875 18.78125 36.367188 C 18.691406 36.207031 18.75 36.003906 18.902344 35.910156 L 19.484375 35.582031 C 19.644531 35.496094 19.847656 35.550781 19.933594 35.707031 C 20.027344 35.867188 19.96875 36.066406 19.8125 36.160156 L 19.234375 36.488281 C 19.183594 36.515625 19.125 36.53125 19.066406 36.53125 " fill-opacity="1" fill-rule="nonzero"/><path fill="#c3cfa2" d="M 23.660156 41.125 C 23.605469 41.125 23.546875 41.109375 23.496094 41.082031 C 23.34375 40.988281 23.285156 40.789062 23.375 40.628906 L 23.703125 40.050781 C 23.796875 39.890625 23.996094 39.835938 24.15625 39.929688 C 24.3125 40.015625 24.367188 40.21875 24.28125 40.375 L 23.949219 40.960938 C 23.890625 41.0625 23.773438 41.125 23.660156 41.125 " fill-opacity="1" fill-rule="nonzero"/><path fill="#c3cfa2" d="M 25.117188 27.292969 L 29.929688 32.105469 L 36.726562 25.3125 L 35.210938 23.796875 L 30.164062 28.84375 C 30.035156 28.972656 29.828125 28.972656 29.699219 28.84375 L 26.632812 25.777344 Z M 29.929688 32.902344 C 29.847656 32.902344 29.761719 32.871094 29.699219 32.804688 L 24.417969 27.523438 C 24.289062 27.394531 24.289062 27.1875 24.417969 27.058594 L 26.398438 25.078125 C 26.527344 24.949219 26.734375 24.949219 26.863281 25.078125 L 29.929688 28.148438 L 34.980469 23.101562 C 35.109375 22.972656 35.3125 22.972656 35.441406 23.101562 L 37.421875 25.078125 C 37.550781 25.207031 37.550781 25.414062 37.421875 25.542969 L 30.164062 32.804688 C 30.101562 32.871094 30.015625 32.902344 29.929688 32.902344 " fill-opacity="1" fill-rule="nonzero"/></svg>