<svg xmlns="http://www.w3.org/2000/svg" xmlns:xlink="http://www.w3.org/1999/xlink" width="80" zoomAndPan="magnify" viewBox="0 0 60 60" height="80" preserveAspectRatio="xMidYMid meet" version="1.0"><defs><clipPath id="fe1d049020"><path d="M 14.824219 22 L 44.824219 22 L 44.824219 43.398438 L 14.824219 43.398438 Z M 14.824219 22 " clip-rule="nonzero"/></clipPath><clipPath id="824724648e"><path d="M 24 16.398438 L 36 16.398438 L 36 22 L 24 22 Z M 24 16.398438 " clip-rule="nonzero"/></clipPath></defs><g clip-path="url(#fe1d049020)"><path fill="#c3cfa2" d="M 41.921875 22.121094 L 18.070312 22.121094 C 16.289062 22.121094 14.835938 23.574219 14.835938 25.359375 L 14.835938 40.359375 C 14.835938 42.144531 16.289062 43.597656 18.070312 43.597656 L 41.925781 43.597656 C 43.710938 43.597656 45.164062 42.144531 45.164062 40.359375 L 45.164062 25.359375 C 45.15625 23.574219 43.710938 22.121094 41.921875 22.121094 Z M 44.453125 40.359375 C 44.453125 41.757812 43.316406 42.890625 41.921875 42.890625 L 18.070312 42.890625 C 16.675781 42.890625 15.546875 41.757812 15.546875 40.359375 L 15.546875 25.359375 C 15.546875 23.960938 16.683594 22.828125 18.070312 22.828125 L 41.925781 22.828125 C 43.324219 22.828125 44.457031 23.960938 44.457031 25.359375 L 44.457031 40.359375 Z M 44.453125 40.359375 " fill-opacity="1" fill-rule="nonzero"/></g><path fill="#c3cfa2" d="M 41.699219 24.71875 L 39.199219 24.476562 C 39.097656 24.464844 38.988281 24.5 38.910156 24.578125 L 34.648438 28.855469 C 34.582031 28.925781 34.546875 29.015625 34.546875 29.109375 C 34.546875 29.203125 34.582031 29.292969 34.648438 29.355469 L 37.433594 32.117188 C 37.503906 32.1875 37.59375 32.21875 37.679688 32.21875 C 37.769531 32.21875 37.863281 32.1875 37.933594 32.117188 L 42.191406 27.839844 C 42.269531 27.761719 42.308594 27.65625 42.292969 27.546875 L 42.007812 25.027344 C 41.996094 24.871094 41.863281 24.738281 41.699219 24.71875 Z M 37.679688 31.367188 L 35.394531 29.101562 L 39.285156 25.195312 L 41.335938 25.390625 L 41.570312 27.453125 Z M 37.679688 31.367188 " fill-opacity="1" fill-rule="nonzero"/><g clip-path="url(#824724648e)"><path fill="#c3cfa2" d="M 25.050781 21.378906 L 26.359375 21.378906 C 26.554688 21.378906 26.714844 21.222656 26.714844 21.023438 L 26.714844 18.585938 C 26.714844 17.769531 27.382812 17.101562 28.195312 17.101562 L 31.804688 17.101562 C 32.621094 17.101562 33.28125 17.769531 33.28125 18.585938 L 33.28125 21.023438 C 33.28125 21.222656 33.441406 21.378906 33.636719 21.378906 L 34.945312 21.378906 C 35.140625 21.378906 35.300781 21.222656 35.300781 21.023438 C 35.300781 20.828125 35.140625 20.667969 34.945312 20.667969 L 33.992188 20.667969 L 33.992188 18.585938 C 33.992188 17.382812 33.011719 16.398438 31.804688 16.398438 L 28.195312 16.398438 C 26.988281 16.398438 26.003906 17.382812 26.003906 18.585938 L 26.003906 20.667969 L 25.050781 20.667969 C 24.855469 20.667969 24.695312 20.828125 24.695312 21.023438 C 24.695312 21.222656 24.855469 21.378906 25.050781 21.378906 Z M 25.050781 21.378906 " fill-opacity="1" fill-rule="nonzero"/></g></svg>