<svg xmlns="http://www.w3.org/2000/svg" xmlns:xlink="http://www.w3.org/1999/xlink" width="80" zoomAndPan="magnify" viewBox="0 0 60 60" height="80" preserveAspectRatio="xMidYMid meet" version="1.0"><defs><clipPath id="bfc64ef3ae"><path d="M 8.171875 17.484375 L 51.671875 17.484375 L 51.671875 42.234375 L 8.171875 42.234375 Z M 8.171875 17.484375 " clip-rule="nonzero"/></clipPath></defs><g clip-path="url(#bfc64ef3ae)"><path fill="#0c4949" d="M 44.996094 28.882812 C 43.96875 28.882812 42.964844 29.121094 42.058594 29.554688 L 41.34375 28.695312 C 43.703125 27.628906 46.082031 28 46.109375 28.003906 C 46.3125 28.039062 46.515625 27.902344 46.554688 27.695312 C 47.816406 21.101562 40.128906 18.292969 37.738281 17.589844 C 37.492188 17.519531 37.222656 17.597656 37.019531 17.824219 L 35.828125 19.414062 C 35.6875 19.585938 35.632812 19.8125 35.6875 20.023438 C 35.742188 20.238281 35.898438 20.410156 36.109375 20.488281 L 40.359375 22.042969 C 40.664062 22.167969 40.703125 22.265625 40.703125 22.265625 C 40.714844 22.632812 38.953125 23.664062 35.730469 24.640625 L 35.28125 22.25 C 35.277344 22.144531 35.234375 21.980469 35.074219 21.800781 C 34.464844 21.117188 32.5625 20.769531 29.417969 20.769531 C 27.328125 20.769531 25.839844 21.304688 25 22.359375 C 24.3125 23.222656 24.246094 24.207031 24.277344 24.769531 C 22.417969 24.835938 20.882812 24.6875 19.703125 24.328125 C 18.953125 24.09375 18.257812 23.589844 17.769531 22.9375 L 16.675781 21.15625 C 16.605469 21.039062 16.480469 20.96875 16.34375 20.96875 L 9.957031 20.96875 C 9.742188 20.96875 9.566406 21.144531 9.566406 21.359375 L 9.566406 22.289062 C 9.566406 22.414062 9.628906 22.53125 9.730469 22.605469 L 13.363281 25.242188 C 15.140625 26.523438 17.039062 27.558594 19.007812 28.316406 C 19.59375 28.542969 20.226562 28.777344 20.871094 29.003906 L 19.179688 30.3125 C 17.992188 29.390625 16.523438 28.882812 15.003906 28.882812 C 11.238281 28.882812 8.175781 31.9375 8.175781 35.695312 C 8.175781 39.449219 11.238281 42.503906 15.003906 42.503906 C 18.773438 42.503906 21.839844 39.449219 21.839844 35.695312 C 21.839844 34.753906 21.636719 33.84375 21.261719 32.980469 L 24.8125 30.238281 C 25.066406 30.304688 25.296875 30.355469 25.542969 30.414062 C 25.863281 32.945312 24.949219 35.800781 23.25 37.4375 L 21.527344 39.105469 C 21.410156 39.214844 21.375 39.382812 21.433594 39.53125 C 21.496094 39.675781 21.636719 39.773438 21.796875 39.773438 L 36.820312 39.773438 C 36.960938 39.773438 37.089844 39.699219 37.15625 39.574219 C 37.226562 39.453125 37.226562 39.300781 37.152344 39.179688 C 37.144531 39.171875 36.496094 38.070312 36.628906 36.195312 C 36.898438 33.957031 37.585938 32.136719 38.667969 30.777344 L 39.453125 31.714844 C 38.621094 32.867188 38.160156 34.265625 38.160156 35.695312 C 38.160156 39.449219 41.226562 42.503906 44.996094 42.503906 C 48.761719 42.503906 51.824219 39.449219 51.824219 35.695312 C 51.824219 31.9375 48.761719 28.882812 44.996094 28.882812 Z M 15.003906 41.726562 C 11.667969 41.726562 8.957031 39.019531 8.957031 35.695312 C 8.957031 32.367188 11.667969 29.660156 15.003906 29.660156 C 16.28125 29.660156 17.519531 30.0625 18.542969 30.804688 L 17.671875 31.476562 C 16.878906 30.96875 15.964844 30.691406 15.003906 30.691406 C 12.242188 30.691406 9.992188 32.933594 9.992188 35.695312 C 9.992188 38.449219 12.242188 40.691406 15.003906 40.691406 C 17.765625 40.691406 20.015625 38.449219 20.015625 35.695312 C 20.015625 35.164062 19.925781 34.644531 19.757812 34.144531 L 20.625 33.472656 C 20.910156 34.183594 21.058594 34.929688 21.058594 35.695312 C 21.058594 39.019531 18.34375 41.726562 15.003906 41.726562 Z M 13.640625 36.734375 C 13.976562 37.164062 14.476562 37.386719 14.984375 37.386719 C 15.34375 37.386719 15.710938 37.273438 16.019531 37.035156 L 19.085938 34.664062 C 19.175781 35 19.238281 35.34375 19.238281 35.695312 C 19.238281 38.019531 17.335938 39.910156 15.003906 39.910156 C 12.671875 39.910156 10.773438 38.019531 10.773438 35.695312 C 10.773438 33.363281 12.671875 31.46875 15.003906 31.46875 C 15.722656 31.46875 16.402344 31.652344 17.015625 31.984375 L 13.945312 34.359375 C 13.585938 34.636719 13.355469 35.035156 13.300781 35.484375 C 13.242188 35.933594 13.363281 36.375 13.640625 36.734375 Z M 24.832031 29.433594 C 24.710938 29.402344 24.585938 29.425781 24.488281 29.5 L 15.542969 36.417969 C 15.144531 36.726562 14.566406 36.652344 14.257812 36.257812 C 14.109375 36.0625 14.042969 35.824219 14.074219 35.582031 C 14.101562 35.339844 14.226562 35.125 14.417969 34.976562 L 21.917969 29.179688 C 22.03125 29.089844 22.089844 28.949219 22.066406 28.804688 C 22.042969 28.664062 21.941406 28.546875 21.808594 28.5 C 20.941406 28.207031 20.070312 27.890625 19.289062 27.585938 C 17.378906 26.855469 15.542969 25.851562 13.820312 24.609375 L 10.347656 22.089844 L 10.347656 21.75 L 16.125 21.75 L 17.125 23.375 C 17.730469 24.1875 18.5625 24.792969 19.472656 25.074219 C 20.828125 25.488281 22.601562 25.644531 24.738281 25.527344 C 24.851562 25.523438 24.957031 25.464844 25.027344 25.375 C 25.097656 25.285156 25.121094 25.167969 25.097656 25.054688 C 25.09375 25.042969 24.835938 23.8125 25.617188 22.839844 C 26.304688 21.984375 27.582031 21.550781 29.417969 21.550781 C 33.753906 21.550781 34.433594 22.238281 34.507812 22.335938 C 34.507812 22.34375 34.507812 22.351562 34.511719 22.359375 C 34.511719 22.359375 35.722656 28.804688 35.796875 29.316406 C 35.574219 29.628906 34.316406 30.949219 29.320312 30.351562 C 28.988281 30.316406 28.660156 30.269531 28.316406 30.210938 C 27.265625 30.039062 26.089844 29.777344 24.832031 29.433594 Z M 38.96875 29.921875 C 38.894531 29.835938 38.789062 29.785156 38.675781 29.78125 C 38.578125 29.792969 38.453125 29.828125 38.378906 29.910156 C 37.019531 31.421875 36.167969 33.503906 35.851562 36.121094 C 35.757812 37.4375 36.003906 38.417969 36.214844 38.996094 L 22.761719 38.996094 L 23.792969 37.996094 C 25.589844 36.265625 26.585938 33.300781 26.339844 30.609375 C 26.984375 30.757812 27.609375 30.882812 28.183594 30.976562 C 28.539062 31.042969 28.886719 31.089844 29.230469 31.128906 C 35.574219 31.882812 36.523438 29.640625 36.566406 29.527344 C 36.605469 29.40625 36.625 29.328125 35.875 25.414062 C 37.773438 24.84375 41.410156 23.585938 41.480469 22.3125 C 41.5 22.023438 41.371094 21.617188 40.644531 21.316406 L 36.511719 19.804688 L 37.589844 18.359375 C 39.84375 19.03125 46.632812 21.550781 45.847656 27.191406 C 44.964844 27.109375 42.71875 27.0625 40.542969 28.222656 C 40.4375 28.277344 40.363281 28.375 40.34375 28.492188 C 40.320312 28.605469 40.351562 28.726562 40.425781 28.816406 L 45.695312 35.117188 C 45.867188 35.320312 45.9375 35.585938 45.894531 35.84375 C 45.847656 36.113281 45.691406 36.339844 45.449219 36.484375 C 45.070312 36.707031 44.550781 36.597656 44.246094 36.230469 Z M 46.292969 34.617188 L 43.816406 31.65625 C 44.203125 31.546875 44.59375 31.46875 44.996094 31.46875 C 47.328125 31.46875 49.226562 33.363281 49.226562 35.695312 C 49.226562 38.019531 47.328125 39.910156 44.996094 39.910156 C 42.664062 39.910156 40.761719 38.019531 40.761719 35.695312 C 40.761719 35.039062 40.921875 34.40625 41.214844 33.824219 L 43.644531 36.730469 C 44.191406 37.386719 45.136719 37.570312 45.847656 37.152344 C 46.28125 36.894531 46.578125 36.464844 46.664062 35.972656 C 46.742188 35.488281 46.609375 34.992188 46.292969 34.617188 Z M 44.996094 41.726562 C 41.65625 41.726562 38.941406 39.019531 38.941406 35.695312 C 38.941406 34.476562 39.308594 33.335938 39.980469 32.347656 L 40.683594 33.1875 C 40.230469 33.953125 39.984375 34.808594 39.984375 35.695312 C 39.984375 38.449219 42.234375 40.691406 44.996094 40.691406 C 47.757812 40.691406 50.007812 38.449219 50.007812 35.695312 C 50.007812 32.933594 47.757812 30.691406 44.996094 30.691406 C 44.40625 30.691406 43.828125 30.796875 43.269531 31 L 42.578125 30.171875 C 43.332031 29.84375 44.15625 29.660156 44.996094 29.660156 C 48.332031 29.660156 51.042969 32.367188 51.042969 35.695312 C 51.042969 39.019531 48.332031 41.726562 44.996094 41.726562 Z M 44.996094 41.726562 " fill-opacity="1" fill-rule="nonzero"/></g><path fill="#0c4949" d="M 32.832031 36.296875 L 28.125 36.296875 C 27.910156 36.296875 27.734375 36.46875 27.734375 36.683594 C 27.734375 36.902344 27.910156 37.074219 28.125 37.074219 L 32.832031 37.074219 C 33.046875 37.074219 33.222656 36.902344 33.222656 36.683594 C 33.222656 36.46875 33.046875 36.296875 32.832031 36.296875 Z M 32.832031 36.296875 " fill-opacity="1" fill-rule="nonzero"/><path fill="#0c4949" d="M 32.832031 34.664062 L 28.125 34.664062 C 27.910156 34.664062 27.734375 34.835938 27.734375 35.050781 C 27.734375 35.269531 27.910156 35.441406 28.125 35.441406 L 32.832031 35.441406 C 33.046875 35.441406 33.222656 35.269531 33.222656 35.050781 C 33.222656 34.835938 33.046875 34.664062 32.832031 34.664062 Z M 32.832031 34.664062 " fill-opacity="1" fill-rule="nonzero"/><path fill="#0c4949" d="M 32.832031 33.03125 L 28.125 33.03125 C 27.910156 33.03125 27.734375 33.203125 27.734375 33.417969 C 27.734375 33.636719 27.910156 33.808594 28.125 33.808594 L 32.832031 33.808594 C 33.046875 33.808594 33.222656 33.636719 33.222656 33.417969 C 33.222656 33.203125 33.046875 33.03125 32.832031 33.03125 Z M 32.832031 33.03125 " fill-opacity="1" fill-rule="nonzero"/></svg>