<svg xmlns="http://www.w3.org/2000/svg" xmlns:xlink="http://www.w3.org/1999/xlink" width="80" zoomAndPan="magnify" viewBox="0 0 60 60" height="80" preserveAspectRatio="xMidYMid meet" version="1.0"><defs><clipPath id="a1451100ad"><path d="M 6.484375 16 L 33 16 L 33 31 L 6.484375 31 Z M 6.484375 16 " clip-rule="nonzero"/></clipPath><clipPath id="d53199fc11"><path d="M 6.484375 35 L 8 35 L 8 39 L 6.484375 39 Z M 6.484375 35 " clip-rule="nonzero"/></clipPath><clipPath id="9a5339f6cd"><path d="M 27 43 L 37 43 L 37 46.539062 L 27 46.539062 Z M 27 43 " clip-rule="nonzero"/></clipPath><clipPath id="33d5bb6b58"><path d="M 45 13.539062 L 53.734375 13.539062 L 53.734375 25 L 45 25 Z M 45 13.539062 " clip-rule="nonzero"/></clipPath></defs><g clip-path="url(#a1451100ad)"><path fill="#0c4949" d="M 18.179688 28.710938 C 17.71875 29.160156 17.078125 29.402344 16.441406 29.371094 L 8.570312 28.980469 C 7.9375 28.949219 7.4375 28.425781 7.4375 27.792969 L 7.410156 21.144531 C 7.402344 19.730469 8.414062 18.539062 9.8125 18.320312 L 15.5 17.417969 C 16.21875 17.304688 16.945312 17.246094 17.675781 17.246094 C 18.011719 17.246094 18.34375 17.261719 18.675781 17.285156 C 21.394531 17.476562 26.65625 17.96875 31.371094 19.066406 C 31.511719 19.101562 31.613281 19.226562 31.613281 19.375 L 31.613281 21.585938 C 31.613281 21.75 31.492188 21.882812 31.328125 21.898438 C 25.085938 22.515625 20.054688 26.867188 18.179688 28.710938 Z M 32.539062 21.585938 L 32.539062 19.375 C 32.539062 18.792969 32.144531 18.296875 31.578125 18.164062 C 26.800781 17.050781 21.484375 16.558594 18.742188 16.363281 C 17.609375 16.285156 16.472656 16.328125 15.355469 16.503906 L 9.671875 17.40625 C 7.820312 17.699219 6.476562 19.273438 6.484375 21.148438 L 6.511719 27.796875 C 6.515625 28.917969 7.398438 29.847656 8.527344 29.902344 L 16.394531 30.292969 C 16.449219 30.296875 16.5 30.296875 16.554688 30.296875 C 17.402344 30.296875 18.222656 29.964844 18.828125 29.367188 C 20.632812 27.597656 25.472656 23.410156 31.421875 22.816406 C 32.054688 22.757812 32.539062 22.230469 32.539062 21.585938 " fill-opacity="1" fill-rule="nonzero"/></g><path fill="#0c4949" d="M 16.570312 28.445312 C 16.839844 28.445312 17.070312 28.367188 17.261719 28.25 L 17.261719 23.074219 C 17.261719 23.0625 17.261719 23.0625 17.261719 23.054688 L 17.261719 18.183594 C 17.03125 18.191406 16.800781 18.203125 16.570312 18.21875 L 16.570312 28.445312 " fill-opacity="1" fill-rule="nonzero"/><path fill="#0c4949" d="M 45.402344 22.859375 L 45.507812 22.460938 C 45.523438 22.398438 45.515625 22.328125 45.476562 22.273438 C 45.445312 22.214844 45.390625 22.171875 45.324219 22.160156 C 45.136719 22.113281 44.84375 22.050781 44.460938 21.976562 C 44.394531 21.964844 44.328125 21.976562 44.273438 22.011719 C 44.222656 22.050781 44.183594 22.105469 44.167969 22.171875 L 44.09375 22.578125 C 44.066406 22.710938 44.15625 22.835938 44.289062 22.863281 C 44.65625 22.933594 44.929688 22.996094 45.109375 23.039062 C 45.238281 23.070312 45.367188 22.988281 45.402344 22.859375 " fill-opacity="1" fill-rule="nonzero"/><g clip-path="url(#d53199fc11)"><path fill="#0c4949" d="M 7.839844 35.757812 C 7.871094 35.632812 7.796875 35.503906 7.667969 35.464844 L 7.273438 35.355469 C 7.207031 35.335938 7.136719 35.34375 7.082031 35.382812 C 7.023438 35.414062 6.980469 35.46875 6.964844 35.535156 C 6.875 35.917969 6.832031 36.292969 6.832031 36.65625 C 6.832031 37.128906 6.90625 37.597656 7.058594 38.042969 C 7.082031 38.105469 7.125 38.15625 7.1875 38.183594 C 7.25 38.214844 7.320312 38.214844 7.382812 38.1875 L 7.765625 38.035156 C 7.886719 37.984375 7.949219 37.851562 7.90625 37.730469 C 7.792969 37.382812 7.734375 37.023438 7.734375 36.65625 C 7.734375 36.367188 7.769531 36.066406 7.839844 35.757812 " fill-opacity="1" fill-rule="nonzero"/></g><path fill="#0c4949" d="M 9.738281 40.046875 C 9.628906 39.96875 9.480469 39.984375 9.398438 40.09375 L 9.136719 40.410156 C 9.097656 40.464844 9.078125 40.527344 9.085938 40.597656 C 9.097656 40.660156 9.128906 40.722656 9.183594 40.761719 C 9.753906 41.195312 10.4375 41.605469 11.21875 41.984375 C 11.277344 42.011719 11.34375 42.015625 11.40625 41.996094 C 11.46875 41.972656 11.519531 41.925781 11.542969 41.867188 L 11.722656 41.492188 C 11.78125 41.371094 11.726562 41.226562 11.605469 41.167969 C 10.886719 40.816406 10.257812 40.441406 9.738281 40.046875 " fill-opacity="1" fill-rule="nonzero"/><path fill="#0c4949" d="M 33.375 22.109375 C 34.125 22.070312 34.882812 22.050781 35.632812 22.050781 C 35.765625 22.050781 35.875 21.941406 35.875 21.808594 L 35.875 21.394531 C 35.875 21.257812 35.765625 21.148438 35.632812 21.148438 C 34.863281 21.148438 34.09375 21.167969 33.328125 21.207031 C 33.265625 21.210938 33.203125 21.238281 33.160156 21.285156 C 33.113281 21.335938 33.09375 21.398438 33.097656 21.464844 L 33.117188 21.875 C 33.125 22.011719 33.242188 22.113281 33.375 22.109375 " fill-opacity="1" fill-rule="nonzero"/><path fill="#0c4949" d="M 10.683594 31.375 C 10.78125 31.277344 10.78125 31.125 10.683594 31.027344 L 10.394531 30.734375 C 10.351562 30.6875 10.289062 30.660156 10.222656 30.660156 C 10.15625 30.660156 10.09375 30.6875 10.046875 30.730469 C 9.449219 31.332031 8.933594 31.921875 8.503906 32.492188 C 8.460938 32.546875 8.445312 32.613281 8.453125 32.679688 C 8.464844 32.742188 8.5 32.800781 8.554688 32.839844 L 8.886719 33.082031 C 9 33.160156 9.148438 33.136719 9.230469 33.03125 C 9.632812 32.496094 10.117188 31.9375 10.683594 31.375 " fill-opacity="1" fill-rule="nonzero"/><path fill="#0c4949" d="M 16.753906 42.917969 C 15.988281 42.734375 15.261719 42.535156 14.585938 42.324219 C 14.457031 42.28125 14.320312 42.355469 14.277344 42.484375 L 14.152344 42.875 C 14.132812 42.9375 14.136719 43.003906 14.167969 43.0625 C 14.195312 43.121094 14.253906 43.167969 14.316406 43.183594 C 15.007812 43.402344 15.757812 43.609375 16.542969 43.796875 C 16.605469 43.8125 16.671875 43.800781 16.726562 43.769531 C 16.789062 43.734375 16.824219 43.679688 16.839844 43.617188 L 16.933594 43.210938 C 16.96875 43.078125 16.882812 42.949219 16.753906 42.917969 " fill-opacity="1" fill-rule="nonzero"/><path fill="#0c4949" d="M 41.207031 21.472656 C 40.457031 21.386719 39.691406 21.3125 38.914062 21.261719 C 38.851562 21.253906 38.789062 21.277344 38.738281 21.320312 C 38.6875 21.363281 38.660156 21.425781 38.65625 21.492188 L 38.628906 21.90625 C 38.617188 22.039062 38.722656 22.15625 38.855469 22.164062 C 39.613281 22.21875 40.367188 22.285156 41.101562 22.371094 C 41.234375 22.386719 41.355469 22.292969 41.375 22.160156 L 41.421875 21.746094 C 41.433594 21.679688 41.414062 21.617188 41.375 21.5625 C 41.328125 21.511719 41.269531 21.480469 41.207031 21.472656 " fill-opacity="1" fill-rule="nonzero"/><path fill="#0c4949" d="M 22.160156 43.890625 C 21.394531 43.792969 20.640625 43.679688 19.921875 43.558594 C 19.789062 43.535156 19.664062 43.621094 19.636719 43.757812 L 19.570312 44.167969 C 19.558594 44.230469 19.570312 44.296875 19.609375 44.351562 C 19.644531 44.402344 19.703125 44.4375 19.769531 44.449219 C 20.5 44.574219 21.265625 44.683594 22.042969 44.789062 C 22.109375 44.792969 22.171875 44.78125 22.226562 44.734375 C 22.28125 44.699219 22.3125 44.640625 22.320312 44.574219 L 22.371094 44.164062 C 22.386719 44.03125 22.292969 43.910156 22.160156 43.890625 " fill-opacity="1" fill-rule="nonzero"/><path fill="#0c4949" d="M 26.25 44.269531 C 26.058594 44.261719 25.773438 44.246094 25.414062 44.21875 C 25.277344 44.210938 25.160156 44.308594 25.148438 44.445312 L 25.121094 44.855469 C 25.113281 44.921875 25.132812 44.988281 25.179688 45.039062 C 25.21875 45.089844 25.28125 45.117188 25.347656 45.121094 C 25.726562 45.148438 26.027344 45.164062 26.234375 45.171875 C 26.300781 45.175781 26.363281 45.152344 26.410156 45.101562 C 26.460938 45.058594 26.488281 44.992188 26.488281 44.925781 L 26.488281 44.511719 C 26.488281 44.382812 26.382812 44.273438 26.25 44.269531 " fill-opacity="1" fill-rule="nonzero"/><path fill="#0c4949" d="M 8.859375 27.804688 C 8.675781 27.804688 8.523438 27.65625 8.523438 27.472656 C 8.523438 27.289062 8.675781 27.136719 8.859375 27.136719 C 9.042969 27.136719 9.191406 27.289062 9.191406 27.472656 C 9.191406 27.65625 9.042969 27.804688 8.859375 27.804688 Z M 8.859375 26.679688 C 8.417969 26.679688 8.0625 27.035156 8.0625 27.472656 C 8.0625 27.914062 8.417969 28.269531 8.859375 28.269531 C 9.296875 28.269531 9.65625 27.914062 9.65625 27.472656 C 9.65625 27.035156 9.296875 26.679688 8.859375 26.679688 " fill-opacity="1" fill-rule="nonzero"/><path fill="#0c4949" d="M 14.71875 28.027344 C 14.378906 28.027344 14.097656 27.75 14.097656 27.410156 C 14.097656 27.066406 14.378906 26.792969 14.71875 26.792969 C 15.058594 26.792969 15.335938 27.066406 15.335938 27.410156 C 15.335938 27.75 15.058594 28.027344 14.71875 28.027344 Z M 14.71875 26.328125 C 14.125 26.328125 13.636719 26.808594 13.636719 27.410156 C 13.636719 28.003906 14.125 28.488281 14.71875 28.488281 C 15.3125 28.488281 15.800781 28.003906 15.800781 27.410156 C 15.800781 26.808594 15.3125 26.328125 14.71875 26.328125 " fill-opacity="1" fill-rule="nonzero"/><path fill="#0c4949" d="M 15.644531 22.804688 L 8.339844 23.246094 L 8.339844 23.941406 L 15.644531 23.5 L 15.644531 22.804688 " fill-opacity="1" fill-rule="nonzero"/><path fill="#0c4949" d="M 18.1875 23.183594 C 19.628906 22.621094 24.121094 21.085938 30.6875 20.953125 L 30.6875 20.261719 C 24.285156 20.382812 19.90625 21.789062 18.1875 22.433594 L 18.1875 23.183594 " fill-opacity="1" fill-rule="nonzero"/><g clip-path="url(#9a5339f6cd)"><path fill="#0c4949" d="M 34.722656 43.566406 C 34.539062 43.863281 34.355469 44.128906 34.1875 44.390625 C 34.640625 44.5 34.925781 44.628906 35.046875 44.730469 C 34.789062 44.945312 33.699219 45.332031 31.832031 45.332031 C 29.960938 45.332031 28.882812 44.945312 28.613281 44.730469 C 28.84375 44.546875 29.675781 44.234375 31.101562 44.148438 C 30.914062 43.878906 30.722656 43.585938 30.527344 43.28125 C 29.289062 43.398438 27.644531 43.75 27.644531 44.730469 C 27.644531 46.210938 31.40625 46.257812 31.832031 46.257812 C 32.253906 46.257812 36.015625 46.210938 36.015625 44.730469 C 36.015625 44.160156 35.445312 43.789062 34.722656 43.566406 " fill-opacity="1" fill-rule="nonzero"/></g><g clip-path="url(#33d5bb6b58)"><path fill="#0c4949" d="M 49.746094 14.574219 C 51.3125 14.574219 52.585938 15.847656 52.585938 17.414062 C 52.585938 18.492188 51.148438 21.039062 49.746094 23.15625 C 48.34375 21.039062 46.902344 18.488281 46.902344 17.414062 C 46.902344 15.847656 48.179688 14.574219 49.746094 14.574219 Z M 48.71875 23.277344 C 48.875 23.515625 49.023438 23.738281 49.144531 23.921875 C 49.285156 24.125 49.503906 24.246094 49.746094 24.246094 C 49.984375 24.246094 50.207031 24.125 50.34375 23.921875 C 50.4375 23.792969 50.53125 23.648438 50.644531 23.476562 C 50.644531 23.476562 50.640625 23.476562 50.640625 23.476562 C 51.6875 21.882812 53.511719 18.894531 53.511719 17.414062 C 53.511719 15.335938 51.824219 13.644531 49.746094 13.644531 C 47.671875 13.644531 45.980469 15.335938 45.980469 17.414062 C 45.980469 18.828125 47.660156 21.636719 48.722656 23.277344 C 48.722656 23.277344 48.722656 23.277344 48.71875 23.277344 " fill-opacity="1" fill-rule="nonzero"/></g><path fill="#0c4949" d="M 51.578125 23.746094 C 51.417969 23.988281 51.261719 24.21875 51.113281 24.441406 C 51.085938 24.476562 51.070312 24.507812 51.039062 24.53125 C 51.253906 24.597656 51.410156 24.671875 51.492188 24.738281 C 51.199219 24.957031 50.105469 25.273438 48.515625 25.273438 C 46.925781 25.273438 45.835938 24.957031 45.539062 24.738281 C 45.816406 24.53125 46.785156 24.238281 48.21875 24.210938 C 48.035156 23.921875 47.832031 23.617188 47.636719 23.3125 C 46.464844 23.398438 44.558594 23.703125 44.558594 24.738281 C 44.558594 26.160156 48.109375 26.195312 48.515625 26.195312 C 48.925781 26.195312 52.472656 26.160156 52.472656 24.738281 C 52.472656 24.273438 52.101562 23.960938 51.578125 23.746094 " fill-opacity="1" fill-rule="nonzero"/><path fill="#0c4949" d="M 49.746094 18.003906 C 49.257812 18.003906 48.859375 17.601562 48.859375 17.113281 C 48.859375 16.625 49.257812 16.230469 49.746094 16.230469 C 50.234375 16.230469 50.636719 16.625 50.636719 17.113281 C 50.636719 17.601562 50.234375 18.003906 49.746094 18.003906 Z M 51.558594 17.113281 C 51.558594 16.117188 50.746094 15.304688 49.746094 15.304688 C 48.746094 15.304688 47.933594 16.117188 47.933594 17.113281 C 47.933594 18.113281 48.746094 18.929688 49.746094 18.929688 C 50.746094 18.929688 51.558594 18.113281 51.558594 17.113281 " fill-opacity="1" fill-rule="nonzero"/><path fill="#0c4949" d="M 32.734375 43.234375 C 32.734375 43.234375 32.730469 43.234375 32.730469 43.234375 C 32.71875 43.246094 32.71875 43.234375 32.710938 43.234375 C 32.710938 43.234375 32.707031 43.234375 32.707031 43.234375 C 30.585938 40.066406 28.355469 36.140625 28.355469 34.480469 C 28.355469 32.070312 30.316406 30.113281 32.722656 30.113281 C 35.128906 30.113281 37.085938 32.070312 37.085938 34.480469 C 37.085938 36.144531 34.855469 40.070312 32.734375 43.234375 Z M 32.722656 29.191406 C 29.804688 29.191406 27.429688 31.566406 27.429688 34.480469 C 27.429688 36.796875 30.640625 41.824219 32.023438 43.875 C 32.105469 43.988281 32.207031 44.085938 32.328125 44.148438 C 32.332031 44.148438 32.332031 44.148438 32.332031 44.148438 C 32.449219 44.210938 32.582031 44.246094 32.722656 44.246094 C 32.808594 44.246094 32.890625 44.210938 32.972656 44.183594 C 32.984375 44.183594 33 44.183594 33.015625 44.183594 C 33.03125 44.179688 33.042969 44.167969 33.058594 44.164062 C 33.097656 44.144531 33.128906 44.128906 33.164062 44.105469 C 33.257812 44.046875 33.347656 43.976562 33.414062 43.878906 C 33.414062 43.875 33.414062 43.875 33.417969 43.875 C 33.417969 43.871094 33.417969 43.871094 33.417969 43.871094 C 33.425781 43.863281 33.4375 43.847656 33.441406 43.839844 C 34.835938 41.761719 38.011719 36.785156 38.011719 34.480469 C 38.011719 31.566406 35.636719 29.191406 32.722656 29.191406 " fill-opacity="1" fill-rule="nonzero"/><path fill="#0c4949" d="M 32.722656 35.554688 C 31.886719 35.554688 31.210938 34.878906 31.210938 34.042969 C 31.210938 33.214844 31.886719 32.535156 32.722656 32.535156 C 33.554688 32.535156 34.230469 33.214844 34.230469 34.042969 C 34.230469 34.878906 33.554688 35.554688 32.722656 35.554688 Z M 32.722656 31.613281 C 31.378906 31.613281 30.285156 32.703125 30.285156 34.042969 C 30.285156 35.390625 31.378906 36.480469 32.722656 36.480469 C 34.0625 36.480469 35.15625 35.390625 35.15625 34.042969 C 35.15625 32.703125 34.0625 31.613281 32.722656 31.613281 " fill-opacity="1" fill-rule="nonzero"/></svg>