<svg xmlns="http://www.w3.org/2000/svg" xmlns:xlink="http://www.w3.org/1999/xlink" width="80" zoomAndPan="magnify" viewBox="0 0 60 60" height="80" preserveAspectRatio="xMidYMid meet" version="1.0"><defs><clipPath id="2651fdc479"><path d="M 14.40625 14.40625 L 45.90625 14.40625 L 45.90625 45.90625 L 14.40625 45.90625 Z M 14.40625 14.40625 " clip-rule="nonzero"/></clipPath></defs><g clip-path="url(#2651fdc479)"><path fill="#c3cfa2" d="M 39.839844 15.175781 L 37.441406 17.570312 C 36.902344 18.113281 36.902344 18.996094 37.441406 19.539062 L 40.457031 22.554688 C 41 23.097656 41.882812 23.097656 42.425781 22.554688 L 44.824219 20.15625 C 44.757812 22.84375 42.527344 24.96875 39.839844 24.902344 C 39.433594 24.894531 39.035156 24.835938 38.640625 24.726562 C 37.917969 24.519531 37.136719 24.726562 36.605469 25.257812 L 24.082031 37.78125 C 23.589844 38.273438 23.375 38.976562 23.511719 39.660156 C 23.941406 41.84375 22.519531 43.964844 20.339844 44.398438 C 18.152344 44.828125 16.03125 43.410156 15.601562 41.222656 C 15.167969 39.039062 16.589844 36.917969 18.773438 36.488281 C 19.289062 36.382812 19.820312 36.382812 20.339844 36.488281 C 21.019531 36.621094 21.722656 36.40625 22.214844 35.914062 L 34.738281 23.390625 C 35.269531 22.859375 35.476562 22.078125 35.273438 21.355469 C 34.546875 18.765625 36.054688 16.078125 38.640625 15.355469 C 39.035156 15.246094 39.433594 15.183594 39.839844 15.175781 Z M 40.136719 14.480469 C 37.066406 14.382812 34.496094 16.789062 34.398438 19.859375 C 34.378906 20.429688 34.449219 20.996094 34.601562 21.542969 C 34.738281 22.023438 34.601562 22.542969 34.246094 22.898438 L 21.722656 35.421875 C 21.394531 35.75 20.925781 35.894531 20.472656 35.804688 C 17.910156 35.296875 15.421875 36.960938 14.914062 39.523438 C 14.410156 42.085938 16.074219 44.574219 18.636719 45.082031 C 21.203125 45.589844 23.691406 43.921875 24.195312 41.359375 C 24.3125 40.753906 24.3125 40.128906 24.195312 39.523438 C 24.105469 39.070312 24.25 38.601562 24.574219 38.273438 L 37.101562 25.75 C 37.453125 25.394531 37.972656 25.257812 38.453125 25.394531 C 41.414062 26.226562 44.484375 24.5 45.3125 21.542969 C 45.519531 20.816406 45.570312 20.054688 45.472656 19.304688 C 45.445312 19.117188 45.273438 18.984375 45.085938 19.007812 C 45.007812 19.019531 44.9375 19.054688 44.882812 19.109375 L 41.929688 22.058594 C 41.660156 22.328125 41.222656 22.328125 40.949219 22.058594 L 37.9375 19.046875 C 37.667969 18.773438 37.667969 18.335938 37.9375 18.066406 L 40.890625 15.113281 C 41.023438 14.976562 41.023438 14.757812 40.890625 14.625 C 40.835938 14.570312 40.765625 14.535156 40.6875 14.527344 C 40.507812 14.5 40.320312 14.484375 40.136719 14.480469 " fill-opacity="1" fill-rule="nonzero"/></g><path fill="#c3cfa2" d="M 20.054688 38.222656 L 21.726562 39.765625 L 21.230469 41.984375 L 19.058594 42.660156 L 17.382812 41.121094 L 17.882812 38.898438 Z M 20.230469 37.433594 L 17.292969 38.351562 L 16.617188 41.359375 L 18.878906 43.445312 L 21.820312 42.527344 L 22.496094 39.523438 L 20.230469 37.433594 " fill-opacity="1" fill-rule="nonzero"/></svg>