<svg xmlns="http://www.w3.org/2000/svg" xmlns:xlink="http://www.w3.org/1999/xlink" width="80" zoomAndPan="magnify" viewBox="0 0 60 60" height="80" preserveAspectRatio="xMidYMid meet" version="1.0"><defs><clipPath id="fc634f209d"><path d="M 0 10.664062 L 60 10.664062 L 60 54.914062 L 0 54.914062 Z M 0 10.664062 " clip-rule="nonzero"/></clipPath></defs><g clip-path="url(#fc634f209d)"><path fill="#558347" d="M 51.867188 55.128906 C 42.96875 52.699219 34.21875 50.164062 25.453125 47.363281 C 25.5625 47.078125 25.667969 46.792969 25.773438 46.507812 C 25.875 46.234375 25.972656 45.957031 26.097656 45.617188 C 25.886719 45.628906 25.730469 45.625 25.574219 45.652344 C 21.203125 46.394531 16.828125 47.144531 12.453125 47.882812 C 10.980469 48.132812 9.503906 48.351562 8.027344 48.570312 C 7.613281 48.628906 7.191406 48.652344 6.769531 48.65625 C 6.210938 48.660156 5.976562 48.445312 5.871094 47.894531 C 4.328125 39.816406 2.773438 31.738281 1.246094 23.660156 C 0.839844 21.511719 0.496094 19.347656 0.136719 17.191406 C 0.0664062 16.757812 0.0351562 16.3125 0.0195312 15.871094 C 0 15.253906 0.191406 14.964844 0.78125 14.808594 C 1.535156 14.609375 2.292969 14.4375 3.058594 14.304688 C 9.128906 13.246094 15.203125 12.203125 21.273438 11.148438 C 21.933594 11.035156 22.589844 10.902344 23.246094 10.761719 C 23.746094 10.660156 24.058594 10.804688 24.226562 11.296875 C 24.363281 11.695312 24.476562 12.101562 24.570312 12.511719 C 25.707031 17.558594 26.84375 22.605469 27.964844 27.65625 C 28.492188 30.019531 28.984375 32.386719 29.496094 34.75 C 29.53125 34.910156 29.585938 35.0625 29.679688 35.367188 C 29.921875 34.257812 30.128906 33.300781 30.34375 32.339844 C 31.625 26.613281 32.914062 20.890625 34.183594 15.160156 C 34.347656 14.414062 34.742188 14 35.730469 14.015625 C 36.351562 14.023438 36.976562 14.199219 37.589844 14.351562 C 44.375 16.066406 51.160156 17.789062 57.945312 19.507812 C 58.375 19.617188 58.804688 19.71875 59.230469 19.839844 C 59.839844 20.015625 59.992188 20.332031 59.78125 20.925781 C 59.746094 21.023438 59.703125 21.121094 59.695312 21.222656 C 59.574219 23.167969 59.050781 25.035156 58.605469 26.917969 C 56.515625 35.738281 54.394531 44.550781 52.292969 53.371094 C 52.21875 53.671875 52.246094 53.992188 52.175781 54.292969 C 52.113281 54.570312 51.980469 54.832031 51.867188 55.128906 Z M 35.976562 15.175781 C 35.921875 15.386719 35.855469 15.625 35.800781 15.867188 C 34.835938 19.960938 33.886719 24.0625 32.898438 28.152344 C 32.117188 31.402344 31.300781 34.648438 30.472656 37.886719 C 30.363281 38.3125 30.335938 38.699219 30.429688 39.121094 C 30.742188 40.496094 31.042969 41.871094 31.335938 43.25 C 31.511719 44.089844 31.125 44.578125 30.292969 44.714844 C 29.386719 44.863281 28.488281 45.070312 27.589844 45.25 C 27.445312 45.804688 27.3125 46.304688 27.171875 46.84375 C 35.050781 48.835938 42.808594 51.039062 50.585938 53.410156 C 53.269531 42.632812 55.628906 31.808594 58.628906 21.144531 C 51.09375 19.160156 43.558594 17.171875 35.976562 15.175781 Z M 29.449219 43.210938 C 27.394531 32.742188 25.359375 22.347656 23.304688 11.863281 C 15.847656 13.160156 8.371094 14.496094 0.835938 15.640625 C 0.84375 15.714844 0.839844 15.796875 0.855469 15.875 C 1.304688 17.734375 1.808594 19.582031 2.191406 21.457031 C 3.90625 29.90625 5.589844 38.363281 7.289062 46.816406 C 7.328125 47.011719 7.398438 47.203125 7.460938 47.417969 C 14.804688 45.945312 22.054688 44.378906 29.449219 43.210938 Z M 29.449219 43.210938 " fill-opacity="1" fill-rule="nonzero"/></g><path fill="#558347" d="M 51.144531 43.972656 C 50.820312 43.902344 50.59375 43.863281 50.375 43.796875 C 46.742188 42.675781 43.105469 41.5625 39.476562 40.421875 C 37.410156 39.773438 35.359375 39.078125 33.304688 38.398438 C 32.96875 38.285156 32.640625 38.140625 32.269531 37.992188 C 32.285156 37.789062 32.277344 37.601562 32.316406 37.425781 C 33.722656 31.253906 35.128906 25.082031 36.550781 18.914062 C 36.832031 17.695312 36.890625 17.652344 38.082031 17.9375 C 40.289062 18.464844 42.492188 19.023438 44.679688 19.613281 C 48.128906 20.546875 51.570312 21.515625 55.011719 22.472656 C 55.132812 22.507812 55.253906 22.539062 55.375 22.582031 C 55.933594 22.765625 55.964844 22.871094 55.796875 23.445312 C 55.6875 23.828125 55.660156 24.234375 55.574219 24.621094 C 54.816406 28.007812 54.0625 31.394531 53.289062 34.777344 C 52.675781 37.460938 52.027344 40.140625 51.398438 42.820312 C 51.3125 43.1875 51.238281 43.554688 51.144531 43.972656 Z M 37.378906 18.589844 C 37.085938 19.109375 34.964844 28.902344 35.015625 29.453125 C 35.902344 28.992188 36.796875 28.578125 37.8125 28.542969 C 38.820312 28.511719 39.757812 28.773438 40.664062 29.222656 C 41.734375 28.207031 43.011719 27.882812 44.410156 28.066406 C 45.855469 28.261719 46.957031 28.996094 47.515625 30.371094 C 47.925781 30.335938 48.28125 30.300781 48.636719 30.28125 C 49.746094 30.222656 50.714844 30.546875 51.492188 31.355469 C 51.84375 31.71875 52.15625 32.117188 52.492188 32.496094 C 52.59375 32.609375 52.703125 32.71875 52.855469 32.878906 C 53.664062 29.71875 54.453125 26.632812 55.242188 23.558594 C 49.292969 21.902344 43.351562 20.25 37.378906 18.589844 Z M 33.988281 33.601562 C 33.691406 34.941406 33.414062 36.203125 33.128906 37.492188 C 33.316406 37.558594 33.449219 37.617188 33.585938 37.65625 C 38.796875 39.160156 44.007812 40.65625 49.140625 42.417969 C 49.550781 42.558594 49.984375 42.636719 50.464844 42.757812 C 50.570312 42.304688 50.65625 41.925781 50.75 41.527344 C 50.566406 41.441406 50.4375 41.375 50.308594 41.3125 C 49.179688 40.777344 48.160156 40.078125 47.242188 39.230469 C 44.15625 36.375 40.476562 34.722656 36.394531 33.898438 C 35.621094 33.742188 34.824219 33.699219 33.988281 33.601562 Z M 50.867188 40.722656 C 50.925781 40.652344 50.964844 40.621094 50.972656 40.585938 C 51.5 38.464844 52.027344 36.339844 52.542969 34.214844 C 52.566406 34.109375 52.546875 33.949219 52.480469 33.871094 C 51.921875 33.214844 51.355469 32.566406 50.78125 31.925781 C 50.28125 31.371094 49.632812 31.164062 48.902344 31.199219 C 48.527344 31.214844 48.148438 31.253906 47.777344 31.324219 C 46.308594 31.613281 44.933594 32.164062 43.578125 32.789062 C 44.121094 34.066406 44.644531 35.304688 45.183594 36.535156 C 45.246094 36.675781 45.390625 36.792969 45.515625 36.898438 C 46.378906 37.605469 47.25 38.296875 48.109375 39.007812 C 48.953125 39.710938 49.882812 40.269531 50.867188 40.722656 Z M 43.695312 35.789062 C 43.722656 35.757812 43.753906 35.722656 43.78125 35.6875 C 43.726562 35.558594 43.679688 35.421875 43.617188 35.292969 C 43.234375 34.519531 42.855469 33.746094 42.46875 32.976562 C 42.023438 32.085938 41.464844 31.277344 40.8125 30.527344 C 40.398438 30.050781 39.890625 29.738281 39.289062 29.5625 C 37.835938 29.140625 36.511719 29.503906 35.226562 30.1875 C 34.828125 30.398438 34.582031 30.671875 34.523438 31.144531 C 34.460938 31.644531 34.304688 32.128906 34.203125 32.625 C 34.171875 32.777344 34.179688 32.9375 34.171875 33.125 C 35.902344 33.085938 37.523438 33.398438 39.125 33.863281 C 40.722656 34.328125 42.214844 35.039062 43.695312 35.789062 Z M 41.277344 29.636719 C 41.949219 30.492188 42.59375 31.308594 43.234375 32.121094 C 44.308594 31.625 45.402344 31.117188 46.496094 30.609375 C 45.976562 29.074219 43.398438 28.21875 41.277344 29.636719 Z M 41.277344 29.636719 " fill-opacity="1" fill-rule="nonzero"/><path fill="#558347" d="M 8.148438 40.421875 C 6.628906 32.894531 5.128906 25.457031 3.632812 18.019531 C 3.621094 17.964844 3.65625 17.902344 3.667969 17.855469 C 9.757812 16.671875 15.84375 15.546875 21.984375 14.570312 C 22.222656 15.753906 22.464844 16.875 22.675781 18.007812 C 23.816406 24.144531 24.945312 30.289062 26.078125 36.429688 C 26.101562 36.554688 26.132812 36.675781 26.15625 36.800781 C 26.269531 37.390625 26.082031 37.675781 25.492188 37.777344 C 24.25 37.988281 23.007812 38.195312 21.761719 38.402344 C 18.484375 38.9375 15.207031 39.472656 11.929688 40.003906 C 10.851562 40.175781 9.769531 40.332031 8.6875 40.480469 C 8.53125 40.503906 8.367188 40.449219 8.148438 40.421875 Z M 4.246094 18.410156 C 5.085938 22.183594 5.917969 25.90625 6.746094 29.621094 C 7.503906 29.578125 8.367188 29.753906 9.328125 30.144531 C 10.117188 28.410156 10.902344 26.679688 11.691406 24.945312 C 11 24.597656 10.789062 24.34375 10.921875 23.84375 C 10.996094 23.574219 11.140625 23.242188 11.359375 23.109375 C 11.683594 22.90625 12.101562 22.855469 12.480469 22.738281 C 12.21875 21.863281 12.054688 21.941406 11.273438 22.03125 C 11.007812 22.0625 10.738281 22.160156 10.492188 22.273438 C 10.035156 22.484375 9.597656 22.734375 9.148438 22.960938 C 9.011719 23.027344 8.863281 23.078125 8.722656 23.136719 C 8.691406 23.074219 8.65625 23.007812 8.621094 22.945312 C 9.347656 22.039062 10.3125 21.519531 11.527344 21.390625 C 11.265625 20.933594 10.914062 20.828125 10.476562 20.886719 C 9.269531 21.046875 8.089844 21.292969 7.003906 21.957031 C 6.898438 21.570312 7.132812 21.410156 7.355469 21.265625 C 8.019531 20.835938 8.75 20.582031 9.523438 20.449219 C 9.699219 20.421875 9.867188 20.378906 10.160156 20.316406 C 8.601562 19.597656 7.144531 19.910156 5.605469 20.246094 C 6.152344 19.566406 7.789062 19.140625 9.039062 19.347656 C 11.171875 19.699219 12.460938 21.058594 13.222656 22.988281 C 13.4375 22.890625 13.648438 22.792969 13.925781 22.667969 C 13.96875 22.980469 14 23.199219 14.035156 23.449219 C 14.277344 23.351562 14.488281 23.269531 14.703125 23.183594 C 15.257812 22.964844 15.832031 22.824219 16.429688 22.898438 C 19.96875 23.335938 21.550781 25.820312 21.535156 29.269531 C 21.535156 29.371094 21.527344 29.492188 21.476562 29.574219 C 21.417969 29.683594 21.308594 29.761719 21.109375 29.96875 C 20.863281 28.644531 20.683594 27.449219 20.207031 26.335938 C 20.113281 28.101562 19.921875 29.078125 19.640625 29.273438 C 19.628906 29.085938 19.605469 28.925781 19.605469 28.765625 C 19.601562 28.363281 19.628906 27.964844 19.605469 27.566406 C 19.542969 26.574219 19.441406 25.59375 18.894531 24.71875 C 18.691406 24.390625 18.441406 24.15625 18.023438 24.054688 C 18.757812 26 18.832031 27.183594 18.207031 27.78125 C 18.171875 27.503906 18.128906 27.289062 18.113281 27.070312 C 18.035156 25.980469 17.742188 24.960938 17.140625 24.039062 C 16.789062 23.496094 16.523438 23.394531 15.851562 23.578125 C 16.652344 24.90625 16.835938 25.789062 16.378906 26.496094 C 16.273438 26.210938 16.167969 26 16.113281 25.769531 C 15.953125 25.089844 15.738281 24.4375 15.351562 23.84375 C 15.167969 23.558594 14.972656 23.476562 14.730469 23.6875 C 14.828125 24.046875 14.984375 24.382812 15 24.726562 C 15.046875 25.628906 14.339844 26.046875 13.539062 25.625 C 13.511719 25.609375 13.464844 25.636719 13.332031 25.65625 C 13.042969 27.722656 12.753906 29.8125 12.457031 31.921875 C 13.691406 32.453125 14.863281 32.832031 16.136719 32.441406 C 17.226562 32.109375 18.261719 32.273438 19.261719 32.742188 C 19.675781 32.933594 20.054688 33.203125 20.480469 33.457031 C 20.753906 32.644531 20.960938 31.792969 21.714844 31.257812 C 22.425781 30.753906 23.179688 30.351562 24.09375 30.433594 C 24.050781 29.429688 22.273438 19.714844 22.066406 19.339844 C 20.792969 19.777344 19.507812 19.898438 18.253906 19.332031 C 16.996094 18.761719 16.085938 17.832031 15.640625 16.492188 C 11.804688 17.136719 8.042969 17.773438 4.246094 18.410156 Z M 24.257812 31.003906 C 22.96875 31.015625 21.925781 31.703125 21.496094 32.808594 C 21.367188 33.140625 21.273438 33.488281 21.191406 33.832031 C 21.046875 34.449219 20.71875 34.945312 20.265625 35.378906 C 19.699219 35.914062 19.027344 36.25 18.265625 36.371094 C 17.539062 36.484375 16.808594 36.5625 16.078125 36.632812 C 15.402344 36.703125 14.820312 36.957031 14.339844 37.433594 C 13.765625 38 13.203125 38.574219 12.605469 39.175781 C 16.847656 38.480469 21.066406 37.789062 25.359375 37.085938 C 24.988281 35.035156 24.625 33.039062 24.257812 31.003906 Z M 8.953125 39.84375 C 9.820312 39.683594 10.632812 39.53125 11.46875 39.378906 C 11.429688 38.835938 11.394531 38.367188 11.363281 37.894531 C 10.832031 37.929688 10.40625 38.292969 9.839844 38.046875 C 10.230469 37.429688 10.933594 37.460938 11.429688 37.078125 C 11.476562 36.085938 11.527344 35.066406 11.578125 34.050781 C 10.941406 33.890625 10.3125 34.265625 9.695312 33.8125 C 10.34375 33.398438 11.027344 33.472656 11.640625 33.273438 C 11.785156 32.382812 11.925781 31.503906 12.066406 30.644531 C 11.679688 30.472656 11.277344 30.742188 10.960938 30.359375 C 11.296875 30.019531 11.765625 30.167969 12.164062 29.996094 C 12.226562 29.535156 12.292969 29.066406 12.359375 28.605469 C 12.089844 28.550781 11.898438 28.511719 11.644531 28.460938 C 11.824219 28.058594 12.210938 28.132812 12.476562 27.941406 C 12.574219 27.414062 12.675781 26.863281 12.773438 26.355469 C 12.5625 26.222656 12.402344 26.121094 12.113281 25.945312 C 12.492188 25.839844 12.703125 25.78125 12.90625 25.726562 C 13.085938 25.035156 13.261719 24.363281 13.433594 23.691406 C 12.582031 24.574219 11.941406 25.5625 11.488281 26.667969 C 11.625 26.789062 11.730469 26.863281 11.8125 26.953125 C 11.886719 27.039062 11.941406 27.144531 12.03125 27.28125 L 11.148438 27.28125 C 10.945312 27.792969 10.746094 28.292969 10.570312 28.730469 C 10.816406 29 11.003906 29.203125 11.28125 29.507812 C 10.988281 29.523438 10.851562 29.550781 10.71875 29.539062 C 10.582031 29.523438 10.449219 29.476562 10.292969 29.4375 C 9.976562 30.1875 9.738281 30.917969 9.648438 31.640625 C 9.957031 32.011719 10.507812 32.003906 10.699219 32.601562 C 10.238281 32.476562 9.871094 32.378906 9.507812 32.277344 C 9.109375 33.578125 8.878906 35.089844 8.972656 35.695312 C 9.460938 35.960938 10.011719 36.117188 10.480469 36.550781 C 9.851562 36.886719 9.378906 36.324219 8.839844 36.4375 C 8.804688 36.921875 8.8125 37.390625 8.726562 37.839844 C 8.601562 38.507812 8.726562 39.128906 8.953125 39.84375 Z M 20.179688 34.253906 C 20.011719 34.070312 19.886719 33.863281 19.703125 33.742188 C 18.738281 33.105469 17.691406 32.726562 16.539062 33.066406 C 15.210938 33.457031 13.96875 33.277344 12.753906 32.671875 C 12.648438 32.621094 12.535156 32.589844 12.417969 32.546875 C 12.183594 33.503906 11.996094 37.78125 12.15625 38.480469 C 12.230469 38.4375 12.3125 38.414062 12.367188 38.359375 C 12.808594 37.9375 13.253906 37.523438 13.671875 37.082031 C 14.332031 36.378906 15.113281 35.953125 16.085938 35.847656 C 16.878906 35.765625 17.671875 35.652344 18.453125 35.492188 C 19.175781 35.339844 19.734375 34.90625 20.179688 34.253906 Z M 16.222656 16.367188 C 16.289062 16.53125 16.320312 16.628906 16.371094 16.714844 C 17.296875 18.230469 18.597656 19.074219 20.433594 18.964844 C 21.035156 18.929688 21.597656 18.839844 22.011719 18.332031 C 21.855469 17.363281 21.703125 16.394531 21.542969 15.371094 C 19.757812 15.703125 18.03125 16.027344 16.222656 16.367188 Z M 6.847656 30.171875 C 7.292969 32.253906 7.734375 34.292969 8.179688 36.382812 C 8.507812 34.476562 8.824219 32.648438 9.144531 30.804688 C 8.507812 30.242188 7.792969 29.945312 6.847656 30.171875 Z M 11.835938 23.472656 C 11.609375 23.464844 11.4375 23.648438 11.421875 23.917969 C 11.40625 24.15625 11.609375 24.386719 11.828125 24.363281 C 12.050781 24.339844 12.140625 24.183594 12.15625 23.980469 C 12.179688 23.695312 12.042969 23.480469 11.835938 23.472656 Z M 13.808594 24.921875 C 13.855469 24.976562 13.957031 25.214844 14.09375 25.234375 C 14.328125 25.265625 14.445312 25.042969 14.441406 24.816406 C 14.433594 24.585938 14.394531 24.339844 14.121094 24.269531 C 13.9375 24.222656 13.804688 24.449219 13.808594 24.921875 Z M 13.808594 24.921875 " fill-opacity="1" fill-rule="nonzero"/><path fill="#558347" d="M 46.867188 27.660156 C 46.75 27.476562 46.621094 27.367188 46.628906 27.265625 C 46.636719 27.109375 46.71875 26.941406 46.804688 26.804688 C 47.441406 25.789062 48.078125 24.777344 48.730469 23.777344 C 48.847656 23.597656 48.984375 23.277344 49.242188 23.421875 C 49.558594 23.59375 49.316406 23.875 49.199219 24.070312 C 48.589844 25.101562 47.964844 26.121094 47.332031 27.136719 C 47.230469 27.304688 47.066406 27.4375 46.867188 27.660156 Z M 46.867188 27.660156 " fill-opacity="1" fill-rule="nonzero"/><path fill="#558347" d="M 47.113281 22.226562 C 47.039062 22.84375 47 23.402344 46.898438 23.953125 C 46.742188 24.796875 46.546875 25.632812 46.367188 26.472656 C 46.34375 26.574219 46.339844 26.699219 46.277344 26.769531 C 46.179688 26.882812 46.039062 27.03125 45.914062 27.03125 C 45.671875 27.039062 45.625 26.820312 45.660156 26.621094 C 45.730469 26.25 45.808594 25.878906 45.902344 25.515625 C 46.148438 24.5625 46.40625 23.613281 46.664062 22.664062 C 46.710938 22.492188 46.71875 22.285156 47.113281 22.226562 Z M 47.113281 22.226562 " fill-opacity="1" fill-rule="nonzero"/><path fill="#558347" d="M 42.191406 21.875 C 42.269531 22.035156 42.371094 22.191406 42.421875 22.359375 C 42.804688 23.625 43.175781 24.890625 43.546875 26.160156 C 43.582031 26.277344 43.617188 26.40625 43.605469 26.527344 C 43.597656 26.617188 43.515625 26.765625 43.464844 26.765625 C 43.363281 26.765625 43.238281 26.703125 43.164062 26.628906 C 43.09375 26.5625 43.0625 26.445312 43.035156 26.34375 C 42.695312 25.027344 42.355469 23.707031 42.027344 22.386719 C 41.988281 22.238281 42.019531 22.070312 42.019531 21.914062 C 42.078125 21.902344 42.132812 21.886719 42.191406 21.875 Z M 42.191406 21.875 " fill-opacity="1" fill-rule="nonzero"/><path fill="#558347" d="M 52.542969 26.492188 C 52.433594 26.550781 52.316406 26.597656 52.210938 26.667969 C 51.109375 27.402344 50.011719 28.140625 48.90625 28.871094 C 48.75 28.972656 48.574219 29.058594 48.394531 29.097656 C 48.304688 29.113281 48.15625 29.027344 48.09375 28.941406 C 48.050781 28.886719 48.082031 28.730469 48.132812 28.65625 C 48.199219 28.558594 48.308594 28.472656 48.417969 28.414062 C 49.664062 27.71875 50.917969 27.03125 52.171875 26.34375 C 52.234375 26.308594 52.320312 26.316406 52.398438 26.304688 C 52.445312 26.367188 52.496094 26.429688 52.542969 26.492188 Z M 52.542969 26.492188 " fill-opacity="1" fill-rule="nonzero"/><path fill="#558347" d="M 39.882812 22.683594 C 39.964844 22.769531 40.0625 22.84375 40.121094 22.941406 C 40.828125 24.101562 41.535156 25.261719 42.226562 26.433594 C 42.34375 26.632812 42.566406 26.929688 42.273438 27.097656 C 41.972656 27.269531 41.847656 26.914062 41.738281 26.714844 C 41.101562 25.511719 40.480469 24.304688 39.859375 23.09375 C 39.804688 22.992188 39.789062 22.867188 39.757812 22.753906 C 39.800781 22.730469 39.839844 22.707031 39.882812 22.683594 Z M 39.882812 22.683594 " fill-opacity="1" fill-rule="nonzero"/><path fill="#558347" d="M 38.0625 23.867188 C 38.207031 23.964844 38.371094 24.042969 38.484375 24.167969 C 39.394531 25.152344 40.292969 26.148438 41.191406 27.140625 C 41.257812 27.21875 41.320312 27.3125 41.347656 27.410156 C 41.363281 27.476562 41.339844 27.585938 41.289062 27.628906 C 41.242188 27.671875 41.128906 27.6875 41.0625 27.660156 C 40.972656 27.625 40.882812 27.554688 40.816406 27.480469 C 39.929688 26.445312 39.046875 25.410156 38.167969 24.371094 C 38.074219 24.253906 38.035156 24.09375 37.96875 23.953125 C 38 23.925781 38.03125 23.894531 38.0625 23.867188 Z M 38.0625 23.867188 " fill-opacity="1" fill-rule="nonzero"/><path fill="#558347" d="M 50.953125 24.554688 C 50.878906 24.671875 50.816406 24.804688 50.722656 24.90625 C 49.832031 25.914062 48.941406 26.917969 48.046875 27.917969 C 47.933594 28.039062 47.808594 28.160156 47.667969 28.246094 C 47.597656 28.289062 47.414062 28.292969 47.386719 28.25 C 47.332031 28.160156 47.316406 28.015625 47.347656 27.914062 C 47.382812 27.804688 47.480469 27.703125 47.570312 27.617188 C 48.5625 26.621094 49.558594 25.632812 50.558594 24.644531 C 50.640625 24.5625 50.757812 24.519531 50.859375 24.457031 C 50.890625 24.488281 50.921875 24.523438 50.953125 24.554688 Z M 50.953125 24.554688 " fill-opacity="1" fill-rule="nonzero"/><path fill="#558347" d="M 44.792969 21.6875 C 44.828125 21.878906 44.886719 22.066406 44.894531 22.253906 C 44.9375 23.449219 44.96875 24.644531 45.003906 25.835938 C 45.011719 26.089844 45.03125 26.34375 45.015625 26.59375 C 45.007812 26.675781 44.914062 26.753906 44.859375 26.835938 C 44.765625 26.773438 44.644531 26.726562 44.585938 26.640625 C 44.53125 26.5625 44.535156 26.4375 44.53125 26.335938 C 44.5 24.789062 44.453125 23.242188 44.792969 21.6875 Z M 44.792969 21.6875 " fill-opacity="1" fill-rule="nonzero"/><path fill="#558347" d="M 52.492188 28.703125 C 52.484375 28.972656 52.28125 29.011719 52.105469 29.0625 C 51.085938 29.363281 50.058594 29.65625 49.035156 29.949219 C 48.9375 29.976562 48.816406 30.019531 48.730469 29.988281 C 48.628906 29.953125 48.519531 29.859375 48.480469 29.761719 C 48.457031 29.699219 48.53125 29.558594 48.601562 29.507812 C 48.699219 29.4375 48.832031 29.40625 48.953125 29.378906 C 49.945312 29.125 50.9375 28.878906 51.933594 28.632812 C 52.128906 28.585938 52.335938 28.488281 52.492188 28.703125 Z M 52.492188 28.703125 " fill-opacity="1" fill-rule="nonzero"/><path fill="#558347" d="M 37.597656 25.558594 C 38 25.886719 38.410156 26.214844 38.808594 26.546875 C 39.292969 26.953125 39.773438 27.363281 40.25 27.777344 C 40.375 27.886719 40.496094 28.007812 40.59375 28.144531 C 40.628906 28.195312 40.628906 28.34375 40.589844 28.371094 C 40.519531 28.421875 40.40625 28.4375 40.316406 28.425781 C 40.242188 28.414062 40.171875 28.34375 40.109375 28.285156 C 39.253906 27.445312 38.398438 26.605469 37.546875 25.761719 C 37.523438 25.738281 37.523438 25.6875 37.511719 25.648438 C 37.539062 25.617188 37.570312 25.589844 37.597656 25.558594 Z M 37.597656 25.558594 " fill-opacity="1" fill-rule="nonzero"/><path fill="#558347" d="M 21.609375 23.550781 C 21.550781 23.386719 21.460938 23.226562 21.445312 23.054688 C 21.367188 22.304688 21.308594 21.550781 21.25 20.796875 C 21.242188 20.714844 21.242188 20.625 21.273438 20.550781 C 21.304688 20.488281 21.382812 20.40625 21.445312 20.402344 C 21.507812 20.394531 21.59375 20.460938 21.644531 20.519531 C 21.683594 20.558594 21.691406 20.636719 21.695312 20.695312 C 21.730469 21.574219 21.765625 22.457031 21.796875 23.335938 C 21.796875 23.40625 21.75 23.472656 21.726562 23.542969 C 21.6875 23.546875 21.648438 23.546875 21.609375 23.550781 Z M 21.609375 23.550781 " fill-opacity="1" fill-rule="nonzero"/><path fill="#558347" d="M 19.953125 23.292969 C 19.929688 23.183594 19.882812 23.078125 19.882812 22.96875 C 19.882812 22.257812 19.894531 21.542969 19.902344 20.832031 C 19.902344 20.75 19.90625 20.65625 19.945312 20.589844 C 19.984375 20.53125 20.074219 20.472656 20.136719 20.476562 C 20.203125 20.476562 20.316406 20.5625 20.316406 20.605469 C 20.28125 21.503906 20.34375 22.414062 20.09375 23.289062 C 20.046875 23.289062 20 23.292969 19.953125 23.292969 Z M 19.953125 23.292969 " fill-opacity="1" fill-rule="nonzero"/><path fill="#558347" d="M 15.949219 22.027344 C 15.941406 21.632812 16.644531 20.363281 17.101562 19.84375 C 17.171875 19.765625 17.296875 19.742188 17.445312 19.664062 C 17.460938 19.808594 17.503906 19.910156 17.46875 19.960938 C 17.003906 20.675781 16.542969 21.394531 15.949219 22.027344 Z M 15.949219 22.027344 " fill-opacity="1" fill-rule="nonzero"/><path fill="#558347" d="M 18.019531 22.5625 C 17.996094 22.515625 17.941406 22.457031 17.949219 22.414062 C 18.089844 21.71875 18.230469 21.019531 18.398438 20.328125 C 18.421875 20.242188 18.609375 20.195312 18.71875 20.128906 C 18.765625 20.234375 18.875 20.359375 18.847656 20.441406 C 18.628906 21.136719 18.386719 21.828125 18.144531 22.515625 C 18.136719 22.539062 18.078125 22.542969 18.019531 22.5625 Z M 18.019531 22.5625 " fill-opacity="1" fill-rule="nonzero"/><path fill="#558347" d="M 13.25 19.34375 C 13.980469 18.800781 14.765625 18.34375 15.589844 17.960938 C 15.640625 17.9375 15.726562 18.007812 15.808594 18.035156 C 15.480469 18.472656 13.902344 19.300781 13.25 19.34375 Z M 13.25 19.34375 " fill-opacity="1" fill-rule="nonzero"/><path fill="#558347" d="M 12.78125 17.792969 C 13.5625 17.421875 14.363281 17.140625 15.34375 17.050781 C 15.238281 17.253906 15.210938 17.386719 15.148438 17.40625 C 14.382812 17.660156 13.59375 17.792969 12.78125 17.792969 Z M 12.78125 17.792969 " fill-opacity="1" fill-rule="nonzero"/><path fill="#558347" d="M 16.5625 18.984375 C 16.183594 19.492188 14.644531 20.585938 14.132812 20.742188 C 14.320312 20.324219 15.976562 19.097656 16.5625 18.984375 Z M 16.5625 18.984375 " fill-opacity="1" fill-rule="nonzero"/></svg>