<svg xmlns="http://www.w3.org/2000/svg" xmlns:xlink="http://www.w3.org/1999/xlink" width="80" zoomAndPan="magnify" viewBox="0 0 60 60" height="80" preserveAspectRatio="xMidYMid meet" version="1.0"><defs><clipPath id="787f0be0ab"><path d="M 33 15 L 41.445312 15 L 41.445312 19 L 33 19 Z M 33 15 " clip-rule="nonzero"/></clipPath><clipPath id="4e2ed6cac9"><path d="M 18.195312 15 L 27 15 L 27 19 L 18.195312 19 Z M 18.195312 15 " clip-rule="nonzero"/></clipPath><clipPath id="2ccf02d4d9"><path d="M 25 13.519531 L 35 13.519531 L 35 23 L 25 23 Z M 25 13.519531 " clip-rule="nonzero"/></clipPath><clipPath id="55f2e823b6"><path d="M 27 34 L 33 34 L 33 46.519531 L 27 46.519531 Z M 27 34 " clip-rule="nonzero"/></clipPath></defs><path fill="#0c4949" d="M 25.476562 20.109375 C 24.484375 20.972656 23.921875 22.203125 23.921875 23.53125 L 23.921875 31.605469 C 24.101562 31.539062 24.289062 31.492188 24.480469 31.46875 C 26.265625 31.222656 28.121094 31.097656 29.996094 31.097656 C 31.890625 31.097656 33.761719 31.222656 35.5625 31.472656 C 35.738281 31.5 35.910156 31.539062 36.074219 31.597656 L 36.074219 23.53125 C 36.074219 22.203125 35.511719 20.972656 34.519531 20.109375 C 33.671875 21.828125 31.9375 22.917969 29.996094 22.917969 C 28.058594 22.917969 26.324219 21.828125 25.476562 20.109375 Z M 23.640625 32.332031 C 23.589844 32.332031 23.542969 32.320312 23.5 32.292969 C 23.410156 32.242188 23.355469 32.148438 23.355469 32.046875 L 23.355469 23.53125 C 23.355469 21.925781 24.128906 20.394531 25.417969 19.433594 C 25.488281 19.382812 25.578125 19.367188 25.664062 19.390625 C 25.746094 19.414062 25.816406 19.472656 25.847656 19.554688 C 26.535156 21.257812 28.164062 22.355469 29.996094 22.355469 C 31.832031 22.355469 33.460938 21.257812 34.148438 19.554688 C 34.179688 19.472656 34.25 19.414062 34.332031 19.390625 C 34.417969 19.367188 34.507812 19.382812 34.578125 19.433594 C 35.867188 20.394531 36.640625 21.925781 36.640625 23.53125 L 36.640625 32.03125 C 36.640625 32.128906 36.585938 32.222656 36.5 32.273438 C 36.414062 32.324219 36.308594 32.324219 36.21875 32.277344 C 35.992188 32.152344 35.742188 32.070312 35.484375 32.035156 C 33.710938 31.789062 31.863281 31.664062 29.996094 31.664062 C 28.148438 31.664062 26.316406 31.785156 24.554688 32.027344 C 24.28125 32.066406 24.019531 32.15625 23.78125 32.292969 C 23.738281 32.320312 23.6875 32.332031 23.640625 32.332031 " fill-opacity="1" fill-rule="nonzero"/><g clip-path="url(#787f0be0ab)"><path fill="#0c4949" d="M 35.007812 18.425781 L 40.109375 18.425781 C 40.730469 18.425781 41.234375 17.921875 41.234375 17.304688 L 41.234375 17.078125 C 41.234375 16.457031 40.730469 15.953125 40.109375 15.953125 L 34.652344 15.953125 C 34.90625 16.558594 35.039062 17.21875 35.039062 17.882812 C 35.039062 18.0625 35.027344 18.246094 35.007812 18.425781 Z M 40.109375 18.992188 L 34.683594 18.992188 C 34.597656 18.992188 34.519531 18.957031 34.464844 18.890625 C 34.414062 18.828125 34.390625 18.742188 34.402344 18.660156 C 34.449219 18.40625 34.472656 18.140625 34.472656 17.882812 C 34.472656 17.15625 34.292969 16.4375 33.960938 15.800781 C 33.914062 15.714844 33.917969 15.609375 33.96875 15.523438 C 34.019531 15.4375 34.109375 15.386719 34.210938 15.386719 L 40.109375 15.386719 C 41.042969 15.386719 41.800781 16.144531 41.800781 17.078125 L 41.800781 17.304688 C 41.800781 18.234375 41.042969 18.992188 40.109375 18.992188 " fill-opacity="1" fill-rule="nonzero"/></g><g clip-path="url(#4e2ed6cac9)"><path fill="#0c4949" d="M 19.886719 15.953125 C 19.265625 15.953125 18.761719 16.457031 18.761719 17.078125 L 18.761719 17.304688 C 18.761719 17.921875 19.265625 18.425781 19.886719 18.425781 L 24.988281 18.425781 C 24.96875 18.246094 24.957031 18.0625 24.957031 17.882812 C 24.957031 17.21875 25.089844 16.558594 25.339844 15.953125 Z M 25.3125 18.992188 L 19.886719 18.992188 C 18.953125 18.992188 18.195312 18.234375 18.195312 17.304688 L 18.195312 17.078125 C 18.195312 16.144531 18.953125 15.386719 19.886719 15.386719 L 25.785156 15.386719 C 25.886719 15.386719 25.976562 15.4375 26.027344 15.523438 C 26.078125 15.609375 26.082031 15.714844 26.035156 15.800781 C 25.699219 16.4375 25.523438 17.15625 25.523438 17.882812 C 25.523438 18.140625 25.546875 18.40625 25.589844 18.660156 C 25.605469 18.742188 25.582031 18.828125 25.53125 18.890625 C 25.476562 18.957031 25.398438 18.992188 25.3125 18.992188 " fill-opacity="1" fill-rule="nonzero"/></g><g clip-path="url(#2ccf02d4d9)"><path fill="#0c4949" d="M 29.996094 15.292969 C 28.570312 15.292969 27.410156 16.453125 27.410156 17.882812 C 27.410156 19.308594 28.570312 20.46875 29.996094 20.46875 C 31.425781 20.46875 32.585938 19.308594 32.585938 17.882812 C 32.585938 16.453125 31.425781 15.292969 29.996094 15.292969 Z M 29.996094 21.035156 C 28.257812 21.035156 26.84375 19.617188 26.84375 17.882812 C 26.84375 16.140625 28.257812 14.726562 29.996094 14.726562 C 31.734375 14.726562 33.148438 16.140625 33.148438 17.882812 C 33.148438 19.617188 31.734375 21.035156 29.996094 21.035156 Z M 29.996094 14.101562 C 27.914062 14.101562 26.21875 15.796875 26.21875 17.882812 C 26.21875 19.964844 27.914062 21.660156 29.996094 21.660156 C 32.082031 21.660156 33.777344 19.964844 33.777344 17.882812 C 33.777344 15.796875 32.082031 14.101562 29.996094 14.101562 Z M 29.996094 22.226562 C 27.601562 22.226562 25.652344 20.277344 25.652344 17.882812 C 25.652344 15.484375 27.601562 13.535156 29.996094 13.535156 C 32.394531 13.535156 34.34375 15.484375 34.34375 17.882812 C 34.34375 20.277344 32.394531 22.226562 29.996094 22.226562 " fill-opacity="1" fill-rule="nonzero"/></g><path fill="#0c4949" d="M 33.597656 38.1875 C 33.785156 38.203125 33.960938 38.21875 34.125 38.234375 C 34.679688 38.289062 35.207031 37.945312 35.382812 37.414062 L 36.335938 34.515625 C 36.449219 34.175781 36.402344 33.804688 36.214844 33.5 C 36.027344 33.199219 35.714844 32.996094 35.359375 32.945312 C 33.625 32.707031 31.820312 32.585938 29.996094 32.585938 C 28.1875 32.585938 26.402344 32.703125 24.679688 32.941406 C 24.328125 32.988281 24.015625 33.191406 23.824219 33.496094 C 23.636719 33.796875 23.589844 34.167969 23.703125 34.507812 L 24.660156 37.414062 C 24.835938 37.945312 25.363281 38.289062 25.917969 38.234375 C 26.066406 38.21875 26.222656 38.203125 26.398438 38.191406 L 26.398438 37.140625 C 26.398438 35.15625 28.011719 33.539062 29.996094 33.539062 C 31.984375 33.539062 33.597656 35.15625 33.597656 37.140625 Z M 34.242188 38.804688 C 34.183594 38.804688 34.125 38.800781 34.070312 38.796875 C 33.835938 38.773438 33.582031 38.75 33.292969 38.726562 C 33.144531 38.714844 33.03125 38.59375 33.03125 38.445312 L 33.03125 37.140625 C 33.03125 35.464844 31.671875 34.105469 29.996094 34.105469 C 28.324219 34.105469 26.964844 35.464844 26.964844 37.140625 L 26.964844 38.449219 C 26.964844 38.597656 26.851562 38.71875 26.703125 38.730469 C 26.425781 38.753906 26.191406 38.773438 25.972656 38.796875 C 25.15625 38.878906 24.378906 38.371094 24.125 37.589844 L 23.167969 34.683594 C 23 34.183594 23.066406 33.640625 23.347656 33.195312 C 23.625 32.75 24.082031 32.453125 24.605469 32.378906 C 26.347656 32.140625 28.164062 32.019531 29.996094 32.019531 C 31.847656 32.019531 33.675781 32.144531 35.4375 32.386719 C 35.957031 32.457031 36.414062 32.757812 36.695312 33.203125 C 36.972656 33.648438 37.039062 34.191406 36.875 34.691406 L 35.917969 37.589844 C 35.679688 38.316406 34.992188 38.804688 34.242188 38.804688 " fill-opacity="1" fill-rule="nonzero"/><g clip-path="url(#55f2e823b6)"><path fill="#0c4949" d="M 29.996094 35.027344 C 28.832031 35.027344 27.886719 35.976562 27.886719 37.140625 L 27.886719 43.773438 C 27.886719 44.941406 28.832031 45.886719 29.996094 45.886719 C 31.164062 45.886719 32.109375 44.941406 32.109375 43.773438 L 32.109375 37.140625 C 32.109375 35.976562 31.164062 35.027344 29.996094 35.027344 Z M 29.996094 46.453125 C 28.519531 46.453125 27.320312 45.25 27.320312 43.773438 L 27.320312 37.140625 C 27.320312 35.664062 28.519531 34.460938 29.996094 34.460938 C 31.476562 34.460938 32.675781 35.664062 32.675781 37.140625 L 32.675781 43.773438 C 32.675781 45.25 31.476562 46.453125 29.996094 46.453125 " fill-opacity="1" fill-rule="nonzero"/></g></svg>