<svg xmlns="http://www.w3.org/2000/svg" xmlns:xlink="http://www.w3.org/1999/xlink" width="80" zoomAndPan="magnify" viewBox="0 0 60 60" height="80" preserveAspectRatio="xMidYMid meet" version="1.0"><defs><clipPath id="7a1539386f"><path d="M 8.707031 8.265625 L 51.457031 8.265625 L 51.457031 51.765625 L 8.707031 51.765625 Z M 8.707031 8.265625 " clip-rule="nonzero"/></clipPath></defs><path fill="#c3cfa2" d="M 47.085938 43.5 C 46.398438 43.5 45.777344 43.042969 45.179688 42.597656 C 44.6875 42.234375 44.179688 41.855469 43.761719 41.855469 C 43.339844 41.855469 42.832031 42.234375 42.339844 42.597656 C 41.742188 43.042969 41.125 43.5 40.4375 43.5 C 39.746094 43.5 39.128906 43.042969 38.53125 42.597656 C 38.039062 42.234375 37.53125 41.855469 37.113281 41.855469 C 36.691406 41.855469 36.183594 42.234375 35.691406 42.597656 C 35.09375 43.042969 34.476562 43.5 33.789062 43.5 C 33.097656 43.5 32.480469 43.042969 31.882812 42.597656 C 31.390625 42.234375 30.882812 41.855469 30.464844 41.855469 C 30.042969 41.855469 29.535156 42.234375 29.042969 42.597656 C 28.445312 43.042969 27.828125 43.5 27.136719 43.5 C 26.449219 43.5 25.832031 43.042969 25.234375 42.597656 C 24.742188 42.234375 24.234375 41.855469 23.8125 41.855469 C 23.394531 41.855469 22.886719 42.234375 22.394531 42.597656 C 21.796875 43.042969 21.179688 43.5 20.488281 43.5 C 19.800781 43.5 19.183594 43.042969 18.585938 42.597656 C 18.09375 42.234375 17.585938 41.855469 17.164062 41.855469 C 16.746094 41.855469 16.238281 42.234375 15.746094 42.597656 C 15.148438 43.042969 14.527344 43.5 13.839844 43.5 C 13.152344 43.5 12.535156 43.042969 11.9375 42.597656 C 11.445312 42.234375 10.9375 41.855469 10.515625 41.855469 C 10.292969 41.855469 10.109375 41.671875 10.109375 41.449219 C 10.109375 41.222656 10.292969 41.042969 10.515625 41.042969 C 11.203125 41.042969 11.824219 41.5 12.421875 41.945312 C 12.914062 42.308594 13.421875 42.6875 13.839844 42.6875 C 14.261719 42.6875 14.769531 42.3125 15.261719 41.945312 C 15.859375 41.5 16.476562 41.042969 17.164062 41.042969 C 17.851562 41.042969 18.472656 41.5 19.070312 41.945312 C 19.5625 42.308594 20.070312 42.6875 20.488281 42.6875 C 20.910156 42.6875 21.417969 42.3125 21.910156 41.945312 C 22.507812 41.5 23.125 41.042969 23.8125 41.042969 C 24.503906 41.042969 25.121094 41.5 25.71875 41.945312 C 26.210938 42.308594 26.71875 42.6875 27.136719 42.6875 C 27.558594 42.6875 28.066406 42.3125 28.558594 41.945312 C 29.15625 41.5 29.773438 41.042969 30.464844 41.042969 C 31.152344 41.042969 31.769531 41.5 32.367188 41.945312 C 32.859375 42.308594 33.367188 42.6875 33.789062 42.6875 C 34.207031 42.6875 34.714844 42.3125 35.207031 41.945312 C 35.804688 41.5 36.421875 41.042969 37.113281 41.042969 C 37.800781 41.042969 38.417969 41.5 39.015625 41.945312 C 39.507812 42.308594 40.015625 42.6875 40.4375 42.6875 C 40.855469 42.6875 41.363281 42.3125 41.855469 41.945312 C 42.453125 41.5 43.074219 41.042969 43.761719 41.042969 C 44.449219 41.042969 45.066406 41.5 45.664062 41.945312 C 46.15625 42.308594 46.664062 42.6875 47.085938 42.6875 C 47.308594 42.6875 47.492188 42.871094 47.492188 43.09375 C 47.488281 43.320312 47.308594 43.5 47.085938 43.5 Z M 47.085938 43.5 " fill-opacity="1" fill-rule="nonzero"/><path fill="#c3cfa2" d="M 47.085938 48.464844 C 46.398438 48.464844 45.777344 48.007812 45.179688 47.5625 C 44.6875 47.199219 44.179688 46.820312 43.761719 46.820312 C 43.339844 46.820312 42.832031 47.199219 42.339844 47.5625 C 41.742188 48.007812 41.125 48.464844 40.4375 48.464844 C 39.746094 48.464844 39.128906 48.007812 38.53125 47.5625 C 38.039062 47.199219 37.53125 46.820312 37.113281 46.820312 C 36.691406 46.820312 36.183594 47.199219 35.691406 47.5625 C 35.09375 48.007812 34.476562 48.464844 33.789062 48.464844 C 33.097656 48.464844 32.480469 48.007812 31.882812 47.5625 C 31.390625 47.199219 30.882812 46.820312 30.464844 46.820312 C 30.042969 46.820312 29.535156 47.199219 29.042969 47.5625 C 28.445312 48.007812 27.828125 48.464844 27.136719 48.464844 C 26.449219 48.464844 25.832031 48.007812 25.234375 47.5625 C 24.742188 47.199219 24.234375 46.820312 23.8125 46.820312 C 23.394531 46.820312 22.886719 47.199219 22.394531 47.5625 C 21.796875 48.007812 21.179688 48.464844 20.488281 48.464844 C 19.800781 48.464844 19.183594 48.007812 18.585938 47.5625 C 18.09375 47.199219 17.585938 46.820312 17.164062 46.820312 C 16.746094 46.820312 16.238281 47.199219 15.746094 47.5625 C 15.148438 48.007812 14.527344 48.464844 13.839844 48.464844 C 13.152344 48.464844 12.535156 48.007812 11.9375 47.5625 C 11.445312 47.199219 10.9375 46.820312 10.515625 46.820312 C 10.292969 46.820312 10.109375 46.636719 10.109375 46.414062 C 10.109375 46.1875 10.292969 46.007812 10.515625 46.007812 C 11.203125 46.007812 11.824219 46.464844 12.421875 46.910156 C 12.914062 47.273438 13.421875 47.652344 13.839844 47.652344 C 14.261719 47.652344 14.769531 47.277344 15.261719 46.910156 C 15.859375 46.464844 16.476562 46.007812 17.164062 46.007812 C 17.851562 46.007812 18.472656 46.464844 19.070312 46.910156 C 19.5625 47.273438 20.070312 47.652344 20.488281 47.652344 C 20.90625 47.652344 21.417969 47.277344 21.910156 46.910156 C 22.507812 46.464844 23.125 46.007812 23.8125 46.007812 C 24.503906 46.007812 25.121094 46.464844 25.71875 46.910156 C 26.210938 47.273438 26.71875 47.652344 27.136719 47.652344 C 27.558594 47.652344 28.066406 47.277344 28.558594 46.910156 C 29.15625 46.464844 29.773438 46.007812 30.464844 46.007812 C 31.152344 46.007812 31.769531 46.464844 32.367188 46.910156 C 32.859375 47.273438 33.367188 47.652344 33.789062 47.652344 C 34.207031 47.652344 34.714844 47.277344 35.207031 46.910156 C 35.804688 46.464844 36.421875 46.007812 37.113281 46.007812 C 37.800781 46.007812 38.417969 46.464844 39.015625 46.910156 C 39.507812 47.273438 40.015625 47.652344 40.4375 47.652344 C 40.855469 47.652344 41.363281 47.277344 41.855469 46.910156 C 42.453125 46.464844 43.074219 46.007812 43.761719 46.007812 C 44.449219 46.007812 45.066406 46.464844 45.664062 46.910156 C 46.15625 47.273438 46.664062 47.652344 47.085938 47.652344 C 47.308594 47.652344 47.492188 47.835938 47.492188 48.058594 C 47.488281 48.285156 47.308594 48.464844 47.085938 48.464844 Z M 47.085938 48.464844 " fill-opacity="1" fill-rule="nonzero"/><path fill="#c3cfa2" d="M 33.789062 43.5 C 33.097656 43.5 32.480469 43.042969 31.882812 42.597656 C 31.390625 42.234375 30.882812 41.855469 30.464844 41.855469 C 30.042969 41.855469 29.535156 42.234375 29.042969 42.597656 C 28.445312 43.042969 27.828125 43.5 27.136719 43.5 C 26.449219 43.5 25.832031 43.042969 25.234375 42.597656 C 24.742188 42.234375 24.234375 41.855469 23.8125 41.855469 C 23.394531 41.855469 22.886719 42.234375 22.394531 42.597656 C 22.082031 42.828125 21.761719 43.066406 21.429688 43.242188 C 21.328125 43.292969 21.210938 43.300781 21.101562 43.261719 C 20.996094 43.222656 20.910156 43.140625 20.867188 43.039062 L 16.734375 33.195312 C 16.6875 33.085938 16.691406 32.960938 16.746094 32.855469 C 16.800781 32.746094 16.894531 32.671875 17.011719 32.644531 C 24.011719 30.96875 28.433594 25.324219 28.476562 25.265625 C 28.554688 25.167969 28.671875 25.109375 28.800781 25.109375 C 28.925781 25.109375 29.042969 25.167969 29.121094 25.265625 C 29.164062 25.324219 33.597656 30.96875 40.585938 32.644531 C 40.703125 32.671875 40.800781 32.75 40.855469 32.855469 C 40.90625 32.960938 40.914062 33.085938 40.867188 33.195312 L 37.328125 41.621094 C 37.273438 41.753906 37.148438 41.84375 37.007812 41.863281 C 36.609375 41.917969 36.144531 42.265625 35.691406 42.601562 C 35.09375 43.042969 34.476562 43.5 33.789062 43.5 Z M 30.464844 41.042969 C 31.152344 41.042969 31.769531 41.5 32.367188 41.945312 C 32.859375 42.3125 33.367188 42.691406 33.789062 42.691406 C 34.207031 42.691406 34.714844 42.3125 35.207031 41.945312 C 35.671875 41.601562 36.148438 41.246094 36.664062 41.105469 L 39.9375 33.316406 C 36.351562 32.359375 33.484375 30.425781 31.683594 28.941406 C 30.253906 27.765625 29.273438 26.703125 28.800781 26.152344 C 28.332031 26.703125 27.351562 27.765625 25.921875 28.941406 C 24.121094 30.425781 21.253906 32.355469 17.667969 33.316406 L 21.433594 42.289062 C 21.589844 42.1875 21.746094 42.070312 21.910156 41.949219 C 22.507812 41.503906 23.125 41.046875 23.8125 41.046875 C 24.503906 41.046875 25.121094 41.503906 25.71875 41.949219 C 26.210938 42.3125 26.71875 42.691406 27.136719 42.691406 C 27.558594 42.691406 28.066406 42.3125 28.558594 41.949219 C 29.15625 41.503906 29.773438 41.042969 30.464844 41.042969 Z M 30.464844 41.042969 " fill-opacity="1" fill-rule="nonzero"/><path fill="#c3cfa2" d="M 28.800781 42.679688 C 28.574219 42.679688 28.394531 42.496094 28.394531 42.269531 L 28.394531 35.242188 C 28.394531 35.019531 28.574219 34.835938 28.800781 34.835938 C 29.023438 34.835938 29.207031 35.019531 29.207031 35.242188 L 29.207031 42.269531 C 29.207031 42.496094 29.023438 42.679688 28.800781 42.679688 Z M 28.800781 42.679688 " fill-opacity="1" fill-rule="nonzero"/><path fill="#c3cfa2" d="M 37.203125 32.324219 C 37.148438 32.324219 37.089844 32.3125 37.039062 32.289062 C 32.640625 30.335938 29.734375 27.242188 28.800781 26.152344 C 27.867188 27.242188 24.960938 30.335938 20.5625 32.289062 C 20.4375 32.34375 20.292969 32.332031 20.179688 32.257812 C 20.0625 32.179688 19.992188 32.054688 19.992188 31.914062 L 19.992188 25.867188 C 19.992188 24.621094 21.007812 23.605469 22.253906 23.605469 L 35.347656 23.605469 C 36.59375 23.605469 37.609375 24.621094 37.609375 25.867188 L 37.609375 31.914062 C 37.609375 32.050781 37.539062 32.179688 37.425781 32.257812 C 37.359375 32.300781 37.28125 32.324219 37.203125 32.324219 Z M 22.253906 24.417969 C 21.453125 24.417969 20.804688 25.066406 20.804688 25.867188 L 20.804688 31.28125 C 25.574219 28.984375 28.449219 25.304688 28.480469 25.265625 C 28.554688 25.167969 28.675781 25.109375 28.800781 25.109375 C 28.925781 25.109375 29.046875 25.167969 29.121094 25.265625 C 29.152344 25.304688 32.035156 28.988281 36.796875 31.28125 L 36.796875 25.867188 C 36.796875 25.066406 36.148438 24.417969 35.347656 24.417969 Z M 22.253906 24.417969 " fill-opacity="1" fill-rule="nonzero"/><path fill="#c3cfa2" d="M 34.042969 24.417969 L 23.558594 24.417969 C 23.332031 24.417969 23.152344 24.234375 23.152344 24.011719 L 23.152344 20.164062 C 23.152344 19.476562 23.710938 18.914062 24.398438 18.914062 L 33.203125 18.914062 C 33.890625 18.914062 34.449219 19.476562 34.449219 20.164062 L 34.449219 24.011719 C 34.449219 24.234375 34.269531 24.417969 34.042969 24.417969 Z M 23.964844 23.605469 L 33.636719 23.605469 L 33.636719 20.164062 C 33.636719 19.925781 33.441406 19.730469 33.203125 19.730469 L 24.398438 19.730469 C 24.160156 19.730469 23.964844 19.925781 23.964844 20.164062 Z M 23.964844 23.605469 " fill-opacity="1" fill-rule="nonzero"/><path fill="#c3cfa2" d="M 28.800781 19.730469 L 25.351562 19.730469 C 25.125 19.730469 24.945312 19.546875 24.945312 19.324219 L 24.945312 15.253906 C 24.945312 14.6875 25.402344 14.230469 25.96875 14.230469 L 28.179688 14.230469 C 28.746094 14.230469 29.207031 14.6875 29.207031 15.253906 L 29.207031 19.324219 C 29.207031 19.546875 29.023438 19.730469 28.800781 19.730469 Z M 25.757812 18.914062 L 28.394531 18.914062 L 28.394531 15.253906 C 28.394531 15.140625 28.296875 15.039062 28.183594 15.039062 L 25.972656 15.039062 C 25.855469 15.039062 25.757812 15.136719 25.757812 15.253906 Z M 25.757812 18.914062 " fill-opacity="1" fill-rule="nonzero"/><path fill="#c3cfa2" d="M 23.902344 28.320312 L 22.984375 28.320312 C 22.339844 28.320312 21.8125 27.792969 21.8125 27.148438 L 21.8125 26.511719 C 21.8125 25.863281 22.339844 25.339844 22.984375 25.339844 L 23.902344 25.339844 C 24.546875 25.339844 25.074219 25.863281 25.074219 26.511719 L 25.074219 27.148438 C 25.074219 27.792969 24.546875 28.320312 23.902344 28.320312 Z M 22.988281 26.152344 C 22.789062 26.152344 22.628906 26.3125 22.628906 26.507812 L 22.628906 27.144531 C 22.628906 27.34375 22.789062 27.503906 22.988281 27.503906 L 23.902344 27.503906 C 24.101562 27.503906 24.261719 27.34375 24.261719 27.144531 L 24.261719 26.507812 C 24.261719 26.3125 24.097656 26.152344 23.902344 26.152344 Z M 22.988281 26.152344 " fill-opacity="1" fill-rule="nonzero"/><path fill="#c3cfa2" d="M 34.613281 28.320312 L 33.699219 28.320312 C 33.054688 28.320312 32.527344 27.792969 32.527344 27.148438 L 32.527344 26.511719 C 32.527344 25.863281 33.054688 25.339844 33.699219 25.339844 L 34.613281 25.339844 C 35.261719 25.339844 35.785156 25.863281 35.785156 26.511719 L 35.785156 27.148438 C 35.785156 27.792969 35.261719 28.320312 34.613281 28.320312 Z M 33.699219 26.152344 C 33.503906 26.152344 33.34375 26.3125 33.34375 26.507812 L 33.34375 27.144531 C 33.34375 27.34375 33.503906 27.503906 33.699219 27.503906 L 34.617188 27.503906 C 34.8125 27.503906 34.972656 27.34375 34.972656 27.144531 L 34.972656 26.507812 C 34.972656 26.3125 34.8125 26.152344 34.617188 26.152344 Z M 33.699219 26.152344 " fill-opacity="1" fill-rule="nonzero"/><path fill="#c3cfa2" d="M 27.105469 22.925781 L 26.386719 22.925781 C 25.828125 22.925781 25.375 22.476562 25.375 21.917969 L 25.375 21.414062 C 25.375 20.859375 25.828125 20.40625 26.386719 20.40625 L 27.105469 20.40625 C 27.664062 20.40625 28.117188 20.855469 28.117188 21.414062 L 28.117188 21.917969 C 28.113281 22.476562 27.664062 22.925781 27.105469 22.925781 Z M 26.386719 21.21875 C 26.277344 21.21875 26.1875 21.308594 26.1875 21.414062 L 26.1875 21.917969 C 26.1875 22.023438 26.28125 22.113281 26.386719 22.113281 L 27.105469 22.113281 C 27.214844 22.113281 27.304688 22.023438 27.304688 21.917969 L 27.304688 21.414062 C 27.304688 21.308594 27.210938 21.21875 27.105469 21.21875 Z M 26.386719 21.21875 " fill-opacity="1" fill-rule="nonzero"/><path fill="#c3cfa2" d="M 31.214844 22.925781 L 30.496094 22.925781 C 29.9375 22.925781 29.484375 22.476562 29.484375 21.917969 L 29.484375 21.414062 C 29.484375 20.859375 29.9375 20.40625 30.496094 20.40625 L 31.214844 20.40625 C 31.773438 20.40625 32.226562 20.855469 32.226562 21.414062 L 32.226562 21.917969 C 32.226562 22.476562 31.773438 22.925781 31.214844 22.925781 Z M 30.496094 21.21875 C 30.386719 21.21875 30.296875 21.308594 30.296875 21.414062 L 30.296875 21.917969 C 30.296875 22.023438 30.390625 22.113281 30.496094 22.113281 L 31.214844 22.113281 C 31.324219 22.113281 31.414062 22.023438 31.414062 21.917969 L 31.414062 21.414062 C 31.414062 21.308594 31.320312 21.21875 31.214844 21.21875 Z M 30.496094 21.21875 " fill-opacity="1" fill-rule="nonzero"/><g clip-path="url(#7a1539386f)"><path fill="#c3cfa2" d="M 61.929688 17.28125 C 60.117188 12.996094 57.523438 9.148438 54.21875 5.84375 C 50.917969 2.542969 47.070312 -0.0507812 42.78125 -1.867188 C 38.34375 -3.742188 33.632812 -4.691406 28.777344 -4.691406 C 23.925781 -4.691406 19.210938 -3.742188 14.773438 -1.867188 C 10.488281 -0.0546875 6.640625 2.539062 3.339844 5.84375 C 0.0351562 9.144531 -2.558594 12.992188 -4.371094 17.28125 C -6.246094 21.71875 -7.199219 26.429688 -7.199219 31.285156 C -7.199219 36.140625 -6.246094 40.851562 -4.371094 45.289062 C -2.558594 49.574219 0.0351562 53.421875 3.339844 56.726562 C 6.640625 60.027344 10.488281 62.621094 14.773438 64.433594 C 19.210938 66.308594 23.925781 67.261719 28.777344 67.261719 C 33.632812 67.261719 38.34375 66.308594 42.78125 64.433594 C 47.066406 62.621094 50.914062 60.027344 54.21875 56.726562 C 57.523438 53.421875 60.113281 49.574219 61.929688 45.289062 C 63.804688 40.851562 64.753906 36.140625 64.753906 31.285156 C 64.753906 26.425781 63.804688 21.714844 61.929688 17.28125 Z M 63.476562 31.285156 C 63.476562 50.417969 47.910156 65.980469 28.777344 65.980469 C 9.644531 65.980469 -5.917969 50.417969 -5.917969 31.285156 C -5.917969 12.152344 9.644531 -3.414062 28.777344 -3.414062 C 47.910156 -3.414062 63.476562 12.152344 63.476562 31.285156 Z M 63.476562 31.285156 " fill-opacity="1" fill-rule="nonzero"/></g></svg>