<svg xmlns="http://www.w3.org/2000/svg" xmlns:xlink="http://www.w3.org/1999/xlink" width="40" zoomAndPan="magnify" viewBox="0 0 30 30.000001" height="40" preserveAspectRatio="xMidYMid meet" version="1.0"><defs><filter x="0%" y="0%" width="100%" height="100%" id="76a07548c9"><feColorMatrix values="0 0 0 0 1 0 0 0 0 1 0 0 0 0 1 0 0 0 1 0" color-interpolation-filters="sRGB"/></filter><mask id="928e8464e6"><g filter="url(#76a07548c9)"><rect x="-3" width="36" fill="#000000" y="-3" height="36.000001" fill-opacity="0.37"/></g></mask><clipPath id="ee6be4e45d"><path d="M 0.824219 5 L 17.78125 5 L 17.78125 8 L 0.824219 8 Z M 0.824219 5 " clip-rule="nonzero"/></clipPath><clipPath id="4707b85ca9"><path d="M 8 0.59375 L 17.78125 0.59375 L 17.78125 12.4375 L 8 12.4375 Z M 8 0.59375 " clip-rule="nonzero"/></clipPath><clipPath id="d79509eac6"><rect x="0" width="18" y="0" height="13"/></clipPath></defs><g mask="url(#928e8464e6)"><g transform="matrix(1, 0, 0, 1, 5, 8)"><g clip-path="url(#d79509eac6)"><g clip-path="url(#ee6be4e45d)"><path stroke-linecap="butt" transform="matrix(0.725806, 0, 0, 0.725806, 2.403989, 5.064518)" fill="none" stroke-linejoin="miter" d="M -0.00226718 1.999303 L 18.931414 1.999303 " stroke="#2b4b6f" stroke-width="4" stroke-opacity="1" stroke-miterlimit="4"/></g><g clip-path="url(#4707b85ca9)"><path stroke-linecap="round" transform="matrix(0.725806, 0, 0, 0.725806, 2.403989, 5.064518)" fill="none" stroke-linejoin="round" d="M 10.933844 -4.001565 L 18.931414 1.999303 L 10.933844 8.000171 " stroke="#2b4b6f" stroke-width="4" stroke-opacity="1" stroke-miterlimit="4"/></g></g></g></g></svg>