<svg xmlns="http://www.w3.org/2000/svg" xmlns:xlink="http://www.w3.org/1999/xlink" width="40" zoomAndPan="magnify" viewBox="0 0 30 30.000001" height="40" preserveAspectRatio="xMidYMid meet" version="1.0"><defs><clipPath id="a99c8ba032"><path d="M 2.632812 5.050781 L 22 5.050781 L 22 23.921875 L 2.632812 23.921875 Z M 2.632812 5.050781 " clip-rule="nonzero"/></clipPath><clipPath id="775c12f231"><path d="M 17 14 L 27.3125 14 L 27.3125 23.921875 L 17 23.921875 Z M 17 14 " clip-rule="nonzero"/></clipPath></defs><g clip-path="url(#a99c8ba032)"><path fill="#bda1a9" d="M 12.25 10.09375 C 12.308594 10.621094 12.449219 11.125 12.679688 11.605469 C 12.910156 12.085938 13.214844 12.511719 13.589844 12.886719 C 13.964844 13.265625 14.394531 13.566406 14.871094 13.796875 C 15.351562 14.027344 15.855469 14.171875 16.382812 14.226562 C 18.054688 14.394531 19.726562 14.472656 21.40625 14.457031 C 19.726562 14.441406 18.054688 14.519531 16.382812 14.6875 C 15.855469 14.742188 15.351562 14.886719 14.871094 15.117188 C 14.394531 15.347656 13.964844 15.648438 13.589844 16.027344 C 13.214844 16.402344 12.910156 16.828125 12.679688 17.308594 C 12.449219 17.789062 12.308594 18.292969 12.25 18.820312 C 12.082031 20.492188 12.007812 22.164062 12.019531 23.84375 C 12.035156 22.164062 11.957031 20.492188 11.792969 18.820312 C 11.734375 18.292969 11.589844 17.789062 11.359375 17.308594 C 11.128906 16.828125 10.828125 16.402344 10.453125 16.027344 C 10.074219 15.648438 9.648438 15.347656 9.167969 15.117188 C 8.6875 14.886719 8.183594 14.742188 7.65625 14.6875 C 5.988281 14.519531 4.3125 14.441406 2.632812 14.457031 C 4.3125 14.472656 5.988281 14.394531 7.65625 14.226562 C 8.183594 14.171875 8.6875 14.027344 9.167969 13.796875 C 9.648438 13.566406 10.074219 13.265625 10.453125 12.886719 C 10.828125 12.511719 11.128906 12.085938 11.359375 11.605469 C 11.589844 11.125 11.734375 10.621094 11.792969 10.09375 C 11.957031 8.421875 12.035156 6.75 12.019531 5.070312 C 12.007812 6.75 12.082031 8.421875 12.25 10.09375 Z M 12.25 10.09375 " fill-opacity="1" fill-rule="nonzero"/></g><g clip-path="url(#775c12f231)"><path fill="#bda1a9" d="M 22.726562 17 C 22.757812 17.265625 22.832031 17.519531 22.945312 17.761719 C 23.0625 18.007812 23.214844 18.222656 23.40625 18.414062 C 23.597656 18.601562 23.8125 18.757812 24.054688 18.871094 C 24.296875 18.988281 24.554688 19.0625 24.820312 19.089844 C 25.664062 19.175781 26.511719 19.214844 27.363281 19.207031 C 26.511719 19.199219 25.664062 19.238281 24.820312 19.324219 C 24.554688 19.351562 24.296875 19.425781 24.054688 19.539062 C 23.8125 19.65625 23.597656 19.808594 23.40625 20 C 23.214844 20.191406 23.0625 20.40625 22.945312 20.648438 C 22.832031 20.890625 22.757812 21.148438 22.726562 21.414062 C 22.644531 22.261719 22.605469 23.105469 22.613281 23.957031 C 22.621094 23.105469 22.582031 22.261719 22.496094 21.414062 C 22.46875 21.148438 22.394531 20.890625 22.277344 20.648438 C 22.160156 20.40625 22.007812 20.191406 21.820312 20 C 21.628906 19.808594 21.410156 19.65625 21.167969 19.539062 C 20.925781 19.425781 20.671875 19.351562 20.402344 19.324219 C 19.558594 19.238281 18.710938 19.199219 17.863281 19.207031 C 18.710938 19.214844 19.558594 19.175781 20.402344 19.089844 C 20.671875 19.0625 20.925781 18.988281 21.167969 18.871094 C 21.410156 18.757812 21.628906 18.601562 21.820312 18.414062 C 22.007812 18.222656 22.160156 18.007812 22.277344 17.761719 C 22.394531 17.519531 22.46875 17.265625 22.496094 17 C 22.582031 16.152344 22.621094 15.304688 22.613281 14.457031 C 22.605469 15.304688 22.644531 16.152344 22.726562 17 Z M 22.726562 17 " fill-opacity="1" fill-rule="nonzero"/></g><path fill="#bda1a9" d="M 19.15625 7.625 C 19.195312 7.960938 19.332031 8.25 19.570312 8.488281 C 19.8125 8.726562 20.097656 8.867188 20.433594 8.902344 C 20.953125 8.953125 21.46875 8.976562 21.988281 8.972656 C 21.46875 8.96875 20.953125 8.992188 20.433594 9.042969 C 20.097656 9.082031 19.8125 9.21875 19.570312 9.457031 C 19.332031 9.699219 19.195312 9.984375 19.15625 10.320312 C 19.105469 10.839844 19.082031 11.355469 19.085938 11.875 C 19.089844 11.355469 19.066406 10.839844 19.015625 10.320312 C 18.980469 9.984375 18.839844 9.699219 18.601562 9.457031 C 18.363281 9.21875 18.074219 9.082031 17.738281 9.042969 C 17.222656 8.992188 16.707031 8.96875 16.1875 8.972656 C 16.707031 8.976562 17.222656 8.953125 17.738281 8.902344 C 18.074219 8.867188 18.363281 8.726562 18.601562 8.488281 C 18.839844 8.25 18.980469 7.960938 19.015625 7.625 C 19.066406 7.109375 19.089844 6.59375 19.085938 6.074219 C 19.082031 6.59375 19.105469 7.109375 19.15625 7.625 Z M 19.15625 7.625 " fill-opacity="1" fill-rule="nonzero"/></svg>