<svg xmlns="http://www.w3.org/2000/svg" xmlns:xlink="http://www.w3.org/1999/xlink" width="80" zoomAndPan="magnify" viewBox="0 0 60 60" height="80" preserveAspectRatio="xMidYMid meet" version="1.0"><defs><clipPath id="96770d2150"><path d="M 43 20 L 47.847656 20 L 47.847656 40.128906 L 43 40.128906 Z M 43 20 " clip-rule="nonzero"/></clipPath><clipPath id="901bb268b0"><path d="M 12 20 L 17 20 L 17 40.128906 L 12 40.128906 Z M 12 20 " clip-rule="nonzero"/></clipPath></defs><path fill="#c3cfa2" d="M 29.894531 39.804688 C 24.449219 39.804688 20.015625 35.375 20.015625 29.925781 C 20.015625 24.480469 24.449219 20.050781 29.894531 20.050781 C 35.34375 20.050781 39.773438 24.480469 39.773438 29.929688 C 39.773438 35.375 35.34375 39.804688 29.894531 39.804688 Z M 29.894531 21.246094 C 25.109375 21.246094 21.214844 25.140625 21.214844 29.925781 C 21.214844 34.714844 25.109375 38.609375 29.894531 38.609375 C 34.683594 38.609375 38.578125 34.714844 38.578125 29.925781 C 38.578125 25.140625 34.683594 21.246094 29.894531 21.246094 Z M 29.894531 21.246094 " fill-opacity="1" fill-rule="nonzero"/><path fill="#c3cfa2" d="M 27.246094 35.164062 C 27.148438 35.164062 27.054688 35.140625 26.96875 35.097656 C 26.769531 34.996094 26.648438 34.789062 26.648438 34.566406 L 26.648438 25.289062 C 26.648438 25.066406 26.769531 24.859375 26.96875 24.757812 C 27.167969 24.65625 27.40625 24.671875 27.585938 24.796875 L 34.214844 29.4375 C 34.375 29.550781 34.46875 29.734375 34.46875 29.925781 C 34.46875 30.121094 34.375 30.304688 34.214844 30.417969 L 27.585938 35.058594 C 27.484375 35.128906 27.363281 35.164062 27.246094 35.164062 Z M 27.84375 26.4375 L 27.84375 33.417969 L 32.832031 29.925781 Z M 27.84375 26.4375 " fill-opacity="1" fill-rule="nonzero"/><path fill="#c3cfa2" d="M 41.164062 37.816406 C 41.082031 37.816406 40.996094 37.800781 40.917969 37.761719 C 40.617188 37.625 40.484375 37.273438 40.621094 36.972656 L 41.109375 35.894531 C 42.800781 32.175781 42.625 27.824219 40.640625 24.253906 C 40.480469 23.964844 40.585938 23.601562 40.875 23.441406 C 41.160156 23.277344 41.527344 23.382812 41.6875 23.671875 C 43.855469 27.574219 44.042969 32.324219 42.199219 36.386719 L 41.707031 37.464844 C 41.609375 37.6875 41.390625 37.816406 41.164062 37.816406 Z M 41.164062 37.816406 " fill-opacity="1" fill-rule="nonzero"/><g clip-path="url(#96770d2150)"><path fill="#c3cfa2" d="M 44.769531 40.050781 C 44.6875 40.050781 44.605469 40.035156 44.523438 40 C 44.222656 39.863281 44.089844 39.507812 44.226562 39.207031 C 46.878906 33.371094 46.605469 26.542969 43.492188 20.9375 C 43.332031 20.648438 43.4375 20.285156 43.722656 20.125 C 44.011719 19.964844 44.375 20.070312 44.535156 20.355469 C 47.832031 26.289062 48.125 33.523438 45.316406 39.703125 C 45.214844 39.921875 45 40.050781 44.769531 40.050781 Z M 44.769531 40.050781 " fill-opacity="1" fill-rule="nonzero"/></g><path fill="#c3cfa2" d="M 18.808594 37.816406 C 18.578125 37.816406 18.363281 37.6875 18.261719 37.464844 L 17.773438 36.386719 C 15.925781 32.324219 16.117188 27.570312 18.285156 23.671875 C 18.445312 23.382812 18.808594 23.277344 19.097656 23.441406 C 19.386719 23.601562 19.488281 23.964844 19.328125 24.253906 C 17.34375 27.824219 17.171875 32.175781 18.859375 35.894531 L 19.351562 36.972656 C 19.488281 37.273438 19.355469 37.625 19.054688 37.761719 C 18.972656 37.800781 18.890625 37.816406 18.808594 37.816406 Z M 18.808594 37.816406 " fill-opacity="1" fill-rule="nonzero"/><g clip-path="url(#901bb268b0)"><path fill="#c3cfa2" d="M 15.199219 40.050781 C 14.972656 40.050781 14.753906 39.921875 14.652344 39.703125 C 11.84375 33.523438 12.136719 26.289062 15.433594 20.355469 C 15.59375 20.070312 15.957031 19.964844 16.246094 20.125 C 16.535156 20.285156 16.640625 20.648438 16.476562 20.9375 C 13.363281 26.542969 13.089844 33.371094 15.742188 39.207031 C 15.878906 39.507812 15.746094 39.863281 15.445312 40 C 15.367188 40.035156 15.28125 40.050781 15.199219 40.050781 Z M 15.199219 40.050781 " fill-opacity="1" fill-rule="nonzero"/></g></svg>