<svg xmlns="http://www.w3.org/2000/svg" xmlns:xlink="http://www.w3.org/1999/xlink" width="80" zoomAndPan="magnify" viewBox="0 0 60 60" height="80" preserveAspectRatio="xMidYMid meet" version="1.0"><defs><clipPath id="295041ba57"><path d="M 12.332031 14.320312 L 47.582031 14.320312 L 47.582031 45.820312 L 12.332031 45.820312 Z M 12.332031 14.320312 " clip-rule="nonzero"/></clipPath></defs><g clip-path="url(#295041ba57)"><path fill="#c3cfa2" d="M 28.660156 43.804688 C 28.738281 44.09375 28.582031 44.382812 28.292969 44.460938 C 27.875 44.566406 27.453125 44.699219 27.007812 44.800781 C 27.007812 44.800781 27.007812 44.800781 26.980469 44.800781 L 26.746094 44.855469 C 26.691406 44.855469 26.664062 44.882812 26.613281 44.882812 C 26.375 44.882812 26.167969 44.722656 26.113281 44.488281 C 26.035156 44.199219 26.21875 43.910156 26.480469 43.855469 L 26.746094 43.804688 C 26.746094 43.804688 26.746094 43.804688 26.769531 43.804688 C 27.191406 43.699219 27.609375 43.59375 28.003906 43.464844 C 28.292969 43.382812 28.582031 43.542969 28.660156 43.804688 Z M 24.488281 44.328125 C 24.066406 44.433594 23.644531 44.511719 23.199219 44.617188 C 22.910156 44.671875 22.726562 44.960938 22.804688 45.25 C 22.859375 45.484375 23.070312 45.667969 23.332031 45.667969 C 23.355469 45.667969 23.410156 45.667969 23.4375 45.667969 C 23.882812 45.5625 24.300781 45.484375 24.722656 45.378906 C 25.011719 45.328125 25.167969 45.039062 25.117188 44.75 C 25.0625 44.460938 24.773438 44.277344 24.488281 44.328125 Z M 33.648438 31.597656 C 33.753906 31.675781 33.859375 31.703125 33.964844 31.703125 C 34.121094 31.703125 34.277344 31.621094 34.382812 31.492188 C 34.4375 31.4375 34.488281 31.386719 34.542969 31.308594 C 34.777344 31.046875 35.066406 30.78125 35.433594 30.519531 C 35.671875 30.335938 35.722656 30.019531 35.539062 29.785156 C 35.355469 29.546875 35.039062 29.496094 34.804688 29.679688 C 34.382812 29.996094 34.015625 30.308594 33.753906 30.625 C 33.675781 30.703125 33.621094 30.78125 33.570312 30.863281 C 33.386719 31.097656 33.414062 31.4375 33.648438 31.597656 Z M 31.496094 42.359375 C 31.101562 42.492188 30.683594 42.648438 30.261719 42.78125 L 30.027344 42.859375 C 29.738281 42.9375 29.605469 43.253906 29.683594 43.515625 C 29.761719 43.753906 29.972656 43.882812 30.183594 43.882812 C 30.234375 43.882812 30.289062 43.882812 30.339844 43.855469 L 30.605469 43.777344 C 31.050781 43.648438 31.46875 43.488281 31.863281 43.359375 C 32.125 43.253906 32.285156 42.964844 32.179688 42.675781 C 32.074219 42.414062 31.757812 42.28125 31.496094 42.359375 Z M 35.40625 36.296875 C 35.777344 36.609375 36.066406 36.847656 36.328125 37.109375 C 36.328125 37.109375 36.328125 37.109375 36.351562 37.136719 C 36.40625 37.1875 36.457031 37.242188 36.511719 37.320312 C 36.617188 37.425781 36.746094 37.503906 36.90625 37.503906 C 37.035156 37.503906 37.140625 37.453125 37.246094 37.371094 C 37.457031 37.1875 37.480469 36.847656 37.296875 36.636719 C 37.246094 36.558594 37.167969 36.507812 37.113281 36.453125 C 37.113281 36.453125 37.113281 36.453125 37.089844 36.425781 C 36.800781 36.136719 36.457031 35.851562 36.066406 35.507812 C 35.828125 35.324219 35.511719 35.351562 35.328125 35.585938 C 35.144531 35.824219 35.199219 36.113281 35.40625 36.296875 Z M 38.136719 27.894531 C 37.71875 28.078125 37.296875 28.261719 36.90625 28.445312 C 36.824219 28.5 36.746094 28.523438 36.667969 28.578125 C 36.40625 28.707031 36.300781 29.023438 36.433594 29.285156 C 36.535156 29.46875 36.722656 29.574219 36.90625 29.574219 C 36.984375 29.574219 37.0625 29.546875 37.140625 29.523438 C 37.21875 29.496094 37.296875 29.445312 37.378906 29.417969 C 37.746094 29.234375 38.136719 29.050781 38.53125 28.890625 C 38.796875 28.789062 38.925781 28.472656 38.820312 28.210938 C 38.714844 27.894531 38.402344 27.789062 38.136719 27.894531 Z M 41.65625 26.609375 C 41.238281 26.738281 40.816406 26.871094 40.394531 27.027344 L 40.132812 27.105469 C 39.871094 27.210938 39.714844 27.5 39.820312 27.789062 C 39.898438 28 40.109375 28.132812 40.316406 28.132812 C 40.371094 28.132812 40.421875 28.132812 40.5 28.105469 L 40.738281 28.027344 C 41.15625 27.894531 41.550781 27.738281 41.972656 27.605469 C 42.261719 27.527344 42.390625 27.210938 42.3125 26.949219 C 42.207031 26.6875 41.917969 26.53125 41.65625 26.609375 Z M 33.597656 34.640625 C 33.648438 34.722656 33.726562 34.800781 33.78125 34.851562 C 33.886719 34.957031 34.015625 35.035156 34.175781 35.035156 C 34.304688 35.035156 34.4375 34.984375 34.515625 34.90625 C 34.726562 34.722656 34.75 34.378906 34.542969 34.167969 C 34.488281 34.117188 34.4375 34.039062 34.382812 33.984375 C 34.121094 33.671875 33.964844 33.355469 33.886719 33.066406 C 33.832031 32.777344 33.542969 32.59375 33.253906 32.671875 C 32.964844 32.726562 32.78125 33.015625 32.863281 33.304688 C 32.992188 33.722656 33.230469 34.167969 33.597656 34.640625 Z M 37.667969 38.34375 C 37.378906 38.292969 37.113281 38.449219 37.035156 38.738281 C 36.984375 39.027344 36.800781 39.316406 36.535156 39.628906 C 36.484375 39.683594 36.433594 39.734375 36.378906 39.789062 C 36.167969 39.996094 36.167969 40.3125 36.378906 40.523438 C 36.484375 40.628906 36.617188 40.679688 36.746094 40.679688 C 36.878906 40.679688 37.007812 40.628906 37.113281 40.523438 C 37.195312 40.445312 37.246094 40.390625 37.296875 40.3125 C 37.691406 39.867188 37.953125 39.421875 38.058594 38.949219 C 38.136719 38.710938 37.953125 38.421875 37.667969 38.34375 Z M 34.777344 40.941406 C 34.4375 41.125 34.042969 41.335938 33.648438 41.519531 C 33.648438 41.519531 33.648438 41.519531 33.621094 41.519531 L 33.414062 41.625 C 33.148438 41.730469 33.019531 42.046875 33.148438 42.308594 C 33.230469 42.492188 33.4375 42.625 33.621094 42.625 C 33.703125 42.625 33.753906 42.597656 33.832031 42.570312 L 34.070312 42.464844 C 34.070312 42.464844 34.09375 42.464844 34.09375 42.464844 C 34.515625 42.253906 34.9375 42.070312 35.277344 41.863281 C 35.539062 41.730469 35.617188 41.390625 35.488281 41.152344 C 35.355469 40.890625 35.039062 40.785156 34.777344 40.941406 Z M 24.773438 30.46875 C 24.773438 33.039062 22.675781 35.140625 20.101562 35.140625 C 17.527344 35.140625 15.429688 33.039062 15.429688 30.46875 C 15.429688 27.894531 17.527344 25.792969 20.101562 25.792969 C 22.675781 25.792969 24.773438 27.894531 24.773438 30.46875 Z M 23.726562 30.46875 C 23.726562 28.472656 22.097656 26.84375 20.101562 26.84375 C 18.105469 26.84375 16.480469 28.472656 16.480469 30.46875 C 16.480469 32.464844 18.105469 34.089844 20.101562 34.089844 C 22.097656 34.089844 23.726562 32.464844 23.726562 30.46875 Z M 24.09375 39.578125 C 22.988281 41.257812 21.78125 42.886719 20.523438 44.460938 C 20.417969 44.59375 20.257812 44.644531 20.101562 44.644531 C 19.945312 44.644531 19.785156 44.566406 19.683594 44.460938 C 18.421875 42.886719 17.214844 41.230469 16.109375 39.578125 C 13.433594 35.5625 12.460938 33.222656 12.460938 30.675781 C 12.460938 27.472656 15.375 23.011719 20.101562 23.011719 C 24.828125 23.011719 27.714844 27.449219 27.742188 30.652344 C 27.714844 33.222656 26.769531 35.5625 24.09375 39.578125 Z M 23.226562 39 C 26.113281 34.640625 26.691406 32.648438 26.691406 30.675781 C 26.691406 27.921875 24.171875 24.0625 20.101562 24.0625 C 16.03125 24.0625 13.539062 27.894531 13.511719 30.652344 C 13.511719 32.648438 14.089844 34.640625 16.976562 39 C 17.949219 40.46875 19 41.914062 20.101562 43.304688 C 21.203125 41.914062 22.253906 40.46875 23.226562 39 Z M 45.960938 18.546875 C 45.960938 20.070312 44.726562 21.277344 43.230469 21.277344 C 41.734375 21.277344 40.5 20.042969 40.5 18.546875 C 40.5 17.050781 41.734375 15.816406 43.230469 15.816406 C 44.726562 15.816406 45.960938 17.023438 45.960938 18.546875 Z M 44.914062 18.546875 C 44.914062 17.628906 44.152344 16.867188 43.230469 16.867188 C 42.3125 16.867188 41.550781 17.628906 41.550781 18.546875 C 41.550781 19.46875 42.3125 20.226562 43.230469 20.226562 C 44.152344 20.226562 44.914062 19.46875 44.914062 18.546875 Z M 47.539062 18.652344 C 47.539062 20.070312 47.011719 21.355469 45.542969 23.5625 C 44.9375 24.457031 44.308594 25.347656 43.625 26.1875 C 43.519531 26.320312 43.363281 26.371094 43.207031 26.371094 C 43.046875 26.371094 42.890625 26.292969 42.785156 26.1875 C 42.101562 25.347656 41.445312 24.457031 40.867188 23.5625 C 39.398438 21.355469 38.898438 20.097656 38.875 18.679688 C 38.875 16.867188 40.527344 14.347656 43.179688 14.347656 C 45.882812 14.320312 47.539062 16.839844 47.539062 18.652344 Z M 46.488281 18.652344 C 46.488281 17.472656 45.386719 15.371094 43.230469 15.371094 C 41.054688 15.371094 39.976562 17.472656 39.976562 18.652344 C 39.976562 19.675781 40.265625 20.699219 41.789062 22.984375 C 42.234375 23.667969 42.734375 24.351562 43.257812 25.03125 C 43.785156 24.375 44.253906 23.695312 44.726562 22.984375 C 46.171875 20.699219 46.488281 19.675781 46.488281 18.652344 Z M 46.488281 18.652344 " fill-opacity="1" fill-rule="nonzero"/></g></svg>