<svg xmlns="http://www.w3.org/2000/svg" xmlns:xlink="http://www.w3.org/1999/xlink" width="80" zoomAndPan="magnify" viewBox="0 0 60 60" height="80" preserveAspectRatio="xMidYMid meet" version="1.0"><defs><clipPath id="62aef7d295"><path d="M 19 12.492188 L 41 12.492188 L 41 35 L 19 35 Z M 19 12.492188 " clip-rule="nonzero"/></clipPath><clipPath id="d630105981"><path d="M 17.808594 34 L 42.558594 34 L 42.558594 47 L 17.808594 47 Z M 17.808594 34 " clip-rule="nonzero"/></clipPath></defs><g clip-path="url(#62aef7d295)"><path fill="#c3cfa2" d="M 40.453125 22.101562 C 39.734375 16.953125 35.339844 12.996094 29.996094 12.996094 C 28.253906 12.996094 26.613281 13.433594 25.167969 14.171875 C 22.761719 15.40625 20.910156 17.542969 20.023438 20.128906 C 20.023438 20.128906 20.023438 20.144531 20.023438 20.144531 C 19.628906 21.226562 19.433594 22.371094 19.433594 23.558594 C 19.433594 26.328125 20.503906 28.839844 22.25 30.722656 C 22.265625 30.738281 22.265625 30.753906 22.277344 30.753906 C 24.203125 32.8125 26.941406 34.121094 29.996094 34.121094 C 35.835938 34.121094 40.558594 29.382812 40.558594 23.558594 C 40.558594 23.09375 40.515625 22.628906 40.453125 22.175781 C 40.453125 22.160156 40.46875 22.160156 40.453125 22.144531 C 40.46875 22.128906 40.453125 22.117188 40.453125 22.101562 Z M 39.492188 21.09375 C 39.402344 21.0625 39.3125 21.046875 39.234375 21.03125 L 39.039062 21.015625 C 38.664062 21.015625 38.347656 21.136719 38.078125 21.210938 C 37.898438 21.257812 37.714844 21.304688 37.582031 21.304688 L 37.324219 21.257812 C 37.234375 21.226562 37.113281 21.136719 36.964844 21.046875 C 36.8125 20.957031 36.632812 20.851562 36.378906 20.851562 L 36.046875 20.925781 C 35.851562 21.015625 35.699219 21.199219 35.65625 21.378906 C 35.59375 21.542969 35.59375 21.695312 35.59375 21.84375 L 35.59375 22.160156 C 35.59375 22.355469 35.566406 22.460938 35.535156 22.476562 L 35.445312 22.476562 C 35.265625 22.492188 34.902344 22.324219 34.480469 22.3125 C 34.316406 22.3125 34.121094 22.339844 33.953125 22.445312 C 33.652344 22.640625 33.535156 22.972656 33.535156 23.242188 C 33.535156 23.5 33.609375 23.753906 33.773438 23.964844 C 34.074219 24.355469 34.464844 24.523438 34.753906 24.703125 L 34.949219 24.867188 L 34.976562 24.960938 L 34.886719 25.246094 C 34.78125 25.425781 34.570312 25.605469 34.359375 25.863281 C 33.847656 26.492188 33.683594 27.246094 33.535156 27.921875 C 33.382812 28.601562 33.234375 29.230469 32.871094 29.683594 C 32.617188 30.015625 32.195312 30.242188 31.832031 30.242188 L 31.503906 30.195312 C 31.246094 30.074219 31.035156 29.773438 30.945312 29.441406 C 30.914062 29.292969 30.886719 29.128906 30.886719 28.960938 C 30.886719 28.75 30.914062 28.523438 30.945312 28.300781 C 30.976562 28.164062 31.003906 28 31.003906 27.816406 C 31.003906 27.621094 30.960938 27.398438 30.808594 27.1875 L 30.78125 27.15625 L 30.523438 26.914062 L 30.507812 26.796875 C 30.507812 26.703125 30.507812 26.554688 30.464844 26.375 C 30.328125 25.890625 29.90625 25.636719 29.53125 25.546875 C 29.320312 25.5 29.125 25.484375 28.929688 25.484375 L 28.539062 25.484375 C 27.890625 25.484375 27.257812 25.289062 26.851562 24.898438 C 26.535156 24.582031 26.339844 24.101562 26.339844 23.621094 C 26.339844 23.46875 26.355469 23.320312 26.402344 23.167969 C 26.550781 22.550781 27.035156 22.023438 27.636719 21.753906 C 28.027344 21.589844 28.449219 21.527344 28.914062 21.527344 C 29.757812 21.527344 30.691406 21.738281 31.667969 21.738281 C 31.863281 21.738281 32.074219 21.722656 32.285156 21.710938 C 32.511719 21.679688 32.765625 21.617188 33.007812 21.5 C 33.246094 21.378906 33.472656 21.167969 33.578125 20.867188 L 33.640625 20.535156 C 33.625 20.039062 33.324219 19.648438 32.945312 19.4375 C 32.496094 19.195312 32.027344 19.179688 31.636719 19.167969 C 31.203125 19.152344 30.75 19.136719 30.3125 19.105469 C 30.058594 19.089844 29.785156 19.078125 29.589844 19 C 29.425781 18.957031 29.335938 18.878906 29.273438 18.789062 L 29.351562 18.761719 C 29.863281 18.550781 30.117188 18.144531 30.359375 17.8125 C 30.597656 17.464844 30.796875 17.210938 31.035156 17.105469 C 31.203125 17.03125 31.503906 17 31.816406 16.941406 C 31.984375 16.910156 32.148438 16.863281 32.316406 16.789062 C 32.480469 16.714844 32.644531 16.5625 32.765625 16.367188 C 32.871094 16.1875 32.902344 15.992188 32.902344 15.828125 C 32.886719 15.40625 32.75 15.074219 32.75 14.847656 L 32.75 14.832031 C 32.75 14.816406 32.839844 14.652344 32.960938 14.503906 C 33.035156 14.410156 33.128906 14.320312 33.203125 14.261719 C 34.632812 14.757812 35.910156 15.554688 36.964844 16.59375 C 38.152344 17.84375 39.039062 19.378906 39.492188 21.09375 Z M 23.0625 16.625 C 23.511719 16.171875 23.992188 15.78125 24.519531 15.421875 C 24.445312 15.707031 24.398438 15.992188 24.398438 16.246094 L 24.414062 16.535156 C 24.445312 16.773438 24.460938 17 24.460938 17.226562 C 24.460938 17.554688 24.398438 17.828125 24.25 18.007812 C 24.144531 18.144531 23.949219 18.261719 23.707031 18.382812 C 23.226562 18.640625 22.761719 18.894531 22.277344 19.152344 C 21.949219 19.332031 21.4375 19.542969 20.953125 19.722656 C 21.453125 18.566406 22.171875 17.511719 23.0625 16.625 Z M 20.261719 22.386719 C 20.335938 22.371094 20.414062 22.355469 20.488281 22.355469 C 21 22.355469 21.511719 22.582031 21.617188 22.851562 C 21.707031 23.046875 21.722656 23.347656 21.78125 23.710938 C 21.902344 24.492188 22.277344 25.230469 22.820312 25.800781 C 23.195312 26.179688 23.558594 26.480469 23.648438 26.78125 L 23.691406 27.066406 C 23.691406 27.410156 23.511719 27.863281 23.40625 28.375 C 23.332031 28.796875 23.316406 29.171875 23.226562 29.457031 C 23.210938 29.519531 23.078125 29.714844 22.894531 29.863281 C 22.804688 29.941406 22.714844 30 22.625 30.042969 C 21.105469 28.316406 20.171875 26.058594 20.171875 23.574219 C 20.1875 23.167969 20.21875 22.761719 20.261719 22.386719 Z M 26.371094 32.679688 C 26.988281 32.285156 27.710938 32.0625 28.433594 32.0625 C 28.582031 32.0625 28.734375 32.074219 28.882812 32.089844 C 29.757812 32.195312 30.585938 32.648438 31.1875 33.292969 C 30.796875 33.339844 30.402344 33.371094 29.996094 33.371094 C 28.71875 33.386719 27.484375 33.128906 26.371094 32.679688 Z M 36.933594 30.511719 C 35.625 31.820312 33.925781 32.769531 32.042969 33.175781 C 31.304688 32.195312 30.191406 31.519531 28.972656 31.367188 C 28.792969 31.339844 28.613281 31.339844 28.433594 31.339844 C 27.410156 31.339844 26.386719 31.699219 25.589844 32.347656 C 24.6875 31.894531 23.875 31.308594 23.152344 30.617188 C 23.226562 30.554688 23.316406 30.511719 23.378906 30.449219 C 23.617188 30.242188 23.828125 30 23.933594 29.714844 C 24.070312 29.277344 24.070312 28.871094 24.144531 28.539062 C 24.21875 28.132812 24.429688 27.652344 24.445312 27.082031 C 24.445312 26.914062 24.429688 26.734375 24.371094 26.570312 C 24.144531 25.921875 23.664062 25.605469 23.363281 25.273438 C 22.925781 24.824219 22.625 24.222656 22.519531 23.589844 C 22.472656 23.304688 22.472656 22.929688 22.292969 22.535156 C 21.949219 21.84375 21.164062 21.617188 20.488281 21.605469 C 20.457031 21.605469 20.414062 21.617188 20.382812 21.617188 C 20.441406 21.289062 20.535156 20.957031 20.640625 20.640625 C 21.269531 20.445312 22.097656 20.097656 22.640625 19.8125 C 23.105469 19.558594 23.585938 19.300781 24.054688 19.0625 C 24.296875 18.925781 24.597656 18.773438 24.835938 18.488281 C 25.152344 18.097656 25.226562 17.648438 25.226562 17.226562 C 25.226562 16.953125 25.199219 16.699219 25.167969 16.457031 L 25.152344 16.246094 C 25.152344 15.976562 25.199219 15.644531 25.289062 15.359375 C 25.363281 15.105469 25.5 14.894531 25.605469 14.804688 C 26.929688 14.125 28.417969 13.75 29.996094 13.75 C 30.808594 13.75 31.609375 13.855469 32.359375 14.050781 C 32.34375 14.066406 32.34375 14.066406 32.328125 14.082031 C 32.164062 14.292969 32 14.488281 31.96875 14.832031 L 31.96875 14.878906 C 31.984375 15.316406 32.117188 15.660156 32.117188 15.855469 L 32.089844 16.023438 L 31.953125 16.140625 C 31.847656 16.1875 31.667969 16.234375 31.457031 16.261719 C 31.230469 16.292969 30.976562 16.324219 30.71875 16.441406 C 30.222656 16.667969 29.96875 17.074219 29.726562 17.40625 C 29.5 17.753906 29.289062 18.007812 29.066406 18.082031 L 28.792969 18.203125 C 28.6875 18.261719 28.523438 18.398438 28.460938 18.609375 L 28.460938 18.773438 L 28.492188 18.984375 L 28.523438 19.089844 C 28.703125 19.453125 29.035156 19.648438 29.351562 19.738281 C 29.667969 19.84375 29.984375 19.859375 30.269531 19.875 C 30.703125 19.890625 31.15625 19.902344 31.59375 19.933594 C 31.984375 19.949219 32.328125 19.980469 32.570312 20.113281 C 32.75 20.203125 32.886719 20.429688 32.871094 20.550781 L 32.855469 20.625 L 32.644531 20.835938 C 32.523438 20.898438 32.34375 20.941406 32.179688 20.972656 C 32.015625 20.988281 31.832031 21.003906 31.652344 21.003906 C 30.796875 21.003906 29.847656 20.792969 28.898438 20.792969 C 28.371094 20.792969 27.847656 20.867188 27.320312 21.078125 C 26.535156 21.421875 25.890625 22.128906 25.664062 22.988281 C 25.617188 23.199219 25.589844 23.410156 25.589844 23.621094 C 25.589844 24.296875 25.84375 24.960938 26.339844 25.441406 C 26.941406 26.027344 27.769531 26.238281 28.539062 26.238281 L 28.929688 26.238281 C 29.09375 26.238281 29.230469 26.253906 29.351562 26.269531 C 29.5625 26.3125 29.710938 26.449219 29.726562 26.554688 L 29.742188 26.824219 C 29.757812 26.960938 29.757812 27.140625 29.878906 27.335938 L 29.921875 27.398438 L 30.191406 27.667969 L 30.222656 27.816406 L 30.179688 28.164062 C 30.132812 28.417969 30.101562 28.691406 30.101562 28.960938 C 30.101562 29.171875 30.117188 29.398438 30.179688 29.609375 C 30.296875 30.121094 30.613281 30.617188 31.140625 30.871094 C 31.351562 30.976562 31.578125 31.023438 31.789062 31.007812 C 32.433594 31.007812 33.023438 30.648438 33.414062 30.164062 C 33.910156 29.535156 34.058594 28.765625 34.210938 28.105469 C 34.359375 27.425781 34.527344 26.796875 34.886719 26.34375 C 35.039062 26.148438 35.277344 25.953125 35.472656 25.636719 C 35.59375 25.441406 35.671875 25.214844 35.671875 24.960938 C 35.671875 24.777344 35.625 24.582031 35.503906 24.402344 L 35.445312 24.328125 L 35.203125 24.132812 L 35.160156 24.101562 C 34.8125 23.890625 34.511719 23.742188 34.375 23.542969 L 34.285156 23.257812 L 34.347656 23.09375 L 34.480469 23.0625 C 34.675781 23.046875 35.023438 23.214844 35.445312 23.230469 C 35.640625 23.230469 35.910156 23.167969 36.089844 22.972656 C 36.347656 22.703125 36.363281 22.371094 36.363281 22.144531 L 36.363281 21.828125 L 36.378906 21.617188 L 36.378906 21.605469 L 36.574219 21.695312 C 36.691406 21.769531 36.828125 21.875 37.023438 21.949219 C 37.203125 22.023438 37.398438 22.054688 37.582031 22.054688 C 37.835938 22.054688 38.078125 21.996094 38.289062 21.949219 C 38.589844 21.859375 38.84375 21.785156 39.039062 21.785156 L 39.144531 21.785156 L 39.523438 21.917969 C 39.613281 21.980469 39.671875 22.070312 39.71875 22.234375 C 39.777344 22.671875 39.824219 23.125 39.824219 23.574219 C 39.808594 26.285156 38.710938 28.734375 36.933594 30.511719 Z M 36.933594 30.511719 " fill-opacity="1" fill-rule="nonzero"/></g><g clip-path="url(#d630105981)"><path fill="#c3cfa2" d="M 41.660156 34.964844 C 41.28125 34.558594 40.769531 34.363281 40.273438 34.363281 C 39.808594 34.363281 39.339844 34.527344 38.980469 34.875 L 34.660156 38.878906 C 34.585938 37.882812 33.789062 37.101562 32.78125 37.101562 L 24.355469 37.101562 C 23.421875 37.101562 22.503906 37.402344 21.753906 37.960938 L 18.003906 40.699219 C 17.855469 40.804688 17.808594 41.011719 17.898438 41.179688 L 20.863281 46.746094 L 21.121094 46.941406 L 21.421875 46.882812 L 22.203125 46.292969 C 22.878906 45.785156 23.707031 45.511719 24.550781 45.511719 L 31.1875 45.511719 C 32.585938 45.511719 33.925781 44.972656 34.933594 44.007812 L 41.539062 37.671875 C 41.929688 37.296875 42.140625 36.800781 42.140625 36.289062 C 42.171875 35.792969 41.988281 35.324219 41.660156 34.964844 Z M 41.042969 37.101562 L 34.4375 43.4375 C 33.5625 44.261719 32.40625 44.730469 31.203125 44.730469 L 24.566406 44.730469 C 23.558594 44.730469 22.578125 45.0625 21.765625 45.664062 L 21.332031 45.992188 L 18.726562 41.105469 L 22.21875 38.5625 C 22.851562 38.09375 23.601562 37.855469 24.371094 37.855469 L 32.78125 37.855469 C 33.414062 37.855469 33.925781 38.367188 33.925781 38.996094 C 33.925781 39.628906 33.414062 40.140625 32.78125 40.140625 L 26.207031 40.140625 C 25.996094 40.140625 25.828125 40.304688 25.828125 40.515625 C 25.828125 40.726562 25.996094 40.894531 26.207031 40.894531 L 32.78125 40.894531 C 33.246094 40.894531 33.667969 40.699219 34 40.410156 C 34.046875 40.398438 34.089844 40.398438 34.136719 40.367188 L 39.492188 35.402344 C 39.71875 35.191406 39.988281 35.085938 40.273438 35.085938 C 40.574219 35.085938 40.890625 35.207031 41.117188 35.445312 C 41.328125 35.671875 41.433594 35.941406 41.433594 36.230469 C 41.417969 36.574219 41.296875 36.875 41.042969 37.101562 Z M 41.042969 37.101562 " fill-opacity="1" fill-rule="nonzero"/></g></svg>