<svg xmlns="http://www.w3.org/2000/svg" xmlns:xlink="http://www.w3.org/1999/xlink" width="80" zoomAndPan="magnify" viewBox="0 0 60 60" height="80" preserveAspectRatio="xMidYMid meet" version="1.0"><defs><clipPath id="9406ef5ae8"><path d="M 12.972656 16.164062 L 46.722656 16.164062 L 46.722656 43.914062 L 12.972656 43.914062 Z M 12.972656 16.164062 " clip-rule="nonzero"/></clipPath></defs><g clip-path="url(#9406ef5ae8)"><path fill="#c3cfa2" d="M 42.785156 28.785156 C 42.683594 28.746094 42.570312 28.75 42.472656 28.800781 C 41.460938 29.3125 40.347656 29.644531 39.15625 29.78125 C 37.253906 28.171875 34.546875 27.164062 31.542969 27.164062 C 30.953125 27.164062 30.378906 27.203125 29.816406 27.277344 C 30.75 26.121094 31.253906 24.773438 31.253906 23.386719 C 31.253906 22.324219 30.960938 21.3125 30.4375 20.402344 C 31.875 18.277344 34.769531 16.914062 37.882812 16.914062 C 42.507812 16.914062 46.269531 19.816406 46.269531 23.386719 C 46.269531 24.789062 45.695312 26.121094 44.609375 27.246094 C 44.511719 27.347656 44.480469 27.492188 44.523438 27.625 L 45.234375 29.78125 Z M 31.542969 42.855469 C 29.65625 42.855469 27.828125 42.433594 26.257812 41.636719 C 26.203125 41.609375 26.144531 41.59375 26.085938 41.59375 C 26.039062 41.59375 25.992188 41.605469 25.945312 41.621094 L 23.027344 42.804688 L 23.878906 40.222656 C 23.921875 40.089844 23.890625 39.945312 23.792969 39.84375 C 22.539062 38.546875 21.875 37.003906 21.875 35.382812 C 21.875 31.265625 26.214844 27.914062 31.542969 27.914062 C 34.429688 27.914062 37.023438 28.898438 38.796875 30.453125 C 38.800781 30.457031 38.808594 30.464844 38.816406 30.46875 C 40.304688 31.785156 41.207031 33.503906 41.207031 35.382812 C 41.207031 39.503906 36.871094 42.855469 31.542969 42.855469 Z M 17.523438 28.800781 C 17.425781 28.75 17.3125 28.746094 17.210938 28.785156 L 14.761719 29.78125 L 15.472656 27.625 C 15.515625 27.492188 15.484375 27.347656 15.386719 27.246094 C 14.300781 26.121094 13.726562 24.789062 13.726562 23.386719 C 13.726562 19.816406 17.488281 16.914062 22.117188 16.914062 C 26.742188 16.914062 30.503906 19.816406 30.503906 23.386719 C 30.503906 24.886719 29.820312 26.34375 28.582031 27.503906 C 26.835938 27.914062 25.277344 28.675781 24.042969 29.683594 C 23.414062 29.800781 22.765625 29.859375 22.117188 29.859375 C 20.476562 29.859375 18.890625 29.492188 17.523438 28.800781 Z M 45.304688 27.601562 C 46.425781 26.371094 47.019531 24.917969 47.019531 23.386719 C 47.019531 19.402344 42.917969 16.164062 37.882812 16.164062 C 34.59375 16.164062 31.628906 17.515625 29.996094 19.730469 C 28.402344 17.597656 25.46875 16.164062 22.117188 16.164062 C 17.078125 16.164062 12.976562 19.402344 12.976562 23.386719 C 12.976562 24.917969 13.570312 26.371094 14.691406 27.601562 L 13.792969 30.316406 C 13.75 30.453125 13.789062 30.605469 13.894531 30.707031 C 13.964844 30.773438 14.058594 30.808594 14.152344 30.808594 C 14.199219 30.808594 14.246094 30.796875 14.292969 30.78125 L 17.339844 29.546875 C 18.773438 30.242188 20.421875 30.609375 22.117188 30.609375 C 22.449219 30.609375 22.78125 30.59375 23.109375 30.566406 C 21.863281 31.917969 21.128906 33.585938 21.128906 35.382812 C 21.128906 37.132812 21.808594 38.792969 23.097656 40.199219 L 22.0625 43.339844 C 22.015625 43.480469 22.054688 43.632812 22.160156 43.730469 C 22.230469 43.796875 22.324219 43.832031 22.417969 43.832031 C 22.464844 43.832031 22.511719 43.824219 22.558594 43.804688 L 26.070312 42.382812 C 27.710938 43.179688 29.601562 43.601562 31.542969 43.601562 C 37.285156 43.601562 41.957031 39.917969 41.957031 35.382812 C 41.957031 33.527344 41.175781 31.816406 39.855469 30.4375 C 40.847656 30.265625 41.785156 29.96875 42.660156 29.546875 L 45.707031 30.78125 C 45.75 30.796875 45.796875 30.808594 45.847656 30.808594 C 45.9375 30.808594 46.03125 30.773438 46.101562 30.707031 C 46.207031 30.605469 46.246094 30.453125 46.203125 30.316406 L 45.304688 27.601562 " fill-opacity="1" fill-rule="nonzero"/></g><path fill="#c3cfa2" d="M 35.808594 35.074219 C 35.800781 35.09375 35.796875 35.113281 35.792969 35.128906 C 35.789062 35.148438 35.300781 37.285156 31.542969 39.28125 C 27.785156 37.285156 27.296875 35.148438 27.292969 35.132812 C 27.289062 35.113281 27.285156 35.09375 27.277344 35.074219 C 27.199219 34.859375 27.160156 34.632812 27.160156 34.398438 C 27.160156 33.296875 28.058594 32.398438 29.164062 32.398438 C 30.269531 32.398438 31.167969 33.296875 31.167969 34.398438 C 31.167969 34.609375 31.335938 34.773438 31.542969 34.773438 C 31.75 34.773438 31.917969 34.609375 31.917969 34.398438 C 31.917969 33.296875 32.816406 32.398438 33.921875 32.398438 C 35.027344 32.398438 35.925781 33.296875 35.925781 34.398438 C 35.925781 34.632812 35.886719 34.859375 35.808594 35.074219 Z M 33.921875 31.648438 C 32.90625 31.648438 32.019531 32.195312 31.542969 33.015625 C 31.0625 32.195312 30.175781 31.648438 29.164062 31.648438 C 27.644531 31.648438 26.410156 32.882812 26.410156 34.398438 C 26.410156 34.710938 26.460938 35.015625 26.5625 35.304688 C 26.636719 35.621094 27.308594 37.941406 31.371094 40.039062 C 31.425781 40.066406 31.484375 40.082031 31.542969 40.082031 C 31.601562 40.082031 31.660156 40.066406 31.714844 40.039062 C 35.777344 37.941406 36.449219 35.621094 36.523438 35.304688 C 36.625 35.015625 36.675781 34.710938 36.675781 34.398438 C 36.675781 32.882812 35.4375 31.648438 33.921875 31.648438 " fill-opacity="1" fill-rule="nonzero"/><path fill="#c3cfa2" d="M 23.035156 25.167969 L 23.035156 23.414062 C 23.035156 22.792969 23.539062 22.289062 24.160156 22.289062 L 25.316406 22.289062 C 25.730469 22.289062 26.0625 22.621094 26.0625 23.03125 L 26.0625 25.550781 C 26.0625 25.960938 25.730469 26.292969 25.316406 26.292969 L 24.160156 26.292969 C 23.539062 26.292969 23.035156 25.789062 23.035156 25.167969 Z M 24.835938 27.042969 L 25.316406 27.042969 C 26.140625 27.042969 26.8125 26.375 26.8125 25.550781 L 26.8125 23.03125 C 26.8125 22.207031 26.140625 21.539062 25.316406 21.539062 L 23.957031 21.539062 L 24.433594 19.824219 C 24.539062 19.445312 24.464844 19.050781 24.226562 18.734375 C 23.988281 18.421875 23.625 18.242188 23.21875 18.242188 C 22.734375 18.242188 22.289062 18.527344 22.085938 18.964844 L 21.371094 20.511719 C 21.082031 21.132812 20.449219 21.539062 19.761719 21.539062 L 17.792969 21.539062 C 17.585938 21.539062 17.417969 21.707031 17.417969 21.914062 C 17.417969 22.121094 17.585938 22.289062 17.792969 22.289062 L 19.761719 22.289062 C 20.738281 22.289062 21.636719 21.714844 22.050781 20.824219 L 22.765625 19.28125 C 22.847656 19.105469 23.023438 18.992188 23.234375 18.992188 C 23.390625 18.992188 23.535156 19.066406 23.628906 19.191406 C 23.722656 19.3125 23.753906 19.472656 23.710938 19.621094 L 23.105469 21.8125 C 23.097656 21.832031 23.09375 21.851562 23.09375 21.871094 C 22.605469 22.210938 22.285156 22.773438 22.285156 23.414062 L 22.285156 25.167969 C 22.285156 25.589844 22.425781 25.980469 22.660156 26.292969 L 17.792969 26.292969 C 17.585938 26.292969 17.417969 26.460938 17.417969 26.667969 C 17.417969 26.875 17.585938 27.042969 17.792969 27.042969 L 24.835938 27.042969 " fill-opacity="1" fill-rule="nonzero"/><path fill="#c3cfa2" d="M 34.21875 22.765625 C 33.3125 22.765625 33.3125 24.171875 34.21875 24.171875 C 35.121094 24.171875 35.125 22.765625 34.21875 22.765625 " fill-opacity="1" fill-rule="nonzero"/><path fill="#c3cfa2" d="M 38.320312 22.765625 C 37.417969 22.765625 37.414062 24.171875 38.320312 24.171875 C 39.226562 24.171875 39.226562 22.765625 38.320312 22.765625 " fill-opacity="1" fill-rule="nonzero"/><path fill="#c3cfa2" d="M 42.421875 22.765625 C 41.519531 22.765625 41.519531 24.171875 42.421875 24.171875 C 43.328125 24.171875 43.328125 22.765625 42.421875 22.765625 " fill-opacity="1" fill-rule="nonzero"/></svg>