<svg xmlns="http://www.w3.org/2000/svg" xmlns:xlink="http://www.w3.org/1999/xlink" width="80" zoomAndPan="magnify" viewBox="0 0 60 60" height="80" preserveAspectRatio="xMidYMid meet" version="1.0"><path fill="#c3cfa2" d="M 30.152344 21.703125 C 31.710938 21.703125 32.949219 20.464844 32.949219 18.910156 C 32.949219 17.351562 31.710938 16.113281 30.152344 16.113281 C 28.597656 16.113281 27.359375 17.351562 27.359375 18.910156 C 27.359375 20.464844 28.597656 21.703125 30.152344 21.703125 Z M 30.152344 16.910156 C 31.273438 16.910156 32.152344 17.789062 32.152344 18.910156 C 32.152344 20.027344 31.273438 20.90625 30.152344 20.90625 C 29.035156 20.90625 28.15625 20.027344 28.15625 18.910156 C 28.15625 17.789062 29.035156 16.910156 30.152344 16.910156 Z M 30.152344 16.910156 " fill-opacity="1" fill-rule="nonzero"/><path fill="#c3cfa2" d="M 26.160156 34.207031 L 26.160156 43.035156 C 26.121094 44.074219 26.957031 44.953125 27.996094 44.953125 C 27.996094 44.953125 28.039062 44.953125 28.039062 44.953125 C 29.035156 44.953125 29.875 44.152344 29.914062 43.113281 L 29.914062 34.207031 L 30.433594 34.207031 L 30.433594 42.996094 C 30.394531 44.03125 31.234375 44.910156 32.269531 44.910156 C 32.269531 44.910156 32.3125 44.910156 32.3125 44.910156 C 33.308594 44.910156 34.148438 44.113281 34.1875 43.074219 L 34.1875 34.167969 C 35.066406 34.046875 35.707031 33.289062 35.707031 32.410156 L 35.707031 26.898438 C 35.707031 24.582031 34.308594 22.625 32.3125 21.746094 C 32.03125 21.945312 31.710938 22.144531 31.351562 22.265625 C 33.390625 22.824219 34.90625 24.660156 34.90625 26.898438 L 34.90625 32.410156 C 34.90625 32.96875 34.46875 33.40625 33.910156 33.40625 L 33.667969 33.40625 L 33.667969 29.535156 C 33.667969 29.292969 33.507812 29.132812 33.269531 29.132812 C 33.03125 29.132812 32.871094 29.292969 32.871094 29.535156 L 32.871094 33.40625 L 27.558594 33.40625 L 27.558594 29.535156 C 27.558594 29.292969 27.398438 29.132812 27.160156 29.132812 C 26.917969 29.132812 26.757812 29.292969 26.757812 29.535156 L 26.757812 33.40625 L 26.359375 33.40625 C 25.800781 33.40625 25.359375 32.96875 25.359375 32.410156 L 25.359375 27.058594 C 25.359375 24.78125 26.878906 22.824219 28.914062 22.265625 C 28.554688 22.144531 28.277344 21.984375 27.957031 21.746094 C 25.921875 22.625 24.523438 24.742188 24.523438 27.058594 L 24.523438 32.410156 C 24.5625 33.328125 25.28125 34.085938 26.160156 34.207031 Z M 31.234375 34.246094 L 33.191406 34.246094 C 33.230469 34.246094 33.269531 34.285156 33.308594 34.285156 C 33.351562 34.285156 33.390625 34.285156 33.390625 34.285156 L 33.390625 43.113281 C 33.390625 43.714844 32.910156 44.152344 32.3125 44.152344 L 32.269531 44.152344 C 31.671875 44.152344 31.191406 43.632812 31.234375 43.035156 Z M 26.957031 34.246094 L 29.117188 34.246094 L 29.117188 43.074219 C 29.117188 43.671875 28.636719 44.113281 28.039062 44.113281 L 27.996094 44.113281 C 27.398438 44.113281 26.917969 43.59375 26.957031 42.996094 Z M 26.957031 34.246094 " fill-opacity="1" fill-rule="nonzero"/></svg>