<svg xmlns="http://www.w3.org/2000/svg" xmlns:xlink="http://www.w3.org/1999/xlink" width="80" zoomAndPan="magnify" viewBox="0 0 60 60" height="80" preserveAspectRatio="xMidYMid meet" version="1.0"><defs><clipPath id="cc06e3c45f"><path d="M 14.019531 13.902344 L 46 13.902344 L 46 46.152344 L 14.019531 46.152344 Z M 14.019531 13.902344 " clip-rule="nonzero"/></clipPath></defs><g clip-path="url(#cc06e3c45f)"><path fill="#c3cfa2" d="M 14.980469 46.046875 C 14.75 46.046875 14.523438 45.957031 14.355469 45.792969 C 14.113281 45.566406 14.019531 45.222656 14.105469 44.902344 L 16.125 37.367188 C 14.878906 35.0625 14.222656 32.464844 14.222656 29.828125 C 14.222656 21.074219 21.347656 13.953125 30.101562 13.953125 C 38.855469 13.953125 45.976562 21.074219 45.976562 29.828125 C 45.976562 38.582031 38.855469 45.707031 30.101562 45.707031 C 27.410156 45.707031 24.765625 45.023438 22.425781 43.730469 L 15.253906 46.003906 C 15.164062 46.03125 15.074219 46.046875 14.980469 46.046875 Z M 22.527344 41.835938 C 22.6875 41.835938 22.847656 41.878906 22.988281 41.960938 C 25.136719 43.222656 27.59375 43.890625 30.101562 43.890625 C 37.855469 43.890625 44.164062 37.582031 44.164062 29.828125 C 44.164062 22.074219 37.855469 15.765625 30.101562 15.765625 C 22.347656 15.765625 16.039062 22.074219 16.039062 29.828125 C 16.039062 32.277344 16.675781 34.683594 17.882812 36.796875 C 18 37.003906 18.035156 37.25 17.972656 37.480469 L 16.285156 43.773438 L 22.253906 41.878906 C 22.34375 41.851562 22.4375 41.835938 22.527344 41.835938 Z M 22.527344 41.835938 " fill-opacity="1" fill-rule="nonzero"/></g><path fill="#c3cfa2" d="M 30.101562 38.449219 C 29.601562 38.449219 29.195312 38.042969 29.195312 37.539062 L 29.195312 28.53125 C 29.195312 28.03125 29.601562 27.625 30.101562 27.625 C 30.601562 27.625 31.007812 28.03125 31.007812 28.53125 L 31.007812 37.539062 C 31.007812 38.042969 30.601562 38.449219 30.101562 38.449219 Z M 30.101562 38.449219 " fill-opacity="1" fill-rule="nonzero"/><path fill="#c3cfa2" d="M 30.101562 25.242188 C 29.082031 25.242188 28.253906 24.414062 28.253906 23.394531 C 28.253906 22.375 29.082031 21.546875 30.101562 21.546875 C 31.121094 21.546875 31.949219 22.375 31.949219 23.394531 C 31.949219 24.414062 31.121094 25.242188 30.101562 25.242188 Z M 30.101562 22.75 C 29.746094 22.75 29.453125 23.039062 29.453125 23.394531 C 29.453125 23.75 29.746094 24.039062 30.101562 24.039062 C 30.457031 24.039062 30.746094 23.75 30.746094 23.394531 C 30.746094 23.039062 30.457031 22.75 30.101562 22.75 Z M 30.101562 22.75 " fill-opacity="1" fill-rule="nonzero"/></svg>