<svg xmlns="http://www.w3.org/2000/svg" xmlns:xlink="http://www.w3.org/1999/xlink" width="80" zoomAndPan="magnify" viewBox="0 0 60 60" height="80" preserveAspectRatio="xMidYMid meet" version="1.0"><defs><clipPath id="7602d0a692"><path d="M 15.308594 37 L 34 37 L 34 43 L 15.308594 43 Z M 15.308594 37 " clip-rule="nonzero"/></clipPath><clipPath id="2469f82b92"><path d="M 18 34 L 41 34 L 41 47.113281 L 18 47.113281 Z M 18 34 " clip-rule="nonzero"/></clipPath><clipPath id="551d9117ad"><path d="M 15.308594 12.613281 L 44 12.613281 L 44 37 L 15.308594 37 Z M 15.308594 12.613281 " clip-rule="nonzero"/></clipPath><clipPath id="24f7da7c63"><path d="M 40 28 L 44.558594 28 L 44.558594 31 L 40 31 Z M 40 28 " clip-rule="nonzero"/></clipPath></defs><path fill="#c3cfa2" d="M 24.589844 38.09375 C 26.320312 34.648438 31.21875 35.476562 32.1875 38.367188 Z M 24.589844 38.09375 " fill-opacity="1" fill-rule="nonzero"/><path fill="#c3cfa2" d="M 28.402344 35.847656 C 28.265625 34.605469 29.003906 32.761719 29.605469 31.25 C 29.695312 31.015625 29.785156 30.789062 29.871094 30.566406 C 29.914062 30.453125 30.015625 30.371094 30.132812 30.347656 C 33.714844 29.667969 35.050781 28.195312 35.003906 28.246094 C 37.035156 26.046875 36.707031 24.667969 36.402344 23.3125 C 36.113281 22.039062 35.824219 20.722656 37.382812 19.035156 C 37.558594 18.847656 37.753906 18.65625 37.972656 18.460938 L 38.222656 19.078125 C 35.296875 19.210938 31.707031 21.546875 29.855469 24.199219 C 28.699219 25.855469 29.816406 28.511719 30.402344 29.855469 C 30.503906 30.09375 30.601562 30.3125 30.640625 30.445312 C 30.691406 30.636719 30.582031 30.828125 30.394531 30.882812 C 30.207031 30.9375 30.011719 30.828125 29.960938 30.640625 C 29.9375 30.5625 29.871094 30.402344 29.753906 30.136719 C 29.230469 28.929688 27.847656 25.839844 29.277344 23.796875 C 31.21875 21.015625 34.992188 18.515625 38.191406 18.371094 C 38.339844 18.363281 38.480469 18.453125 38.535156 18.589844 C 38.589844 18.730469 38.554688 18.886719 38.441406 18.988281 C 38.238281 19.171875 38.058594 19.347656 37.902344 19.515625 C 36.585938 20.9375 36.816406 21.949219 37.089844 23.15625 C 37.421875 24.632812 37.773438 26.289062 35.523438 28.722656 C 35.476562 28.773438 34.011719 30.328125 30.265625 31.042969 L 30.53125 30.824219 C 30.441406 31.046875 30.351562 31.277344 30.261719 31.507812 C 29.628906 33.105469 28.992188 34.746094 29.105469 35.769531 C 29.128906 35.964844 28.988281 36.140625 28.792969 36.160156 C 28.601562 36.183594 28.425781 36.042969 28.402344 35.847656 Z M 28.402344 35.847656 " fill-opacity="1" fill-rule="nonzero"/><g clip-path="url(#7602d0a692)"><path fill="#c3cfa2" d="M 15.859375 41.703125 L 20.132812 38.554688 C 20.164062 38.53125 20.195312 38.515625 20.226562 38.503906 C 22.304688 37.824219 24.660156 37.832031 27.277344 37.839844 C 27.636719 37.839844 27.992188 37.839844 28.359375 37.839844 C 31.753906 37.832031 33.113281 38.816406 33.160156 39.601562 C 33.164062 39.617188 33.164062 39.628906 33.164062 39.644531 C 33.164062 39.832031 33.074219 40.035156 32.859375 40.128906 C 32.089844 40.460938 30.679688 40.875 28.585938 41.261719 C 28.40625 41.292969 28.234375 41.175781 28.199219 40.996094 C 28.167969 40.8125 28.285156 40.640625 28.46875 40.609375 C 30.539062 40.226562 31.894531 39.824219 32.597656 39.519531 C 32.511719 39.554688 32.5 39.632812 32.5 39.644531 C 32.492188 39.53125 31.863281 38.496094 28.363281 38.503906 C 27.992188 38.503906 27.632812 38.503906 27.277344 38.503906 C 24.628906 38.496094 22.390625 38.496094 20.433594 39.136719 L 20.527344 39.089844 L 16.253906 42.238281 C 16.105469 42.34375 15.898438 42.3125 15.789062 42.164062 C 15.679688 42.019531 15.710938 41.8125 15.859375 41.703125 Z M 15.859375 41.703125 " fill-opacity="1" fill-rule="nonzero"/></g><g clip-path="url(#2469f82b92)"><path fill="#c3cfa2" d="M 19.066406 46.761719 C 20.140625 45.71875 23.328125 43.828125 23.796875 43.675781 C 23.8125 43.671875 23.835938 43.664062 23.859375 43.660156 C 23.898438 43.652344 23.929688 43.648438 23.953125 43.648438 C 24.152344 43.648438 24.644531 43.757812 25.195312 43.875 C 26.597656 44.175781 28.667969 44.609375 29.625 44.425781 C 29.726562 44.40625 29.800781 44.382812 29.855469 44.355469 C 37.152344 40.875 39.585938 38.8125 39.644531 38.308594 C 39.644531 38.308594 39.644531 38.308594 39.644531 38.3125 C 39.644531 38.296875 39.5 38.03125 38.667969 38.058594 C 38.113281 38.078125 37.425781 38.242188 36.773438 38.589844 C 34.007812 40.074219 32.035156 40.441406 32.011719 40.445312 C 31.835938 40.476562 31.664062 40.371094 31.617188 40.199219 C 31.570312 40.027344 31.664062 39.847656 31.828125 39.785156 C 35.554688 38.398438 39.015625 36.328125 38.734375 35.582031 C 38.734375 35.582031 38.734375 35.578125 38.734375 35.578125 C 38.648438 35.371094 38.492188 35.25 37.875 35.503906 C 37.308594 35.734375 36.585938 36.203125 35.746094 36.753906 C 34.742188 37.410156 33.59375 38.160156 32.46875 38.621094 C 32.257812 38.707031 32.042969 38.785156 31.828125 38.847656 C 31.660156 38.898438 31.480469 38.816406 31.414062 38.652344 C 31.347656 38.492188 31.410156 38.304688 31.566406 38.222656 C 34.214844 36.773438 35.210938 35.703125 35.132812 35.4375 C 35.132812 35.4375 35.136719 35.4375 35.136719 35.4375 C 35.136719 35.441406 35.132812 35.433594 35.113281 35.421875 C 34.476562 34.960938 32.445312 36.421875 30.890625 37.613281 C 30.765625 37.707031 30.652344 37.796875 30.542969 37.875 C 30.394531 37.992188 30.179688 37.960938 30.066406 37.808594 C 29.949219 37.660156 29.980469 37.445312 30.132812 37.328125 C 30.234375 37.25 30.351562 37.164062 30.472656 37.070312 C 31.675781 36.148438 34.34375 34.015625 35.515625 34.867188 C 35.601562 34.925781 35.671875 35 35.726562 35.09375 C 35.730469 35.101562 35.734375 35.105469 35.734375 35.109375 C 35.761719 35.15625 35.78125 35.203125 35.792969 35.253906 C 36.054688 36.179688 34.226562 37.546875 31.894531 38.820312 L 31.628906 38.195312 C 31.820312 38.136719 32.015625 38.066406 32.210938 37.984375 C 33.261719 37.554688 34.351562 36.84375 35.371094 36.179688 C 36.1875 35.644531 36.976562 35.128906 37.617188 34.867188 C 38.261719 34.605469 39.035156 34.507812 39.367188 35.316406 C 39.371094 35.324219 39.375 35.335938 39.378906 35.34375 C 39.964844 36.914062 35.265625 39.238281 32.070312 40.429688 L 31.886719 39.769531 C 31.859375 39.777344 33.761719 39.429688 36.449219 37.988281 C 37.195312 37.585938 37.984375 37.394531 38.644531 37.375 C 39.335938 37.351562 40.304688 37.53125 40.332031 38.292969 C 40.332031 38.324219 40.332031 38.355469 40.328125 38.386719 C 40.210938 39.371094 37.214844 41.601562 30.152344 44.972656 C 30.027344 45.03125 29.894531 45.070312 29.753906 45.097656 C 28.621094 45.316406 26.375 44.828125 25.050781 44.542969 C 24.4375 44.414062 24.058594 44.335938 23.957031 44.335938 C 23.957031 44.335938 23.96875 44.335938 23.988281 44.332031 C 24 44.328125 24.007812 44.328125 24.007812 44.328125 C 23.65625 44.441406 20.554688 46.269531 19.542969 47.253906 C 19.40625 47.382812 19.1875 47.378906 19.058594 47.246094 C 18.925781 47.109375 18.929688 46.890625 19.066406 46.761719 Z M 19.066406 46.761719 " fill-opacity="1" fill-rule="nonzero"/></g><path fill="#c3cfa2" d="M 29.007812 32.730469 C 28.957031 31.449219 28.210938 27.828125 27.085938 27.148438 C 26.953125 27.066406 26.894531 26.90625 26.941406 26.757812 C 27.65625 24.464844 26.785156 23.355469 26.789062 23.359375 C 26.789062 23.359375 26.789062 23.363281 26.789062 23.363281 L 27.054688 23.148438 L 26.789062 23.363281 C 25.902344 22.257812 24.722656 21.820312 23.457031 21.359375 C 22.664062 21.070312 21.832031 20.769531 21.089844 20.269531 L 21.617188 20.035156 C 21.367188 21.867188 22.550781 26.230469 25.605469 26.648438 C 26.066406 26.710938 26.578125 26.6875 27.144531 26.554688 C 27.328125 26.511719 27.511719 26.621094 27.554688 26.804688 C 27.597656 26.988281 27.484375 27.171875 27.304688 27.214844 C 26.660156 27.367188 26.066406 27.394531 25.515625 27.320312 C 21.847656 26.820312 20.683594 21.851562 20.941406 19.941406 C 20.960938 19.824219 21.035156 19.726562 21.140625 19.679688 C 21.246094 19.628906 21.371094 19.640625 21.46875 19.707031 C 22.128906 20.152344 22.882812 20.429688 23.691406 20.722656 C 24.933594 21.175781 26.296875 21.664062 27.320312 22.9375 L 27.054688 23.148438 L 27.320312 22.9375 C 27.324219 22.941406 27.320312 22.941406 27.324219 22.945312 C 27.425781 23.074219 28.382812 24.414062 27.585938 26.960938 L 27.4375 26.566406 C 28.921875 27.46875 29.636719 31.507812 29.6875 32.703125 C 29.695312 32.890625 29.546875 33.046875 29.363281 33.054688 C 29.175781 33.0625 29.015625 32.917969 29.007812 32.730469 Z M 29.007812 32.730469 " fill-opacity="1" fill-rule="nonzero"/><path fill="#c3cfa2" d="M 28.914062 33.238281 C 28.496094 31.570312 27.777344 29.363281 26.65625 29.644531 C 26.640625 29.648438 26.625 29.652344 26.605469 29.65625 C 26.152344 29.796875 26.199219 30.023438 26.207031 29.910156 C 26.207031 29.933594 26.203125 29.960938 26.195312 29.984375 C 24.777344 34.726562 20.367188 33.445312 20.328125 33.433594 L 20.324219 33.433594 C 20.324219 33.433594 20.328125 33.433594 20.328125 33.433594 C 20.203125 33.398438 20.109375 33.292969 20.085938 33.164062 C 20.0625 33.035156 20.117188 32.902344 20.222656 32.828125 C 21.113281 32.191406 21.199219 31.691406 21.292969 31.195312 C 21.378906 30.726562 21.480469 30.199219 22.15625 29.71875 C 22.175781 29.703125 22.195312 29.691406 22.214844 29.675781 C 23.761719 28.628906 25.546875 28.890625 26.09375 29.703125 C 26.113281 29.730469 26.132812 29.761719 26.152344 29.792969 C 26.238281 29.960938 26.175781 30.167969 26.007812 30.253906 C 25.839844 30.34375 25.636719 30.277344 25.546875 30.113281 C 25.542969 30.101562 25.535156 30.09375 25.53125 30.082031 C 25.28125 29.71875 23.988281 29.300781 22.597656 30.242188 C 22.582031 30.25 22.566406 30.261719 22.550781 30.273438 C 22.101562 30.59375 22.042969 30.890625 21.960938 31.324219 C 21.851562 31.914062 21.707031 32.609375 20.621094 33.382812 L 20.515625 32.777344 C 20.519531 32.777344 20.519531 32.777344 20.519531 32.777344 C 20.597656 32.800781 24.320312 33.875 25.539062 29.789062 L 25.527344 29.863281 C 25.535156 29.75 25.632812 29.242188 26.40625 29.003906 C 26.433594 28.996094 26.460938 28.988281 26.492188 28.980469 C 28.445312 28.492188 29.277344 31.878906 29.574219 33.074219 C 29.621094 33.257812 29.507812 33.441406 29.324219 33.488281 C 29.144531 33.53125 28.957031 33.421875 28.914062 33.238281 Z M 28.914062 33.238281 " fill-opacity="1" fill-rule="nonzero"/><path fill="#c3cfa2" d="M 31.441406 27.417969 C 31.621094 27.09375 31.894531 26.441406 32.214844 25.8125 C 32.535156 25.183594 32.832031 24.527344 33.15625 23.839844 C 33.480469 23.15625 33.867188 22.445312 34.238281 21.945312 C 34.613281 21.441406 34.613281 21.441406 34.34375 21.761719 C 34.34375 21.761719 33.738281 22.339844 33.179688 22.933594 C 32.617188 23.523438 32.152344 24.160156 31.851562 24.859375 C 31.550781 25.5625 31.390625 26.292969 31.402344 26.671875 C 31.347656 27.398438 31.507812 27.066406 31.441406 27.417969 Z M 31.441406 27.417969 " fill-opacity="1" fill-rule="nonzero"/><path fill="#c3cfa2" d="M 31.960938 25.691406 C 32.003906 25.664062 32.089844 25.601562 32.191406 25.539062 C 32.292969 25.476562 32.410156 25.414062 32.542969 25.355469 C 32.675781 25.292969 32.828125 25.234375 32.984375 25.179688 C 33.144531 25.121094 33.253906 24.957031 33.40625 24.867188 C 33.558594 24.777344 33.71875 24.6875 33.890625 24.597656 C 34.0625 24.511719 34.25 24.449219 34.398438 24.410156 C 34.546875 24.375 34.546875 24.375 34.449219 24.398438 C 34.449219 24.398438 34.25 24.449219 34.054688 24.480469 C 33.863281 24.511719 33.671875 24.542969 33.484375 24.582031 C 33.300781 24.621094 33.121094 24.667969 32.945312 24.707031 C 32.765625 24.75 32.617188 24.859375 32.484375 24.964844 C 32.351562 25.070312 32.238281 25.175781 32.144531 25.277344 C 32.050781 25.382812 31.972656 25.480469 31.945312 25.539062 C 31.886719 25.632812 31.992188 25.652344 31.960938 25.691406 Z M 31.960938 25.691406 " fill-opacity="1" fill-rule="nonzero"/><path fill="#c3cfa2" d="M 25.765625 24.871094 C 25.726562 24.824219 25.636719 24.746094 25.550781 24.664062 C 25.460938 24.582031 25.371094 24.492188 25.28125 24.398438 C 25.191406 24.304688 25.101562 24.207031 25.039062 24.140625 C 24.976562 24.070312 24.914062 24 24.792969 23.855469 C 24.675781 23.710938 24.417969 23.589844 24.121094 23.386719 C 23.828125 23.179688 23.460938 22.929688 23.183594 22.679688 C 22.90625 22.433594 22.90625 22.433594 23.082031 22.605469 C 23.082031 22.605469 23.421875 22.96875 23.675781 23.300781 C 23.929688 23.628906 24.132812 23.890625 24.292969 24.082031 C 24.449219 24.269531 24.582031 24.363281 24.652344 24.410156 C 24.71875 24.453125 24.835938 24.527344 24.957031 24.597656 C 25.078125 24.667969 25.195312 24.730469 25.3125 24.789062 C 25.429688 24.84375 25.546875 24.894531 25.605469 24.910156 C 25.71875 24.953125 25.71875 24.839844 25.765625 24.871094 Z M 25.765625 24.871094 " fill-opacity="1" fill-rule="nonzero"/><path fill="#c3cfa2" d="M 24.1875 30.402344 C 24.125 30.40625 23.988281 30.453125 23.824219 30.542969 C 23.660156 30.632812 23.464844 30.761719 23.3125 31 C 23.164062 31.242188 22.984375 31.515625 22.8125 31.71875 C 22.640625 31.917969 22.640625 31.917969 22.753906 31.785156 C 22.753906 31.785156 22.992188 31.523438 23.238281 31.335938 C 23.480469 31.144531 23.710938 31.023438 23.84375 30.867188 C 23.972656 30.710938 24.082031 30.601562 24.125 30.558594 C 24.21875 30.492188 24.136719 30.417969 24.1875 30.402344 Z M 24.1875 30.402344 " fill-opacity="1" fill-rule="nonzero"/><g clip-path="url(#551d9117ad)"><path fill="#c3cfa2" d="M 19.140625 36.164062 L 18.375 35.28125 C 18.367188 35.273438 18.359375 35.265625 18.355469 35.257812 L 17.664062 34.316406 C 17.660156 34.308594 17.652344 34.296875 17.648438 34.289062 L 17.042969 33.292969 C 17.035156 33.28125 17.03125 33.273438 17.027344 33.265625 L 16.507812 32.21875 C 16.503906 32.207031 16.5 32.199219 16.496094 32.1875 L 16.070312 31.101562 C 16.066406 31.089844 16.0625 31.082031 16.058594 31.070312 L 15.730469 29.953125 C 15.726562 29.941406 15.722656 29.933594 15.722656 29.921875 L 15.488281 28.777344 C 15.484375 28.765625 15.484375 28.757812 15.484375 28.746094 L 15.347656 27.585938 C 15.347656 27.574219 15.347656 27.566406 15.347656 27.554688 L 15.3125 26.386719 C 15.3125 26.378906 15.3125 26.367188 15.3125 26.355469 L 15.378906 25.191406 C 15.378906 25.179688 15.378906 25.167969 15.382812 25.160156 L 15.546875 24.003906 C 15.546875 23.992188 15.550781 23.984375 15.554688 23.972656 L 15.816406 22.835938 C 15.820312 22.824219 15.824219 22.816406 15.824219 22.804688 L 16.1875 21.695312 C 16.191406 21.683594 16.195312 21.675781 16.199219 21.664062 L 16.65625 20.589844 C 16.660156 20.582031 16.664062 20.570312 16.667969 20.5625 L 17.214844 19.53125 C 17.21875 19.519531 17.222656 19.511719 17.230469 19.503906 L 17.863281 18.519531 C 17.867188 18.511719 17.875 18.503906 17.878906 18.496094 L 18.597656 17.574219 C 18.601562 17.5625 18.609375 17.554688 18.617188 17.546875 L 19.40625 16.691406 C 19.414062 16.683594 19.421875 16.675781 19.429688 16.667969 L 20.292969 15.878906 C 20.300781 15.875 20.308594 15.867188 20.316406 15.859375 L 21.242188 15.148438 C 21.25 15.144531 21.261719 15.136719 21.269531 15.132812 L 22.253906 14.503906 C 22.261719 14.5 22.269531 14.492188 22.28125 14.488281 L 23.316406 13.949219 C 23.324219 13.941406 23.332031 13.9375 23.34375 13.933594 L 24.421875 13.484375 C 24.429688 13.480469 24.441406 13.476562 24.449219 13.472656 L 25.5625 13.117188 C 25.574219 13.113281 25.582031 13.109375 25.59375 13.109375 L 26.71875 12.851562 C 26.730469 12.851562 26.738281 12.847656 26.75 12.847656 L 27.894531 12.6875 C 27.90625 12.683594 27.914062 12.683594 27.925781 12.683594 L 29.078125 12.621094 C 29.089844 12.621094 29.097656 12.621094 29.109375 12.621094 L 30.265625 12.65625 C 30.273438 12.65625 30.285156 12.65625 30.296875 12.660156 L 31.441406 12.792969 C 31.453125 12.792969 31.464844 12.796875 31.472656 12.796875 L 32.605469 13.027344 C 32.617188 13.03125 32.625 13.035156 32.636719 13.035156 L 33.746094 13.363281 C 33.753906 13.367188 33.761719 13.371094 33.773438 13.375 L 34.851562 13.792969 C 34.859375 13.796875 34.867188 13.800781 34.878906 13.804688 L 35.914062 14.316406 C 35.925781 14.320312 35.933594 14.324219 35.941406 14.328125 L 36.933594 14.925781 C 36.941406 14.929688 36.949219 14.9375 36.957031 14.941406 L 37.894531 15.621094 C 37.902344 15.625 37.910156 15.632812 37.917969 15.640625 L 38.792969 16.394531 C 38.800781 16.402344 38.808594 16.410156 38.816406 16.417969 L 39.621094 17.242188 C 39.628906 17.25 39.636719 17.257812 39.644531 17.265625 L 40.378906 18.160156 C 40.382812 18.167969 40.390625 18.175781 40.394531 18.183594 L 41.050781 19.132812 C 41.058594 19.144531 41.0625 19.152344 41.066406 19.160156 L 41.640625 20.164062 C 41.644531 20.171875 41.648438 20.183594 41.652344 20.191406 L 42.140625 21.242188 C 42.144531 21.25 42.148438 21.257812 42.152344 21.269531 L 42.546875 22.355469 C 42.546875 22.363281 42.550781 22.375 42.554688 22.386719 L 42.855469 23.5 C 42.855469 23.511719 42.859375 23.519531 42.859375 23.53125 L 43.066406 24.667969 C 43.066406 24.679688 43.070312 24.6875 43.070312 24.699219 L 43.175781 25.847656 C 43.175781 25.859375 43.179688 25.871094 43.179688 25.878906 L 43.1875 27.035156 C 43.1875 27.046875 43.1875 27.054688 43.1875 27.066406 L 43.097656 28.21875 C 43.09375 28.230469 43.09375 28.238281 43.09375 28.25 L 42.90625 29.390625 C 42.871094 29.585938 42.6875 29.71875 42.492188 29.6875 C 42.296875 29.652344 42.164062 29.46875 42.195312 29.273438 L 42.382812 28.132812 L 42.378906 28.164062 L 42.46875 27.011719 L 42.46875 27.042969 L 42.460938 25.886719 L 42.460938 25.914062 L 42.355469 24.765625 L 42.359375 24.796875 L 42.15625 23.65625 L 42.160156 23.6875 L 41.859375 22.570312 L 41.871094 22.601562 L 41.476562 21.515625 L 41.488281 21.542969 L 41.003906 20.492188 L 41.015625 20.519531 L 40.445312 19.515625 L 40.460938 19.542969 L 39.804688 18.589844 L 39.824219 18.613281 L 39.089844 17.722656 L 39.109375 17.746094 L 38.300781 16.917969 L 38.324219 16.9375 L 37.449219 16.183594 L 37.472656 16.203125 L 36.535156 15.523438 L 36.5625 15.542969 L 35.570312 14.945312 L 35.597656 14.960938 L 34.5625 14.449219 L 34.589844 14.460938 L 33.511719 14.042969 L 33.542969 14.050781 L 32.433594 13.726562 L 32.460938 13.734375 L 31.328125 13.5 L 31.359375 13.507812 L 30.210938 13.371094 L 30.242188 13.375 L 29.085938 13.339844 L 29.117188 13.339844 L 27.964844 13.402344 L 27.992188 13.398438 L 26.847656 13.558594 L 26.878906 13.550781 L 25.753906 13.808594 L 25.78125 13.800781 L 24.667969 14.15625 L 24.699219 14.144531 L 23.621094 14.597656 L 23.648438 14.582031 L 22.613281 15.125 L 22.640625 15.109375 L 21.65625 15.738281 L 21.679688 15.71875 L 20.753906 16.429688 L 20.777344 16.410156 L 19.914062 17.199219 L 19.9375 17.175781 L 19.144531 18.035156 L 19.164062 18.011719 L 18.449219 18.9375 L 18.464844 18.910156 L 17.832031 19.890625 L 17.847656 19.867188 L 17.300781 20.898438 L 17.316406 20.871094 L 16.859375 21.945312 L 16.871094 21.917969 L 16.507812 23.027344 L 16.515625 22.996094 L 16.253906 24.136719 L 16.257812 24.105469 L 16.09375 25.261719 L 16.09375 25.230469 L 16.027344 26.398438 L 16.03125 26.367188 L 16.0625 27.535156 L 16.0625 27.503906 L 16.195312 28.664062 L 16.191406 28.632812 L 16.425781 29.777344 L 16.417969 29.746094 L 16.75 30.867188 L 16.738281 30.839844 L 17.164062 31.925781 L 17.152344 31.898438 L 17.671875 32.945312 L 17.65625 32.917969 L 18.261719 33.917969 L 18.246094 33.890625 L 18.933594 34.835938 L 18.914062 34.808594 L 19.683594 35.691406 C 19.8125 35.839844 19.796875 36.066406 19.648438 36.195312 C 19.5 36.328125 19.273438 36.3125 19.140625 36.164062 Z M 19.140625 36.164062 " fill-opacity="1" fill-rule="nonzero"/></g><g clip-path="url(#24f7da7c63)"><path fill="#c3cfa2" d="M 41.402344 28.273438 C 41.554688 28.554688 42.464844 29.574219 42.660156 29.699219 C 42.664062 29.703125 42.648438 29.691406 42.609375 29.679688 C 42.519531 29.652344 42.457031 29.675781 42.476562 29.671875 C 42.71875 29.605469 43.832031 28.863281 43.988281 28.6875 C 43.996094 28.683594 43.976562 28.703125 43.957031 28.738281 C 44.042969 28.5625 44.257812 28.488281 44.4375 28.574219 C 44.617188 28.660156 44.691406 28.875 44.601562 29.054688 C 44.578125 29.109375 44.542969 29.148438 44.523438 29.167969 C 44.296875 29.421875 43.066406 30.257812 42.660156 30.363281 C 42.625 30.375 42.519531 30.402344 42.402344 30.367188 C 42.34375 30.347656 42.300781 30.320312 42.273438 30.304688 C 41.953125 30.101562 40.96875 28.980469 40.769531 28.617188 C 40.675781 28.441406 40.738281 28.222656 40.914062 28.128906 C 41.089844 28.035156 41.304688 28.097656 41.402344 28.273438 Z M 41.402344 28.273438 " fill-opacity="1" fill-rule="nonzero"/></g></svg>