<svg xmlns="http://www.w3.org/2000/svg" xmlns:xlink="http://www.w3.org/1999/xlink" width="80" zoomAndPan="magnify" viewBox="0 0 60 60" height="80" preserveAspectRatio="xMidYMid meet" version="1.0"><defs><clipPath id="ef2eab3809"><path d="M 20.804688 19 L 39 19 L 39 46.46875 L 20.804688 46.46875 Z M 20.804688 19 " clip-rule="nonzero"/></clipPath><clipPath id="c967e9242e"><path d="M 29 13.46875 L 36 13.46875 L 36 20 L 29 20 Z M 29 13.46875 " clip-rule="nonzero"/></clipPath></defs><g clip-path="url(#ef2eab3809)"><path fill="#c3cfa2" d="M 23.097656 46.527344 C 22.929688 46.527344 22.753906 46.503906 22.578125 46.453125 C 21.976562 46.289062 21.464844 45.851562 21.203125 45.289062 C 20.96875 44.78125 20.964844 44.226562 21.195312 43.734375 L 21.214844 43.699219 L 24.71875 37.886719 L 26.246094 32.324219 C 26.296875 32.019531 26.101562 31.398438 26.027344 31.207031 L 26.015625 31.167969 C 25.71875 30.039062 25.875 29.300781 25.914062 29.152344 L 26.648438 24.933594 L 25.246094 26.152344 L 24.335938 30.023438 C 24.148438 31.101562 23.5 31.761719 22.609375 31.769531 C 22.121094 31.769531 21.660156 31.5625 21.332031 31.203125 C 21.015625 30.855469 20.859375 30.402344 20.902344 29.964844 L 20.910156 29.910156 L 22.113281 24.960938 C 22.277344 23.882812 22.910156 23.480469 22.984375 23.4375 L 28.011719 19.847656 C 28.632812 19.605469 29.261719 19.484375 29.875 19.484375 C 31.902344 19.484375 33.136719 20.777344 33.1875 20.832031 L 33.25 20.917969 L 35.628906 25.671875 L 38.335938 27.746094 C 39.082031 28.550781 39.109375 29.65625 38.402344 30.316406 C 38.175781 30.527344 37.871094 30.640625 37.519531 30.640625 C 37 30.640625 36.394531 30.378906 36 29.988281 L 33.664062 28.207031 C 33.339844 27.992188 32.890625 27.257812 32.519531 26.574219 L 31.96875 30.175781 C 31.882812 30.589844 32.066406 30.84375 32.066406 30.847656 L 32.089844 30.882812 L 35.859375 36.917969 L 35.871094 36.992188 L 36.910156 43.84375 C 37.179688 45.082031 36.621094 46.121094 35.515625 46.40625 C 35.347656 46.453125 35.171875 46.476562 35 46.476562 C 34.082031 46.476562 33.3125 45.855469 33.082031 44.929688 L 32.160156 38.910156 L 30.117188 35.503906 L 28.59375 39.738281 L 25.136719 45 C 24.753906 45.648438 24.121094 46.527344 23.097656 46.527344 Z M 21.855469 44.058594 C 21.726562 44.351562 21.730469 44.675781 21.871094 44.980469 C 22.042969 45.351562 22.378906 45.636719 22.773438 45.746094 C 23.425781 45.929688 23.9375 45.585938 24.511719 44.613281 L 27.953125 39.371094 L 29.949219 33.796875 L 32.867188 38.65625 L 33.800781 44.785156 C 33.964844 45.449219 34.640625 45.875 35.332031 45.695312 C 36.050781 45.511719 36.378906 44.851562 36.1875 43.976562 L 35.15625 37.175781 L 31.476562 31.285156 C 31.394531 31.171875 31.105469 30.714844 31.246094 30.046875 L 32.148438 24.160156 L 32.660156 25.230469 C 33.152344 26.253906 33.832031 27.445312 34.0625 27.59375 L 34.09375 27.613281 L 36.507812 29.457031 C 36.761719 29.71875 37.1875 29.90625 37.519531 29.90625 C 37.683594 29.90625 37.8125 29.863281 37.902344 29.78125 C 38.304688 29.402344 38.265625 28.769531 37.816406 28.269531 L 35.046875 26.152344 L 32.617188 21.300781 C 32.425781 21.117188 31.40625 20.222656 29.875 20.222656 C 29.363281 20.222656 28.839844 20.320312 28.316406 20.515625 L 23.382812 24.054688 C 23.34375 24.078125 22.949219 24.339844 22.832031 25.101562 L 21.632812 30.058594 C 21.617188 30.285156 21.703125 30.519531 21.875 30.707031 C 22.0625 30.914062 22.328125 31.035156 22.597656 31.035156 C 23.308594 31.03125 23.542969 30.308594 23.617188 29.878906 L 24.582031 25.753906 L 27.726562 23.027344 L 26.625 29.339844 C 26.621094 29.34375 26.457031 29.949219 26.71875 30.960938 C 26.78125 31.125 27.0625 31.917969 26.960938 32.484375 L 25.375 38.222656 Z M 21.855469 44.058594 " fill-opacity="1" fill-rule="nonzero"/></g><g clip-path="url(#c967e9242e)"><path fill="#c3cfa2" d="M 32.167969 19.609375 C 30.722656 19.609375 29.480469 18.542969 29.210938 17.074219 C 28.90625 15.410156 29.96875 13.8125 31.582031 13.515625 C 31.753906 13.484375 31.929688 13.46875 32.105469 13.46875 C 33.550781 13.46875 34.792969 14.535156 35.0625 16.003906 C 35.371094 17.671875 34.304688 19.269531 32.691406 19.5625 C 32.519531 19.59375 32.34375 19.609375 32.167969 19.609375 Z M 32.105469 14.203125 C 31.976562 14.203125 31.84375 14.214844 31.714844 14.238281 C 30.5 14.460938 29.699219 15.675781 29.933594 16.945312 C 30.136719 18.0625 31.078125 18.875 32.167969 18.875 C 32.296875 18.875 32.429688 18.863281 32.558594 18.839844 C 33.773438 18.617188 34.574219 17.40625 34.339844 16.136719 C 34.136719 15.015625 33.195312 14.203125 32.105469 14.203125 Z M 32.105469 14.203125 " fill-opacity="1" fill-rule="nonzero"/></g></svg>